<?xml version="1.0" encoding="utf-8"?>
<!-- Generator: Adobe Illustrator 19.2.1, SVG Export Plug-In . SVG Version: 6.00 Build 0)  -->
<svg version="1.1" id="landmarks" xmlns="http://www.w3.org/2000/svg" xmlns:xlink="http://www.w3.org/1999/xlink" x="0px" y="0px"
	 viewBox="0 0 929.4 672" style="enable-background:new 0 0 929.4 672;" xml:space="preserve">
<style type="text/css">
	.st0{fill:#DDDDDD;stroke:#FFFFFF;}
	.st1{fill:#DDDDDD;}
	.st2{fill:none;stroke:#FFFFFF;}
	.st3{fill:none;stroke:#FFFFFF;stroke-miterlimit:10;}
	.st4{fill:none;}
	.st5{fill:none;stroke:#231F20;}
	.st6{fill:none;stroke:#B1B3B3;stroke-width:2;}
	.st7{clip-path:url(#SVGID_2_);}
	.st8{fill:#888B8D;}
	.st9{fill:none;stroke:#B1B3B3;stroke-width:2;stroke-miterlimit:10;}
</style>
<title>usa</title>
<path id="ar" class="st0" d="M593.8,335.9l-4,0.7l-5.1-0.6l0.4-1.6l3-2.6l0.9-3.7l-1.8-3l-78.4,2.5l1.6,6.9v8.2l1.4,11l0.2,37.8
	l2.3,1.9l3-1.4l2.7,1.1l0.7,6.6l55.6-1.1l1.2-2.1l-0.3-3.5l-1.8-3l1.6-1.5l-1.6-2.5l0.7-2.5l1.4-5.6l2.5-2.1l-0.7-2.3l3.7-5.4
	l2.7-1.4l-0.1-1.5l-0.3-1.8l2.9-5.6l2.4-1.3l0,0l-6,0.3l2-5.2l-1.5-3.6l4-2l0.3-2.9l1.3-4.4L593.8,335.9L593.8,335.9L593.8,335.9z"
	/>
<g id="hi">
	<path class="st1" d="M233.1,519.2l1.9-3.6l2.3-0.3l0.3,0.8l-2.1,3.1H233.1z M243.3,515.5l6.1,2.6l2.1-0.3l1.6-3.9l-0.6-3.4
		l-4.2-0.5l-4,1.8L243.3,515.5L243.3,515.5L243.3,515.5z M274,525.5l3.7,5.5l2.4-0.3l1.1-0.5l1.5,1.3l3.7-0.2l1-1.5l-2.9-1.8
		l-1.9-3.7l-2.1-3.6l-5.8,2.9L274,525.5L274,525.5L274,525.5z M294.2,534.4l1.3-1.9l4.7,1l0.6-0.5l6.1,0.7l-0.3,1.3l-2.6,1.5
		l-4.4-0.3L294.2,534.4L294.2,534.4L294.2,534.4z M299.5,539.6l1.9,3.9l3.1-1.1l0.3-1.6l-1.6-2.1l-3.7-0.3L299.5,539.6L299.5,539.6
		L299.5,539.6z M306.5,538.4l2.3-2.9l4.7,2.4l4.4,1.1l4.4,2.8v1.9l-3.6,1.8l-4.9,1l-2.4-1.5L306.5,538.4L306.5,538.4z M323.1,554
		l1.6-1.3l3.4,1.6l7.6,3.6l3.4,2.1l1.6,2.4l1.9,4.4l4,2.6l-0.3,1.3l-3.9,3.2l-4.2,1.5l-1.5-0.7l-3.1,1.8l-2.4,3.2l-2.3,2.9l-1.8-0.2
		l-3.6-2.6l-0.3-4.5l0.6-2.4l-1.6-5.7l-2.1-1.8l-0.2-2.6l2.3-1l2.1-3.1l0.5-1l-1.6-1.8L323.1,554L323.1,554z"/>
</g>
<g id="ak">
	<path class="st1" d="M158.1,453.6l-0.3,85.4l1.6,1l3.1,0.2l1.4-1.1h2.6l0.2,2.9l6.9,6.8l0.5,2.6l3.4-1.9l0.6-0.2l0.3-3.1l1.4-1.6
		l1.1-0.2l1.9-1.5l3.1,2.1l0.6,2.9l1.9,1.1l1.1,2.4l3.9,1.8l3.4,6l2.8,3.9l2.3,2.8l1.4,3.7l5,1.8l5.2,2.1l1,4.4l0.5,3.1l-1,3.4
		l-1.8,2.3l-1.6-0.8l-1.4-3.1l-2.8-1.5l-1.8-1.1l-0.8,0.8l1.4,2.8l0.2,3.7l-1.1,0.5l-1.9-1.9l-2.1-1.3l0.5,1.6l1.3,1.8l-0.8,0.8
		l-1.3-1l-2.1-3.4l-1-2.3l-1,1l-1.3-1.5l1.8-1.9l-1.4-1.5v-5h-0.8l-0.8,3.4l-1.1,0.5l-1-3.7l-0.6-3.7l-0.8-0.5l0.3,5.7v1.1l-1.4-1.3
		l-3.6-6l-2.1-0.5l-0.6-3.7l-1.6-2.9l-1.6-1.1v-2.3l2.1-1.3l-0.5-0.3l-2.6,0.7l-3.4-2.4l-2.6-2.9l-4.9-2.6l-4-2.6l1.3-3.2v-1.9
		l-1.8,1.6l-2.9,1.1l-3.7-1.1l-5.7-2.4h-5.5l-0.6,0.5l-6.5-3.9l-2.1-0.3l-2.8-5.8l-3.6,0.3l-3.6,1.5l0.5,4.5l1.1-2.9l1,0.3l-1.4,4.4
		l3.2-2.8l0.6,1.6l-3.9,4.4l-1.3-0.3l-0.5-1.9l-1.3-0.8l-1.3,1.1l-2.8-1.8l-3.1,2.1l-1.8,2.1l-3.4,2.1l-4.7-0.2l-0.5-2.1l3.7-0.7
		v-1.3l-2.3-0.7l1-2.4l2.3-3.9v-1.8l0.2-0.8l4.4-2.3l1,1.3h2.8l-1.3-2.6l-3.7-0.3l-5,2.8l-2.4,3.4l-1.8,2.6l-1.1,2.3l-4.2,1.5
		l-3.1,2.6l-0.3,1.6l2.3,1l0.8,2.1l-2.8,3.2l-6.5,4.2l-7.8,4.2l-2.1,1.1l-5.3,1.1l-5.3,2.3l1.8,1.3l-1.4,1.5l-0.5,1.1l-2.8-1
		l-3.2,0.2l-0.8,2.3h-1l0.3-2.4l-3.6,1.3l-2.9,1l-3.4-1.3l-2.9,1.9h-3.2l-2.1,1.3l-1.6,0.8l-2.1-0.3l-2.6-1.1l-2.3,0.7l-1,1
		l-1.6-1.1V569l3.1-1.3l6.3,0.7l4.4-1.6l2.1-2.1l2.9-0.7l1.8-0.8l2.8,0.2l1.6,1.3l1-0.3l2.3-2.8l3.1-1l3.4-0.7l1.3-0.3l0.7,0.5h0.8
		l1.3-3.7l4-1.5l1.9-3.7l2.3-4.5l1.6-1.5l0.3-2.6l-1.6,1.3l-3.4,0.7l-0.7-2.4l-1.3-0.3l-1,1l-0.2,2.9l-1.4-0.2l-1.4-5.8l-1.3,1.3
		l-1.1-0.5l-0.3-1.9l-4,0.2l-2.1,1.1l-2.6-0.3l1.5-1.5l0.5-2.6l-0.7-1.9l1.5-1l1.3-0.2l-0.7-1.8v-4.4l-1-1l-0.8,1.5H55l-1.5-1.3
		l-0.7-3.9l-2.1-3.6v-1l2.1-0.8l0.2-2.3l1.1-1.1l-0.8-0.5l-1.3,0.5l-1.1-2.8l1-5l4.5-3.2l2.6-1.6l1.9-3.7l2.8-1.3l2.6,1.1l0.3,2.4
		l2.4-0.3l3.2-2.4l1.6,0.6l1,0.6h1.6l2.3-1.3l0.8-4.4l1-3.4l1-1l-1.1-1.9l-2.6,0.8l-3.2,0.8l-1.9-0.5l-3.6-1.8l-5-0.2l-3.6-3.7
		l0.5-3.9l0.7-2.4l-2.1-1.8l-1.9-3.7l0.5-0.8l6.8-0.5h2.1l1,1h0.7l-0.2-1.6l3.9-0.6l2.6,0.3l1.4,1.1l-1.4,2.1l-0.5,1.5l2.8,1.6
		l5,1.8l1.8-1l-2.3-4.4l-1-3.2l1-0.8l-3.4-1.9l-0.5-1.1l0.5-1.6l-0.8-3.9l-2.9-4.7l-2.4-4.2l2.9-1.9h3.2l1.8,0.6l4.2-0.2l3.7-3.6
		l1.1-3.1l3.7-2.4l1.6,1l2.8-0.6l3.7-2.1l1.1-0.2l1,0.8l4.5-0.2l2.8-3.1h1.1l3.6,2.4l1.9,2.1l-0.5,1.1l0.7,1.1l1.6-1.6l3.9,0.3
		l0.3,3.7l1.9,1.5l7.1,0.6l6.3,4.2l1.4-1l5.2,2.6l2.1-0.6l1.9-0.8l4.9,1.9L158.1,453.6L158.1,453.6L158.1,453.6z M43,482.5l2.1,5.3
		l-0.2,1l-2.9-0.3l-1.8-4l-1.8-1.5H36l-0.2-2.6l1.8-2.4l1.1,2.4l1.5,1.5L43,482.5L43,482.5z M40.4,516l3.7,0.8l3.7,1l0.8,1l-1.6,3.7
		l-3.1-0.2l-3.4-3.6L40.4,516L40.4,516z M19.7,501.9l1.1,2.6l1.1,1.6l-1.1,0.8l-2.1-3.1v-1.9H19.7z M5.9,575l3.4-2.3l3.4-1l2.6,0.3
		l0.5,1.6l1.9,0.5l1.9-1.9l-0.3-1.6l2.8-0.7l2.9,2.6l-1.1,1.8l-4.4,1.1l-2.8-0.5l-3.7-1.1l-4.4,1.4L7,575.5L5.9,575L5.9,575L5.9,575
		z M54.9,570.5l1.6,1.9l2.1-1.6l-1.5-1.3L54.9,570.5L54.9,570.5L54.9,570.5z M57.8,573.5l1.1-2.3l2.1,0.3l-0.8,1.9L57.8,573.5
		C57.8,573.4,57.8,573.5,57.8,573.5z M81.4,571.6l1.4,1.8l1-1.1l-0.8-1.9L81.4,571.6L81.4,571.6L81.4,571.6z M90.2,559.1l1.1,5.8
		l2.9,0.8l5-2.9l4.4-2.6l-1.6-2.3l0.5-2.4l-2.1,1.3l-2.9-0.8l1.6-1.1l1.9,0.8l3.9-1.8l0.5-1.5l-2.4-0.8l0.8-1.9l-2.8,1.9l-4.7,3.6
		l-4.8,2.9L90.2,559.1L90.2,559.1L90.2,559.1z M132.5,539.3l2.4-1.5l-1-1.8l-1.8,1L132.5,539.3L132.5,539.3L132.5,539.3z"/>
</g>
<g id="fl">
	<path class="st1" d="M759.8,432l2.3,7.3l3.7,9.7l5.3,9.4l3.7,6.3l4.8,5.5l4,3.7l1.6,2.9l-1.1,1.3l-0.8,1.3l2.9,7.4l2.9,2.9l2.6,5.3
		l3.6,5.8l4.5,8.2l1.3,7.6l0.5,12l0.7,1.8l-0.3,3.4l-2.4,1.3l0.3,1.9l-0.7,1.9l0.3,2.4l0.5,1.9l-2.8,3.2l-3.1,1.5l-3.9,0.2l-1.5,1.6
		l-2.4,1l-1.3-0.5l-1.1-1l-0.3-2.9l-0.8-3.4l-3.4-5.2l-3.6-2.3l-3.9-0.3l-0.8,1.3L768,532l-0.7-3.6l-2.6-4l-1.8-1.1l-1.6,2.1
		l-1.8-0.3l-2.1-5l-2.9-3.9l-2.9-5.3l-2.6-3.1l-3.6-3.7l2.1-2.4l3.2-5.5l-0.2-1.6l-4.5-1l-1.6,0.6l0.3,0.6l2.6,1l-1.5,4.5l-0.8,0.5
		l-1.8-4l-1.3-4.9l-0.3-2.8l1.5-4.7v-9.5l-3.1-3.7l-1.3-3.1l-5.2-1.3l-1.9-0.6l-1.6-2.6l-3.4-1.6l-1.1-3.4l-2.8-1l-2.4-3.7l-4.2-1.5
		l-2.9-1.5H711l-4,0.8l-0.2,1.9l0.8,1l-0.5,1.1l-3.1-0.2l-3.7,3.6l-3.6,1.9h-3.9l-3.2,1.3l-0.3-2.8l-1.6-1.9l-2.9-1.1l-1.6-1.5
		l-8.1-3.9l-7.6-1.8l-4.4,0.6l-6,0.5l-6,2.1l-3.5,0.6l-0.2-8l-2.6-1.9l-1.8-1.8l0.3-3.1l10.2-1.3l25.5-2.9l6.8-0.6l5.4,0.3l2.6,3.9
		l1.5,1.5l8.1,0.5l10.8-0.6l21.5-1.3l5.5-0.7l5.1,0.2l0.4,2.9l2.2,0.8l0.2-4.6l-1.5-4.2l1.3-1.4l5.5,0.5L759.8,432L759.8,432
		L759.8,432z M772.4,564.4l2.4-0.7l1.3-0.2l1.5-2.3l2.3-1.6l1.3,0.5l1.7,0.3l0.4,1l-3.5,1.2l-4.2,1.5l-2.3,1.2L772.4,564.4
		L772.4,564.4z M785.9,559.4l1.2,1l2.8-2.1l5.3-4.2l3.7-3.9l2.5-6.6l1-1.7l0.2-3.4l-0.7,0.5l-1,2.8l-1.5,4.6l-3.2,5.3l-4.4,4.2
		l-3.4,1.9L785.9,559.4L785.9,559.4L785.9,559.4z"/>
</g>
<g id="nh">
	<path class="st1" d="M880.8,135.3l0.9-1.1l1.1-3.3l-2.5-0.9l-0.5-3.1l-3.9-1.1l-0.3-2.8l-7.3-23.4l-4.6-14.5h-0.9l-0.7,1.6
		l-0.7-0.5l-1-1l-1.5,1.9v5l0.3,5.7l1.9,2.8v4l-3.7,5.1l-2.6,1.1v1.1l1.1,1.8v8.6l-0.8,9.2l-0.2,4.9l1,1.3l-0.2,4.5l-0.5,1.8l1,0.7
		l16.8-4.4l2.2-0.6l1.8-2.8L880.8,135.3L880.8,135.3z"/>
</g>
<g id="mi">
	<path class="st1" d="M697.9,170.1l-3.2-8.2l-2.3-9.1l-2.4-3.2l-2.6-1.8l-1.6,1.1l-3.9,1.8l-1.9,5l-2.8,3.7l-1.1,0.6l-1.5-0.6
		l-2.4-2.1l0.5-5l3.4-1.3l0.8-3.4l0.7-2.6l2.4-1.6l-0.3-10l-1.6-2.3l-1.3-0.8l-0.8-2.1l0.8-0.8l1.6,0.3l0.2-1.6l-2.6-2.2l-1.3-2.6
		h-2.6l-4.5-1.4l-5.5-3.4h-2.8l-0.7,0.7l-1-0.5l-3.1-2.3l-2.9,1.8l-2.9,2.3l0.3,3.6l1,0.3l2.1,0.5l0.5,0.8l-2.6,0.8l-2.6,0.3
		l-1.5,1.8l-0.3,2.1l0.3,1.6l0.3,5.5l-3.6,2.1l-0.7-0.2v-4.2l1.3-2.4l0.7-2.4l-0.8-0.8l-1.9,0.8l-1,4.2l-2.8,1.1l-1.8,1.9l-0.2,1
		l0.7,0.8l-0.7,2.6l-2.3,0.5v1.1l0.8,2.4l-1.1,6.1l-1.6,4l0.7,4.7l0.5,1.1l-0.8,2.4l-0.3,0.8l-0.3,2.8l3.6,6l2.9,6.5l1.5,4.9
		l-0.8,4.7l-1,6l-2.4,5.2l-0.3,2.8l-3.3,3.1l4.4-0.2l21.4-2.3l7.3-1l0.1,1.7l6.8-1.2l10.3-1.5l3.8-0.5l0.1-0.6l0.2-1.4l2.1-3.7
		l2-1.7l-0.2-5.1l1.6-1.6l1.1-0.3l0.2-3.6l1.5-3l1,0.6l0.2,0.6l0.8,0.2l1.9-1L697.9,170.1L697.9,170.1L697.9,170.1z"/>
	<path class="st1" d="M581.6,75l1.8-2.1l2.2-0.8l5.4-3.9l2.3-0.6l0.5,0.5l-5.1,5.1l-3.3,1.9l-2.1,0.9L581.6,75L581.6,75L581.6,75z
		 M667.8,107.1l0.7,2.5l3.2,0.2l1.3-1.2l-0.4-1.6l-1.6-1.9l-2.2,0.2l-1.6,0.2l-0.3,1.1L667.8,107.1L667.8,107.1L667.8,107.1z
		 M567.5,104.1l0.7-0.6l2.8-0.8l3.6-2.3v-1l0.7-0.7l6-1l2.4-1.9l4.4-2.1l0.2-1.3l1.9-2.9l1.8-0.8l1.3-1.8l2.3-2.3l4.4-2.4l4.7-0.5
		l1.1,1.1l-0.3,1l-3.7,1l-1.5,3.1l-2.3,0.8l-0.5,2.4l-2.4,3.2l-0.3,2.6l0.8,0.5l1-1.1l3.6-2.9l1.3,1.3h2.3l3.2,1l1.5,1.1l1.5,3.1
		l2.8,2.8l3.9-0.2l1.5-1l1.6,1.3l1.6,0.5l1.3-0.8h1.1l1.6-1l4-3.6l3.4-1.1l6.6-0.3l4.5-1.9l2.6-1.3l1.5,0.2v5.7l0.5,0.3l2.9,0.8
		l1.9-0.5l6.1-1.6l1.1-1.1l1.5,0.5v6.9l3.2,3.1l1.3,0.7l1.3,1l-1.3,0.3l-0.8-0.3l-3.7-0.5l-2.1,0.7l-2.3-0.2l-3.2,1.4h-1.8l-5.8-1.3
		l-5.2,0.2l-1.9,2.6l-7,0.7l-2.4,0.8l-1.1,3.1l-1.3,1.1l-0.5-0.2l-1.5-1.6l-4.5,2.4h-0.7l-1.1-1.6l-0.8,0.2l-1.9,4.4l-1,4l-3.2,7
		l-1.2-1l-1.4-1l-1.9-10.3l-3.5-1.4l-2-2.3l-12.1-2.7l-2.9-1l-8.2-2.2l-7.9-1.1L567.5,104.1L567.5,104.1L567.5,104.1z"/>
</g>
<g id="vt">
	<path class="st1" d="M844.5,147l0.3-5.4l-2.9-10.8l-0.7-0.3l-2.9-1.3l0.8-2.9l-0.8-2.1l-2.7-4.6l1-3.9l-0.8-5.2l-2.4-6.5l-0.8-4.9
		l26.4-6.7l0.3,5.5l1.9,2.7v4l-3.7,5.1l-2.6,1.1v1.1l1.3,1.5l-0.3,8.1l-0.6,9.3l-0.2,5.6l1,1.3l-0.2,4.6l-0.5,1.7l1,0.7l-7.4,1.5
		L844.5,147L844.5,147L844.5,147z"/>
</g>
<g id="me">
	<path class="st1" d="M922.8,71.7l1.9,2.1l2.3,3.7v1.9l-2.1,4.7l-1.9,0.6l-3.4,3.1l-4.8,5.5h-1.3l-1-2.1l-1.8,0.2l-1,1.4l-2.4,1.4
		l-1,1.4l1.6,1.4l-0.5,0.7l-0.5,2.8l-1.9-0.2v-1.4l-0.3-1.3l-1.5,0.3l-1.8-3.2l-2.1,1.3l1.3,1.4l0.3,1.1l-0.8,1.3l0.3,3.1l0.2,1.6
		l-1.6,2.6l-2.9,0.5l-0.3,2.9l-5.3,3.1l-1.3,0.5l-1.6-1.4l-3.1,3.6l1,3.2l-1.5,1.3l-0.2,4.4l-1.1,6.3l-2.5-1.2l-0.5-3.1l-3.7-1.3
		l-0.3-2.8l-7.3-23.4l-4.7-14.6l1.4-0.1l1.5,0.4v-2.6l1.3-4.5l2.6-4.7l1.5-4l-1.9-2.4v-6l0.8-1l0.8-2.8l-0.2-1.5l-0.2-4.8l1.8-4.8
		l2.9-8.9l2.1-4.2h1.3l1.3,0.2v1.1l1.3,2.3l2.8,0.7l0.8-0.8v-1l4-2.9l1.8-1.8l1.5,0.2l6,2.4l1.9,1l9,29.9h6l0.8,1.9l0.2,4.8l2.9,2.3
		h0.8l0.2-0.5l-0.5-1.1L922.8,71.7L922.8,71.7z M901.9,101.9l1.5-1.5l1.4,1.1l0.6,2.4l-1.7,0.9L901.9,101.9L901.9,101.9z M908.6,96
		l1.8,1.9l1.3-0.2l0.2-2l0.9-0.8l-0.8-1.8l-2,0.7L908.6,96L908.6,96z"/>
</g>
<g id="ri">
	<path class="st1" d="M874.1,171.8l-3.7-15l6.3-1.9l2.2,1.9l3.3,4.3l2.7,4.4l-3,1.6l-1.3-0.2l-1.1,1.8l-2.4,1.9L874.1,171.8
		L874.1,171.8z"/>
</g>
<g id="ny">
	<path class="st1" d="M830.4,181.7l-1.1-1l-2.6-0.2l-2.3-1.9l-1.6-6.1l-3.5,0.1l-2.4-2.7l-19.4,4.4l-43,8.7l-7.5,1.2l-0.7-6.5
		l1.4-1.1l1.3-1.1l1-1.6l1.8-1.1l1.9-1.8l0.5-1.6l2.1-2.8l1.1-1l-0.2-1l-1.3-3.1l-1.8-0.2l-1.9-6.1l2.9-1.8l4.4-1.4l4-1.3l3.2-0.5
		l6.3-0.2l1.9,1.3l1.6,0.2l2.1-1.3l2.6-1.1l5.2-0.5l2.1-1.8l1.8-3.2l1.6-1.9h2.1l1.9-1.1l0.2-2.3l-1.5-2.1l-0.3-1.4l1.1-2.1v-1.4
		h-1.8l-1.8-0.8l-0.8-1.1l-0.2-2.6l5.8-5.5l0.7-0.8l1.5-2.9l2.9-4.5l2.8-3.7l2.1-2.4l2.4-1.8l3.1-1.3l5.5-1.3l3.2,0.2l4.5-1.4
		l7.6-2.1l0.5,5l2.4,6.5l0.8,5.2l-1,3.9l2.6,4.5l0.8,2.1l-0.8,2.9l2.9,1.3l0.7,0.3l3.1,11l-0.5,5.1l-0.5,10.8l0.8,5.5l0.8,3.6
		l1.5,7.3v8.1l-1.1,2.3l1.8,2l0.8,1.7l-1.9,1.8l0.3,1.3l1.3-0.3l1.5-1.3l2.3-2.6l1.1-0.6l1.6,0.6l2.3,0.2l7.9-3.9l2.9-2.8l1.3-1.4
		l4.2,1.6l-3.4,3.6l-3.9,2.3l-7.1,5.3l-2.6,1l-5.8,1.9l-4,1.1l-1.2-0.5l-0.2-3.7l0.5-2.8l-0.2-2.1l-2.8-1.7l-4.5-1l-3.9-1.1
		L830.4,181.7L830.4,181.7L830.4,181.7z"/>
</g>
<g id="pa">
	<path class="st1" d="M825.1,217.6l1.3-0.3l2.3-1.3l1.2-2.5l1.6-2.3l3.2-3.1v-0.8l-2.4-1.6l-3.6-2.4l-1-2.6l-2.8-0.3l-0.2-1.1
		l-0.8-2.8l2.3-1.1l0.2-2.4l-1.3-1.3l0.2-1.6l1.9-3.1v-3.1l2.7-2.6l-0.9-0.7l-2.5-0.2l-2.3-1.9l-1.5-6.1l-3.5,0.1l-2.5-2.7
		l-18.1,4.2l-43,8.7l-8.9,1.4l-0.6-6.5l-5.4,5.1l-1.3,0.5l-4.2,3l2.9,19.1l2.5,9.7l3.6,19.3l3.3-0.6l11.9-1.5l37.9-7.7l14.9-2.8
		l8.3-1.6l0.3-0.2l2.1-1.6L825.1,217.6L825.1,217.6L825.1,217.6z"/>
</g>
<path id="nj" class="st1" d="M829.7,181.4l-2.3,2.7v3.1l-1.9,3.1l-0.2,1.6l1.3,1.3l-0.2,2.4l-2.3,1.1l0.8,2.8l0.2,1.1l2.8,0.3l1,2.6
	l3.6,2.4l2.4,1.6v0.8l-3,2.7l-1.6,2.3l-1.5,2.8l-2.3,1.3l-0.5,1.5l-0.2,1.2l-0.6,2.6l1.1,2.2l3.2,2.9l4.8,2.3l4,0.6l0.2,1.4l-0.8,1
	l0.3,2.8h0.8l2.1-2.4l0.8-4.9l2.8-4l3.1-6.5l1.1-5.5l-0.7-1.1l-0.2-9.4l-1.6-3.4l-1.1,0.8l-2.8,0.3l-0.5-0.5l1.1-1l2.1-1.9l0.1-1.1
	l-0.4-3.4l0.6-2.8l-0.1-2l-2.8-1.8l-5.1-1.2l-4.1-1.4L829.7,181.4L829.7,181.4L829.7,181.4z"/>
<path id="de" class="st1" d="M825.6,221.2l0.4-2.1l0.4-1.7l-1.6,0.4l-1.6,0.5l-2.2,1.8l1.7,5l2.3,5.7l2.1,9.7l1.6,6.3l5-0.2l6.1-1.2
	l-2.3-7.4l-1,0.5l-3.6-2.4l-1.8-4.7l-1.9-3.6l-3.2-2.9l-0.9-2.1L825.6,221.2L825.6,221.2L825.6,221.2z"/>
<path id="md" class="st1" d="M839.8,245.3l-6,1.2l-5.1,0.1l-1.8-6.9l-1.9-9.2l-2.6-6.2l-1.3-4.4l-7.5,1.6l-14.9,2.8l-37.5,7.6l1.1,5
	l1,5.7l0.3-0.3l2.1-2.4l2.3-2.6l2.4-0.6l1.5-1.4l1.8-2.6l1.3,0.6l2.9-0.3l2.6-2.1l2-1.4l1.8-0.5l1.6,1.1l2.9,1.4l1.9,1.8l1.2,1.5
	l4.1,1.7v2.9l5.5,1.3l1.1,0.5l1.4-2l2.9,2l-1.3,2.5l-0.8,4l-1.8,2.6v2.1l0.7,1.8l5.1,1.4l4.3-0.1l3.1,1l2.1,0.3l1-2.1l-1.5-2.1v-1.8
	l-2.4-2.1l-2.1-5.5l1.3-5.3l-0.2-2.1l-1.3-1.3l1.5-2.3l0.5-2.1l1.9-1.3l1.9-1.6l0.5,1l-1.5,1.6l-1.3,3.7l0.3,1.1l1.8,0.3l0.5,5.5
	l-2.1,1l0.3,3.6l0.5-0.2l1.1-1.9l1.6,1.8L819,246l-0.3,3.4l2.6,3.4l3.9,0.5l1.6-0.8l3.2,4.2l1.4,0.5l6.7-2.8l2-4L839.8,245.3
	L839.8,245.3L839.8,245.3z M823.8,254.3l1.1,2.5l0.2,1.8l1.1,1.9l0.9-1.2l-0.7-3.1l-0.7-2.3L823.8,254.3L823.8,254.3L823.8,254.3z"
	/>
<path id="va" class="st1" d="M831.6,259l-0.1-2l6.5-2.5l-0.8,3.2l-2.9,3.8l-0.4,4.6l0.5,3.4l-1.8,5l-2.2,1.9l-1.5-4.6l0.5-5.5
	l1.6-4.2L831.6,259L831.6,259L831.6,259z M835,287.3l-58.2,12.6l-37.4,5.3l-6.7-0.4l-2.6,1.9l-7.3,0.2l-8.4,1l-10.9,1.6l10.5-5.6
	v-2.1l1.5-2.1l10.5-11.5l4,4.5l3.8,1l2.5-1.1l2.2-1.3l2.5,1.3l3.9-1.4l1.9-4.6l2.6,0.5l2.9-2.1l1.8,0.5l2.8-3.7l0.3-2.1l-1-1.3
	l1-1.9l5.3-12.3l0.6-5.7l1.2-0.5l2.2,2.4l3.9-0.3l1.9-7.6l2.8-0.6l1-2.7l2.6-2.4l2.8-5.7l0.1-5.1l9.8,3.8l0.8-5.1l3.7,1.6l0.1,2.9
	l5.8,1.3l2.1,1.2l1.7,2.1l-0.7,3.6l-2,2.6l0.1,2.1l0.6,1.9l5,1.3h4.5l3.1,1l1.9,0.3l0.7,3.1l3.2,0.4l0.9,1.2l-0.4,4.7l1.4,1.1
	l-0.5,1.9l1.2,0.8l-0.2,1.4l-2.7-0.1l0.1,1.6l2.3,1.5l0.1,1.4l1.8,1.8l0.5,2.5l-2.5,1.4l1.6,1.5l5.8-1.7L835,287.3L835,287.3
	L835,287.3z"/>
<path id="wv" class="st1" d="M761.2,231.9l1.1,4.9l1.1,6l2.1-2.6l2.3-3.1l2.5-0.6l1.5-1.4l1.8-2.6l1.5,0.6l2.9-0.3l2.6-2.1l2-1.4
	l1.8-0.5l1.3,1l3.6,1.8l1.9,1.8l1.4,1.3l-0.8,5.6l-5.8-2.5l-4.3-1.6l-0.1,5.2l-2.8,5.5l-2.5,2.4l-1.2,2.8l-2.6,0.5l-0.9,3.6l-1,4
	l-4,0.3l-2.3-2.4l-1.1,0.6l-0.6,5.5l-1.3,3.5l-5,11l0.9,1.2l-0.2,1.9l-2.8,3.9l-1.8-0.5l-3,2.2l-2.5-0.6l-2,4.6l-3.9,1.4l-2.5-1.3
	l-2.3,1.4l-2.4,1l-3.7-0.9l-1.1-1.2l-2.2-3l-3.1-2l-1.7-3.6l-4.3-3.5l-0.7-2.3l-2.6-1.5l-0.8-1.6l-0.2-5.3l2.2-0.1l1.9-0.8l0.2-2.8
	l1.6-1.5l0.2-5l1-3.9l1.3-0.6l1.3,1.1l0.5,1.8l1.8-1l0.5-1.6l-1.1-1.8v-2.4l1-1.3l2.3-3.4l1.3-1.4l2.1,0.5l2.3-1.6l3.1-3.4l2.3-3.9
	l0.3-5.7l0.5-5v-4.7l-1.1-3.1l1-1.4l1.3-1.3l3.5,19.8l4.6-0.8L761.2,231.9L761.2,231.9L761.2,231.9z"/>
<path id="oh" class="st1" d="M735.3,186.2l-6.1,4.1l-3.9,2.3l-3.4,3.7l-4,3.9l-3.2,0.8l-2.9,0.5l-5.5,2.6l-2.1,0.2l-3.4-3.1
	l-5.2,0.6l-2.6-1.4l-2.4-1.4l-4.9,0.7l-10.2,1.6l-11.2,2.2l1.3,14.6l1.8,13.7l2.6,23.4l0.6,4.8l4.1-0.1l2.4-0.8l3.4,1.5l2.1,4.4h5.1
	l1.9,2.1l1.8-0.1l2.5-1.3l2.5,0.4l5.4,0.5l1.7-2.1l2.3-1.3l2.1-0.7l0.7,2.8l1.8,1l3.5,2.3l2.2-0.1l1.3-0.5l0.2-2.8l1.6-1.5l0.1-4.8
	l1-4.1l1.3-0.6l1.3,1.1l0.5,1.7l1.7-1l0.4-1.5l-1.1-1.9l0.1-2.3l0.8-1.1l2.2-3.3l1-1.5l2.1,0.5l2.3-1.6l3.1-3.4l2.8-4.1l0.3-5.1
	l0.5-5l-0.2-5.3l-1-2.9l0.3-1.2l1.8-1.8l-2.3-9.1L735.3,186.2L735.3,186.2L735.3,186.2z"/>
<path id="in" class="st1" d="M619.6,292.9l0.1-2.9l0.5-4.5l2.3-2.9l1.8-3.9l2.6-4.2l-0.5-5.8l-1.8-2.8l-0.3-3.2l0.8-5.5l-0.5-7
	l-1.3-16l-1.3-15.4l-1-11.7l3.1,0.9l1.5,1l1.1-0.3l2.1-1.9l2.8-1.6l5.1-0.2l22-2.3l5.6-0.5l1.5,16l4.3,36.8l0.6,5.8l-0.4,2.3
	l1.2,1.8l0.1,1.4l-2.5,1.6l-3.5,1.5l-3.2,0.5l-0.6,4.9l-4.6,3.3l-2.8,4l0.3,2.4l-0.6,1.5h-3.3l-1.6-1.6l-2.5,1.3l-2.7,1.5l0.2,3
	l-1.2,0.3l-0.5-1l-2.2-1.5l-3.3,1.3l-1.5,3l-1.4-0.8l-1.5-1.6l-4.5,0.5l-5.6,1L619.6,292.9L619.6,292.9L619.6,292.9z"/>
<path id="il" class="st1" d="M619.5,293.2V290l0.6-4.6l2.3-2.9l1.9-4.1l2.2-4l-0.4-5.3l-2-3.5l-0.1-3.4l0.7-5.3l-0.8-7.2l-1.1-15.8
	l-1.3-15l-0.9-11.6l-0.3-0.9l-0.8-2.6l-1.3-3.7l-1.6-1.8l-1.5-2.6l-0.2-5.5l-45.8,2.6l0.2,2.4l2.3,0.7l0.9,1.1l0.5,1.8l3.9,3.4
	l0.7,2.3l-0.7,3.4l-1.8,3.7l-0.7,2.5l-2.3,1.8l-1.8,0.7L565,218l-0.7,1.8l-0.7,2.1l0.7,1.4l1.8,1.6l-0.2,4.1l-1.8,1.6l-0.7,1.6v2.7
	l-1.8,0.5l-1.6,1.1l-0.2,1.4l0.2,2.1l-1.7,1.3l-1,2.8l0.5,3.7l2.3,7.3l7.3,7.5l5.5,3.7l-0.2,4.3l0.9,1.4l6.4,0.5l2.7,1.4l-0.7,3.7
	l-2.3,5.9l-0.7,3.2l2.3,3.9l6.4,5.3l4.6,0.7l2.1,5l2.1,3.2l-0.9,3l1.6,4.1l1.8,2.1l1.4-0.9l0.9-2.1l2.2-1.8l2.1-0.6l2.6,1.2l3.6,1.4
	l1.2-0.3l0.2-2.3l-1.3-2.4l0.3-2.4l1.8-1.4l3-0.8l1.3-0.5l-0.6-1.4l-0.8-2.4l1.4-1L619.5,293.2L619.5,293.2L619.5,293.2z"/>
<path id="ct" class="st1" d="M874.1,171.8l-3.7-14.9l-4.7,0.9l-21.2,4.7l1,3.2l1.5,7.3l0.2,9l-1.2,2.2l1.9,1.9l4.3-3.9l3.6-3.2
	l1.9-2.1l0.8,0.6l2.8-1.4l5.2-1.1L874.1,171.8L874.1,171.8z"/>
<path id="wi" class="st1" d="M615.1,190.3l-0.1-3.2l-1.2-4.5l-0.7-6.1l-1.1-2.4l1-3.1l0.8-2.9l1.5-2.6l-0.7-3.4l-0.7-3.6l0.5-1.8
	l1.9-2.4l0.2-2.8l-0.8-1.3l0.7-2.6l-0.5-4.2l2.8-5.7l2.9-6.8l0.2-2.3l-0.3-1l-0.8,0.5l-4.2,6.3l-2.8,4l-1.9,1.8l-0.8,2.3l-2,0.8
	l-1.1,1.9l-1.5-0.3l-0.2-1.8l1.3-2.4l2.1-4.7l1.8-1.6l1-2.4l-2.6-1.9l-2-10.4l-3.5-1.3l-2-2.3l-12.1-2.7l-2.9-1l-8.2-2.2l-7.9-1.2
	l-3.8-5.1l-0.8,0.6l-1.2-0.2l-0.7-1.1l-1.3,0.3l-1.1,0.2l-1.8,1l-1-0.7l0.7-1.9l1.9-3.1l1.1-1.1l-1.9-1.4l-2.1,0.8l-2.9,1.9
	l-7.4,3.2l-2.9,0.7l-2.9-0.5l-1-0.9l-2.1,2.8l-0.2,2.7v8.5l-1.1,1.6l-5.3,3.9l-2.3,5.9l0.5,0.2l2.5,2.1l0.7,3.2l-1.8,3.2v3.9
	l0.5,6.6l3,3h3.4l1.8,3.2l3.4,0.5l3.9,5.7l7.1,4.1l2.1,2.7l0.9,7.4l0.7,3.3l2.3,1.6l0.2,1.4l-2.1,3.4l0.2,3.2l2.5,3.9l2.5,1.1l3,0.5
	l1.3,1.4L615.1,190.3L615.1,190.3L615.1,190.3z"/>
<path id="nc" class="st1" d="M835,287.2l2.1,4.9l3.6,6.5l2.4,2.4l0.7,2.3l-2.4,0.2l0.8,0.6l-0.3,4.2l-2.6,1.3l-0.7,2.1l-1.3,2.9
	l-3.7,1.6l-2.4-0.3l-1.5-0.2l-1.6-1.3l0.3,1.3v1h1.9l0.8,1.3l-1.9,6.3h4.2l0.7,1.6l2.3-2.3l1.3-0.5l-1.9,3.6l-3.1,4.9h-1.3l-1.1-0.5
	l-2.8,0.6l-5.2,2.4l-6.5,5.3l-3.4,4.7l-1.9,6.5L810,353l-4.7,0.5l-5.5,1.3l-10-8.2l-12.6-7.6l-2.9-0.8l-12.6,1.5l-4.3,0.8l-1.6-3.2
	l-3-2.1l-16.5,0.5l-7.3,0.8l-9,4.5l-6.1,2.6l-21.2,2.6l0.5-4l1.8-1.5l2.8-0.6l0.7-3.7l4.2-2.8l3.9-1.5l4.2-3.6l4.4-2.1l0.7-3.1
	l3.9-3.9l0.7-0.2l0.8,1.1l1.9,0.3l2.3-3.6l2.1-0.6l2.3,0.3l1.6-3.6l2.9-2.6l0.5-2.1l0.2-3.6h4.3l7.2-0.9l15.8-2.3l15.1-2.1l21.6-4.7
	l20-4.3l11.2-2.4L835,287.2L835,287.2L835,287.2z M839.3,320.4l2.6-2.5l3.2-2.6l1.5-0.6l0.2-2l-0.7-6.1l-1.5-2.3l-0.7-1.9l0.7-0.2
	l2.8,5.5l0.4,4.5l-0.2,3.4l-3.4,1.5l-2.8,2.4l-1.1,1.2L839.3,320.4L839.3,320.4z"/>
<g id="dc">
	<path class="st1" d="M805.8,243.7l-1.8-1.8l-1.2-0.7l1.4-2l2.9,1.9L805.8,243.7L805.8,243.7L805.8,243.7z"/>
</g>
<path id="ma" class="st1" d="M899.6,166.2l2.2-0.7l0.5-1.7l1,0.1l1,2.3l-1.3,0.5l-3.9,0.1L899.6,166.2L899.6,166.2L899.6,166.2z
	 M890.3,167l2.3-2.6h1.6l1.8,1.5l-2.4,1l-2.2,1L890.3,167L890.3,167z M855.5,145l17.7-4.6l2.3-0.6l1.9-2.8l3.7-1.7l2.9,4.4l-2.4,5.2
	l-0.3,1.4l1.9,2.6l1.1-0.8h1.8l2.3,2.6l3.9,6l3.6,0.5l2.3-1l1.8-1.8l-0.8-2.8l-2.1-1.6l-1.5,0.8l-1-1.3l0.5-0.5l2.1-0.2l1.8,0.8
	l1.9,2.4l1,2.9l0.3,2.4l-4.2,1.4l-3.9,1.9l-3.9,4.5l-1.9,1.4v-1l2.4-1.4l0.5-1.8l-0.8-3.1l-2.9,1.4l-0.8,1.4l0.5,2.3l-2.1,1
	l-2.8-4.5l-3.4-4.4l-2.1-1.8l-6.5,1.9l-5.3,1.4l-20.7,4.6l-0.7-4.8l0.7-10.6l4.3-0.9L855.5,145L855.5,145z"/>
<path id="mo" class="st1" d="M558.4,241l-2.5-3.1l-1.1-2.3l-64.4,2.4l-2.3,0.1l1.3,2.5l-0.2,2.3l2.5,3.9l3.1,4.1l3.1,2.7l2.2,0.2
	l1.5,0.9v3l-1.8,1.6l-0.5,2.3l2.1,3.4l2.5,3l2.5,1.8l1.4,11.7l0.3,36.1l0.2,4.7l0.5,5.4l22.4-0.9l23.2-0.7l20.8-0.8l11.7-0.2
	l2.2,3.4l-0.7,3.3l-3.1,2.4l-0.6,1.8l5.4,0.5l3.9-0.7l1.7-5.5l0.7-5.9l2.1-2.6l2.6-1.5v-3l1-1.9l-1.7-2.5l-1.3,1l-2-2.2l-1.3-4.8
	l0.8-2.5l-1.9-3.4l-1.8-4.6l-4.8-0.8l-7-5.6l-1.7-4.1l0.8-3.2l2.1-6.1l0.5-2.9l-2-1l-6.9-0.8l-1-1.7l-0.1-4.2l-5.5-3.4l-7-7.8
	l-2.3-7.3l-0.2-4.2L558.4,241L558.4,241L558.4,241z"/>
<path id="ga" class="st1" d="M672.3,348.4v2.2l0.2,2.1l0.7,3.4l3.4,7.9l2.4,9.9l1.5,6.1l1.6,4.9l1.5,7l2.1,6.3l2.6,3.4l0.5,3.4
	l1.9,0.8l0.2,2.1l-1.8,4.9l-0.5,3.2l-0.2,1.9l1.6,4.4l0.3,5.3l-0.8,2.4l0.7,0.8l1.5,0.8l0.2,3.2l2.2,3.4l2.3,2.2l7.9,0.2l10.8-0.6
	l21.5-1.3l5.5-0.7h4.6l0.2,2.9l2.6,0.8l0.3-4.4l-1.6-4.5l1.1-1.6l5.8,0.8l5,0.3l-0.8-6.3l2.3-10l1.5-4.2l-0.5-2.6l3.3-6.2l-0.5-1.4
	l-1.9,0.7l-2.6-1.3l-0.7-2.1l-1.3-3.6l-2.3-2.1l-2.6-0.6l-1.6-4.9l-2.9-6.3l-4.2-1.9l-2.1-1.9l-1.3-2.6l-2.1-1.9l-2.3-1.3l-2.3-2.9
	l-3.1-2.3l-4.5-1.8l-0.5-1.5l-2.4-2.9l-0.5-1.5l-3.4-5l-3.5,0.1l-3.8-2.4l-1.4-1.3l-0.3-1.8l0.9-1.9l2.2-1.1l-0.6-2.1L672.3,348.4
	L672.3,348.4L672.3,348.4z"/>
<path id="sc" class="st1" d="M764.9,401.1l-1.8,1l-2.6-1.3l-0.7-2.1l-1.3-3.6l-2.3-2.1l-2.6-0.6l-1.6-4.9l-2.8-6l-4.2-1.9l-2.1-1.9
	l-1.3-2.6l-2.1-1.9l-2.3-1.3l-2.3-2.9l-3.1-2.3l-4.5-1.8l-0.5-1.5l-2.4-2.9l-0.5-1.5l-3.4-5.2l-3.4,0.2l-4-2.4l-1.3-1.3l-0.3-1.8
	l0.8-1.9l2.3-1l-0.5-2.3l5.8-2.3l9.1-4.6l7.8-0.8l16.1-0.4l2.6,1.9l1.7,3.4l4.3-0.6l12.6-1.5l2.9,0.8l12.6,7.6l10.4,8.1l-5.4,5.5
	l-2.6,6.1l-0.5,6.3l-1.6,0.8l-1.1,2.8l-2.4,0.6l-2.1,3.6l-2.8,2.8l-2.3,3.4l-1.6,0.8l-3.6,3.3l-2.9,0.2l1,3.2l-5,5.5L764.9,401.1
	L764.9,401.1L764.9,401.1z"/>
<path id="ky" class="st1" d="M726,288.2l-2.3,2.4l-3.6,4l-4.9,5.5l-1.2,1.7l-0.1,2.1l-4.4,2.2l-5.7,3.4l-7.2,1.8l-51.9,4.9
	l-15.7,1.7l-4.6,0.5h-3.9l-0.2,4.2l-8.2,0.1l-7,0.6l-8-0.1l1.2-1.3l2.5-1.5l0.2-3.2l0.9-1.8l-1.6-2.5l0.8-1.9l2.3-1.8l2.1-0.6
	l2.8,1.3l3.6,1.3l1.1-0.3l0.2-2.3l-1.3-2.4l0.3-2.3l1.9-1.5l2.6-0.6l1.6-0.6l-0.8-1.8l-0.7-1.9l1.5-1l1.2-3.7l3-1.5l5.3-1l4.5-0.5
	l1.4,1.6l1.5,0.9l1.6-3.1l3.2-1.3l2.2,1.5l0.4,1l1.2-0.3l-0.2-3l3.1-1.8l2.2-1.1l1.5,1.7h3.3l0.6-1.6l-0.4-2.3l2.6-4l4.8-3.4
	l0.7-4.8l2.9-0.5l3.8-1.6l2.4-1.7l-0.2-1.6l-1.1-1.5l0.6-3l4.2-0.1l2.3-0.8l3.3,1.4l2,4.4h5.1l2,2.2l1.6-0.1l2.6-1.3l5.2,0.6
	l2.6,0.2l1.7-2.1l2.6-1.4l1.9-0.7l0.7,2.8l2,1.1l2.6,2.1l0.1,5.7l0.8,1.6l2.6,1.6l0.8,2.3l4.2,3.4l1.8,3.6L726,288.2L726,288.2
	L726,288.2z"/>
<path id="al" class="st1" d="M631.3,453.3l-1.5-14.3l-2.8-18.8l0.2-14.1l0.8-31l-0.2-16.6l0.2-6.4l44.5-3.6l-0.2,2.2l0.2,2.1
	l0.7,3.4l3.4,7.9l2.4,9.9l1.5,6.1l1.6,4.9l1.5,7l2.1,6.3l2.6,3.4l0.5,3.4l1.9,0.8l0.2,2.1l-1.8,4.9l-0.5,3.2l-0.2,1.9l1.6,4.4
	l0.3,5.3l-0.8,2.4l0.7,0.8l1.5,0.8l0.3,2.9l-5.6-0.4l-6.8,0.6l-25.5,2.9l-10.4,1.4l-0.2,2.9l1.8,1.8l2.6,1.9l0.6,7.9l-5.5,2.6
	l-3-0.3l2.8-1.9v-1l-3.1-6l-2.3-0.6l-1.5,4.4l-1.3,2.8l-0.7-0.2L631.3,453.3L631.3,453.3L631.3,453.3z"/>
<path id="la" class="st1" d="M608,452.1l-3.3-3.2l1-5.5l-0.7-0.9l-9.3,1l-25,0.5l-0.7-2.4l0.9-8.5l3.3-6l5-8.7l-0.6-2.4l1.3-0.7
	l0.5-2l-2.3-2.1l-0.1-1.9l-1.8-4.4l-0.2-6.3l-55.5,0.9v9.6l0.7,9.4l0.7,3.9l2.5,4.1l0.9,5l4.3,5.5l0.2,3.2l0.7,0.7l-0.7,8.5l-3,5
	l1.6,2.1l-0.7,2.5l-0.7,7.3l-1.4,3.2l0.1,3.6l4.7-1.5l12.1,0.2l10.3,3.6l6.5,1.1l3.7-1.5l3.2,1.1l3.2,1l0.8-2.1l-3.2-1.1l-2.6,0.5
	l-2.8-1.6l0.8-1.5l3.1-1l1.8,1.5l1.8-1l3.2,0.6l1.5,2.4l0.3,2.3l4.5,0.3l1.8,1.8l-0.8,1.6l-1.3,0.8l1.6,1.6l8.4,3.6l3.6-1.3l1-2.4
	l2.6-0.6l1.8-1.5l1.3,1l0.8,2.9l-2.3,0.8l0.7,0.6l3.4-1.3l2.3-3.4l0.8-0.5l-2.1-0.3l0.8-1.6l-0.2-1.5l2.1-0.5l1.1-1.3l0.7,0.8
	l0.7,3.1l4.2,0.6l4,1.9l1,1.5h2.9l1.1,1l2.3-3.1v-1.5h-1.3l-3.4-2.8l-5.8-0.8l-3.2-2.3l1.1-2.8l2.3,0.3l0.2-0.6l-1.8-1v-0.5h3.2
	l1.8-3.1l-1.3-1.9l-0.3-2.8l-1.5,0.2l-1.9,2.1l-0.7,2.6l-3.1-0.6l-1-1.8l1.8-1.9l1.9-3.5l-1.1-2.4L608,452.1L608,452.1L608,452.1z"
	/>
<path id="ms" class="st1" d="M631.6,452.2l-0.3,1.3h-5.2l-1.5-0.8l-2.1-0.3l-6.8,1.9l-1.8-0.8l-2.6,4.2l-1.1,0.8l-1.1-2.5l-1.1-3.9
	l-3.4-3.2l1.1-5.5l-0.7-0.9l-1.8,0.2l-7.9,0.9l-24.5,0.4l-0.8-2.2l0.9-8.4l3.1-5.7l5.2-9.1l-0.5-2.4l1.2-0.7l0.4-1.9l-2.3-2.1
	l-0.1-2.1l-1.8-4.1l-0.1-6l1.3-2.5l-0.2-3.4l-1.8-3.1l1.5-1.5l-1.6-2.5l0.5-1.6l1.6-6.5l2.5-2l-0.6-2.4l3.7-5.3l2.8-1.4l-0.2-1.7
	l-0.3-1.7l2.9-5.6l2.3-1.2l0.2-0.9l37.3-3.9l0.2,6.3l0.2,16.6l-0.8,31l-0.2,14.1l2.8,18.8L631.6,452.2L631.6,452.2L631.6,452.2z"/>
<path id="ia" class="st1" d="M569.2,192.5l0.3,2.8l2.2,0.6l1,1.2l0.5,1.9l3.8,3.4l0.7,2.4l-0.7,3.4l-1.6,3.2l-0.8,2.7l-2.2,1.6
	l-1.7,0.6l-5.6,1.9l-1.4,3.9l0.7,1.4l1.8,1.7l-0.3,4l-1.8,1.5l-0.8,1.6l0.1,2.8l-1.9,0.5l-1.6,1.1l-0.3,1.4l0.3,2.1l-1.5,1.1
	l-2.5-3.1l-1.3-2.4l-65.7,2.5l-0.9,0.2l-2-4.5l-0.2-6.6l-1.6-4.1l-0.7-5.3l-2.3-3.7l-0.9-4.8l-2.7-7.5l-1.1-5.4l-1.4-2.2l-1.6-2.7
	l2-4.8l1.4-5.7l-2.7-2.1l-0.5-2.7l0.9-2.5h1.7l82.6-1.3l0.8,4.2l2.3,1.6l0.3,1.4l-2,3.4l0.2,3.2l2.5,3.8l2.5,1.3l3.1,0.5
	L569.2,192.5L569.2,192.5L569.2,192.5z"/>
<path id="mn" class="st1" d="M475.2,121.7l-0.5-8.5l-1.7-7.3l-1.8-13.5l-0.5-9.8l-1.8-3.4l-1.6-5V63.9L468,60l-1.8-5.5h30.1l0.3-8.2
	l0.6-0.2l2.3,0.5l1.9,0.8l0.8,5.5l1.5,6.1l1.6,1.6h4.9l0.3,1.4l6.3,0.3v2.1h4.8l0.3-1.3L523,62l2.3-0.7l1.3,1h2.9l3.9,2.6l5.3,2.4
	l2.4,0.5l0.5-1l1.5-0.5l0.5,2.9l2.6,1.3l0.5-0.5l1.3,0.2v2.1l2.6,1h3.1l1.6-0.8l3.2-3.2l2.6-0.5l0.8,1.8l0.5,1.3h1l1-0.8l8.9-0.3
	l1.8,3.1h0.7l0.7-1.1l4.4-0.4l-0.6,2.3l-3.9,1.8l-9.3,4.1l-4.8,2l-3.1,2.6l-2.4,3.6l-2.3,3.9l-1.8,0.8l-4.5,5l-1.3,0.2l-4.3,2.8
	l-2.5,3.2l-0.2,3.2l0.1,8l-1.4,1.7l-5.1,3.8l-2.2,6l2.9,2.2l0.7,3.2L533,136l0.2,3.8l0.4,6.7l3,3h3.3l1.9,3.1l3.4,0.5l3.9,5.7
	l7.1,4.1l2.1,2.9l0.7,6.4l-81.2,1.1l-0.3-35.7l-0.5-3l-4.1-3.4l-1.1-1.8v-1.5l2.1-1.6l1.4-1.4L475.2,121.7L475.2,121.7L475.2,121.7z
	"/>
<path id="ok" class="st1" d="M380.3,313.7l-16.7-1.3l-0.9,11l20.5,1.2l32.1,1.3l-2.3,24.4l-0.5,17.8l0.2,1.6l4.3,3.7l2.1,1.1
	l0.7-0.2l0.7-2.1l1.4,1.8h2.1v-1.4l2.7,1.4l-0.5,3.9l4.1,0.2l2.5,1.1l4.1,0.7l2.5,1.8l2.3-2.1l3.4,0.7l2.5,3.4h0.9v2.3l2.3,0.7
	l2.3-2.3l1.8,0.7h2.5l0.9,2.5l6.3,2.1l1.4-0.7l1.8-4.1h1.1l1.1,2.1l4.1,0.7l3.7,1.4l3,0.9l1.8-0.9l0.7-2.5h4.3l2.1,0.9l2.7-2.1h1.1
	l0.7,1.6h4.1l1.6-2.1l1.8,0.5l2.1,2.5l3.2,1.8l3.2,0.9l1.9,1.1l-0.4-37.2l-1.4-11l-0.2-8.9l-1.4-6.5l-0.8-7.2l-0.1-3.8l-12.1,0.3
	l-46.4-0.5l-45-2.1L380.3,313.7L380.3,313.7L380.3,313.7z"/>
<path id="tx" class="st1" d="M361.5,323.5l22.7,1.1l31.1,1.1l-2.3,23.5l-0.3,18.1l0.1,2.1l4.3,3.8l2,1.5l1.2-0.6l0.4-1.8l1.1,1.8
	h2.1v-1.5l1.7,1l1.1,0.4l-0.4,4l4.1,0.1l2.9,1.2l4,0.5l2.4,2.1l2.1-2.1l3.7,0.6l2.2,3.2l1.1,0.3l-0.2,2l2.2,0.8l2.3-2l2.1,0.6h2.2
	l0.9,2.4l6.3,2.1l1.6-0.8l1.5-4.2h0.3l0.9,0.1l1.2,2.1l3.9,0.7l3.3,1.1l3.4,1.2l1.8-1l0.7-2.5h4.5l1.8,0.9l2.8-2.1h1.1l0.9,1.6h4
	l1.5-2l1.9,0.4l2,2.4l3.5,2l2.9,0.8l1.5,0.8l2.5,2l3-1.3l2.7,1.1l0.6,6.1v9.7l0.7,9.5l0.7,3.6l2.7,4.4l0.9,5l4.2,5.5l0.2,3.1
	l0.8,0.8l-0.7,8.4l-2.9,5l1.5,2.1l-0.6,2.3l-0.7,7.4l-1.5,3.3l0.3,3.5l-5.7,1.6l-9.9,4.5l-1,1.9l-2.6,1.9l-2.1,1.5l-1.3,0.8
	l-5.4,5.9l-2.8,2.1l-5.3,3.2l-5.7,2.4l-6.3,3.4l-1.8,1.5l-5.8,3.6l-3.4,0.7l-3.9,5.5l-4,0.3l-1,1.9l2.3,1.9l-1.5,5.5l-1.3,4.5
	l-1.1,3.9l-0.8,4.5l0.8,2.4l1.8,7l1,6.1l1.8,2.8l-1,1.4l-3.1,1.9l-5.7-3.9l-5.5-1.1l-1.3,0.5l-3.2-0.7l-4.2-3.1l-5.2-1.1l-7.6-3.4
	l-2.1-3.9l-1.3-6.5l-3.2-1.9L417,530l0.6-0.7l0.3-3.4l-1.3-0.7l-0.6-1l1.3-4.4l-1.6-2.3l-3.2-1.3l-3.4-4.4l-3.6-6.6l-4.2-2.6
	l0.2-1.9l-5.3-12.3l-0.8-4.2l-1.8-1.9l-0.2-1.5l-6-5.3l-2.6-3.1v-1.1l-2.6-2.1l-6.8-1.1l-7.4-0.6l-3.1-2.3l-4.5,1.8l-3.6,1.5
	l-2.3,3.2l-1,3.7l-4.4,6.1l-2.4,2.4l-2.6-1l-1.8-1.1l-1.9-0.6l-3.9-2.3v-0.6l-1.8-1.9l-5.2-2.1l-7.4-7.8l-2.3-4.7v-8.1l-3.2-6.5
	l-0.5-2.8l-1.6-1l-1.1-2.1l-5-2.1l-1.3-1.6l-7.1-7.9l-1.3-3.2l-4.7-2.3l-1.5-4.4l-2.6-2.9l-1.9-0.5l-0.6-4.7l8,0.7l29,2.7l29,1.6
	l2.2-19.5l3.9-55.6l1.6-18.8h1.4 M461.7,553.1l-0.6-7.1l-2.8-7.2l-0.6-7l1.5-8.2l3.3-6.9l3.5-5.4l3.1-3.6l0.6,0.2l-4.8,6.6l-4.4,6.5
	l-2,6.6l-0.3,5.2l0.9,6.1l2.6,7.2l0.5,5.2l0.2,1.5L461.7,553.1L461.7,553.1L461.7,553.1z"/>
<path id="nm" class="st1" d="M288.1,416.9l-0.8-4.8l8.6,0.5l30.2,3l27.3,1.7l2.2-18.7l3.9-55.9l1.7-19.4l1.6,0.1l0.8-11.2l-104-10.6
	L242.1,422l15.5,2l1.3-10L288.1,416.9L288.1,416.9z"/>
<path id="ks" class="st1" d="M507.9,317.3l-12.6,0.2l-46.1-0.5l-44.6-2.1l-24.6-1.3l3.9-64.6l22.1,0.7l40.3,0.8l44.3,1h5.1l2.2,2.2
	h2l1.6,1l-0.1,3l-1.8,1.7l-0.3,2.2l1.8,3.4l3,3.2l2.3,1.6l1.3,11.2L507.9,317.3L507.9,317.3L507.9,317.3z"/>
<path id="ne" class="st1" d="M486.9,233.6l3.2,7l-0.1,2.3l3.5,5.5l2.7,3.1h-5l-43.5-0.9l-40.8-0.9l-22.3-0.8l1.1-21.3l-32.3-2.9
	l4.3-44l15.5,1l20.1,1.1l17.8,1.1l23.8,1.1l10.8-0.5l2.1,2.3l4.8,3l1.1,0.9l4.3-1.4l3.9-0.5l2.7-0.2l1.8,1.4l4.1,1.6l3,1.6l0.5,1.6
	l0.9,2.1h1.8l0.8,0.1l0.9,4.7l2.9,8.5l0.6,3.8l2.5,3.8l0.6,5.1l1.6,4.2L486.9,233.6L486.9,233.6z"/>
<path id="sd" class="st1" d="M476.5,196.9v-0.6l-2.9-4.9l1.9-4.7l1.5-5.9l-2.8-2.1l-0.4-2.7l0.8-2.6h3.2l-0.1-5l-0.3-30.2l-0.6-3.8
	l-4.1-3.3l-1-1.7l-0.1-1.6l2-1.5l1.5-1.7l0.2-2.7l-58.3-1.6l-54.8-3.4l-5.3,63.7l14.6,0.9l20,1.2l17.7,0.9l23.8,1.3l12-0.4l2,2.3
	l5.2,3.3l0.8,0.7l4.5-1.4l6.5-0.6l1.7,1.3l4.2,1.6l3,1.6l0.4,1.5l1,2.2L476.5,196.9L476.5,196.9L476.5,196.9z"/>
<path id="nd" class="st1" d="M475.3,121.8l-0.6-8.4l-1.7-6.8l-1.9-13l-0.5-11l-1.7-3.1l-1.8-5.2V63.9l0.6-3.8l-1.8-5.5L437.3,54
	l-18.6-0.7L392.2,52l-23-2.1l-7,67.2l54.9,3.3L475.3,121.8L475.3,121.8z"/>
<path id="wy" class="st1" d="M360.4,136.2l-106.7-13.5l-14.1,88.5l113.3,13.6L360.4,136.2L360.4,136.2L360.4,136.2z"/>
<path id="mt" class="st1" d="M369.2,49.9l-30.7-2.8l-29.3-3.6l-29.3-4l-32.3-5.3l-18.4-3.4l-32.7-6.9L192,45.2l3.4,7.5l-1.4,4.6
	l1.8,4.6l3.2,1.4l4.6,10.8l2.7,3.2l0.5,1.1l3.4,1.1l0.5,2.1l-7.1,17.6v2.5l2.5,3.2h0.9l4.8-3l0.7-1.1l1.6,0.7l-0.2,5.3l2.7,12.6
	l3,2.5l0.9,0.7l1.8,2.3l-0.5,3.4l0.7,3.4l1.1,0.9l2.3-2.3h2.7l3.2,1.6l2.5-0.9h4.1l3.7,1.6l2.7-0.5l0.5-3l3-0.7l1.4,1.4l0.5,3.2
	l1.4,0.8l1.9-11l106.8,13.4L369.2,49.9L369.2,49.9z"/>
<path id="co" class="st1" d="M380,313.9l4.9-86.3l-113.4-12.7l-12.2,87.9L380,313.9L380,313.9z"/>
<path id="id" class="st1" d="M148.5,169.4l8.8-35.2l1.4-4.2l2.5-5.9l-1.3-2.3l-2.5,0.1l-0.8-1l0.5-1.1l0.3-3.1l4.5-5.5l1.8-0.5
	l1.1-1.1l0.6-3.2l0.9-0.7l3.9-5.8l3.9-4.3l0.2-3.8l-3.4-2.6l-1.5-4.4L183,21.5l13.5,2.5L192,45.2l3.6,7.5l-1.6,4.7l2,4.6l3.1,1.3
	l3.8,9.6l3.5,4.4l0.5,1.1l3.3,1.1l0.4,2.1l-7,17.4l-0.2,2.6l2.6,3.3l0.9-0.1l4.9-3l0.7-1.1l1.6,0.7l-0.3,5.3l2.7,12.6l3.9,3.2
	l1.7,2.2l-0.7,4.1l1.1,2.8l1.1,1.1l2.5-2.4l2.9,0.1l2.9,1.3l2.8-0.7l3.8-0.2l4,1.6l2.7-0.3l0.5-3l2.9-0.8l1.3,1.5l0.4,2.9l1.4,1.2
	l-8.4,53.6L148.5,169.4L148.5,169.4L148.5,169.4z"/>
<path id="ut" class="st1" d="M259.5,303l-83.8-11.9l20.6-112.5l46.8,8.8l-1.5,10.6l-2.3,13.2l7.8,0.9l16.4,1.8l8.2,0.9L259.5,303
	L259.5,303z"/>
<path id="az" class="st1" d="M144.9,375.5l-2.6,2.2l-0.3,1.5l0.5,1l18.9,10.7l12.1,7.6l14.7,8.6l16.8,10l12.3,2.4l24.9,2.7
	l17.3-119.1l-83.7-11.9l-3.1,16.4h-1.6l-1.7,2.6l-2.5-0.1l-1.3-2.7l-2.7-0.3L162,306h-1l-0.9,0.6l-1.9,1l-0.1,7l-0.2,1.7l-0.6,12.6
	l-1.5,2.2l-0.6,3.3l2.7,4.9l1.3,5.8l0.8,1l1,0.6l-0.1,2.3l-1.6,1.4l-3.4,1.7L154,354l-1.5,3.7l-0.6,4.9l-2.9,2.7l-2.1,0.7l0.1,0.8
	l-0.5,1.7l0.5,0.8l3.7,0.6l-0.6,2.7l-1.5,2.2L144.9,375.5L144.9,375.5L144.9,375.5z"/>
<path id="nv" class="st1" d="M196.4,178.5l-23.6,128.8l-1.8,0.4l-1.6,2.4H167l-1.5-2.7l-2.6-0.4l-0.8-1.1h-1l-2.8,1.6l-0.3,6.8
	l-0.4,5.8l-0.4,8.6l-1.4,2.1l-2.4-1.1L84.3,225.4l19-67.6L196.4,178.5L196.4,178.5L196.4,178.5z"/>
<path id="or" class="st1" d="M148.7,168.4l8.9-34.8l1.1-4.2l2.4-5.6l-0.6-1.2l-2.5-0.1l-1.3-1.7l0.5-1.5l0.5-3.3l4.5-5.5l1.8-1.1
	l1.1-1.1l1.5-3.6l4.1-5.7l3.6-3.9l0.2-3.4l-3.3-2.5l-1.8-4.6L156.7,81l-15.1-3.5l-15.4,0.1l-0.5-1.4l-5.5,2.1l-4.5-0.6l-2.4-1.6
	l-1.3,0.7l-4.7-0.2l-1.7-1.4l-5.3-2.1l-0.8,0.1l-4.3-1.3l-1.9,1.8l-6.2-0.3l-5.9-4.1l0.7-0.8l0.2-7.8l-2.3-3.9l-4.1-0.6L75,53.8
	l-2.3-0.5l-5.8,2.1l-2.3,6.5l-3.3,10l-3.2,6.5l-5,14.1l-6.5,13.4l-8.1,12.6l-1.9,2.9l-0.8,8.6l0.4,12.1L148.7,168.4L148.7,168.4
	L148.7,168.4z"/>
<path id="wa" class="st1" d="M102.1,0.5l4.4,1.5l9.7,2.8l8.6,1.9l20.1,5.7l23,5.7l15.2,3.2l-13.6,63.6l-12.4-3.5l-15.5-3.6h-15.2
	l-0.5-1.3l-5.6,2.2l-4.6-0.7l-2.2-1.6l-1.5,0.5l-4.7-0.1l-1.7-1.3l-5.3-2.1l-0.7,0.2l-4.4-1.7l-1.9,1.8L87,73.4l-5.9-4.1l0.8-0.9
	l0.1-7.7l-2.3-3.8l-4.1-0.6l-0.7-2.5l-2.3-0.5L69,54.5l-2.3-3.2l0.3-2.9l2.8-0.3l1.6-4l-2.5-1.2l0.2-3.7l4.4-0.7l-2.8-2.8l-1.4-7.1
	l0.7-2.9v-7.9l-1.8-3.2l2.3-9.4l2.1,0.5L75,8.6l2.8,2.6l3.2,1.9l4.5,2.1l3.1,0.6l2.9,1.5l3.4,1l2.3-0.2v-2.4l1.3-1.1l2.1-1.3
	l0.3,1.1l0.3,1.8l-2.3,0.5l-0.3,2.1l1.8,1.5l1.1,2.4l0.7,1.9l1.4-0.2l0.2-1.3l-1-1.3l-0.5-3.2l0.8-1.8l-0.7-1.5V13l1.8-3.6l-1.1-2.6
	l-2.4-4.9l0.3-0.8L102.1,0.5L102.1,0.5z M92.6,6.5l2-0.2l0.5,1.4l1.5-1.6H99l0.8,1.5l-1.5,1.7l0.7,0.8l-0.7,2l-1.4,0.4L96,12.3
	l1.4-2.6l-1.7-0.6l-0.3,1.5l-0.7,0.6l-1.5-2.3L92.6,6.5L92.6,6.5z"/>
<g id="ca">
	<path class="st1" d="M144.7,375.1l3.9-0.5l1.5-2l0.5-2.9l-3.6-0.6l-0.5-0.7l0.5-2l-0.2-0.6l1.9-0.6l3-2.8l0.6-5l1.4-3.4l1.9-2.2
		l3.5-1.6l1.6-1.6l0.1-2.1l-1-0.6l-1-1.1l-1.2-5.9l-2.7-4.8l0.6-3.5l-2.4-1l-69-104.2l18.9-67.6l-67.1-15.7l-1.5,4.7l-0.2,7.4
		L29,166l-3.1,2.6l-0.3,1.1l-1.8,0.8l-1.5,4.2l-0.8,3.2l2.8,4.2l1.6,4.2l1.1,3.6l-0.3,6.5l-1.8,3.1l-0.6,5.8l-1,3.7l1.8,3.9l2.8,4.5
		l2.3,4.9l1.3,4l-0.3,3.2l-0.3,0.5v2.1l5.7,6.3l-0.5,2.4l-0.7,2.3l-0.7,1.9l0.2,8.2l2.1,3.7l1.9,2.6l2.8,0.5l1,2.8l-1.1,3.6
		l-2.1,1.6h-1.1l-0.8,3.9l0.5,2.9l3.2,4.4l1.6,5.3l1.5,4.7l1.3,3.1l3.4,5.8l1.5,2.6l0.5,2.9l1.6,1v2.4l-0.8,1.9l-1.8,7.1l-0.5,1.9
		l2.4,2.8l4.2,0.5l4.5,1.8l3.9,2.1h2.9l2.9,3.1l2.6,4.9l1.1,2.3l3.9,2.1l4.8,0.8l1.4,2.1l0.7,3.2l-1.4,0.6l0.3,1L87,346l2.8,0.2
		l3.2-1.7l3.9,4.2l0.8,2.3l2.6,4.2l0.3,3.2v9.4l0.5,1.8l10,1.5l19.7,2.8L144.7,375.1L144.7,375.1L144.7,375.1z M56.6,331.4l1.3,1.5
		l-0.2,1.3l-3.2-0.1l-0.6-1.2l-0.7-1.5C53.2,331.4,56.6,331.4,56.6,331.4z M58.5,331.4l1.2-0.6l3.6,2.1l3.1,1.2l-0.9,0.6l-4.5-0.2
		l-1.6-1.6L58.5,331.4L58.5,331.4z M79.2,351.2l1.8,2.3l0.8,1l1.5,0.6l0.6-1.5l-1-1.8l-2.7-2l-1.1,0.2L79.2,351.2L79.2,351.2
		L79.2,351.2z M77.7,359.8l1.8,3.1l1.2,1.9l-1.4,0.2l-1.3-1.1l-0.7-1.9v-2.1L77.7,359.8L77.7,359.8z"/>
</g>
<g id="hi-2">
	<path class="st2" d="M233.1,519.2l1.9-3.6l2.3-0.3l0.3,0.8l-2.1,3.1H233.1z M243.3,515.5l6.1,2.6l2.1-0.3l1.6-3.9l-0.6-3.4
		l-4.2-0.5l-4,1.8L243.3,515.5L243.3,515.5L243.3,515.5z M274,525.5l3.7,5.5l2.4-0.3l1.1-0.5l1.5,1.3l3.7-0.2l1-1.5l-2.9-1.8
		l-1.9-3.7l-2.1-3.6l-5.8,2.9L274,525.5L274,525.5L274,525.5z M294.2,534.4l1.3-1.9l4.7,1l0.6-0.5l6.1,0.7l-0.3,1.3l-2.6,1.5
		l-4.4-0.3L294.2,534.4L294.2,534.4L294.2,534.4z M299.5,539.6l1.9,3.9l3.1-1.1l0.3-1.6l-1.6-2.1l-3.7-0.3L299.5,539.6L299.5,539.6
		L299.5,539.6z M306.5,538.4l2.3-2.9l4.7,2.4l4.4,1.1l4.4,2.8v1.9l-3.6,1.8l-4.9,1l-2.4-1.5L306.5,538.4L306.5,538.4z M323.1,554
		l1.6-1.3l3.4,1.6l7.6,3.6l3.4,2.1l1.6,2.4l1.9,4.4l4,2.6l-0.3,1.3l-3.9,3.2l-4.2,1.5l-1.5-0.7l-3.1,1.8l-2.4,3.2l-2.3,2.9l-1.8-0.2
		l-3.6-2.6l-0.3-4.5l0.6-2.4l-1.6-5.7l-2.1-1.8l-0.2-2.6l2.3-1l2.1-3.1l0.5-1l-1.6-1.8L323.1,554L323.1,554z"/>
</g>
<g id="ak-2">
	<path class="st2" d="M158.1,453.6l-0.3,85.4l1.6,1l3.1,0.2l1.4-1.1h2.6l0.2,2.9l6.9,6.8l0.5,2.6l3.4-1.9l0.6-0.2l0.3-3.1l1.4-1.6
		l1.1-0.2l1.9-1.5l3.1,2.1l0.6,2.9l1.9,1.1l1.1,2.4l3.9,1.8l3.4,6l2.8,3.9l2.3,2.8l1.4,3.7l5,1.8l5.2,2.1l1,4.4l0.5,3.1l-1,3.4
		l-1.8,2.3l-1.6-0.8l-1.4-3.1l-2.8-1.5l-1.8-1.1l-0.8,0.8l1.4,2.8l0.2,3.7l-1.1,0.5l-1.9-1.9l-2.1-1.3l0.5,1.6l1.3,1.8l-0.8,0.8
		l-1.3-1l-2.1-3.4l-1-2.3l-1,1l-1.3-1.5l1.8-1.9l-1.4-1.5v-5h-0.8l-0.8,3.4l-1.1,0.5l-1-3.7l-0.6-3.7l-0.8-0.5l0.3,5.7v1.1l-1.4-1.3
		l-3.6-6l-2.1-0.5l-0.6-3.7l-1.6-2.9l-1.6-1.1v-2.3l2.1-1.3l-0.5-0.3l-2.6,0.7l-3.4-2.4l-2.6-2.9l-4.9-2.6l-4-2.6l1.3-3.2v-1.9
		l-1.8,1.6l-2.9,1.1l-3.7-1.1l-5.7-2.4h-5.5l-0.6,0.5l-6.5-3.9l-2.1-0.3l-2.8-5.8l-3.6,0.3l-3.6,1.5l0.5,4.5l1.1-2.9l1,0.3l-1.4,4.4
		l3.2-2.8l0.6,1.6l-3.9,4.4l-1.3-0.3l-0.5-1.9l-1.3-0.8l-1.3,1.1l-2.8-1.8l-3.1,2.1l-1.8,2.1l-3.4,2.1l-4.7-0.2l-0.5-2.1l3.7-0.7
		v-1.3l-2.3-0.7l1-2.4l2.3-3.9v-1.8l0.2-0.8l4.4-2.3l1,1.3h2.8l-1.3-2.6l-3.7-0.3l-5,2.8l-2.4,3.4l-1.8,2.6l-1.1,2.3l-4.2,1.5
		l-3.1,2.6l-0.3,1.6l2.3,1l0.8,2.1l-2.8,3.2l-6.5,4.2l-7.8,4.2l-2.1,1.1l-5.3,1.1l-5.3,2.3l1.8,1.3l-1.4,1.5l-0.5,1.1l-2.8-1
		l-3.2,0.2l-0.8,2.3h-1l0.3-2.4l-3.6,1.3l-2.9,1l-3.4-1.3l-2.9,1.9h-3.2l-2.1,1.3l-1.6,0.8l-2.1-0.3l-2.6-1.1l-2.3,0.7l-1,1
		l-1.6-1.1V569l3.1-1.3l6.3,0.7l4.4-1.6l2.1-2.1l2.9-0.7l1.8-0.8l2.8,0.2l1.6,1.3l1-0.3l2.3-2.8l3.1-1l3.4-0.7l1.3-0.3l0.7,0.5h0.8
		l1.3-3.7l4-1.5l1.9-3.7l2.3-4.5l1.6-1.5l0.3-2.6l-1.6,1.3l-3.4,0.7l-0.7-2.4l-1.3-0.3l-1,1l-0.2,2.9l-1.4-0.2l-1.4-5.8l-1.3,1.3
		l-1.1-0.5l-0.3-1.9l-4,0.2l-2.1,1.1l-2.6-0.3l1.5-1.5l0.5-2.6l-0.7-1.9l1.5-1l1.3-0.2l-0.7-1.8v-4.4l-1-1l-0.8,1.5H55l-1.5-1.3
		l-0.7-3.9l-2.1-3.6v-1l2.1-0.8l0.2-2.3l1.1-1.1l-0.8-0.5l-1.3,0.5l-1.1-2.8l1-5l4.5-3.2l2.6-1.6l1.9-3.7l2.8-1.3l2.6,1.1l0.3,2.4
		l2.4-0.3l3.2-2.4l1.6,0.6l1,0.6h1.6l2.3-1.3l0.8-4.4l1-3.4l1-1l-1.1-1.9l-2.6,0.8l-3.2,0.8l-1.9-0.5l-3.6-1.8l-5-0.2l-3.6-3.7
		l0.5-3.9l0.7-2.4l-2.1-1.8l-1.9-3.7l0.5-0.8l6.8-0.5h2.1l1,1h0.7l-0.2-1.6l3.9-0.6l2.6,0.3l1.4,1.1l-1.4,2.1l-0.5,1.5l2.8,1.6
		l5,1.8l1.8-1l-2.3-4.4l-1-3.2l1-0.8l-3.4-1.9l-0.5-1.1l0.5-1.6l-0.8-3.9l-2.9-4.7l-2.4-4.2l2.9-1.9h3.2l1.8,0.6l4.2-0.2l3.7-3.6
		l1.1-3.1l3.7-2.4l1.6,1l2.8-0.6l3.7-2.1l1.1-0.2l1,0.8l4.5-0.2l2.8-3.1h1.1l3.6,2.4l1.9,2.1l-0.5,1.1l0.7,1.1l1.6-1.6l3.9,0.3
		l0.3,3.7l1.9,1.5l7.1,0.6l6.3,4.2l1.4-1l5.2,2.6l2.1-0.6l1.9-0.8l4.9,1.9L158.1,453.6L158.1,453.6L158.1,453.6z M43,482.5l2.1,5.3
		l-0.2,1l-2.9-0.3l-1.8-4l-1.8-1.5H36l-0.2-2.6l1.8-2.4l1.1,2.4l1.5,1.5L43,482.5L43,482.5z M40.4,516l3.7,0.8l3.7,1l0.8,1l-1.6,3.7
		l-3.1-0.2l-3.4-3.6L40.4,516L40.4,516z M19.7,501.9l1.1,2.6l1.1,1.6l-1.1,0.8l-2.1-3.1v-1.9H19.7z M5.9,575l3.4-2.3l3.4-1l2.6,0.3
		l0.5,1.6l1.9,0.5l1.9-1.9l-0.3-1.6l2.8-0.7l2.9,2.6l-1.1,1.8l-4.4,1.1l-2.8-0.5l-3.7-1.1l-4.4,1.4L7,575.5L5.9,575L5.9,575L5.9,575
		z M54.9,570.5l1.6,1.9l2.1-1.6l-1.5-1.3L54.9,570.5L54.9,570.5L54.9,570.5z M57.8,573.5l1.1-2.3l2.1,0.3l-0.8,1.9L57.8,573.5
		C57.8,573.4,57.8,573.5,57.8,573.5z M81.4,571.6l1.4,1.8l1-1.1l-0.8-1.9L81.4,571.6L81.4,571.6L81.4,571.6z M90.2,559.1l1.1,5.8
		l2.9,0.8l5-2.9l4.4-2.6l-1.6-2.3l0.5-2.4l-2.1,1.3l-2.9-0.8l1.6-1.1l1.9,0.8l3.9-1.8l0.5-1.5l-2.4-0.8l0.8-1.9l-2.8,1.9l-4.7,3.6
		l-4.8,2.9L90.2,559.1L90.2,559.1L90.2,559.1z M132.5,539.3l2.4-1.5l-1-1.8l-1.8,1L132.5,539.3L132.5,539.3L132.5,539.3z"/>
</g>
<g id="fl-2">
	<path class="st2" d="M759.8,432l2.3,7.3l3.7,9.7l5.3,9.4l3.7,6.3l4.8,5.5l4,3.7l1.6,2.9l-1.1,1.3l-0.8,1.3l2.9,7.4l2.9,2.9l2.6,5.3
		l3.6,5.8l4.5,8.2l1.3,7.6l0.5,12l0.7,1.8l-0.3,3.4l-2.4,1.3l0.3,1.9l-0.7,1.9l0.3,2.4l0.5,1.9l-2.8,3.2l-3.1,1.5l-3.9,0.2l-1.5,1.6
		l-2.4,1l-1.3-0.5l-1.1-1l-0.3-2.9l-0.8-3.4l-3.4-5.2l-3.6-2.3l-3.9-0.3l-0.8,1.3L768,532l-0.7-3.6l-2.6-4l-1.8-1.1l-1.6,2.1
		l-1.8-0.3l-2.1-5l-2.9-3.9l-2.9-5.3l-2.6-3.1l-3.6-3.7l2.1-2.4l3.2-5.5l-0.2-1.6l-4.5-1l-1.6,0.6l0.3,0.6l2.6,1l-1.5,4.5l-0.8,0.5
		l-1.8-4l-1.3-4.9l-0.3-2.8l1.5-4.7v-9.5l-3.1-3.7l-1.3-3.1l-5.2-1.3l-1.9-0.6l-1.6-2.6l-3.4-1.6l-1.1-3.4l-2.8-1l-2.4-3.7l-4.2-1.5
		l-2.9-1.5H711l-4,0.8l-0.2,1.9l0.8,1l-0.5,1.1l-3.1-0.2l-3.7,3.6l-3.6,1.9h-3.9l-3.2,1.3l-0.3-2.8l-1.6-1.9l-2.9-1.1l-1.6-1.5
		l-8.1-3.9l-7.6-1.8l-4.4,0.6l-6,0.5l-6,2.1l-3.5,0.6l-0.2-8l-2.6-1.9l-1.8-1.8l0.3-3.1l10.2-1.3l25.5-2.9l6.8-0.6l5.4,0.3l2.6,3.9
		l1.5,1.5l8.1,0.5l10.8-0.6l21.5-1.3l5.5-0.7l5.1,0.2l0.4,2.9l2.2,0.8l0.2-4.6l-1.5-4.2l1.3-1.4l5.5,0.5L759.8,432L759.8,432
		L759.8,432z M772.4,564.4l2.4-0.7l1.3-0.2l1.5-2.3l2.3-1.6l1.3,0.5l1.7,0.3l0.4,1l-3.5,1.2l-4.2,1.5l-2.3,1.2L772.4,564.4
		L772.4,564.4z M785.9,559.4l1.2,1l2.8-2.1l5.3-4.2l3.7-3.9l2.5-6.6l1-1.7l0.2-3.4l-0.7,0.5l-1,2.8l-1.5,4.6l-3.2,5.3l-4.4,4.2
		l-3.4,1.9L785.9,559.4L785.9,559.4L785.9,559.4z"/>
</g>
<g id="nh-2">
	<path class="st2" d="M880.8,135.3l0.9-1.1l1.1-3.3l-2.5-0.9l-0.5-3.1l-3.9-1.1l-0.3-2.8l-7.3-23.4l-4.6-14.5h-0.9l-0.7,1.6
		l-0.7-0.5l-1-1l-1.5,1.9v5l0.3,5.7l1.9,2.8v4l-3.7,5.1l-2.6,1.1v1.1l1.1,1.8v8.6l-0.8,9.2l-0.2,4.9l1,1.3l-0.2,4.5l-0.5,1.8l1,0.7
		l16.8-4.4l2.2-0.6l1.8-2.8L880.8,135.3L880.8,135.3z"/>
</g>
<g id="mi-2">
	<path class="st3" d="M697.9,170.1l-3.2-8.2l-2.3-9.1l-2.4-3.2l-2.6-1.8l-1.6,1.1l-3.9,1.8l-1.9,5l-2.8,3.7l-1.1,0.6l-1.5-0.6
		l-2.4-2.1l0.5-5l3.4-1.3l0.8-3.4l0.7-2.6l2.4-1.6l-0.3-10l-1.6-2.3l-1.3-0.8l-0.8-2.1l0.8-0.8l1.6,0.3l0.2-1.6l-2.6-2.2l-1.3-2.6
		h-2.6l-4.5-1.4l-5.5-3.4h-2.8l-0.7,0.7l-1-0.5l-3.1-2.3l-2.9,1.8l-2.9,2.3l0.3,3.6l1,0.3l2.1,0.5l0.5,0.8l-2.6,0.8l-2.6,0.3
		l-1.5,1.8l-0.3,2.1l0.3,1.6l0.3,5.5l-3.6,2.1l-0.7-0.2v-4.2l1.3-2.4l0.7-2.4l-0.8-0.8l-1.9,0.8l-1,4.2l-2.8,1.1l-1.8,1.9l-0.2,1
		l0.7,0.8l-0.7,2.6l-2.3,0.5v1.1l0.8,2.4l-1.1,6.1l-1.6,4l0.7,4.7l0.5,1.1l-0.8,2.4l-0.3,0.8l-0.3,2.8l3.6,6l2.9,6.5l1.5,4.9
		l-0.8,4.7l-1,6l-2.4,5.2l-0.3,2.8l-3.3,3.1l4.4-0.2l21.4-2.3l7.3-1l0.1,1.7l6.8-1.2l10.3-1.5l3.8-0.5l0.1-0.6l0.2-1.4l2.1-3.7
		l2-1.7l-0.2-5.1l1.6-1.6l1.1-0.3l0.2-3.6l1.5-3l1,0.6l0.2,0.6l0.8,0.2l1.9-1L697.9,170.1L697.9,170.1L697.9,170.1z"/>
	<path class="st3" d="M581.6,75l1.8-2.1l2.2-0.8l5.4-3.9l2.3-0.6l0.5,0.5l-5.1,5.1l-3.3,1.9l-2.1,0.9L581.6,75L581.6,75L581.6,75z
		 M667.8,107.1l0.7,2.5l3.2,0.2l1.3-1.2l-0.4-1.6l-1.6-1.9l-2.2,0.2l-1.6,0.2l-0.3,1.1L667.8,107.1L667.8,107.1L667.8,107.1z
		 M567.5,104.1l0.7-0.6l2.8-0.8l3.6-2.3v-1l0.7-0.7l6-1l2.4-1.9l4.4-2.1l0.2-1.3l1.9-2.9l1.8-0.8l1.3-1.8l2.3-2.3l4.4-2.4l4.7-0.5
		l1.1,1.1l-0.3,1l-3.7,1l-1.5,3.1l-2.3,0.8l-0.5,2.4l-2.4,3.2l-0.3,2.6l0.8,0.5l1-1.1l3.6-2.9l1.3,1.3h2.3l3.2,1l1.5,1.1l1.5,3.1
		l2.8,2.8l3.9-0.2l1.5-1l1.6,1.3l1.6,0.5l1.3-0.8h1.1l1.6-1l4-3.6l3.4-1.1l6.6-0.3l4.5-1.9l2.6-1.3l1.5,0.2v5.7l0.5,0.3l2.9,0.8
		l1.9-0.5l6.1-1.6l1.1-1.1l1.5,0.5v6.9l3.2,3.1l1.3,0.7l1.3,1l-1.3,0.3l-0.8-0.3l-3.7-0.5l-2.1,0.7l-2.3-0.2l-3.2,1.4h-1.8l-5.8-1.3
		l-5.2,0.2l-1.9,2.6l-7,0.7l-2.4,0.8l-1.1,3.1l-1.3,1.1l-0.5-0.2l-1.5-1.6l-4.5,2.4h-0.7l-1.1-1.6l-0.8,0.2l-1.9,4.4l-1,4l-3.2,7
		l-1.2-1l-1.4-1l-1.9-10.3l-3.5-1.4l-2-2.3l-12.1-2.7l-2.9-1l-8.2-2.2l-7.9-1.1L567.5,104.1L567.5,104.1L567.5,104.1z"/>
</g>
<g id="vt-2">
	<path class="st2" d="M844.5,147l0.3-5.4l-2.9-10.8l-0.7-0.3l-2.9-1.3l0.8-2.9l-0.8-2.1l-2.7-4.6l1-3.9l-0.8-5.2l-2.4-6.5l-0.8-4.9
		l26.4-6.7l0.3,5.5l1.9,2.7v4l-3.7,5.1l-2.6,1.1v1.1l1.3,1.5l-0.3,8.1l-0.6,9.3l-0.2,5.6l1,1.3l-0.2,4.6l-0.5,1.7l1,0.7l-7.4,1.5
		L844.5,147L844.5,147L844.5,147z"/>
</g>
<g id="me-2">
	<path class="st3" d="M922.8,71.7l1.9,2.1l2.3,3.7v1.9l-2.1,4.7l-1.9,0.6l-3.4,3.1l-4.8,5.5h-1.3l-1-2.1l-1.8,0.2l-1,1.4l-2.4,1.4
		l-1,1.4l1.6,1.4l-0.5,0.7l-0.5,2.8l-1.9-0.2v-1.4l-0.3-1.3l-1.5,0.3l-1.8-3.2l-2.1,1.3l1.3,1.4l0.3,1.1l-0.8,1.3l0.3,3.1l0.2,1.6
		l-1.6,2.6l-2.9,0.5l-0.3,2.9l-5.3,3.1l-1.3,0.5l-1.6-1.4l-3.1,3.6l1,3.2l-1.5,1.3l-0.2,4.4l-1.1,6.3l-2.5-1.2l-0.5-3.1l-3.7-1.3
		l-0.3-2.8l-7.3-23.4l-4.7-14.6l1.4-0.1l1.5,0.4v-2.6l1.3-4.5l2.6-4.7l1.5-4l-1.9-2.4v-6l0.8-1l0.8-2.8l-0.2-1.5l-0.2-4.8l1.8-4.8
		l2.9-8.9l2.1-4.2h1.3l1.3,0.2v1.1l1.3,2.3l2.8,0.7l0.8-0.8v-1l4-2.9l1.8-1.8l1.5,0.2l6,2.4l1.9,1l9,29.9h6l0.8,1.9l0.2,4.8l2.9,2.3
		h0.8l0.2-0.5l-0.5-1.1L922.8,71.7L922.8,71.7z M901.9,101.9l1.5-1.5l1.4,1.1l0.6,2.4l-1.7,0.9L901.9,101.9L901.9,101.9z M908.6,96
		l1.8,1.9l1.3-0.2l0.2-2l0.9-0.8l-0.8-1.8l-2,0.7L908.6,96L908.6,96z"/>
</g>
<g id="ri-2">
	<path class="st2" d="M874.1,171.8l-3.7-15l6.3-1.9l2.2,1.9l3.3,4.3l2.7,4.4l-3,1.6l-1.3-0.2l-1.1,1.8l-2.4,1.9L874.1,171.8
		L874.1,171.8z"/>
</g>
<g id="ny-2">
	<path class="st3" d="M830.4,181.7l-1.1-1l-2.6-0.2l-2.3-1.9l-1.6-6.1l-3.5,0.1l-2.4-2.7l-19.4,4.4l-43,8.7l-7.5,1.2l-0.7-6.5
		l1.4-1.1l1.3-1.1l1-1.6l1.8-1.1l1.9-1.8l0.5-1.6l2.1-2.8l1.1-1l-0.2-1l-1.3-3.1l-1.8-0.2l-1.9-6.1l2.9-1.8l4.4-1.4l4-1.3l3.2-0.5
		l6.3-0.2l1.9,1.3l1.6,0.2l2.1-1.3l2.6-1.1l5.2-0.5l2.1-1.8l1.8-3.2l1.6-1.9h2.1l1.9-1.1l0.2-2.3l-1.5-2.1l-0.3-1.4l1.1-2.1v-1.4
		h-1.8l-1.8-0.8l-0.8-1.1l-0.2-2.6l5.8-5.5l0.7-0.8l1.5-2.9l2.9-4.5l2.8-3.7l2.1-2.4l2.4-1.8l3.1-1.3l5.5-1.3l3.2,0.2l4.5-1.4
		l7.6-2.1l0.5,5l2.4,6.5l0.8,5.2l-1,3.9l2.6,4.5l0.8,2.1l-0.8,2.9l2.9,1.3l0.7,0.3l3.1,11l-0.5,5.1l-0.5,10.8l0.8,5.5l0.8,3.6
		l1.5,7.3v8.1l-1.1,2.3l1.8,2l0.8,1.7l-1.9,1.8l0.3,1.3l1.3-0.3l1.5-1.3l2.3-2.6l1.1-0.6l1.6,0.6l2.3,0.2l7.9-3.9l2.9-2.8l1.3-1.4
		l4.2,1.6l-3.4,3.6l-3.9,2.3l-7.1,5.3l-2.6,1l-5.8,1.9l-4,1.1l-1.2-0.5l-0.2-3.7l0.5-2.8l-0.2-2.1l-2.8-1.7l-4.5-1l-3.9-1.1
		L830.4,181.7L830.4,181.7L830.4,181.7z"/>
</g>
<g id="pa-2">
	<path class="st2" d="M825.1,217.6l1.3-0.3l2.3-1.3l1.2-2.5l1.6-2.3l3.2-3.1v-0.8l-2.4-1.6l-3.6-2.4l-1-2.6l-2.8-0.3l-0.2-1.1
		l-0.8-2.8l2.3-1.1l0.2-2.4l-1.3-1.3l0.2-1.6l1.9-3.1v-3.1l2.7-2.6l-0.9-0.7l-2.5-0.2l-2.3-1.9l-1.5-6.1l-3.5,0.1l-2.5-2.7
		l-18.1,4.2l-43,8.7l-8.9,1.4l-0.6-6.5l-5.4,5.1l-1.3,0.5l-4.2,3l2.9,19.1l2.5,9.7l3.6,19.3l3.3-0.6l11.9-1.5l37.9-7.7l14.9-2.8
		l8.3-1.6l0.3-0.2l2.1-1.6L825.1,217.6L825.1,217.6L825.1,217.6z"/>
</g>
<path id="nj-2" class="st2" d="M829.7,181.4l-2.3,2.7v3.1l-1.9,3.1l-0.2,1.6l1.3,1.3l-0.2,2.4l-2.3,1.1l0.8,2.8l0.2,1.1l2.8,0.3
	l1,2.6l3.6,2.4l2.4,1.6v0.8l-3,2.7l-1.6,2.3l-1.5,2.8l-2.3,1.3l-0.5,1.5l-0.2,1.2l-0.6,2.6l1.1,2.2l3.2,2.9l4.8,2.3l4,0.6l0.2,1.4
	l-0.8,1l0.3,2.8h0.8l2.1-2.4l0.8-4.9l2.8-4l3.1-6.5l1.1-5.5l-0.7-1.1l-0.2-9.4l-1.6-3.4l-1.1,0.8l-2.8,0.3l-0.5-0.5l1.1-1l2.1-1.9
	l0.1-1.1l-0.4-3.4l0.6-2.8l-0.1-2l-2.8-1.8l-5.1-1.2l-4.1-1.4L829.7,181.4L829.7,181.4L829.7,181.4z"/>
<path id="de-2" class="st2" d="M825.6,221.2l0.4-2.1l0.4-1.7l-1.6,0.4l-1.6,0.5l-2.2,1.8l1.7,5l2.3,5.7l2.1,9.7l1.6,6.3l5-0.2
	l6.1-1.2l-2.3-7.4l-1,0.5l-3.6-2.4l-1.8-4.7l-1.9-3.6l-3.2-2.9l-0.9-2.1L825.6,221.2L825.6,221.2L825.6,221.2z"/>
<path id="md-2" class="st2" d="M839.8,245.3l-6,1.2l-5.1,0.1l-1.8-6.9l-1.9-9.2l-2.6-6.2l-1.3-4.4l-7.5,1.6l-14.9,2.8l-37.5,7.6
	l1.1,5l1,5.7l0.3-0.3l2.1-2.4l2.3-2.6l2.4-0.6l1.5-1.4l1.8-2.6l1.3,0.6l2.9-0.3l2.6-2.1l2-1.4l1.8-0.5l1.6,1.1l2.9,1.4l1.9,1.8
	l1.2,1.5l4.1,1.7v2.9l5.5,1.3l1.1,0.5l1.4-2l2.9,2l-1.3,2.5l-0.8,4l-1.8,2.6v2.1l0.7,1.8l5.1,1.4l4.3-0.1l3.1,1l2.1,0.3l1-2.1
	l-1.5-2.1v-1.8l-2.4-2.1l-2.1-5.5l1.3-5.3l-0.2-2.1l-1.3-1.3l1.5-2.3l0.5-2.1l1.9-1.3l1.9-1.6l0.5,1l-1.5,1.6l-1.3,3.7l0.3,1.1
	l1.8,0.3l0.5,5.5l-2.1,1l0.3,3.6l0.5-0.2l1.1-1.9l1.6,1.8L819,246l-0.3,3.4l2.6,3.4l3.9,0.5l1.6-0.8l3.2,4.2l1.4,0.5l6.7-2.8l2-4
	L839.8,245.3L839.8,245.3L839.8,245.3z M823.8,254.3l1.1,2.5l0.2,1.8l1.1,1.9l0.9-1.2l-0.7-3.1l-0.7-2.3L823.8,254.3L823.8,254.3
	L823.8,254.3z"/>
<path id="va-2" class="st2" d="M831.6,259l-0.1-2l6.5-2.5l-0.8,3.2l-2.9,3.8l-0.4,4.6l0.5,3.4l-1.8,5l-2.2,1.9l-1.5-4.6l0.5-5.5
	l1.6-4.2L831.6,259L831.6,259L831.6,259z M835,287.3l-58.2,12.6l-37.4,5.3l-6.7-0.4l-2.6,1.9l-7.3,0.2l-8.4,1l-10.9,1.6l10.5-5.6
	v-2.1l1.5-2.1l10.5-11.5l4,4.5l3.8,1l2.5-1.1l2.2-1.3l2.5,1.3l3.9-1.4l1.9-4.6l2.6,0.5l2.9-2.1l1.8,0.5l2.8-3.7l0.3-2.1l-1-1.3
	l1-1.9l5.3-12.3l0.6-5.7l1.2-0.5l2.2,2.4l3.9-0.3l1.9-7.6l2.8-0.6l1-2.7l2.6-2.4l2.8-5.7l0.1-5.1l9.8,3.8l0.8-5.1l3.7,1.6l0.1,2.9
	l5.8,1.3l2.1,1.2l1.7,2.1l-0.7,3.6l-2,2.6l0.1,2.1l0.6,1.9l5,1.3h4.5l3.1,1l1.9,0.3l0.7,3.1l3.2,0.4l0.9,1.2l-0.4,4.7l1.4,1.1
	l-0.5,1.9l1.2,0.8l-0.2,1.4l-2.7-0.1l0.1,1.6l2.3,1.5l0.1,1.4l1.8,1.8l0.5,2.5l-2.5,1.4l1.6,1.5l5.8-1.7L835,287.3L835,287.3
	L835,287.3z"/>
<path id="wv-2" class="st2" d="M761.2,231.9l1.1,4.9l1.1,6l2.1-2.6l2.3-3.1l2.5-0.6l1.5-1.4l1.8-2.6l1.5,0.6l2.9-0.3l2.6-2.1l2-1.4
	l1.8-0.5l1.3,1l3.6,1.8l1.9,1.8l1.4,1.3l-0.8,5.6l-5.8-2.5l-4.3-1.6l-0.1,5.2l-2.8,5.5l-2.5,2.4l-1.2,2.8l-2.6,0.5l-0.9,3.6l-1,4
	l-4,0.3l-2.3-2.4l-1.1,0.6l-0.6,5.5l-1.3,3.5l-5,11l0.9,1.2l-0.2,1.9l-2.8,3.9l-1.8-0.5l-3,2.2l-2.5-0.6l-2,4.6l-3.9,1.4l-2.5-1.3
	l-2.3,1.4l-2.4,1l-3.7-0.9l-1.1-1.2l-2.2-3l-3.1-2l-1.7-3.6l-4.3-3.5l-0.7-2.3l-2.6-1.5l-0.8-1.6l-0.2-5.3l2.2-0.1l1.9-0.8l0.2-2.8
	l1.6-1.5l0.2-5l1-3.9l1.3-0.6l1.3,1.1l0.5,1.8l1.8-1l0.5-1.6l-1.1-1.8v-2.4l1-1.3l2.3-3.4l1.3-1.4l2.1,0.5l2.3-1.6l3.1-3.4l2.3-3.9
	l0.3-5.7l0.5-5v-4.7l-1.1-3.1l1-1.4l1.3-1.3l3.5,19.8l4.6-0.8L761.2,231.9L761.2,231.9L761.2,231.9z"/>
<path id="oh-2" class="st2" d="M735.3,186.2l-6.1,4.1l-3.9,2.3l-3.4,3.7l-4,3.9l-3.2,0.8l-2.9,0.5l-5.5,2.6l-2.1,0.2l-3.4-3.1
	l-5.2,0.6l-2.6-1.4l-2.4-1.4l-4.9,0.7l-10.2,1.6l-11.2,2.2l1.3,14.6l1.8,13.7l2.6,23.4l0.6,4.8l4.1-0.1l2.4-0.8l3.4,1.5l2.1,4.4h5.1
	l1.9,2.1l1.8-0.1l2.5-1.3l2.5,0.4l5.4,0.5l1.7-2.1l2.3-1.3l2.1-0.7l0.7,2.8l1.8,1l3.5,2.3l2.2-0.1l1.3-0.5l0.2-2.8l1.6-1.5l0.1-4.8
	l1-4.1l1.3-0.6l1.3,1.1l0.5,1.7l1.7-1l0.4-1.5l-1.1-1.9l0.1-2.3l0.8-1.1l2.2-3.3l1-1.5l2.1,0.5l2.3-1.6l3.1-3.4l2.8-4.1l0.3-5.1
	l0.5-5l-0.2-5.3l-1-2.9l0.3-1.2l1.8-1.8l-2.3-9.1L735.3,186.2L735.3,186.2L735.3,186.2z"/>
<path id="in-2" class="st2" d="M619.6,292.9l0.1-2.9l0.5-4.5l2.3-2.9l1.8-3.9l2.6-4.2l-0.5-5.8l-1.8-2.8l-0.3-3.2l0.8-5.5l-0.5-7
	l-1.3-16l-1.3-15.4l-1-11.7l3.1,0.9l1.5,1l1.1-0.3l2.1-1.9l2.8-1.6l5.1-0.2l22-2.3l5.6-0.5l1.5,16l4.3,36.8l0.6,5.8l-0.4,2.3
	l1.2,1.8l0.1,1.4l-2.5,1.6l-3.5,1.5l-3.2,0.5l-0.6,4.9l-4.6,3.3l-2.8,4l0.3,2.4l-0.6,1.5h-3.3l-1.6-1.6l-2.5,1.3l-2.7,1.5l0.2,3
	l-1.2,0.3l-0.5-1l-2.2-1.5l-3.3,1.3l-1.5,3l-1.4-0.8l-1.5-1.6l-4.5,0.5l-5.6,1L619.6,292.9L619.6,292.9L619.6,292.9z"/>
<path id="il-2" class="st2" d="M619.5,293.2V290l0.6-4.6l2.3-2.9l1.9-4.1l2.2-4l-0.4-5.3l-2-3.5l-0.1-3.4l0.7-5.3l-0.8-7.2
	l-1.1-15.8l-1.3-15l-0.9-11.6l-0.3-0.9l-0.8-2.6l-1.3-3.7l-1.6-1.8l-1.5-2.6l-0.2-5.5l-45.8,2.6l0.2,2.4l2.3,0.7l0.9,1.1l0.5,1.8
	l3.9,3.4l0.7,2.3l-0.7,3.4l-1.8,3.7l-0.7,2.5l-2.3,1.8l-1.8,0.7L565,218l-0.7,1.8l-0.7,2.1l0.7,1.4l1.8,1.6l-0.2,4.1l-1.8,1.6
	l-0.7,1.6v2.7l-1.8,0.5l-1.6,1.1l-0.2,1.4l0.2,2.1l-1.7,1.3l-1,2.8l0.5,3.7l2.3,7.3l7.3,7.5l5.5,3.7l-0.2,4.3l0.9,1.4l6.4,0.5
	l2.7,1.4l-0.7,3.7l-2.3,5.9l-0.7,3.2l2.3,3.9l6.4,5.3l4.6,0.7l2.1,5l2.1,3.2l-0.9,3l1.6,4.1l1.8,2.1l1.4-0.9l0.9-2.1l2.2-1.8
	l2.1-0.6l2.6,1.2l3.6,1.4l1.2-0.3l0.2-2.3l-1.3-2.4l0.3-2.4l1.8-1.4l3-0.8l1.3-0.5l-0.6-1.4l-0.8-2.4l1.4-1L619.5,293.2L619.5,293.2
	L619.5,293.2z"/>
<path id="ct-2" class="st2" d="M874.1,171.8l-3.7-14.9l-4.7,0.9l-21.2,4.7l1,3.2l1.5,7.3l0.2,9l-1.2,2.2l1.9,1.9l4.3-3.9l3.6-3.2
	l1.9-2.1l0.8,0.6l2.8-1.4l5.2-1.1L874.1,171.8L874.1,171.8z"/>
<path id="wi-2" class="st2" d="M615.1,190.3l-0.1-3.2l-1.2-4.5l-0.7-6.1l-1.1-2.4l1-3.1l0.8-2.9l1.5-2.6l-0.7-3.4l-0.7-3.6l0.5-1.8
	l1.9-2.4l0.2-2.8l-0.8-1.3l0.7-2.6l-0.5-4.2l2.8-5.7l2.9-6.8l0.2-2.3l-0.3-1l-0.8,0.5l-4.2,6.3l-2.8,4l-1.9,1.8l-0.8,2.3l-2,0.8
	l-1.1,1.9l-1.5-0.3l-0.2-1.8l1.3-2.4l2.1-4.7l1.8-1.6l1-2.4l-2.6-1.9l-2-10.4l-3.5-1.3l-2-2.3l-12.1-2.7l-2.9-1l-8.2-2.2l-7.9-1.2
	l-3.8-5.1l-0.8,0.6l-1.2-0.2l-0.7-1.1l-1.3,0.3l-1.1,0.2l-1.8,1l-1-0.7l0.7-1.9l1.9-3.1l1.1-1.1l-1.9-1.4l-2.1,0.8l-2.9,1.9
	l-7.4,3.2l-2.9,0.7l-2.9-0.5l-1-0.9l-2.1,2.8l-0.2,2.7v8.5l-1.1,1.6l-5.3,3.9l-2.3,5.9l0.5,0.2l2.5,2.1l0.7,3.2l-1.8,3.2v3.9
	l0.5,6.6l3,3h3.4l1.8,3.2l3.4,0.5l3.9,5.7l7.1,4.1l2.1,2.7l0.9,7.4l0.7,3.3l2.3,1.6l0.2,1.4l-2.1,3.4l0.2,3.2l2.5,3.9l2.5,1.1l3,0.5
	l1.3,1.4L615.1,190.3L615.1,190.3L615.1,190.3z"/>
<path id="nc-2" class="st2" d="M835,287.2l2.1,4.9l3.6,6.5l2.4,2.4l0.7,2.3l-2.4,0.2l0.8,0.6l-0.3,4.2l-2.6,1.3l-0.7,2.1l-1.3,2.9
	l-3.7,1.6l-2.4-0.3l-1.5-0.2l-1.6-1.3l0.3,1.3v1h1.9l0.8,1.3l-1.9,6.3h4.2l0.7,1.6l2.3-2.3l1.3-0.5l-1.9,3.6l-3.1,4.9h-1.3l-1.1-0.5
	l-2.8,0.6l-5.2,2.4l-6.5,5.3l-3.4,4.7l-1.9,6.5L810,353l-4.7,0.5l-5.5,1.3l-10-8.2l-12.6-7.6l-2.9-0.8l-12.6,1.5l-4.3,0.8l-1.6-3.2
	l-3-2.1l-16.5,0.5l-7.3,0.8l-9,4.5l-6.1,2.6l-21.2,2.6l0.5-4l1.8-1.5l2.8-0.6l0.7-3.7l4.2-2.8l3.9-1.5l4.2-3.6l4.4-2.1l0.7-3.1
	l3.9-3.9l0.7-0.2l0.8,1.1l1.9,0.3l2.3-3.6l2.1-0.6l2.3,0.3l1.6-3.6l2.9-2.6l0.5-2.1l0.2-3.6h4.3l7.2-0.9l15.8-2.3l15.1-2.1l21.6-4.7
	l20-4.3l11.2-2.4L835,287.2L835,287.2L835,287.2z M839.3,320.4l2.6-2.5l3.2-2.6l1.5-0.6l0.2-2l-0.7-6.1l-1.5-2.3l-0.7-1.9l0.7-0.2
	l2.8,5.5l0.4,4.5l-0.2,3.4l-3.4,1.5l-2.8,2.4l-1.1,1.2L839.3,320.4L839.3,320.4z"/>
<path id="ma-2" class="st2" d="M899.6,166.2l2.2-0.7l0.5-1.7l1,0.1l1,2.3l-1.3,0.5l-3.9,0.1L899.6,166.2L899.6,166.2L899.6,166.2z
	 M890.3,167l2.3-2.6h1.6l1.8,1.5l-2.4,1l-2.2,1L890.3,167L890.3,167z M855.5,145l17.7-4.6l2.3-0.6l1.9-2.8l3.7-1.7l2.9,4.4l-2.4,5.2
	l-0.3,1.4l1.9,2.6l1.1-0.8h1.8l2.3,2.6l3.9,6l3.6,0.5l2.3-1l1.8-1.8l-0.8-2.8l-2.1-1.6l-1.5,0.8l-1-1.3l0.5-0.5l2.1-0.2l1.8,0.8
	l1.9,2.4l1,2.9l0.3,2.4l-4.2,1.4l-3.9,1.9l-3.9,4.5l-1.9,1.4v-1l2.4-1.4l0.5-1.8l-0.8-3.1l-2.9,1.4l-0.8,1.4l0.5,2.3l-2.1,1
	l-2.8-4.5l-3.4-4.4l-2.1-1.8l-6.5,1.9l-5.3,1.4l-20.7,4.6l-0.7-4.8l0.7-10.6l4.3-0.9L855.5,145L855.5,145z"/>
<path id="tn-2" class="st4" d="M696.7,311.2l-51.9,5l-15.8,1.7l-4.6,0.5h-3.9l-0.2,4.1l-8.2,0.3l-7,0.6l-8.1-0.1l-1.4,7.1l-1.6,5.5
	l-3.3,2.8l-1.3,4.4l-0.3,2.6l-4,2.3l1.5,3.6l-1,4.4l-1,0.8l108.2-10.4l0.4-4l1.8-1.5l2.8-0.8l0.7-3.7l4.1-2.7l4-1.5l4.1-3.6l4.4-2
	l0.5-3.1l4.1-4l0.5-0.1l0.8,1.1l1.9,0.4l2.3-3.6l2.1-0.6l2.3,0.3l1.6-3.5l3-2.6l0.4-1.9l0.3-3.7l-2.2-0.2l-2.6,2h-7l-18.4,2.4
	L696.7,311.2L696.7,311.2L696.7,311.2z"/>
<path id="ar-2" class="st4" d="M593.8,335.9l-4,0.7l-5.1-0.6l0.4-1.6l3-2.6l0.9-3.7l-1.8-3l-78.4,2.5l1.6,6.9v8.2l1.4,11l0.2,37.8
	l2.3,1.9l3-1.4l2.7,1.1l0.7,6.6l55.6-1.1l1.2-2.1l-0.3-3.5l-1.8-3l1.6-1.5l-1.6-2.5l0.7-2.5l1.4-5.6l2.5-2.1l-0.7-2.3l3.7-5.4
	l2.7-1.4l-0.1-1.5l-0.3-1.8l2.9-5.6l2.4-1.3l-6,0.3l2-5.2l-1.5-3.6l4-2.3l1.6-7L593.8,335.9L593.8,335.9L593.8,335.9z"/>
<path id="mo-2" class="st2" d="M558.4,241l-2.5-3.1l-1.1-2.3l-64.4,2.4l-2.3,0.1l1.3,2.5l-0.2,2.3l2.5,3.9l3.1,4.1l3.1,2.7l2.2,0.2
	l1.5,0.9v3l-1.8,1.6l-0.5,2.3l2.1,3.4l2.5,3l2.5,1.8l1.4,11.7l0.3,36.1l0.2,4.7l0.5,5.4l22.4-0.9l23.2-0.7l20.8-0.8l11.7-0.2
	l2.2,3.4l-0.7,3.3l-3.1,2.4l-0.6,1.8l5.4,0.5l3.9-0.7l1.7-5.5l0.7-5.9l2.1-2.6l2.6-1.5v-3l1-1.9l-1.7-2.5l-1.3,1l-2-2.2l-1.3-4.8
	l0.8-2.5l-1.9-3.4l-1.8-4.6l-4.8-0.8l-7-5.6l-1.7-4.1l0.8-3.2l2.1-6.1l0.5-2.9l-2-1l-6.9-0.8l-1-1.7l-0.1-4.2l-5.5-3.4l-7-7.8
	l-2.3-7.3l-0.2-4.2L558.4,241L558.4,241L558.4,241z"/>
<path id="ga-2" class="st2" d="M672.3,348.4v2.2l0.2,2.1l0.7,3.4l3.4,7.9l2.4,9.9l1.5,6.1l1.6,4.9l1.5,7l2.1,6.3l2.6,3.4l0.5,3.4
	l1.9,0.8l0.2,2.1l-1.8,4.9l-0.5,3.2l-0.2,1.9l1.6,4.4l0.3,5.3l-0.8,2.4l0.7,0.8l1.5,0.8l0.2,3.2l2.2,3.4l2.3,2.2l7.9,0.2l10.8-0.6
	l21.5-1.3l5.5-0.7h4.6l0.2,2.9l2.6,0.8l0.3-4.4l-1.6-4.5l1.1-1.6l5.8,0.8l5,0.3l-0.8-6.3l2.3-10l1.5-4.2l-0.5-2.6l3.3-6.2l-0.5-1.4
	l-1.9,0.7l-2.6-1.3l-0.7-2.1l-1.3-3.6l-2.3-2.1l-2.6-0.6l-1.6-4.9l-2.9-6.3l-4.2-1.9l-2.1-1.9l-1.3-2.6l-2.1-1.9l-2.3-1.3l-2.3-2.9
	l-3.1-2.3l-4.5-1.8l-0.5-1.5l-2.4-2.9l-0.5-1.5l-3.4-5l-3.5,0.1l-3.8-2.4l-1.4-1.3l-0.3-1.8l0.9-1.9l2.2-1.1l-0.6-2.1L672.3,348.4
	L672.3,348.4L672.3,348.4z"/>
<path id="sc-2" class="st2" d="M764.9,401.1l-1.8,1l-2.6-1.3l-0.7-2.1l-1.3-3.6l-2.3-2.1l-2.6-0.6l-1.6-4.9l-2.8-6l-4.2-1.9
	l-2.1-1.9l-1.3-2.6l-2.1-1.9l-2.3-1.3l-2.3-2.9l-3.1-2.3l-4.5-1.8l-0.5-1.5l-2.4-2.9l-0.5-1.5l-3.4-5.2l-3.4,0.2l-4-2.4l-1.3-1.3
	l-0.3-1.8l0.8-1.9l2.3-1l-0.5-2.3l5.8-2.3l9.1-4.6l7.8-0.8l16.1-0.4l2.6,1.9l1.7,3.4l4.3-0.6l12.6-1.5l2.9,0.8l12.6,7.6l10.4,8.1
	l-5.4,5.5l-2.6,6.1l-0.5,6.3l-1.6,0.8l-1.1,2.8l-2.4,0.6l-2.1,3.6l-2.8,2.8l-2.3,3.4l-1.6,0.8l-3.6,3.3l-2.9,0.2l1,3.2l-5,5.5
	L764.9,401.1L764.9,401.1L764.9,401.1z"/>
<path id="ky-2" class="st2" d="M726,288.2l-2.3,2.4l-3.6,4l-4.9,5.5l-1.2,1.7l-0.1,2.1l-4.4,2.2l-5.7,3.4l-7.2,1.8l-51.9,4.9
	l-15.7,1.7l-4.6,0.5h-3.9l-0.2,4.2l-8.2,0.1l-7,0.6l-8-0.1l1.2-1.3l2.5-1.5l0.2-3.2l0.9-1.8l-1.6-2.5l0.8-1.9l2.3-1.8l2.1-0.6
	l2.8,1.3l3.6,1.3l1.1-0.3l0.2-2.3l-1.3-2.4l0.3-2.3l1.9-1.5l2.6-0.6l1.6-0.6l-0.8-1.8l-0.7-1.9l1.5-1l1.2-3.7l3-1.5l5.3-1l4.5-0.5
	l1.4,1.6l1.5,0.9l1.6-3.1l3.2-1.3l2.2,1.5l0.4,1l1.2-0.3l-0.2-3l3.1-1.8l2.2-1.1l1.5,1.7h3.3l0.6-1.6l-0.4-2.3l2.6-4l4.8-3.4
	l0.7-4.8l2.9-0.5l3.8-1.6l2.4-1.7l-0.2-1.6l-1.1-1.5l0.6-3l4.2-0.1l2.3-0.8l3.3,1.4l2,4.4h5.1l2,2.2l1.6-0.1l2.6-1.3l5.2,0.6
	l2.6,0.2l1.7-2.1l2.6-1.4l1.9-0.7l0.7,2.8l2,1.1l2.6,2.1l0.1,5.7l0.8,1.6l2.6,1.6l0.8,2.3l4.2,3.4l1.8,3.6L726,288.2L726,288.2
	L726,288.2z"/>
<path id="al-2" class="st2" d="M631.3,453.3l-1.5-14.3l-2.8-18.8l0.2-14.1l0.8-31l-0.2-16.6l0.2-6.4l44.5-3.6l-0.2,2.2l0.2,2.1
	l0.7,3.4l3.4,7.9l2.4,9.9l1.5,6.1l1.6,4.9l1.5,7l2.1,6.3l2.6,3.4l0.5,3.4l1.9,0.8l0.2,2.1l-1.8,4.9l-0.5,3.2l-0.2,1.9l1.6,4.4
	l0.3,5.3l-0.8,2.4l0.7,0.8l1.5,0.8l0.3,2.9l-5.6-0.4l-6.8,0.6l-25.5,2.9l-10.4,1.4l-0.2,2.9l1.8,1.8l2.6,1.9l0.6,7.9l-5.5,2.6
	l-3-0.3l2.8-1.9v-1l-3.1-6l-2.3-0.6l-1.5,4.4l-1.3,2.8l-0.7-0.2L631.3,453.3L631.3,453.3L631.3,453.3z"/>
<path id="la-2" class="st2" d="M608,452.1l-3.3-3.2l1-5.5l-0.7-0.9l-9.3,1l-25,0.5l-0.7-2.4l0.9-8.5l3.3-6l5-8.7l-0.6-2.4l1.3-0.7
	l0.5-2l-2.3-2.1l-0.1-1.9l-1.8-4.4l-0.2-6.3l-55.5,0.9v9.6l0.7,9.4l0.7,3.9l2.5,4.1l0.9,5l4.3,5.5l0.2,3.2l0.7,0.7l-0.7,8.5l-3,5
	l1.6,2.1l-0.7,2.5l-0.7,7.3l-1.4,3.2l0.1,3.6l4.7-1.5l12.1,0.2l10.3,3.6l6.5,1.1l3.7-1.5l3.2,1.1l3.2,1l0.8-2.1l-3.2-1.1l-2.6,0.5
	l-2.8-1.6l0.8-1.5l3.1-1l1.8,1.5l1.8-1l3.2,0.6l1.5,2.4l0.3,2.3l4.5,0.3l1.8,1.8l-0.8,1.6l-1.3,0.8l1.6,1.6l8.4,3.6l3.6-1.3l1-2.4
	l2.6-0.6l1.8-1.5l1.3,1l0.8,2.9l-2.3,0.8l0.7,0.6l3.4-1.3l2.3-3.4l0.8-0.5l-2.1-0.3l0.8-1.6l-0.2-1.5l2.1-0.5l1.1-1.3l0.7,0.8
	l0.7,3.1l4.2,0.6l4,1.9l1,1.5h2.9l1.1,1l2.3-3.1v-1.5h-1.3l-3.4-2.8l-5.8-0.8l-3.2-2.3l1.1-2.8l2.3,0.3l0.2-0.6l-1.8-1v-0.5h3.2
	l1.8-3.1l-1.3-1.9l-0.3-2.8l-1.5,0.2l-1.9,2.1l-0.7,2.6l-3.1-0.6l-1-1.8l1.8-1.9l1.9-3.5l-1.1-2.4L608,452.1L608,452.1L608,452.1z"
	/>
<path id="ms-2" class="st2" d="M631.6,452.2l-0.3,1.3h-5.2l-1.5-0.8l-2.1-0.3l-6.8,1.9l-1.8-0.8l-2.6,4.2l-1.1,0.8l-1.1-2.5
	l-1.1-3.9l-3.4-3.2l1.1-5.5l-0.7-0.9l-1.8,0.2l-7.9,0.9l-24.5,0.4l-0.8-2.2l0.9-8.4l3.1-5.7l5.2-9.1l-0.5-2.4l1.2-0.7l0.4-1.9
	l-2.3-2.1l-0.1-2.1l-1.8-4.1l-0.1-6l1.3-2.5l-0.2-3.4l-1.8-3.1l1.5-1.5l-1.6-2.5l0.5-1.6l1.6-6.5l2.5-2l-0.6-2.4l3.7-5.3l2.8-1.4
	l-0.2-1.7l-0.3-1.7l2.9-5.6l2.3-1.2l0.2-0.9l37.3-3.9l0.2,6.3l0.2,16.6l-0.8,31l-0.2,14.1l2.8,18.8L631.6,452.2L631.6,452.2
	L631.6,452.2z"/>
<path id="ia-2" class="st2" d="M569.2,192.5l0.3,2.8l2.2,0.6l1,1.2l0.5,1.9l3.8,3.4l0.7,2.4l-0.7,3.4l-1.6,3.2l-0.8,2.7l-2.2,1.6
	l-1.7,0.6l-5.6,1.9l-1.4,3.9l0.7,1.4l1.8,1.7l-0.3,4l-1.8,1.5l-0.8,1.6l0.1,2.8l-1.9,0.5l-1.6,1.1l-0.3,1.4l0.3,2.1l-1.5,1.1
	l-2.5-3.1l-1.3-2.4l-65.7,2.5l-0.9,0.2l-2-4.5l-0.2-6.6l-1.6-4.1l-0.7-5.3l-2.3-3.7l-0.9-4.8l-2.7-7.5l-1.1-5.4l-1.4-2.2l-1.6-2.7
	l2-4.8l1.4-5.7l-2.7-2.1l-0.5-2.7l0.9-2.5h1.7l82.6-1.3l0.8,4.2l2.3,1.6l0.3,1.4l-2,3.4l0.2,3.2l2.5,3.8l2.5,1.3l3.1,0.5
	L569.2,192.5L569.2,192.5L569.2,192.5z"/>
<path id="mn-2" class="st2" d="M475.2,121.7l-0.5-8.5l-1.7-7.3l-1.8-13.5l-0.5-9.8l-1.8-3.4l-1.6-5V63.9L468,60l-1.8-5.5h30.1
	l0.3-8.2l0.6-0.2l2.3,0.5l1.9,0.8l0.8,5.5l1.5,6.1l1.6,1.6h4.9l0.3,1.4l6.3,0.3v2.1h4.8l0.3-1.3L523,62l2.3-0.7l1.3,1h2.9l3.9,2.6
	l5.3,2.4l2.4,0.5l0.5-1l1.5-0.5l0.5,2.9l2.6,1.3l0.5-0.5l1.3,0.2v2.1l2.6,1h3.1l1.6-0.8l3.2-3.2l2.6-0.5l0.8,1.8l0.5,1.3h1l1-0.8
	l8.9-0.3l1.8,3.1h0.7l0.7-1.1l4.4-0.4l-0.6,2.3l-3.9,1.8l-9.3,4.1l-4.8,2l-3.1,2.6l-2.4,3.6l-2.3,3.9l-1.8,0.8l-4.5,5l-1.3,0.2
	l-4.3,2.8l-2.5,3.2l-0.2,3.2l0.1,8l-1.4,1.7l-5.1,3.8l-2.2,6l2.9,2.2l0.7,3.2L533,136l0.2,3.8l0.4,6.7l3,3h3.3l1.9,3.1l3.4,0.5
	l3.9,5.7l7.1,4.1l2.1,2.9l0.7,6.4l-81.2,1.1l-0.3-35.7l-0.5-3l-4.1-3.4l-1.1-1.8v-1.5l2.1-1.6l1.4-1.4L475.2,121.7L475.2,121.7
	L475.2,121.7z"/>
<path id="ok-2" class="st2" d="M380.3,313.7l-16.7-1.3l-0.9,11l20.5,1.2l32.1,1.3l-2.3,24.4l-0.5,17.8l0.2,1.6l4.3,3.7l2.1,1.1
	l0.7-0.2l0.7-2.1l1.4,1.8h2.1v-1.4l2.7,1.4l-0.5,3.9l4.1,0.2l2.5,1.1l4.1,0.7l2.5,1.8l2.3-2.1l3.4,0.7l2.5,3.4h0.9v2.3l2.3,0.7
	l2.3-2.3l1.8,0.7h2.5l0.9,2.5l6.3,2.1l1.4-0.7l1.8-4.1h1.1l1.1,2.1l4.1,0.7l3.7,1.4l3,0.9l1.8-0.9l0.7-2.5h4.3l2.1,0.9l2.7-2.1h1.1
	l0.7,1.6h4.1l1.6-2.1l1.8,0.5l2.1,2.5l3.2,1.8l3.2,0.9l1.9,1.1l-0.4-37.2l-1.4-11l-0.2-8.9l-1.4-6.5l-0.8-7.2l-0.1-3.8l-12.1,0.3
	l-46.4-0.5l-45-2.1L380.3,313.7L380.3,313.7L380.3,313.7z"/>
<path id="tx-2" class="st2" d="M361.5,323.5l22.7,1.1l31.1,1.1l-2.3,23.5l-0.3,18.1l0.1,2.1l4.3,3.8l2,1.5l1.2-0.6l0.4-1.8l1.1,1.8
	h2.1v-1.5l1.7,1l1.1,0.4l-0.4,4l4.1,0.1l2.9,1.2l4,0.5l2.4,2.1l2.1-2.1l3.7,0.6l2.2,3.2l1.1,0.3l-0.2,2l2.2,0.8l2.3-2l2.1,0.6h2.2
	l0.9,2.4l6.3,2.1l1.6-0.8l1.5-4.2h0.3l0.9,0.1l1.2,2.1l3.9,0.7l3.3,1.1l3.4,1.2l1.8-1l0.7-2.5h4.5l1.8,0.9l2.8-2.1h1.1l0.9,1.6h4
	l1.5-2l1.9,0.4l2,2.4l3.5,2l2.9,0.8l1.5,0.8l2.5,2l3-1.3l2.7,1.1l0.6,6.1v9.7l0.7,9.5l0.7,3.6l2.7,4.4l0.9,5l4.2,5.5l0.2,3.1
	l0.8,0.8l-0.7,8.4l-2.9,5l1.5,2.1l-0.6,2.3l-0.7,7.4l-1.5,3.3l0.3,3.5l-5.7,1.6l-9.9,4.5l-1,1.9l-2.6,1.9l-2.1,1.5l-1.3,0.8
	l-5.4,5.9l-2.8,2.1l-5.3,3.2l-5.7,2.4l-6.3,3.4l-1.8,1.5l-5.8,3.6l-3.4,0.7l-3.9,5.5l-4,0.3l-1,1.9l2.3,1.9l-1.5,5.5l-1.3,4.5
	l-1.1,3.9l-0.8,4.5l0.8,2.4l1.8,7l1,6.1l1.8,2.8l-1,1.4l-3.1,1.9l-5.7-3.9l-5.5-1.1l-1.3,0.5l-3.2-0.7l-4.2-3.1l-5.2-1.1l-7.6-3.4
	l-2.1-3.9l-1.3-6.5l-3.2-1.9L417,530l0.6-0.7l0.3-3.4l-1.3-0.7l-0.6-1l1.3-4.4l-1.6-2.3l-3.2-1.3l-3.4-4.4l-3.6-6.6l-4.2-2.6
	l0.2-1.9l-5.3-12.3l-0.8-4.2l-1.8-1.9l-0.2-1.5l-6-5.3l-2.6-3.1v-1.1l-2.6-2.1l-6.8-1.1l-7.4-0.6l-3.1-2.3l-4.5,1.8l-3.6,1.5
	l-2.3,3.2l-1,3.7l-4.4,6.1l-2.4,2.4l-2.6-1l-1.8-1.1l-1.9-0.6l-3.9-2.3v-0.6l-1.8-1.9l-5.2-2.1l-7.4-7.8l-2.3-4.7v-8.1l-3.2-6.5
	l-0.5-2.8l-1.6-1l-1.1-2.1l-5-2.1l-1.3-1.6l-7.1-7.9l-1.3-3.2l-4.7-2.3l-1.5-4.4l-2.6-2.9l-1.9-0.5l-0.6-4.7l8,0.7l29,2.7l29,1.6
	l2.2-19.5l3.9-55.6l1.6-18.8h1.4 M461.7,553.1l-0.6-7.1l-2.8-7.2l-0.6-7l1.5-8.2l3.3-6.9l3.5-5.4l3.1-3.6l0.6,0.2l-4.8,6.6l-4.4,6.5
	l-2,6.6l-0.3,5.2l0.9,6.1l2.6,7.2l0.5,5.2l0.2,1.5L461.7,553.1L461.7,553.1L461.7,553.1z"/>
<path id="nm-2" class="st2" d="M288.1,416.9l-0.8-4.8l8.6,0.5l30.2,3l27.3,1.7l2.2-18.7l3.9-55.9l1.7-19.4l1.6,0.1l0.8-11.2
	l-104-10.6L242.1,422l15.5,2l1.3-10L288.1,416.9L288.1,416.9z"/>
<path id="ks-2" class="st2" d="M507.9,317.3l-12.6,0.2l-46.1-0.5l-44.6-2.1l-24.6-1.3l3.9-64.6l22.1,0.7l40.3,0.8l44.3,1h5.1
	l2.2,2.2h2l1.6,1l-0.1,3l-1.8,1.7l-0.3,2.2l1.8,3.4l3,3.2l2.3,1.6l1.3,11.2L507.9,317.3L507.9,317.3L507.9,317.3z"/>
<path id="ne-2" class="st2" d="M486.1,233.6l3.2,7l-0.1,2.3l3.5,5.5l2.7,3.1h-5l-43.5-0.9l-40.8-0.9l-22.3-0.8l1.1-21.3l-32.3-2.9
	l4.3-44l15.5,1l20.1,1.1l17.8,1.1l23.8,1.1l10.8-0.5l2.1,2.3l4.8,3l1.1,0.9l4.3-1.4l3.9-0.5l2.7-0.2l1.8,1.4l4.1,1.6l3,1.6l0.5,1.6
	l0.9,2.1h1.8l0.8,0.1l0.9,4.7l2.9,8.5l0.6,3.8l2.5,3.8l0.6,5.1l1.6,4.2L486.1,233.6L486.1,233.6L486.1,233.6z"/>
<path id="sd-2" class="st2" d="M476.5,196.9v-0.6l-2.9-4.9l1.9-4.7l1.5-5.9l-2.8-2.1l-0.4-2.7l0.8-2.6h3.2l-0.1-5l-0.3-30.2
	l-0.6-3.8l-4.1-3.3l-1-1.7l-0.1-1.6l2-1.5l1.5-1.7l0.2-2.7l-58.3-1.6l-54.8-3.4l-5.3,63.7l14.6,0.9l20,1.2l17.7,0.9l23.8,1.3l12-0.4
	l2,2.3l5.2,3.3l0.8,0.7l4.5-1.4l6.5-0.6l1.7,1.3l4.2,1.6l3,1.6l0.4,1.5l1,2.2L476.5,196.9L476.5,196.9L476.5,196.9z"/>
<path id="nd-2" class="st2" d="M475.3,121.8l-0.6-8.4l-1.7-6.8l-1.9-13l-0.5-11l-1.7-3.1l-1.8-5.2V63.9l0.6-3.8l-1.8-5.5L437.3,54
	l-18.6-0.7L392.2,52l-23-2.1l-7,67.2l54.9,3.3L475.3,121.8L475.3,121.8z"/>
<path id="wy-2" class="st2" d="M360.4,136.2l-106.7-13.5l-14.1,88.5l113.3,13.6L360.4,136.2L360.4,136.2L360.4,136.2z"/>
<path id="mt-2" class="st2" d="M369.2,49.9l-30.7-2.8l-29.3-3.6l-29.3-4l-32.3-5.3l-18.4-3.4l-32.7-6.9L192,45.2l3.4,7.5l-1.4,4.6
	l1.8,4.6l3.2,1.4l4.6,10.8l2.7,3.2l0.5,1.1l3.4,1.1l0.5,2.1l-7.1,17.6v2.5l2.5,3.2h0.9l4.8-3l0.7-1.1l1.6,0.7l-0.2,5.3l2.7,12.6
	l3,2.5l0.9,0.7l1.8,2.3l-0.5,3.4l0.7,3.4l1.1,0.9l2.3-2.3h2.7l3.2,1.6l2.5-0.9h4.1l3.7,1.6l2.7-0.5l0.5-3l3-0.7l1.4,1.4l0.5,3.2
	l1.4,0.8l1.9-11l106.8,13.4L369.2,49.9L369.2,49.9z"/>
<path id="co-2" class="st2" d="M380,313.9l4.9-86.3l-113.4-12.7l-12.2,87.9L380,313.9L380,313.9z"/>
<path id="id-2" class="st2" d="M148.5,169.4l8.8-35.2l1.4-4.2l2.5-5.9l-1.3-2.3l-2.5,0.1l-0.8-1l0.5-1.1l0.3-3.1l4.5-5.5l1.8-0.5
	l1.1-1.1l0.6-3.2l0.9-0.7l3.9-5.8l3.9-4.3l0.2-3.8l-3.4-2.6l-1.5-4.4L183,21.5l13.5,2.5L192,45.2l3.6,7.5l-1.6,4.7l2,4.6l3.1,1.3
	l3.8,9.6l3.5,4.4l0.5,1.1l3.3,1.1l0.4,2.1l-7,17.4l-0.2,2.6l2.6,3.3l0.9-0.1l4.9-3l0.7-1.1l1.6,0.7l-0.3,5.3l2.7,12.6l3.9,3.2
	l1.7,2.2l-0.7,4.1l1.1,2.8l1.1,1.1l2.5-2.4l2.9,0.1l2.9,1.3l2.8-0.7l3.8-0.2l4,1.6l2.7-0.3l0.5-3l2.9-0.8l1.3,1.5l0.4,2.9l1.4,1.2
	l-8.4,53.6L148.5,169.4L148.5,169.4L148.5,169.4z"/>
<path id="ut-2" class="st2" d="M259.5,303l-83.8-11.9l20.6-112.5l46.8,8.8l-1.5,10.6l-2.3,13.2l7.8,0.9l16.4,1.8l8.2,0.9L259.5,303
	L259.5,303z"/>
<path id="az-2" class="st2" d="M144.9,375.5l-2.6,2.2l-0.3,1.5l0.5,1l18.9,10.7l12.1,7.6l14.7,8.6l16.8,10l12.3,2.4l24.9,2.7
	l17.3-119.1l-83.7-11.9l-3.1,16.4h-1.6l-1.7,2.6l-2.5-0.1l-1.3-2.7l-2.7-0.3L162,306h-1l-0.9,0.6l-1.9,1l-0.1,7l-0.2,1.7l-0.6,12.6
	l-1.5,2.2l-0.6,3.3l2.7,4.9l1.3,5.8l0.8,1l1,0.6l-0.1,2.3l-1.6,1.4l-3.4,1.7L154,354l-1.5,3.7l-0.6,4.9l-2.9,2.7l-2.1,0.7l0.1,0.8
	l-0.5,1.7l0.5,0.8l3.7,0.6l-0.6,2.7l-1.5,2.2L144.9,375.5L144.9,375.5L144.9,375.5z"/>
<path id="nv-2" class="st2" d="M196.4,178.5l-23.6,128.8l-1.8,0.4l-1.6,2.4H167l-1.5-2.7l-2.6-0.4l-0.8-1.1h-1l-2.8,1.6l-0.3,6.8
	l-0.4,5.8l-0.4,8.6l-1.4,2.1l-2.4-1.1L84.3,225.4l19-67.6L196.4,178.5L196.4,178.5L196.4,178.5z"/>
<path id="or-2" class="st2" d="M148.7,168.4l8.9-34.8l1.1-4.2l2.4-5.6l-0.6-1.2l-2.5-0.1l-1.3-1.7l0.5-1.5l0.5-3.3l4.5-5.5l1.8-1.1
	l1.1-1.1l1.5-3.6l4.1-5.7l3.6-3.9l0.2-3.4l-3.3-2.5l-1.8-4.6L156.7,81l-15.1-3.5l-15.4,0.1l-0.5-1.4l-5.5,2.1l-4.5-0.6l-2.4-1.6
	l-1.3,0.7l-4.7-0.2l-1.7-1.4l-5.3-2.1l-0.8,0.1l-4.3-1.3l-1.9,1.8l-6.2-0.3l-5.9-4.1l0.7-0.8l0.2-7.8l-2.3-3.9l-4.1-0.6L75,53.8
	l-2.3-0.5l-5.8,2.1l-2.3,6.5l-3.3,10l-3.2,6.5l-5,14.1l-6.5,13.4l-8.1,12.6l-1.9,2.9l-0.8,8.6l0.4,12.1L148.7,168.4L148.7,168.4
	L148.7,168.4z"/>
<path id="wa-2" class="st3" d="M102.1,0.5l4.4,1.5l9.7,2.8l8.6,1.9l20.1,5.7l23,5.7l15.2,3.2l-13.6,63.6l-12.4-3.5l-15.5-3.6h-15.2
	l-0.5-1.3l-5.6,2.2l-4.6-0.7l-2.2-1.6l-1.5,0.5l-4.7-0.1l-1.7-1.3l-5.3-2.1l-0.7,0.2l-4.4-1.7l-1.9,1.8L87,73.4l-5.9-4.1l0.8-0.9
	l0.1-7.7l-2.3-3.8l-4.1-0.6l-0.7-2.5l-2.3-0.5L69,54.5l-2.3-3.2l0.3-2.9l2.8-0.3l1.6-4l-2.5-1.2l0.2-3.7l4.4-0.7l-2.8-2.8l-1.4-7.1
	l0.7-2.9v-7.9l-1.8-3.2l2.3-9.4l2.1,0.5L75,8.6l2.8,2.6l3.2,1.9l4.5,2.1l3.1,0.6l2.9,1.5l3.4,1l2.3-0.2v-2.4l1.3-1.1l2.1-1.3
	l0.3,1.1l0.3,1.8l-2.3,0.5l-0.3,2.1l1.8,1.5l1.1,2.4l0.7,1.9l1.4-0.2l0.2-1.3l-1-1.3l-0.5-3.2l0.8-1.8l-0.7-1.5V13l1.8-3.6l-1.1-2.6
	l-2.4-4.9l0.3-0.8L102.1,0.5L102.1,0.5z M92.6,6.5l2-0.2l0.5,1.4l1.5-1.6H99l0.8,1.5l-1.5,1.7l0.7,0.8l-0.7,2l-1.4,0.4L96,12.3
	l1.4-2.6l-1.7-0.6l-0.3,1.5l-0.7,0.6l-1.5-2.3L92.6,6.5L92.6,6.5z"/>
<g id="ca-2">
	<path class="st2" d="M144.7,375.1l3.9-0.5l1.5-2l0.5-2.9l-3.6-0.6l-0.5-0.7l0.5-2l-0.2-0.6l1.9-0.6l3-2.8l0.6-5l1.4-3.4l1.9-2.2
		l3.5-1.6l1.6-1.6l0.1-2.1l-1-0.6l-1-1.1l-1.2-5.9l-2.7-4.8l0.6-3.5l-2.4-1l-69-104.2l18.9-67.6l-67.1-15.7l-1.5,4.7l-0.2,7.4
		L29,166l-3.1,2.6l-0.3,1.1l-1.8,0.8l-1.5,4.2l-0.8,3.2l2.8,4.2l1.6,4.2l1.1,3.6l-0.3,6.5l-1.8,3.1l-0.6,5.8l-1,3.7l1.8,3.9l2.8,4.5
		l2.3,4.9l1.3,4l-0.3,3.2l-0.3,0.5v2.1l5.7,6.3l-0.5,2.4l-0.7,2.3l-0.7,1.9l0.2,8.2l2.1,3.7l1.9,2.6l2.8,0.5l1,2.8l-1.1,3.6
		l-2.1,1.6h-1.1l-0.8,3.9l0.5,2.9l3.2,4.4l1.6,5.3l1.5,4.7l1.3,3.1l3.4,5.8l1.5,2.6l0.5,2.9l1.6,1v2.4l-0.8,1.9l-1.8,7.1l-0.5,1.9
		l2.4,2.8l4.2,0.5l4.5,1.8l3.9,2.1h2.9l2.9,3.1l2.6,4.9l1.1,2.3l3.9,2.1l4.8,0.8l1.4,2.1l0.7,3.2l-1.4,0.6l0.3,1L87,346l2.8,0.2
		l3.2-1.7l3.9,4.2l0.8,2.3l2.6,4.2l0.3,3.2v9.4l0.5,1.8l10,1.5l19.7,2.8L144.7,375.1L144.7,375.1L144.7,375.1z M56.6,331.4l1.3,1.5
		l-0.2,1.3l-3.2-0.1l-0.6-1.2l-0.7-1.5C53.2,331.4,56.6,331.4,56.6,331.4z M58.5,331.4l1.2-0.6l3.6,2.1l3.1,1.2l-0.9,0.6l-4.5-0.2
		l-1.6-1.6L58.5,331.4L58.5,331.4z M79.2,351.2l1.8,2.3l0.8,1l1.5,0.6l0.6-1.5l-1-1.8l-2.7-2l-1.1,0.2L79.2,351.2L79.2,351.2
		L79.2,351.2z M77.7,359.8l1.8,3.1l1.2,1.9l-1.4,0.2l-1.3-1.1l-0.7-1.9v-2.1L77.7,359.8L77.7,359.8z"/>
</g>
<path d="M277,88.1v-10h2l2.4,7.1c0.2,0.7,0.4,1.2,0.5,1.5c0.1-0.4,0.3-0.9,0.5-1.6l2.4-7h1.8v10h-1.3v-8.4l-2.9,8.4h-1.2l-2.9-8.5
	v8.5H277z"/>
<path d="M292,88.1v-8.8h-3.3v-1.2h7.9v1.2h-3.3v8.8H292z"/>
<path d="M406.4,94.8v-10h1.4l5.3,7.9v-7.9h1.3v10H413l-5.3-7.9v7.9H406.4L406.4,94.8z"/>
<path d="M417.2,94.8v-10h3.5c0.6,0,1.2,0,1.8,0.1c0.5,0.1,1.1,0.3,1.5,0.7c0.5,0.5,0.9,1,1.2,1.7c0.5,1.4,0.5,3,0.1,4.4
	c-0.2,0.5-0.4,1-0.7,1.5c-0.2,0.3-0.6,0.7-0.9,0.9c-0.4,0.2-0.8,0.4-1.2,0.5c-0.5,0.1-1.1,0.2-1.6,0.2L417.2,94.8L417.2,94.8z
	 M418.6,93.6h2.1c0.5,0,1.1-0.1,1.6-0.2c0.3-0.1,0.7-0.3,0.9-0.5c0.4-0.3,0.6-0.8,0.7-1.3c0.2-0.6,0.3-1.3,0.3-1.9
	c0-0.8-0.1-1.7-0.5-2.4c-0.3-0.5-0.8-0.9-1.3-1.1c-0.6-0.1-1.1-0.2-1.7-0.2h-2.1V93.6z"/>
<path d="M87,113.4c-0.1-1.4,0.4-2.8,1.3-3.9c0.9-0.9,2.2-1.4,3.5-1.4c0.9,0,1.8,0.2,2.5,0.7s1.3,1.1,1.7,1.8
	c0.4,0.8,0.6,1.8,0.6,2.7c0,0.9-0.2,1.9-0.6,2.7c-0.4,0.8-1,1.4-1.7,1.8s-1.6,0.6-2.4,0.6c-0.9,0-1.8-0.2-2.5-0.7s-1.3-1.1-1.7-1.9
	C87.3,115.1,87,114.3,87,113.4z M88.4,113.4c-0.1,1.1,0.3,2.1,1,2.9c0.6,0.7,1.5,1,2.4,1c1,0,1.9-0.4,2.5-1.1c0.7-0.8,1.1-1.9,1-3
	c0-0.7-0.1-1.4-0.4-2.1c-0.3-0.6-0.7-1.1-1.2-1.4s-1.2-0.5-1.8-0.5c-0.9,0-1.8,0.3-2.4,1C88.7,111.1,88.3,112.3,88.4,113.4z"/>
<path d="M99,118.2v-10h4.4c0.7,0,1.4,0.1,2,0.3c0.5,0.2,0.8,0.6,1.1,1c0.3,0.5,0.4,1,0.4,1.5c0,0.7-0.2,1.3-0.7,1.8
	c-0.6,0.5-1.3,0.9-2.1,0.9c0.3,0.1,0.6,0.3,0.8,0.5c0.4,0.4,0.8,0.8,1.1,1.3l1.7,2.7H106l-1.3-2.1c-0.3-0.5-0.6-1-1-1.4L103,114
	c-0.2-0.1-0.4-0.2-0.6-0.3h-2.2v4.5C100.2,118.2,99,118.2,99,118.2z M100.4,112.7h2.9c0.5,0,0.9-0.1,1.4-0.2
	c0.3-0.1,0.6-0.3,0.8-0.6c0.2-0.3,0.3-0.6,0.3-0.9c0-0.5-0.2-0.9-0.5-1.2c-0.5-0.4-1-0.5-1.6-0.5h-3.2v3.4L100.4,112.7L100.4,112.7z
	"/>
<path d="M66.7,264.2l1.3,0.3c-0.2,1-0.8,1.8-1.5,2.5c-0.7,0.6-1.7,0.9-2.6,0.9c-0.9,0.1-1.8-0.2-2.6-0.7c-0.7-0.5-1.2-1.1-1.5-1.9
	c-0.3-0.9-0.5-1.8-0.5-2.7c0-0.9,0.2-1.9,0.6-2.7c0.4-0.7,1-1.4,1.7-1.8s1.6-0.6,2.4-0.6c0.9,0,1.8,0.3,2.5,0.8s1.2,1.3,1.4,2.2
	l-1.3,0.3c-0.2-0.6-0.5-1.2-1-1.6c-1.1-0.7-2.5-0.7-3.6,0.1c-0.5,0.4-0.9,0.9-1.1,1.5c-0.2,0.6-0.3,1.3-0.3,1.9
	c0,0.8,0.1,1.5,0.4,2.2c0.2,0.6,0.7,1.1,1.2,1.4s1.1,0.5,1.7,0.5c0.7,0,1.4-0.2,1.9-0.6C66.3,265.7,66.6,265,66.7,264.2z"/>
<path d="M69.3,267.7l3.8-10h1.4l4.1,10h-1.5l-1.2-3h-4.2l-1.1,3H69.3z M72.2,263.6h3.4l-1-2.8c-0.3-0.7-0.5-1.4-0.7-2.1
	c-0.1,0.6-0.3,1.3-0.5,1.9L72.2,263.6z"/>
<path d="M188,154.3v-10h1.3v10H188z"/>
<path d="M192.3,154.3v-10h3.5c0.6,0,1.2,0,1.8,0.1c0.5,0.1,1.1,0.3,1.5,0.7c0.5,0.5,0.9,1,1.2,1.7c0.5,1.4,0.5,3,0.1,4.4
	c-0.2,0.5-0.4,1-0.7,1.5c-0.2,0.3-0.6,0.7-0.9,0.9c-0.4,0.2-0.8,0.4-1.2,0.5c-0.5,0.1-1.1,0.2-1.6,0.2L192.3,154.3L192.3,154.3z
	 M193.7,153.1h2.1c0.5,0,1.1-0.1,1.6-0.2c0.3-0.1,0.7-0.3,0.9-0.5c0.4-0.3,0.6-0.8,0.7-1.3c0.2-0.6,0.3-1.3,0.3-1.9
	c0-0.8-0.1-1.7-0.5-2.4c-0.3-0.5-0.8-0.9-1.3-1.1c-0.6-0.1-1.1-0.2-1.7-0.2h-2.1V153.1L193.7,153.1L193.7,153.1z"/>
<path d="M565.8,148.1l-2.7-10h1.4l1.5,6.6c0.2,0.7,0.3,1.4,0.4,2.1c0.3-1.1,0.4-1.7,0.5-1.9l1.9-6.8h1.6l1.4,5.1
	c0.3,1.1,0.6,2.3,0.8,3.5c0.1-0.6,0.3-1.4,0.5-2.2l1.6-6.4h1.3l-2.7,10H572l-2.1-7.6c-0.2-0.4-0.3-0.8-0.3-1.2
	c-0.1,0.4-0.2,0.8-0.3,1.2l-2.1,7.6L565.8,148.1L565.8,148.1z"/>
<path d="M578.2,148.1v-10h1.3v10H578.2z"/>
<path d="M493.6,110.4v-10h2l2.4,7.1c0.2,0.7,0.4,1.2,0.5,1.5c0.1-0.4,0.3-0.9,0.5-1.6l2.4-7h1.8v10h-1.3V102l-2.9,8.4h-1.2l-2.9-8.5
	v8.5H493.6z"/>
<path d="M506,110.4v-10h1.4l5.3,7.9v-7.9h1.3v10h-1.4l-5.3-7.9v7.9H506z"/>
<path d="M404.4,157.8l1.3-0.1c0.1,0.4,0.2,0.8,0.4,1.2c0.3,0.3,0.6,0.6,1,0.8c0.5,0.2,1,0.3,1.5,0.3c0.4,0,0.9-0.1,1.3-0.2
	c0.3-0.1,0.6-0.3,0.9-0.6c0.2-0.2,0.3-0.6,0.3-0.9c0-0.3-0.1-0.6-0.3-0.8c-0.3-0.2-0.6-0.4-0.9-0.6c-0.6-0.2-1.2-0.4-1.8-0.5
	c-0.7-0.1-1.3-0.3-1.9-0.6c-0.4-0.2-0.8-0.6-1.1-0.9c-0.3-0.3-0.4-0.8-0.4-1.2c0-0.5,0.1-1,0.4-1.4c0.3-0.5,0.8-0.8,1.3-1
	c0.6-0.2,1.2-0.3,1.8-0.3c0.7,0,1.4,0.1,2,0.4c0.5,0.2,1,0.6,1.3,1.1s0.5,1,0.5,1.6l-1.3,0.1c0-0.5-0.3-1-0.7-1.4
	c-0.5-0.3-1.1-0.5-1.7-0.5c-0.6-0.1-1.3,0.1-1.8,0.4c-0.4,0.2-0.6,0.7-0.6,1.1c0,0.3,0.1,0.7,0.4,0.9c0.6,0.4,1.3,0.6,2,0.7
	c0.7,0.2,1.5,0.4,2.2,0.6c0.5,0.2,1,0.6,1.3,1s0.4,0.9,0.4,1.4s-0.2,1.1-0.5,1.5c-0.3,0.5-0.8,0.9-1.3,1.1c-0.6,0.3-1.2,0.4-1.9,0.4
	c-0.8,0-1.6-0.1-2.3-0.4c-0.6-0.3-1.1-0.7-1.4-1.2C404.5,159.2,404.4,158.5,404.4,157.8z"/>
<path d="M414.9,161v-10h3.5c0.6,0,1.2,0,1.8,0.1c0.5,0.1,1.1,0.3,1.5,0.7c0.5,0.5,0.9,1,1.2,1.7c0.5,1.4,0.5,3,0.1,4.4
	c-0.2,0.5-0.4,1-0.7,1.5c-0.2,0.3-0.6,0.7-0.9,0.9c-0.4,0.2-0.8,0.4-1.2,0.5c-0.5,0.1-1.1,0.2-1.6,0.2L414.9,161L414.9,161z
	 M416.2,159.8h2.1c0.5,0,1.1-0.1,1.6-0.2c0.3-0.1,0.7-0.3,0.9-0.5c0.4-0.3,0.6-0.8,0.7-1.3c0.2-0.6,0.3-1.3,0.3-1.9
	c0-0.8-0.1-1.7-0.5-2.4c-0.3-0.5-0.8-0.9-1.3-1.1c-0.6-0.1-1.1-0.2-1.7-0.2h-2.1V159.8L416.2,159.8L416.2,159.8z"/>
<path d="M289.3,175.6l-2.7-10h1.4l1.5,6.6c0.2,0.7,0.3,1.4,0.4,2.1c0.3-1.1,0.4-1.7,0.5-1.9l1.9-6.8h1.6l1.4,5.1
	c0.3,1.1,0.6,2.3,0.8,3.5c0.1-0.6,0.3-1.4,0.5-2.2l1.6-6.4h1.3l-2.7,10h-1.3l-2.1-7.6c-0.2-0.4-0.3-0.8-0.3-1.2
	c-0.1,0.4-0.2,0.8-0.3,1.2l-2.1,7.6L289.3,175.6L289.3,175.6z"/>
<path d="M304.3,175.6v-4.2l-3.9-5.8h1.6l2,3c0.4,0.5,0.7,1.1,1,1.7c0.3-0.5,0.7-1.1,1.1-1.8l1.9-2.9h1.5l-4,5.8v4.2H304.3z"/>
<path d="M125.2,223.3v-10h1.4l5.3,7.9v-7.9h1.3v10h-1.4l-5.3-7.9v7.9H125.2z"/>
<path d="M138.9,223.3l-3.9-10h1.4l2.6,7.3c0.2,0.5,0.4,1.1,0.5,1.6c0.2-0.5,0.3-1.1,0.5-1.6l2.7-7.3h1.4l-3.9,10H138.9z"/>
<path d="M223.2,242.4h1.3v5.8c0,0.8-0.1,1.6-0.3,2.4c-0.2,0.6-0.6,1.1-1.2,1.4c-1.4,0.8-3.1,0.8-4.6,0.1c-0.6-0.3-1-0.8-1.3-1.4
	c-0.3-0.8-0.4-1.6-0.4-2.5v-5.8h1.3v5.8c0,0.6,0.1,1.3,0.2,1.9c0.1,0.4,0.4,0.8,0.8,1c0.4,0.3,0.9,0.4,1.4,0.3
	c0.8,0.1,1.5-0.2,2.1-0.7c0.5-0.7,0.7-1.6,0.6-2.5L223.2,242.4L223.2,242.4L223.2,242.4z"/>
<path d="M230,252.4v-8.8h-3.3v-1.2h7.9v1.2h-3.3v8.8H230z"/>
<path d="M517.3,210.1v-10h1.3v10H517.3z"/>
<path d="M520.6,210.1l3.8-10h1.4l4.1,10h-1.5l-1.2-3H523l-1.1,3H520.6L520.6,210.1z M523.5,205.9h3.4l-1-2.8
	c-0.3-0.7-0.5-1.4-0.7-2.1c-0.1,0.6-0.3,1.3-0.5,1.9L523.5,205.9z"/>
<path d="M413.4,223.3v-10h1.4l5.3,7.9v-7.9h1.3v10H420l-5.3-7.9v7.9H413.4L413.4,223.3z"/>
<path d="M424.3,223.3v-10h7.2v1.2h-5.9v3.1h5.5v1.2h-5.5v3.4h6.2v1.2L424.3,223.3L424.3,223.3L424.3,223.3L424.3,223.3z"/>
<path d="M881.8,81.4v-10h2l2.4,7.1c0.2,0.7,0.4,1.2,0.5,1.5c0.1-0.4,0.3-0.9,0.5-1.6l2.4-7h1.8v10h-1.3V73l-2.9,8.4H886l-2.9-8.5
	v8.5H881.8z"/>
<path d="M894.2,81.4v-10h7.2v1.2h-5.9v3.1h5.5v1.2h-5.5v3.4h6.2v1.2L894.2,81.4L894.2,81.4z"/>
<path d="M321.7,265.2l1.3,0.3c-0.2,1-0.8,1.8-1.5,2.5c-0.7,0.6-1.7,0.9-2.6,0.9c-0.9,0.1-1.8-0.2-2.6-0.7c-0.7-0.5-1.2-1.1-1.5-1.9
	c-0.3-0.9-0.5-1.8-0.5-2.7c0-0.9,0.2-1.9,0.6-2.7c0.4-0.7,1-1.4,1.7-1.8s1.6-0.6,2.4-0.6c0.9,0,1.8,0.3,2.5,0.8s1.2,1.3,1.4,2.2
	l-1.3,0.3c-0.2-0.6-0.5-1.2-1-1.6c-1.1-0.7-2.5-0.7-3.6,0.1c-0.5,0.4-0.9,0.9-1.1,1.5s-0.3,1.3-0.3,1.9c0,0.8,0.1,1.5,0.4,2.2
	c0.2,0.6,0.7,1.1,1.2,1.4s1.1,0.5,1.7,0.5c0.7,0,1.4-0.2,1.9-0.6C321.3,266.7,321.6,266,321.7,265.2z"/>
<path d="M324.9,263.9c-0.1-1.4,0.4-2.8,1.3-3.9c0.9-0.9,2.2-1.4,3.5-1.4c0.9,0,1.8,0.2,2.5,0.7s1.3,1.1,1.7,1.8
	c0.4,0.8,0.6,1.8,0.6,2.7c0,0.9-0.2,1.9-0.6,2.7c-0.4,0.8-1,1.4-1.7,1.8s-1.6,0.6-2.4,0.6c-0.9,0-1.8-0.2-2.5-0.7s-1.3-1.1-1.7-1.9
	C325.2,265.6,324.9,264.8,324.9,263.9z M326.3,263.9c-0.1,1.1,0.3,2.1,1,2.9c0.6,0.7,1.5,1,2.4,1c1,0,1.9-0.4,2.5-1.1
	c0.7-0.8,1.1-1.9,1-3c0-0.7-0.1-1.4-0.4-2.1c-0.3-0.6-0.7-1.1-1.2-1.4s-1.2-0.5-1.8-0.5c-0.9,0-1.8,0.3-2.4,1
	C326.6,261.6,326.2,262.8,326.3,263.9z"/>
<path d="M116.2,51.2l-2.7-10h1.4l1.5,6.6c0.2,0.7,0.3,1.4,0.4,2.1c0.3-1.1,0.4-1.7,0.5-1.9l1.9-6.8h1.6l1.4,5.1
	c0.3,1.1,0.6,2.3,0.8,3.5c0.1-0.6,0.3-1.4,0.5-2.2l1.6-6.4h1.3l-2.7,10h-1.3l-2.1-7.6c-0.2-0.4-0.3-0.8-0.3-1.2
	c-0.1,0.4-0.2,0.8-0.3,1.2l-2.1,7.6C117.6,51.2,116.2,51.2,116.2,51.2z"/>
<path d="M126.8,51.2l3.8-10h1.4l4.1,10h-1.5l-1.2-3h-4.2l-1.1,3H126.8z M129.7,47.1h3.4l-1-2.8c-0.3-0.7-0.5-1.4-0.7-2.1
	c-0.1,0.6-0.3,1.3-0.5,1.9L129.7,47.1z"/>
<path d="M290.5,366.2v-10h1.4l5.3,7.9v-7.9h1.3v10H297l-5.3-7.9v7.9H290.5z"/>
<path d="M301.3,366.2v-10h2l2.4,7.1c0.2,0.7,0.4,1.2,0.5,1.5c0.1-0.4,0.3-0.9,0.5-1.6l2.4-7h1.8v10h-1.3v-8.4l-2.9,8.4h-1.2
	l-2.9-8.5v8.5H301.3z"/>
<path d="M196.4,351.8l3.8-10h1.4l4.1,10h-1.5l-1.2-3h-4.2l-1.1,3H196.4z M199.3,347.7h3.4l-1-2.8c-0.3-0.7-0.5-1.4-0.7-2.1
	c-0.1,0.6-0.3,1.3-0.5,1.9L199.3,347.7z"/>
<path d="M206.7,351.8v-1.2l5.1-6.4c0.4-0.5,0.7-0.9,1-1.2h-5.6v-1.2h7.2v1.2l-5.6,7l-0.6,0.7h6.4v1.2h-7.9L206.7,351.8L206.7,351.8
	L206.7,351.8z"/>
<path d="M422.4,439.9v-8.8h-3.3v-1.2h7.9v1.2h-3.3v8.8H422.4L422.4,439.9z"/>
<path d="M428.1,439.9l3.9-5.2l-3.4-4.8h1.6l1.8,2.6c0.3,0.4,0.6,0.8,0.8,1.2c0.2-0.4,0.5-0.8,0.8-1.1l2-2.7h1.4l-3.5,4.7l3.8,5.3
	h-1.6l-2.5-3.6c-0.2-0.2-0.3-0.5-0.4-0.7c-0.2,0.4-0.4,0.6-0.5,0.8l-2.5,3.5L428.1,439.9L428.1,439.9z"/>
<path d="M105,496.2l3.8-10h1.4l4.1,10h-1.5l-1.2-3h-4.2l-1.1,3H105z M107.9,492.1h3.4l-1-2.8c-0.3-0.7-0.5-1.4-0.7-2.1
	c-0.1,0.6-0.3,1.3-0.5,1.9L107.9,492.1z"/>
<path d="M116.1,496.2v-10h1.3v5l5-5h1.8l-4.2,4.1l4.4,6h-1.8l-3.6-5.1l-1.6,1.6v3.5h-1.3C116.1,496.3,116.1,496.2,116.1,496.2z"/>
<path d="M287.2,562.9v-10h1.3v4.1h5.2v-4.1h1.3v10h-1.3v-4.7h-5.2v4.7H287.2z"/>
<path d="M298.2,562.9v-10h1.3v10H298.2z"/>
<path d="M530.6,290.4v-10h2l2.4,7.1c0.2,0.7,0.4,1.2,0.5,1.5c0.1-0.4,0.3-0.9,0.5-1.6l2.4-7h1.8v10h-1.3V282l-2.9,8.4h-1.2l-2.9-8.5
	v8.5H530.6z"/>
<path d="M542.6,285.5c-0.1-1.4,0.4-2.8,1.3-3.9c0.9-0.9,2.2-1.4,3.5-1.4c0.9,0,1.8,0.2,2.5,0.7c0.7,0.4,1.3,1.1,1.7,1.8
	c0.4,0.8,0.6,1.8,0.6,2.7c0,0.9-0.2,1.9-0.6,2.7c-0.4,0.8-1,1.4-1.7,1.8s-1.6,0.6-2.4,0.6c-0.9,0-1.8-0.2-2.5-0.7s-1.3-1.1-1.7-1.9
	C542.9,287.2,542.6,286.4,542.6,285.5z M544,285.6c-0.1,1.1,0.3,2.1,1,2.9c0.6,0.7,1.5,1,2.4,1c1,0,1.9-0.4,2.5-1.1
	c0.7-0.8,1-1.9,1-3c0-0.7-0.1-1.4-0.4-2.1c-0.3-0.6-0.7-1.1-1.2-1.4s-1.2-0.5-1.8-0.5c-0.9,0-1.8,0.3-2.4,1
	C544.3,283.3,543.9,284.5,544,285.6z"/>
<path d="M457.1,353.4c-0.1-1.4,0.4-2.8,1.3-3.9c0.9-0.9,2.2-1.4,3.5-1.4c0.9,0,1.8,0.2,2.5,0.7c0.7,0.4,1.3,1.1,1.7,1.8
	c0.8,1.7,0.8,3.7,0,5.4c-0.4,0.8-1,1.4-1.7,1.8s-1.6,0.6-2.4,0.6c-0.9,0-1.8-0.2-2.5-0.7s-1.3-1.1-1.7-1.9
	C457.3,355.1,457.1,354.3,457.1,353.4z M458.5,353.4c-0.1,1.1,0.3,2.1,1,2.9c0.6,0.7,1.5,1,2.4,1c1,0,1.9-0.4,2.5-1.1
	c0.7-0.8,1-1.9,1-3c0-0.7-0.1-1.4-0.4-2.1c-0.3-0.6-0.7-1.1-1.2-1.4s-1.2-0.5-1.8-0.5c-0.9,0-1.8,0.3-2.4,1
	C458.8,350.8,458.5,351.9,458.5,353.4z"/>
<path d="M469.1,358.2v-10h1.3v5l5-5h1.8l-4.2,4.1l4.4,6h-1.8l-3.6-5.1l-1.6,1.6v3.5h-1.3L469.1,358.2L469.1,358.2L469.1,358.2z"/>
<path d="M438.6,287.7v-10h1.3v5l5-5h1.8l-4.2,4.1l4.4,6h-1.8l-3.6-5.1l-1.6,1.6v3.5h-1.3L438.6,287.7L438.6,287.7L438.6,287.7z"/>
<path d="M448.3,284.5l1.3-0.1c0.1,0.4,0.2,0.8,0.4,1.2c0.3,0.3,0.6,0.6,1,0.8c0.5,0.2,1,0.3,1.5,0.3c0.4,0,0.9-0.1,1.3-0.2
	c0.3-0.1,0.6-0.3,0.9-0.6c0.2-0.2,0.3-0.6,0.3-0.9s-0.1-0.6-0.3-0.8c-0.3-0.2-0.6-0.4-0.9-0.6c-0.6-0.2-1.2-0.4-1.8-0.5
	c-0.7-0.1-1.3-0.3-1.9-0.6c-0.4-0.2-0.8-0.6-1.1-0.9c-0.3-0.3-0.4-0.8-0.4-1.2c0-0.5,0.1-1,0.4-1.4c0.3-0.5,0.8-0.8,1.3-1
	c0.6-0.2,1.2-0.3,1.8-0.3c0.7,0,1.4,0.1,2,0.4c0.5,0.2,1,0.6,1.3,1.1s0.5,1,0.5,1.6l-1.3,0.1c0-0.5-0.3-1-0.7-1.4
	c-0.5-0.3-1.1-0.5-1.7-0.5c-0.6-0.1-1.3,0.1-1.8,0.4c-0.4,0.2-0.6,0.7-0.6,1.1c0,0.3,0.1,0.7,0.4,0.9c0.6,0.4,1.3,0.6,2,0.7
	c0.7,0.2,1.5,0.4,2.2,0.6c0.5,0.2,1,0.6,1.3,1s0.4,0.9,0.4,1.4s-0.2,1.1-0.5,1.5c-0.3,0.5-0.8,0.9-1.3,1.1c-0.6,0.3-1.2,0.4-1.9,0.4
	c-0.8,0-1.6-0.1-2.3-0.4c-0.6-0.3-1.1-0.7-1.4-1.2C448.4,285.9,448.3,285.2,448.3,284.5z"/>
<path d="M541.6,425.4v-10h1.3v8.8h4.9v1.2H541.6z"/>
<path d="M549,425.4l3.8-10h1.4l4.1,10h-1.5l-1.2-3h-4.2l-1.1,3H549z M551.9,421.3h3.4l-1-2.8c-0.3-0.7-0.5-1.4-0.7-2.1
	c-0.1,0.6-0.3,1.3-0.5,1.9L551.9,421.3z"/>
<path d="M589.8,245.7v-10h1.3v10H589.8z"/>
<path d="M594.1,245.7v-10h1.3v8.8h4.9v1.2H594.1z"/>
<path d="M638.8,243.6v-10h1.3v10H638.8z"/>
<path d="M643.1,243.6v-10h1.4l5.3,7.9v-7.9h1.3v10h-1.4l-5.3-7.9v7.9H643.1z"/>
<path d="M689.6,233.3c-0.1-1.4,0.4-2.8,1.3-3.9c0.9-0.9,2.2-1.4,3.5-1.4c0.9,0,1.8,0.2,2.5,0.7c0.7,0.4,1.3,1.1,1.7,1.8
	c0.4,0.8,0.6,1.8,0.6,2.7s-0.2,1.9-0.6,2.7c-0.4,0.8-1,1.4-1.7,1.8c-0.7,0.4-1.6,0.6-2.4,0.6c-0.9,0-1.8-0.2-2.5-0.7
	s-1.3-1.1-1.7-1.9C689.9,235,689.6,234.2,689.6,233.3z M691,233.3c-0.1,1.1,0.3,2.1,1,2.9c0.6,0.7,1.5,1,2.4,1c1,0,1.9-0.4,2.5-1.1
	c0.7-0.8,1-1.9,1-3c0-0.7-0.1-1.4-0.4-2.1c-0.3-0.6-0.7-1.1-1.2-1.4c-0.5-0.3-1.2-0.5-1.8-0.5c-0.9,0-1.8,0.3-2.4,1
	C691.3,231,690.9,232.2,691,233.3z"/>
<path d="M701.7,238.2v-10h1.3v4.1h5.2v-4.1h1.3v10h-1.3v-4.7H703v4.7H701.7z"/>
<path d="M667.8,296.9v-10h1.3v5l5-5h1.8l-4.2,4.1l4.4,6h-1.8l-3.6-5.1l-1.6,1.6v3.5h-1.3L667.8,296.9L667.8,296.9L667.8,296.9z"/>
<path d="M680.8,296.9v-4.2l-3.9-5.8h1.6l2,3c0.4,0.5,0.7,1.1,1,1.7c0.3-0.5,0.7-1.1,1.1-1.8l1.9-2.9h1.5l-4,5.8v4.2L680.8,296.9
	L680.8,296.9z"/>
<path d="M537.8,364.9l3.8-10h1.4l4.1,10h-1.5l-1.2-3h-4.2l-1.1,3H537.8z M540.7,360.8h3.4l-1-2.8c-0.3-0.7-0.5-1.4-0.7-2.1
	c-0.1,0.6-0.3,1.3-0.5,1.9L540.7,360.8z"/>
<path d="M549,364.9v-10h4.4c0.7,0,1.4,0.1,2,0.3c0.5,0.2,0.9,0.5,1.1,1c0.3,0.5,0.4,1,0.4,1.5c0,0.7-0.2,1.3-0.7,1.8
	c-0.6,0.5-1.3,0.9-2.1,0.9c0.3,0.1,0.6,0.3,0.8,0.5c0.4,0.4,0.8,0.8,1.1,1.3l1.7,2.7H556l-1.3-2.1c-0.3-0.5-0.6-1-1-1.4l-0.7-0.7
	l-0.6-0.3h-2.2v4.5L549,364.9L549,364.9z M550.3,359.3h2.9c0.5,0,0.9-0.1,1.4-0.2c0.3-0.1,0.6-0.3,0.8-0.6c0.2-0.3,0.3-0.6,0.3-0.9
	c0-0.5-0.2-0.9-0.5-1.2c-0.5-0.4-1-0.5-1.6-0.5h-3.2v3.4L550.3,359.3L550.3,359.3z"/>
<path d="M763,501.1v-10h6.8v1.2h-5.4v3.1h4.7v1.2h-4.7v4.6H763V501.1L763,501.1L763,501.1z"/>
<path d="M772.2,501.1v-10h1.3v8.8h4.9v1.2H772.2z"/>
<path d="M593.8,404.9v-10l1.2,0.5l2.4,7.1c0.2,0.7,0.4,1.2,0.5,1.5c0.1-0.4,0.3-0.9,0.5-1.6l2.4-7h1.8v10h-1.3V397l-2.9,8.4h-1.2
	l-2.9-8.5v8.5L593.8,404.9z"/>
<path d="M604.9,402.1l1.3-0.1c0.1,0.4,0.2,0.8,0.4,1.2c0.3,0.3,0.6,0.6,1,0.8c0.5,0.2,1,0.3,1.5,0.3c0.4,0,0.9-0.1,1.3-0.2
	c0.3-0.2,0.6-0.4,0.9-0.6c0.2-0.3,0.3-0.6,0.3-0.9s-0.1-0.6-0.3-0.8c-0.3-0.2-0.6-0.4-0.9-0.6c-0.6-0.2-1.2-0.4-1.8-0.5
	c-0.7-0.1-1.3-0.3-1.9-0.6c-0.4-0.2-0.8-0.6-1.1-0.9c-0.2-0.4-0.4-0.8-0.4-1.2c0-0.5,0.1-1,0.4-1.4c0.3-0.5,0.8-0.8,1.3-1
	c0.6-0.2,1.2-0.3,1.8-0.3c0.7,0,1.4,0.1,2,0.4c0.5,0.2,1,0.6,1.3,1.1s0.5,1,0.5,1.6l-1.3,0.1c0-0.5-0.3-1-0.7-1.4
	c-0.5-0.3-1.1-0.5-1.7-0.5c-0.6-0.1-1.3,0.1-1.8,0.4c-0.4,0.2-0.6,0.7-0.6,1.1c0,0.3,0.1,0.7,0.4,0.9c0.6,0.4,1.3,0.6,2,0.7
	c0.7,0.2,1.5,0.4,2.2,0.6c0.5,0.2,1,0.6,1.3,1s0.4,0.9,0.4,1.4s-0.2,1.1-0.5,1.5c-0.3,0.5-0.8,0.9-1.3,1.1c-0.6,0.3-1.2,0.4-1.9,0.4
	c-0.8,0-1.6-0.1-2.3-0.4c-0.6-0.3-1.1-0.7-1.4-1.2C605.1,403.5,604.9,402.8,604.9,402.1z"/>
<path d="M645.5,403.3l3.8-10h1.4l4.1,10h-1.5l-1.2-3H648l-1.1,3H645.5z M648.4,399.1h3.4l-1-2.8c-0.3-0.7-0.5-1.4-0.7-2.1
	c-0.1,0.6-0.3,1.3-0.5,1.9L648.4,399.1z"/>
<path d="M656.6,403.3v-10h1.3v8.8h4.9v1.2H656.6z"/>
<path d="M711.3,398.2V397h4.2v3.7c-0.6,0.5-1.3,0.9-2,1.2c-0.7,0.3-1.4,0.4-2.1,0.4c-0.9,0-1.9-0.2-2.7-0.6s-1.4-1-1.8-1.8
	c-0.8-1.7-0.8-3.7,0-5.4c0.4-0.8,1-1.5,1.8-1.9s1.7-0.6,2.6-0.6c0.7,0,1.4,0.1,2,0.4c0.5,0.2,1,0.6,1.4,1c0.3,0.5,0.6,1,0.8,1.6
	l-1.2,0.3c-0.1-0.4-0.3-0.8-0.6-1.2c-0.3-0.3-0.6-0.6-1-0.7c-0.4-0.2-0.9-0.3-1.4-0.3c-1,0-2,0.3-2.7,1c-0.3,0.3-0.5,0.6-0.6,1
	c-0.3,0.6-0.4,1.3-0.4,2c0,0.8,0.2,1.5,0.5,2.2c0.3,0.5,0.8,1,1.3,1.3c0.6,0.3,1.2,0.4,1.9,0.4c0.6,0,1.2-0.1,1.7-0.3
	c0.4-0.2,0.8-0.4,1.2-0.7v-1.9h-2.9V398.2z"/>
<path d="M717.1,402.1l3.8-10h1.4l4.1,10h-1.5l-1.2-3h-4.2l-1.1,3H717.1z M719.9,398h3.4l-1-2.8c-0.3-0.7-0.5-1.4-0.7-2.1
	c-0.1,0.6-0.3,1.3-0.5,1.9L719.9,398z"/>
<path d="M752.8,365.3l1.3-0.1c0.1,0.4,0.2,0.8,0.4,1.2c0.3,0.3,0.6,0.6,1,0.8c0.5,0.2,1,0.3,1.5,0.3c0.4,0,0.9-0.1,1.3-0.2
	c0.3-0.2,0.6-0.4,0.9-0.6c0.2-0.3,0.3-0.6,0.3-0.9s-0.1-0.6-0.3-0.8c-0.3-0.2-0.6-0.4-0.9-0.6c-0.6-0.2-1.2-0.4-1.8-0.5
	c-0.7-0.1-1.3-0.3-1.9-0.6c-0.4-0.2-0.8-0.6-1.1-0.9c-0.2-0.4-0.4-0.8-0.4-1.2c0-0.5,0.1-1,0.4-1.4c0.3-0.5,0.8-0.8,1.3-1
	c0.6-0.2,1.2-0.3,1.8-0.3c0.7,0,1.4,0.1,2,0.4c0.5,0.2,1,0.6,1.3,1.1s0.5,1,0.5,1.6l-1.3,0.1c0-0.5-0.3-1-0.7-1.4
	c-0.5-0.3-1.1-0.5-1.7-0.5c-0.6-0.1-1.3,0.1-1.8,0.4c-0.4,0.2-0.6,0.7-0.5,1.1c0,0.3,0.1,0.7,0.4,0.9c0.6,0.4,1.3,0.6,2,0.7
	c0.7,0.2,1.5,0.4,2.2,0.6c0.5,0.2,1,0.6,1.3,1s0.4,0.9,0.4,1.4s-0.2,1.1-0.5,1.5c-0.3,0.5-0.8,0.9-1.3,1.1c-0.6,0.3-1.2,0.4-1.9,0.4
	c-0.8,0-1.6-0.1-2.3-0.4c-0.6-0.3-1.1-0.7-1.4-1.2C753,366.7,752.8,366,752.8,365.3z"/>
<path d="M770.4,365l1.3,0.3c-0.2,1-0.8,1.8-1.5,2.5c-0.7,0.6-1.7,0.9-2.6,0.9c-0.9,0.1-1.8-0.2-2.6-0.7c-0.7-0.4-1.2-1.1-1.5-1.9
	c-0.4-0.8-0.5-1.8-0.5-2.7c0-0.9,0.2-1.9,0.6-2.7c0.4-0.8,1-1.4,1.7-1.8s1.6-0.6,2.4-0.6c0.9,0,1.8,0.3,2.5,0.8s1.2,1.3,1.4,2.2
	l-1.3,0.3c-0.2-0.6-0.5-1.2-1-1.6c-1.1-0.7-2.5-0.7-3.6,0.1c-0.5,0.4-0.9,0.9-1.1,1.5c-0.2,0.6-0.3,1.3-0.3,1.9
	c0,0.8,0.1,1.5,0.4,2.2c0.2,0.6,0.6,1.1,1.2,1.4c0.5,0.3,1.1,0.5,1.7,0.5c0.7,0,1.4-0.2,1.9-0.6C769.9,366.4,770.2,365.8,770.4,365z
	"/>
<path d="M773.5,324.4v-10h1.4l5.3,7.9v-7.9h1.3v10H780l-5.3-7.9v7.9H773.5z"/>
<path d="M791.4,320.9l1.3,0.3c-0.2,1-0.8,1.8-1.5,2.5c-0.7,0.6-1.7,0.9-2.6,0.9c-0.9,0.1-1.8-0.2-2.6-0.7c-0.7-0.4-1.2-1.1-1.5-1.9
	c-0.4-0.8-0.5-1.8-0.5-2.7c0-0.9,0.2-1.9,0.6-2.7c0.4-0.8,1-1.4,1.7-1.8s1.6-0.6,2.4-0.6c0.9,0,1.8,0.3,2.5,0.8s1.2,1.3,1.4,2.2
	l-1.3,0.3c-0.2-0.6-0.5-1.2-1-1.6c-1.1-0.7-2.5-0.7-3.6,0.1c-0.5,0.4-0.9,0.9-1.1,1.5c-0.2,0.6-0.3,1.3-0.3,1.9
	c0,0.8,0.1,1.5,0.4,2.2c0.2,0.6,0.6,1.1,1.2,1.4c0.5,0.3,1.1,0.5,1.7,0.5c0.7,0,1.4-0.2,1.9-0.6
	C790.9,322.3,791.2,321.7,791.4,320.9z"/>
<path d="M779.4,281l-3.9-10h1.4l2.6,7.3c0.2,0.5,0.4,1.1,0.5,1.6c0.2-0.5,0.3-1.1,0.5-1.6l2.7-7.3h1.4l-3.9,10H779.4z"/>
<path d="M784.4,281l3.8-10h1.4l4.1,10h-1.5l-1.2-3h-4.2l-1.1,3H784.4z M787.3,276.9h3.4l-1-2.8c-0.3-0.7-0.5-1.4-0.7-2.1
	c-0.1,0.6-0.3,1.3-0.5,1.9L787.3,276.9z"/>
<path d="M733.9,267.7l-2.7-10h1.4l1.5,6.6c0.2,0.7,0.3,1.4,0.4,2.1c0.3-1.1,0.4-1.7,0.5-1.9l1.9-6.8h1.6l1.4,5.1
	c0.3,1.1,0.6,2.3,0.8,3.5c0.1-0.6,0.3-1.4,0.5-2.2l1.6-6.4h1.3l-2.7,10h-1.3l-2.1-7.6c-0.2-0.4-0.3-0.8-0.3-1.2
	c-0.1,0.4-0.2,0.8-0.3,1.2l-2.1,7.6L733.9,267.7L733.9,267.7z"/>
<path d="M748.9,267.7l-3.9-10h1.4l2.6,7.3c0.2,0.5,0.4,1.1,0.5,1.6c0.2-0.5,0.3-1.1,0.5-1.6l2.7-7.3h1.4l-3.9,10H748.9z"/>
<path d="M770.9,208.6v-10h3.8c0.5,0,1,0,1.5,0.1c0.4,0,0.9,0.2,1.2,0.5s0.6,0.6,0.8,1s0.3,0.9,0.3,1.4c0,0.8-0.3,1.6-0.8,2.2
	c-0.8,0.7-1.8,1-2.9,0.9h-2.6v4.1h-1.3V208.6z M772.2,203.3h2.6c0.6,0.1,1.3-0.1,1.8-0.5c0.4-0.3,0.5-0.8,0.5-1.3
	c0-0.4-0.1-0.8-0.3-1.1s-0.5-0.5-0.8-0.6c-0.4-0.1-0.8-0.1-1.2-0.1h-2.6V203.3L772.2,203.3L772.2,203.3z"/>
<path d="M778.8,208.6l3.8-10h1.4l4.1,10h-1.5l-1.2-3h-4.2l-1.1,3H778.8z M781.6,204.5h3.4l-1-2.8c-0.3-0.7-0.5-1.4-0.7-2.1
	c-0.1,0.6-0.3,1.3-0.5,1.9L781.6,204.5z"/>
<path d="M803.4,158.3v-10h1.4l5.3,7.9v-7.9h1.3v10H810l-5.3-7.9v7.9H803.4z"/>
<path d="M817.1,158.3v-4.2l-3.9-5.8h1.6l2,3c0.4,0.5,0.7,1.1,1,1.7c0.3-0.5,0.7-1.1,1.1-1.8l1.9-2.9h1.5l-4,5.8v4.2H817.1
	L817.1,158.3z"/>
<path d="M837.8,215.3v-10h1.4l5.3,7.9v-7.9h1.3v10h-1.4l-5.3-7.9v7.9H837.8z"/>
<path d="M847.9,212.5l1.2-0.2c0,0.6,0.1,1.1,0.4,1.6c0.3,0.3,0.7,0.4,1.1,0.4c0.3,0,0.6-0.1,0.9-0.2c0.2-0.2,0.4-0.4,0.5-0.6
	c0.1-0.4,0.1-0.9,0.1-1.3v-6.9h1.3v6.8c0,0.6-0.1,1.3-0.3,1.9c-0.2,0.5-0.5,0.9-1,1.1c-0.5,0.2-1,0.4-1.5,0.4
	c-0.8,0.1-1.5-0.2-2-0.8C848.1,214.1,847.9,213.3,847.9,212.5z"/>
<path d="M851.7,252.5v-10h2l2.4,7.1c0.2,0.7,0.4,1.2,0.5,1.5c0.1-0.4,0.3-0.9,0.5-1.6l2.4-7h1.8v10H860v-8.4l-2.9,8.4h-1.2L853,244
	v8.5H851.7L851.7,252.5z"/>
<path d="M864.1,252.5v-10h3.5c0.6,0,1.2,0,1.8,0.1c0.5,0.1,1.1,0.3,1.5,0.7c0.5,0.5,0.9,1,1.2,1.7c0.5,1.4,0.5,3,0.1,4.4
	c-0.2,0.5-0.4,1-0.7,1.5c-0.2,0.3-0.6,0.7-0.9,0.9c-0.4,0.2-0.8,0.4-1.2,0.5c-0.5,0.1-1.1,0.2-1.6,0.2L864.1,252.5L864.1,252.5z
	 M865.4,251.3h2.1c0.5,0,1.1-0.1,1.6-0.2c0.3-0.1,0.7-0.3,0.9-0.5c0.4-0.3,0.6-0.8,0.7-1.3c0.2-0.6,0.3-1.3,0.3-1.9
	c0-0.8-0.1-1.7-0.5-2.4c-0.3-0.5-0.7-0.9-1.3-1.1c-0.6-0.1-1.1-0.2-1.7-0.2h-2.1V251.3L865.4,251.3z"/>
<path d="M857.7,233.3v-10h3.5c0.6,0,1.2,0,1.8,0.1c0.5,0.1,1.1,0.3,1.5,0.7c0.5,0.5,0.9,1,1.2,1.7c0.5,1.4,0.5,3,0.1,4.4
	c-0.2,0.5-0.4,1-0.7,1.5c-0.2,0.3-0.6,0.7-0.9,0.9c-0.4,0.2-0.8,0.4-1.2,0.5c-0.5,0.1-1.1,0.2-1.6,0.2L857.7,233.3L857.7,233.3z
	 M859,232.1h2.1c0.5,0,1.1-0.1,1.6-0.2c0.3-0.1,0.7-0.3,0.9-0.5c0.4-0.3,0.6-0.8,0.7-1.3c0.2-0.6,0.3-1.3,0.3-1.9
	c0-0.8-0.1-1.7-0.5-2.4c-0.3-0.5-0.7-0.9-1.3-1.1c-0.6-0.1-1.1-0.2-1.7-0.2H859V232.1L859,232.1L859,232.1z"/>
<path d="M868.5,233.3v-10h7.2v1.2h-5.9v3.1h5.5v1.2h-5.5v3.4h6.2v1.2L868.5,233.3L868.5,233.3L868.5,233.3L868.5,233.3z"/>
<line class="st5" x1="832.8" y1="233.2" x2="855.1" y2="228.9"/>
<line class="st5" x1="879.1" y1="166.6" x2="902" y2="178.6"/>
<path d="M905.8,184.7v-10h4.4c0.7,0,1.4,0.1,2,0.3c0.5,0.2,0.8,0.6,1.1,1c0.3,0.5,0.4,1,0.4,1.5c0,0.7-0.2,1.3-0.7,1.8
	c-0.6,0.5-1.3,0.9-2.1,0.9c0.3,0.1,0.6,0.3,0.8,0.5c0.4,0.4,0.8,0.8,1.1,1.3l1.7,2.7H913l-1.3-2.1c-0.3-0.5-0.6-1-1-1.4l-0.7-0.7
	c-0.2-0.1-0.4-0.2-0.6-0.3h-2.2v4.5H905.8z M907.2,179.1h2.9c0.5,0,0.9-0.1,1.4-0.2c0.3-0.1,0.6-0.3,0.8-0.6s0.3-0.6,0.3-0.9
	c0-0.5-0.2-0.9-0.5-1.2c-0.5-0.4-1-0.5-1.6-0.5h-3.2v3.4H907.2L907.2,179.1z"/>
<path d="M916.8,184.7v-10h1.3v10H916.8z"/>
<line class="st5" x1="861.1" y1="173" x2="884" y2="185"/>
<path d="M891.1,193.1l1.3,0.3c-0.2,1-0.8,1.8-1.5,2.5c-0.7,0.6-1.7,0.9-2.6,0.9c-0.9,0.1-1.8-0.2-2.6-0.7c-0.7-0.5-1.2-1.1-1.5-1.9
	c-0.4-0.8-0.5-1.8-0.5-2.7s0.2-1.9,0.6-2.7c0.4-0.8,1-1.4,1.7-1.8c0.7-0.4,1.6-0.6,2.4-0.6c0.9,0,1.8,0.3,2.5,0.8s1.2,1.3,1.4,2.2
	l-1.3,0.3c-0.2-0.6-0.5-1.2-1-1.6c-1.1-0.7-2.5-0.7-3.6,0.1c-0.5,0.4-0.9,0.9-1.1,1.5c-0.2,0.6-0.3,1.3-0.3,1.9
	c0,0.8,0.1,1.5,0.4,2.2c0.2,0.6,0.6,1.1,1.2,1.4c0.5,0.3,1.1,0.5,1.7,0.5c0.7,0,1.4-0.2,1.9-0.6C890.7,194.6,891,193.9,891.1,193.1z
	"/>
<path d="M897.3,196.6v-8.8H894v-1.2h7.9v1.2h-3.3v8.8H897.3L897.3,196.6z"/>
<path d="M908.8,148.1v-10h2l2.4,7.1c0.2,0.7,0.4,1.2,0.5,1.5c0.1-0.4,0.3-0.9,0.5-1.6l2.4-7h1.8v10H917v-8.4l-2.9,8.4h-1.2l-2.9-8.5
	v8.5H908.8L908.8,148.1z"/>
<path d="M920.1,148.1l3.8-10h1.4l4.1,10h-1.5l-1.2-3h-4.2l-1.1,3H920.1z M923,144h3.4l-1-2.8c-0.3-0.7-0.5-1.4-0.7-2.1
	c-0.1,0.6-0.3,1.3-0.5,1.9L923,144z"/>
<line class="st5" x1="877.6" y1="148.3" x2="905.4" y2="144.3"/>
<path d="M858.1,135.2v-10h1.4l5.3,7.9v-7.9h1.3v10h-1.4l-5.3-7.9v7.9L858.1,135.2L858.1,135.2z"/>
<path d="M869,135.2v-10h1.3v4.1h5.2v-4.1h1.3v10h-1.3v-4.7h-5.2v4.7L869,135.2L869,135.2z"/>
<path d="M842.7,110l-3.9-10h1.4l2.6,7.3c0.2,0.5,0.4,1.1,0.5,1.6c0.2-0.5,0.3-1.1,0.5-1.6l2.7-7.3h1.4l-3.9,10H842.7z"/>
<path d="M852.4,110v-8.8h-3.3V100h7.9v1.2h-3.3v8.8H852.4z"/>
<line class="st5" x1="806.8" y1="241.6" x2="838" y2="267.8"/>
<g id="dc-2">
	<g id="dc-2-2">
		<path id="dc-2_3_" class="st2" d="M805.8,243.7l-1.8-1.8l-1.2-0.7l1.4-2l2.9,1.9L805.8,243.7L805.8,243.7L805.8,243.7z"/>
	</g>
	<g id="dc-3">
		<path id="dc-2_2_" d="M841.1,273.7v-10h3.5c0.6,0,1.2,0,1.8,0.1c0.5,0.1,1.1,0.3,1.5,0.7c0.5,0.5,0.9,1,1.2,1.7
			c0.5,1.4,0.5,3,0.1,4.4c-0.2,0.5-0.4,1-0.7,1.5c-0.2,0.3-0.6,0.7-0.9,0.9c-0.4,0.2-0.8,0.4-1.2,0.5c-0.5,0.1-1.1,0.2-1.6,0.2
			L841.1,273.7L841.1,273.7z M842.4,272.6h2.1c0.5,0,1.1-0.1,1.6-0.2c0.3-0.1,0.7-0.3,0.9-0.5c0.4-0.3,0.6-0.8,0.7-1.3
			c0.2-0.6,0.3-1.3,0.3-1.9c0-0.8-0.1-1.7-0.5-2.4c-0.3-0.5-0.7-0.9-1.3-1.1c-0.6-0.1-1.1-0.2-1.7-0.2h-2.1V272.6z"/>
		<path id="dc-2_1_" d="M859,270.2l1.3,0.3c-0.2,1-0.8,1.8-1.5,2.5c-0.7,0.6-1.7,0.9-2.6,0.9c-0.9,0.1-1.8-0.2-2.6-0.7
			c-0.7-0.4-1.2-1.1-1.5-1.9c-0.4-0.8-0.5-1.8-0.5-2.7c0-0.9,0.2-1.9,0.6-2.7c0.4-0.8,1-1.4,1.7-1.8s1.6-0.6,2.4-0.6
			c0.9,0,1.8,0.3,2.5,0.8s1.2,1.3,1.4,2.2l-1.3,0.3c-0.2-0.6-0.5-1.2-1-1.6c-1.1-0.7-2.5-0.7-3.6,0.1c-0.5,0.4-0.9,0.9-1.1,1.5
			c-0.2,0.6-0.3,1.3-0.3,1.9c0,0.8,0.1,1.5,0.4,2.2c0.2,0.6,0.6,1.1,1.2,1.4c0.5,0.3,1.1,0.5,1.7,0.5c0.7,0,1.4-0.2,1.9-0.6
			C858.7,271.7,859,271,859,270.2z"/>
	</g>
</g>
<path d="M657,182.1v-10h2l2.4,7.1c0.2,0.7,0.4,1.2,0.5,1.5c0.1-0.4,0.3-0.9,0.5-1.6l2.4-7h1.8v10h-1.3v-8.4l-2.9,8.4h-1.2l-2.9-8.5
	v8.5H657z"/>
<path d="M669.6,182.1v-10h1.3v10H669.6z"/>
<path class="st6" d="M211,492.9v55l36,45 M0,424.9h144l67,68h86l53,54v46"/>
<line class="st5" x1="812.6" y1="236.9" x2="847.5" y2="245.4"/>
<g id="usdl-2">
	<g id="usdl-3">
		<g>
			<g>
				<defs>
					<rect id="SVGID_1_" x="231.6" y="617.8" width="36" height="30.9"/>
				</defs>
				<clipPath id="SVGID_2_">
					<use xlink:href="#SVGID_1_"  style="overflow:visible;"/>
				</clipPath>
				<g class="st7">
					<path id="usdl-4" class="st8" d="M265.1,643.8H265c-0.6-0.1-0.9-0.7-0.8-1.3v-11.6c-0.1-0.6,0.3-1.1,0.8-1.3h0.1v-1.1h-5.3v1.1
						h0.1c0.6,0.1,0.9,0.7,0.8,1.3v11.7c0.1,0.6-0.3,1.1-0.8,1.3h-0.1v1.1h5.3V643.8"/>
					<path id="usdl-5" class="st8" d="M239.4,643.8h-0.1c-0.6-0.1-0.9-0.7-0.8-1.3v-11.6c-0.1-0.6,0.3-1.1,0.8-1.3h0.1v-1.1h-5.3
						v1.1h0.1c0.6,0.1,0.9,0.7,0.8,1.3v11.7c0.1,0.6-0.3,1.1-0.8,1.3h-0.1v1.1h5.3V643.8"/>
					<path id="usdl-6" class="st8" d="M248,643.8h-0.1c-0.6-0.1-0.9-0.7-0.8-1.3v-11.6c-0.1-0.6,0.3-1.1,0.8-1.3h0.1v-1.1h-5.3v1.1
						h0.1c0.6,0.1,0.9,0.7,0.8,1.3v11.7c0.1,0.6-0.3,1.1-0.8,1.3h-0.1v1.1h5.3V643.8"/>
					<path id="usdl-7" class="st8" d="M256.5,643.8h-0.1c-0.6-0.1-0.9-0.7-0.8-1.3v-11.6c-0.1-0.6,0.3-1.1,0.8-1.3h0.1v-1.1h-5.3
						v1.1h0.1c0.6,0.1,0.9,0.7,0.8,1.3v11.7c0.1,0.6-0.3,1.1-0.8,1.3h-0.1v1.1h5.3V643.8"/>
				</g>
			</g>
		</g>
	</g>
	<polygon id="usdl-8" class="st8" points="249.6,617.8 231.6,625.1 267.6,625.1 	"/>
	<rect id="usdl-9" x="233.2" y="625.8" class="st8" width="32.8" height="1.7"/>
	<rect id="usdl-10" x="232.8" y="645.6" class="st8" width="33.6" height="1.6"/>
	<rect id="usdl-11" x="232" y="646.8" class="st8" width="35.1" height="1.8"/>
</g>
<rect id="nopointer-2" x="207.1" y="603.8" class="st9" width="143.2" height="58"/>
<rect id="dc-2-3" x="837.8" y="260.5" class="st4" width="27.6" height="16.4"/>
<path id="tn" class="st1" d="M697.3,311.4l-51.9,5l-15.8,1.7l-4.6,0.5H621l-0.2,5.1l-8.2,0.3l-7,0.6l-8.1-0.1l-0.4,6.1l-1.6,5.5
	l-3.3,2.8l-1.3,4.4l-0.3,2.6l-4,2.3l1.5,3.6l-2,4.4V356l106.2-11.4l0.4-2l1.8-1.5l2.8-0.8l0.7-3.7l4.1-2.7l4-1.5l4.1-3.6l4.4-2
	l0.5-3.1l4.1-4l1.5-0.1l0.8,0.1l1.9,0.4l1.3-2.6l3.1-1.6l1.3,1.3l1.6-3.5l3-2.6l0.4-1.9l0.3-2.7l-1.2-0.2l-2.6,1h-7l-18.4,2.4
	L697.3,311.4L697.3,311.4L697.3,311.4z"/>
<path d="M649.7,336.1v-8.8h-3.3v-1.2h7.9v1.2H651v8.8H649.7z"/>
<path d="M656.3,336.1v-10h1.4l5.3,7.9v-7.9h1.3v10h-1.4l-5.3-7.9v7.9H656.3z"/>
<rect x="837.8" y="260.5" class="st4" width="33.2" height="20.5"/>
<g>
	<path d="M279.1,633.7v-8.6h5.8v1h-4.7v2.7h4v1h-4v3.9H279.1z"/>
	<path d="M290.5,631.7l1.1,0.1c-0.2,0.6-0.5,1.1-1,1.5s-1.1,0.5-1.8,0.5c-0.9,0-1.6-0.3-2.2-0.8s-0.8-1.3-0.8-2.4
		c0-1,0.3-1.9,0.8-2.4s1.2-0.9,2.1-0.9c0.8,0,1.5,0.3,2,0.8s0.8,1.4,0.8,2.4c0,0.1,0,0.2,0,0.3H287c0,0.7,0.2,1.2,0.6,1.6
		s0.8,0.5,1.3,0.5c0.4,0,0.7-0.1,1-0.3S290.3,632.1,290.5,631.7z M287,630h3.5c0-0.5-0.2-0.9-0.4-1.2c-0.3-0.4-0.8-0.6-1.3-0.6
		c-0.5,0-0.9,0.2-1.2,0.5S287.1,629.5,287,630z"/>
	<path d="M296.9,633.7v-0.8c-0.4,0.6-1,0.9-1.7,0.9c-0.5,0-1-0.1-1.4-0.4s-0.7-0.7-1-1.1s-0.3-1.1-0.3-1.7c0-0.6,0.1-1.2,0.3-1.7
		s0.5-0.9,0.9-1.2s0.9-0.4,1.4-0.4c0.4,0,0.7,0.1,1,0.2s0.5,0.4,0.7,0.6v-3.1h1v8.6H296.9z M293.6,630.6c0,0.8,0.2,1.4,0.5,1.8
		s0.7,0.6,1.2,0.6c0.5,0,0.9-0.2,1.2-0.6s0.5-1,0.5-1.7c0-0.9-0.2-1.5-0.5-1.9s-0.7-0.6-1.2-0.6c-0.5,0-0.9,0.2-1.2,0.6
		S293.6,629.8,293.6,630.6z"/>
	<path d="M303.8,631.7l1.1,0.1c-0.2,0.6-0.5,1.1-1,1.5s-1.1,0.5-1.8,0.5c-0.9,0-1.6-0.3-2.2-0.8s-0.8-1.3-0.8-2.4
		c0-1,0.3-1.9,0.8-2.4s1.2-0.9,2.1-0.9c0.8,0,1.5,0.3,2,0.8s0.8,1.4,0.8,2.4c0,0.1,0,0.2,0,0.3h-4.6c0,0.7,0.2,1.2,0.6,1.6
		s0.8,0.5,1.3,0.5c0.4,0,0.7-0.1,1-0.3S303.7,632.1,303.8,631.7z M300.4,630h3.5c0-0.5-0.2-0.9-0.4-1.2c-0.3-0.4-0.8-0.6-1.3-0.6
		c-0.5,0-0.9,0.2-1.2,0.5S300.4,629.5,300.4,630z"/>
	<path d="M306.2,633.7v-6.2h0.9v0.9c0.2-0.4,0.5-0.7,0.7-0.9s0.4-0.2,0.7-0.2c0.4,0,0.7,0.1,1.1,0.3l-0.4,1
		c-0.3-0.2-0.5-0.2-0.8-0.2c-0.2,0-0.4,0.1-0.6,0.2s-0.3,0.3-0.4,0.6c-0.1,0.4-0.2,0.8-0.2,1.2v3.3H306.2z"/>
	<path d="M314.3,632.9c-0.4,0.3-0.8,0.6-1.1,0.7s-0.7,0.2-1.2,0.2c-0.7,0-1.2-0.2-1.6-0.5s-0.6-0.8-0.6-1.3c0-0.3,0.1-0.6,0.2-0.8
		s0.3-0.5,0.5-0.6s0.5-0.3,0.8-0.3c0.2-0.1,0.5-0.1,0.9-0.2c0.9-0.1,1.5-0.2,1.9-0.4c0-0.1,0-0.2,0-0.3c0-0.4-0.1-0.7-0.3-0.9
		c-0.3-0.2-0.7-0.4-1.2-0.4c-0.5,0-0.9,0.1-1.1,0.3s-0.4,0.5-0.5,0.9l-1-0.1c0.1-0.4,0.2-0.8,0.5-1.1s0.5-0.5,0.9-0.6
		s0.9-0.2,1.4-0.2c0.5,0,1,0.1,1.3,0.2s0.6,0.3,0.7,0.5s0.3,0.4,0.3,0.7c0,0.2,0.1,0.5,0.1,1v1.4c0,1,0,1.6,0.1,1.9s0.1,0.5,0.3,0.7
		h-1.1C314.4,633.5,314.3,633.2,314.3,632.9z M314.2,630.6c-0.4,0.2-1,0.3-1.7,0.4c-0.4,0.1-0.7,0.1-0.9,0.2s-0.3,0.2-0.4,0.3
		s-0.1,0.3-0.1,0.5c0,0.3,0.1,0.5,0.3,0.7s0.5,0.3,0.9,0.3c0.4,0,0.8-0.1,1.1-0.3s0.5-0.4,0.7-0.7c0.1-0.2,0.2-0.6,0.2-1.1V630.6z"
		/>
	<path d="M316.9,633.7v-8.6h1.1v8.6H316.9z"/>
	<path d="M278.6,643.9l1.1-0.1c0.1,0.4,0.2,0.8,0.4,1.1s0.5,0.5,0.9,0.7s0.8,0.3,1.3,0.3c0.4,0,0.8-0.1,1.1-0.2s0.6-0.3,0.7-0.5
		s0.2-0.5,0.2-0.7c0-0.3-0.1-0.5-0.2-0.7s-0.4-0.4-0.8-0.5c-0.2-0.1-0.7-0.2-1.5-0.4s-1.3-0.4-1.7-0.5c-0.4-0.2-0.7-0.5-0.9-0.8
		s-0.3-0.7-0.3-1.1c0-0.4,0.1-0.8,0.4-1.2s0.6-0.7,1.1-0.9s1-0.3,1.6-0.3c0.6,0,1.2,0.1,1.7,0.3s0.9,0.5,1.1,0.9s0.4,0.8,0.4,1.4
		l-1.1,0.1c-0.1-0.5-0.3-1-0.6-1.2s-0.8-0.4-1.5-0.4c-0.7,0-1.2,0.1-1.5,0.4s-0.5,0.6-0.5,0.9c0,0.3,0.1,0.6,0.3,0.8
		c0.2,0.2,0.8,0.4,1.7,0.6s1.6,0.4,1.9,0.5c0.5,0.2,0.9,0.5,1.1,0.9s0.4,0.8,0.4,1.2c0,0.5-0.1,0.9-0.4,1.3s-0.6,0.7-1.1,0.9
		s-1,0.3-1.7,0.3c-0.8,0-1.4-0.1-2-0.3s-0.9-0.6-1.2-1S278.7,644.5,278.6,643.9z"/>
	<path d="M291.2,644.7l1.1,0.1c-0.2,0.6-0.5,1.1-1,1.5s-1.1,0.5-1.8,0.5c-0.9,0-1.6-0.3-2.2-0.8s-0.8-1.3-0.8-2.4
		c0-1,0.3-1.9,0.8-2.4s1.2-0.9,2.1-0.9c0.8,0,1.5,0.3,2,0.8s0.8,1.4,0.8,2.4c0,0.1,0,0.2,0,0.3h-4.6c0,0.7,0.2,1.2,0.6,1.6
		s0.8,0.5,1.3,0.5c0.4,0,0.7-0.1,1-0.3S291,645.1,291.2,644.7z M287.7,643h3.5c0-0.5-0.2-0.9-0.4-1.2c-0.3-0.4-0.8-0.6-1.3-0.6
		c-0.5,0-0.9,0.2-1.2,0.5S287.7,642.5,287.7,643z"/>
	<path d="M293.6,646.7v-6.2h0.9v0.9c0.2-0.4,0.5-0.7,0.7-0.9s0.4-0.2,0.7-0.2c0.4,0,0.7,0.1,1.1,0.3l-0.4,1
		c-0.3-0.2-0.5-0.2-0.8-0.2c-0.2,0-0.4,0.1-0.6,0.2s-0.3,0.3-0.4,0.6c-0.1,0.4-0.2,0.8-0.2,1.2v3.3H293.6z"/>
	<path d="M299.3,646.7l-2.4-6.2h1.1l1.3,3.7c0.1,0.4,0.3,0.8,0.4,1.3c0.1-0.3,0.2-0.7,0.4-1.2l1.4-3.8h1.1l-2.4,6.2H299.3z"/>
	<path d="M303.6,639.3v-1.2h1.1v1.2H303.6z M303.6,646.7v-6.2h1.1v6.2H303.6z"/>
	<path d="M310.3,644.4l1,0.1c-0.1,0.7-0.4,1.3-0.9,1.7s-1,0.6-1.7,0.6c-0.9,0-1.5-0.3-2.1-0.8s-0.8-1.4-0.8-2.4
		c0-0.7,0.1-1.3,0.3-1.8s0.6-0.9,1-1.1s1-0.4,1.5-0.4c0.7,0,1.2,0.2,1.7,0.5s0.7,0.8,0.8,1.5l-1,0.2c-0.1-0.4-0.3-0.7-0.5-0.9
		s-0.5-0.3-0.9-0.3c-0.5,0-1,0.2-1.3,0.6s-0.5,1-0.5,1.8c0,0.8,0.2,1.4,0.5,1.8s0.7,0.6,1.3,0.6c0.4,0,0.8-0.1,1-0.4
		S310.2,645,310.3,644.4z"/>
	<path d="M316.5,644.7l1.1,0.1c-0.2,0.6-0.5,1.1-1,1.5s-1.1,0.5-1.8,0.5c-0.9,0-1.6-0.3-2.2-0.8s-0.8-1.3-0.8-2.4
		c0-1,0.3-1.9,0.8-2.4s1.2-0.9,2.1-0.9c0.8,0,1.5,0.3,2,0.8s0.8,1.4,0.8,2.4c0,0.1,0,0.2,0,0.3H313c0,0.7,0.2,1.2,0.6,1.6
		s0.8,0.5,1.3,0.5c0.4,0,0.7-0.1,1-0.3S316.3,645.1,316.5,644.7z M313,643h3.5c0-0.5-0.2-0.9-0.4-1.2c-0.3-0.4-0.8-0.6-1.3-0.6
		c-0.5,0-0.9,0.2-1.2,0.5S313.1,642.5,313,643z"/>
	<path d="M318.5,644.9l1-0.2c0.1,0.4,0.2,0.7,0.5,1s0.6,0.3,1.1,0.3c0.5,0,0.8-0.1,1.1-0.3s0.4-0.4,0.4-0.7c0-0.2-0.1-0.4-0.3-0.6
		c-0.1-0.1-0.5-0.2-1.1-0.4c-0.8-0.2-1.3-0.4-1.6-0.5s-0.5-0.3-0.7-0.6s-0.2-0.5-0.2-0.8c0-0.3,0.1-0.5,0.2-0.8s0.3-0.4,0.5-0.6
		c0.2-0.1,0.4-0.2,0.7-0.3s0.6-0.1,0.9-0.1c0.5,0,0.9,0.1,1.3,0.2s0.6,0.3,0.8,0.6s0.3,0.6,0.4,1l-1,0.1c0-0.3-0.2-0.6-0.4-0.8
		s-0.5-0.3-1-0.3c-0.5,0-0.8,0.1-1,0.2s-0.3,0.3-0.3,0.6c0,0.1,0,0.3,0.1,0.4c0.1,0.1,0.2,0.2,0.4,0.3c0.1,0,0.4,0.1,0.9,0.3
		c0.7,0.2,1.3,0.4,1.6,0.5s0.5,0.3,0.7,0.6s0.3,0.5,0.3,0.9c0,0.4-0.1,0.7-0.3,1s-0.5,0.6-0.9,0.7s-0.8,0.3-1.3,0.3
		c-0.8,0-1.4-0.2-1.8-0.5S318.6,645.5,318.5,644.9z"/>
</g>
</svg>
