<svg id="landmarks" xmlns="http://www.w3.org/2000/svg" xmlns:xlink="http://www.w3.org/1999/xlink" viewBox="0 0 929.4 623.48"><defs><style>.cls-1,.cls-10,.cls-4,.cls-5,.cls-6,.cls-7{fill:none;}.cls-2,.cls-3{fill:#ddd;}.cls-2,.cls-4,.cls-5{stroke:#fff;}.cls-10,.cls-5{stroke-miterlimit:10;}.cls-6{stroke:#231f20;}.cls-10,.cls-7{stroke:#b1b3b3;stroke-width:2px;}.cls-8{clip-path:url(#clip-path);}.cls-9{fill:#b1b3b3;}</style><clipPath id="clip-path" transform="translate(0 -7.06)"><rect id="usdl" class="cls-1" x="576.75" y="586.15" width="35.96" height="30.86"/></clipPath></defs><title>usa</title><path id="ar" class="cls-2" d="M593.8,343l-4,.7-5.1-.6,0.4-1.6,3-2.6,0.9-3.7-1.8-3-78.4,2.5,1.6,6.9v8.2l1.4,11,0.2,37.8,2.3,1.9,3-1.4,2.7,1.1,0.7,6.6,55.6-1.1,1.2-2.1-0.3-3.5-1.8-3,1.6-1.5-1.6-2.5,0.7-2.5,1.4-5.6,2.5-2.1-0.7-2.3,3.7-5.4,2.7-1.4-0.1-1.5-0.3-1.8,2.9-5.6,2.4-1.3,0.4-3.4,1.8-1.2-3.1-.5-1.3-4,2.8-2.4,0.5-2,1.3-4,0.8-3.1h0Z" transform="translate(0 -7.06)"/><g id="hi"><path class="cls-3" d="M233.1,526.3l1.9-3.6,2.3-.3,0.3,0.8-2.1,3.1h-2.4Zm10.2-3.7,6.1,2.6,2.1-.3,1.6-3.9-0.6-3.4-4.2-.5-4,1.8-1,3.7h0Zm30.7,10,3.7,5.5,2.4-.3,1.1-.5,1.5,1.3,3.7-.2,1-1.5-2.9-1.8-1.9-3.7-2.1-3.6-5.8,2.9-0.7,1.9h0Zm20.2,8.9,1.3-1.9,4.7,1,0.6-.5,6.1,0.7-0.3,1.3-2.6,1.5-4.4-.3-5.4-1.8h0Zm5.3,5.2,1.9,3.9,3.1-1.1,0.3-1.6-1.6-2.1-3.7-.3v1.2h0Zm7-1.2,2.3-2.9,4.7,2.4,4.4,1.1,4.4,2.8v1.9l-3.6,1.8-4.9,1-2.4-1.5-4.9-6.6h0Zm16.6,15.6,1.6-1.3,3.4,1.6,7.6,3.6,3.4,2.1,1.6,2.4,1.9,4.4,4,2.6-0.3,1.3-3.9,3.2-4.2,1.5-1.5-.7-3.1,1.8-2.4,3.2-2.3,2.9-1.8-.2-3.6-2.6-0.3-4.5,0.6-2.4-1.6-5.7-2.1-1.8-0.2-2.6,2.3-1,2.1-3.1,0.5-1-1.6-1.8-0.1-1.9h0Z" transform="translate(0 -7.06)"/></g><g id="ak"><path class="cls-3" d="M158.1,460.7l-0.3,85.4,1.6,1,3.1,0.2,1.4-1.1h2.6l0.2,2.9,6.9,6.8,0.5,2.6,3.4-1.9,0.6-.2,0.3-3.1,1.4-1.6,1.1-.2,1.9-1.5,3.1,2.1,0.6,2.9,1.9,1.1,1.1,2.4,3.9,1.8,3.4,6,2.8,3.9,2.3,2.8,1.4,3.7,5,1.8,5.2,2.1,1,4.4,0.5,3.1-1,3.4-1.8,2.3-1.6-.8-1.4-3.1-2.8-1.5-1.8-1.1-0.8.8,1.4,2.8,0.2,3.7-1.1.5-1.9-1.9-2.1-1.3,0.5,1.6,1.3,1.8-0.8.8-1.3-1-2.1-3.4-1-2.3-1,1-1.3-1.5,1.8-1.9-1.4-1.5v-5h-0.8l-0.8,3.4-1.1.5-1-3.7-0.6-3.7-0.8-.5,0.3,5.7v1.1l-1.4-1.3-3.6-6-2.1-.5-0.6-3.7-1.6-2.9-1.6-1.1v-2.3l2.1-1.3-0.5-.3-2.6.7-3.4-2.4-2.6-2.9-4.9-2.6-4-2.6,1.3-3.2V549l-1.8,1.6-2.9,1.1-3.7-1.1-5.7-2.4h-5.5l-0.6.5-6.5-3.9-2.1-.3-2.8-5.8-3.6.3-3.6,1.5,0.5,4.5,1.1-2.9,1,0.3-1.4,4.4,3.2-2.8,0.6,1.6L127,550l-1.3-.3-0.5-1.9-1.3-.8-1.3,1.1-2.8-1.8-3.1,2.1-1.8,2.1-3.4,2.1-4.7-.2-0.5-2.1,3.7-.7v-1.3l-2.3-.7,1-2.4,2.3-3.9v-1.8l0.2-.8,4.4-2.3,1,1.3h2.8l-1.3-2.6-3.7-.3-5,2.8L107,541l-1.8,2.6-1.1,2.3-4.2,1.5L96.8,550l-0.3,1.6,2.3,1,0.8,2.1-2.8,3.2-6.5,4.2-7.8,4.2-2.1,1.1-5.3,1.1-5.3,2.3,1.8,1.3-1.4,1.5-0.5,1.1-2.8-1-3.2.2-0.8,2.3h-1l0.3-2.4-3.6,1.3-2.9,1-3.4-1.3-2.9,1.9H46.2L44.1,578l-1.6.8-2.1-.3-2.6-1.1-2.3.7-1,1L32.9,578v-1.9l3.1-1.3,6.3,0.7,4.4-1.6,2.1-2.1,2.9-.7,1.8-.8,2.8,0.2,1.6,1.3,1-.3,2.3-2.8,3.1-1,3.4-.7,1.3-.3,0.7,0.5h0.8l1.3-3.7,4-1.5,1.9-3.7,2.3-4.5,1.6-1.5,0.3-2.6L80.3,551l-3.4.7-0.7-2.4-1.3-.3-1,1-0.2,2.9-1.4-.2-1.4-5.8-1.3,1.3-1.1-.5-0.3-1.9-4,.2-2.1,1.1-2.6-.3,1.5-1.5,0.5-2.6-0.7-1.9,1.5-1,1.3-.2-0.7-1.8v-4.4l-1-1-0.8,1.5H55l-1.5-1.3-0.7-3.9-2.1-3.6v-1l2.1-.8L53,521l1.1-1.1-0.8-.5-1.3.5-1.1-2.8,1-5,4.5-3.2,2.6-1.6,1.9-3.7,2.8-1.3,2.6,1.1,0.3,2.4,2.4-.3,3.2-2.4,1.6,0.6,1,0.6h1.6l2.3-1.3,0.8-4.4,1-3.4,1-1-1.1-1.9-2.6.8-3.2.8-1.9-.5-3.6-1.8-5-.2-3.6-3.7,0.5-3.9,0.7-2.4-2.1-1.8-1.9-3.7,0.5-.8,6.8-.5h2.1l1,1h0.7L68.6,474l3.9-.6,2.6,0.3,1.4,1.1-1.4,2.1-0.5,1.5,2.8,1.6,5,1.8,1.8-1-2.3-4.4-1-3.2,1-.8-3.4-1.9L78,469.4l0.5-1.6-0.8-3.9-2.9-4.7L72.4,455l2.9-1.9h3.2l1.8,0.6,4.2-.2,3.7-3.6,1.1-3.1,3.7-2.4,1.6,1,2.8-.6,3.7-2.1,1.1-.2,1,0.8,4.5-.2,2.8-3.1h1.1l3.6,2.4,1.9,2.1-0.5,1.1,0.7,1.1,1.6-1.6,3.9,0.3,0.3,3.7,1.9,1.5,7.1,0.6,6.3,4.2,1.4-1L145,457l2.1-.6,1.9-.8,4.9,1.9,4.2,3.2h0ZM43,489.6l2.1,5.3-0.2,1-2.9-.3-1.8-4-1.8-1.5H36l-0.2-2.6,1.8-2.4,1.1,2.4,1.5,1.5,2.8,0.6h0Zm-2.6,33.5,3.7,0.8,3.7,1,0.8,1L47,529.6l-3.1-.2-3.4-3.6-0.1-2.7h0ZM19.7,509l1.1,2.6,1.1,1.6-1.1.8-2.1-3.1V509h1ZM5.9,582.1l3.4-2.3,3.4-1,2.6,0.3,0.5,1.6,1.9,0.5,1.9-1.9-0.3-1.6,2.8-.7,2.9,2.6-1.1,1.8-4.4,1.1-2.8-.5L13,580.9l-4.4,1.4-1.6.3-1.1-.5h0Zm49-4.5,1.6,1.9,2.1-1.6-1.5-1.3-2.2,1h0Zm2.9,3,1.1-2.3,2.1,0.3-0.8,1.9H57.8v0.1Zm23.6-1.9,1.4,1.8,1-1.1L83,577.5l-1.6,1.2h0Zm8.8-12.5,1.1,5.8,2.9,0.8,5-2.9,4.4-2.6L102,565l0.5-2.4-2.1,1.3-2.9-.8,1.6-1.1,1.9,0.8,3.9-1.8,0.5-1.5-2.4-.8,0.8-1.9-2.8,1.9-4.7,3.6-4.8,2.9-1.3,1h0Zm42.3-19.8,2.4-1.5-1-1.8-1.8,1,0.4,2.3h0Z" transform="translate(0 -7.06)"/></g><g id="fl"><path class="cls-3" d="M759.8,439.1l2.3,7.3,3.7,9.7,5.3,9.4,3.7,6.3,4.8,5.5,4,3.7,1.6,2.9-1.1,1.3-0.8,1.3,2.9,7.4,2.9,2.9,2.6,5.3,3.6,5.8,4.5,8.2,1.3,7.6,0.5,12,0.7,1.8-0.3,3.4-2.4,1.3,0.3,1.9-0.7,1.9,0.3,2.4,0.5,1.9-2.8,3.2-3.1,1.5-3.9.2-1.5,1.6-2.4,1-1.3-.5-1.1-1-0.3-2.9-0.8-3.4-3.4-5.2-3.6-2.3-3.9-.3-0.8,1.3-3.1-4.4-0.7-3.6-2.6-4-1.8-1.1-1.6,2.1-1.8-.3-2.1-5-2.9-3.9-2.9-5.3-2.6-3.1-3.6-3.7,2.1-2.4,3.2-5.5-0.2-1.6-4.5-1-1.6.6,0.3,0.6,2.6,1-1.5,4.5-0.8.5-1.8-4-1.3-4.9-0.3-2.8,1.5-4.7V482l-3.1-3.7-1.3-3.1-5.2-1.3-1.9-.6-1.6-2.6-3.4-1.6-1.1-3.4-2.8-1-2.4-3.7-4.2-1.5-2.9-1.5H711l-4,.8-0.2,1.9,0.8,1-0.5,1.1-3.1-.2-3.7,3.6-3.6,1.9h-3.9l-3.2,1.3-0.3-2.8-1.6-1.9-2.9-1.1-1.6-1.5-8.1-3.9-7.6-1.8-4.4.6-6,.5-6,2.1-3.5.6-0.2-8-2.6-1.9-1.8-1.8,0.3-3.1,10.2-1.3,25.5-2.9,6.8-.6,5.4,0.3,2.6,3.9,1.5,1.5,8.1,0.5,10.8-.6,21.5-1.3,5.5-.7,5.1,0.2,0.4,2.9,2.2,0.8,0.2-4.6-1.5-4.2,1.3-1.4,5.5,0.5,5.4,0.7h0Zm12.6,132.4,2.4-.7,1.3-.2,1.5-2.3,2.3-1.6,1.3,0.5,1.7,0.3,0.4,1-3.5,1.2-4.2,1.5-2.3,1.2-0.9-.9h0Zm13.5-5,1.2,1,2.8-2.1,5.3-4.2,3.7-3.9,2.5-6.6,1-1.7,0.2-3.4-0.7.5-1,2.8-1.5,4.6-3.2,5.3-4.4,4.2-3.4,1.9-2.5,1.6h0Z" transform="translate(0 -7.06)"/></g><g id="nh"><path class="cls-3" d="M880.8,142.4l0.9-1.1,1.1-3.3-2.5-.9-0.5-3.1-3.9-1.1-0.3-2.8-7.3-23.4-4.6-14.5h-0.9l-0.7,1.6-0.7-.5-1-1-1.5,1.9v5l0.3,5.7,1.9,2.8v4l-3.7,5.1-2.6,1.1V119l1.1,1.8v8.6l-0.8,9.2-0.2,4.9,1,1.3-0.2,4.5-0.5,1.8,1,0.7,16.8-4.4,2.2-.6L877,144l3.8-1.6h0Z" transform="translate(0 -7.06)"/></g><g id="mi"><path class="cls-3" d="M697.9,177.2l-3.2-8.2-2.3-9.1-2.4-3.2-2.6-1.8-1.6,1.1-3.9,1.8-1.9,5-2.8,3.7-1.1.6-1.5-.6-2.4-2.1,0.5-5,3.4-1.3,0.8-3.4,0.7-2.6,2.4-1.6-0.3-10-1.6-2.3-1.3-.8-0.8-2.1,0.8-.8,1.6,0.3,0.2-1.6L676,131l-1.3-2.6h-2.6l-4.5-1.4-5.5-3.4h-2.8l-0.7.7-1-.5-3.1-2.3-2.9,1.8-2.9,2.3,0.3,3.6,1,0.3,2.1,0.5,0.5,0.8-2.6.8-2.6.3-1.5,1.8-0.3,2.1,0.3,1.6,0.3,5.5-3.6,2.1-0.7-.2v-4.2l1.3-2.4,0.7-2.4-0.8-.8-1.9.8-1,4.2-2.8,1.1-1.8,1.9-0.2,1,0.7,0.8-0.7,2.6-2.3.5V149l0.8,2.4-1.1,6.1-1.6,4,0.7,4.7,0.5,1.1-0.8,2.4-0.3.8-0.3,2.8,3.6,6,2.9,6.5,1.5,4.9-0.8,4.7-1,6-2.4,5.2-0.3,2.8-3.3,3.1,4.4-.2L657,210l7.3-1,0.1,1.7,6.8-1.2,10.3-1.5,3.8-.5,0.1-.6,0.2-1.4,2.1-3.7,2-1.7-0.2-5.1,1.6-1.6,1.1-.3,0.2-3.6,1.5-3,1,0.6,0.2,0.6,0.8,0.2,1.9-1,0.1-9.7h0Z" transform="translate(0 -7.06)"/><path class="cls-3" d="M581.6,82.1l1.8-2.1,2.2-.8,5.4-3.9,2.3-.6,0.5,0.5-5.1,5.1-3.3,1.9-2.1.9-1.7-1h0Zm86.2,32.1,0.7,2.5,3.2,0.2,1.3-1.2-0.4-1.6-1.6-1.9-2.2.2-1.6.2-0.3,1.1,0.9,0.5h0Zm-100.3-3,0.7-.6,2.8-.8,3.6-2.3v-1l0.7-.7,6-1,2.4-1.9,4.4-2.1,0.2-1.3,1.9-2.9,1.8-.8,1.3-1.8,2.3-2.3,4.4-2.4,4.7-.5,1.1,1.1-0.3,1-3.7,1L600.3,95l-2.3.8-0.5,2.4-2.4,3.2-0.3,2.6,0.8,0.5,1-1.1,3.6-2.9,1.3,1.3h2.3l3.2,1,1.5,1.1L610,107l2.8,2.8,3.9-.2,1.5-1,1.6,1.3,1.6,0.5,1.3-.8h1.1l1.6-1,4-3.6,3.4-1.1,6.6-.3,4.5-1.9,2.6-1.3,1.5,0.2v5.7l0.5,0.3,2.9,0.8,1.9-.5,6.1-1.6,1.1-1.1,1.5,0.5v6.9l3.2,3.1,1.3,0.7,1.3,1-1.3.3-0.8-.3-3.7-.5-2.1.7-2.3-.2-3.2,1.4h-1.8l-5.8-1.3-5.2.2-1.9,2.6-7,.7-2.4.8-1.1,3.1-1.3,1.1-0.5-.2-1.5-1.6-4.5,2.4h-0.7l-1.1-1.6-0.8.2-1.9,4.4-1,4-3.2,7-1.2-1-1.4-1-1.9-10.3-3.5-1.4-2-2.3-12.1-2.7-2.9-1-8.2-2.2-7.9-1.1-4.1-5.4h0Z" transform="translate(0 -7.06)"/></g><g id="vt"><path class="cls-3" d="M844.5,154.1l0.3-5.4-2.9-10.8-0.7-.3-2.9-1.3,0.8-2.9-0.8-2.1-2.7-4.6,1-3.9-0.8-5.2-2.4-6.5-0.8-4.9L859,99.5l0.3,5.5,1.9,2.7v4l-3.7,5.1-2.6,1.1V119l1.3,1.5-0.3,8.1-0.6,9.3-0.2,5.6,1,1.3-0.2,4.6-0.5,1.7,1,0.7-7.4,1.5-4.5.8h0Z" transform="translate(0 -7.06)"/></g><g id="me"><path class="cls-3" d="M922.8,78.8l1.9,2.1,2.3,3.7v1.9l-2.1,4.7-1.9.6-3.4,3.1-4.8,5.5h-1.3l-1-2.1-1.8.2-1,1.4-2.4,1.4-1,1.4,1.6,1.4-0.5.7-0.5,2.8-1.9-.2V106l-0.3-1.3-1.5.3-1.8-3.2-2.1,1.3,1.3,1.4,0.3,1.1-0.8,1.3,0.3,3.1,0.2,1.6-1.6,2.6-2.9.5-0.3,2.9-5.3,3.1-1.3.5-1.6-1.4-3.1,3.6,1,3.2-1.5,1.3-0.2,4.4-1.1,6.3-2.5-1.2-0.5-3.1L876,133l-0.3-2.8-7.3-23.4-4.7-14.6,1.4-.1,1.5,0.4V89.9l1.3-4.5,2.6-4.7,1.5-4-1.9-2.4v-6l0.8-1,0.8-2.8L871.5,63l-0.2-4.8,1.8-4.8,2.9-8.9,2.1-4.2h1.3l1.3,0.2v1.1l1.3,2.3,2.8,0.7,0.8-.8v-1l4-2.9,1.8-1.8,1.5,0.2,6,2.4,1.9,1,9,29.9h6l0.8,1.9,0.2,4.8,2.9,2.3h0.8l0.2-.5L920.2,79l2.6-.2h0ZM901.9,109l1.5-1.5,1.4,1.1,0.6,2.4-1.7.9-1.8-2.9h0Zm6.7-5.9,1.8,1.9,1.3-.2,0.2-2,0.9-.8-0.8-1.8-2,.7-1.4,2.2h0Z" transform="translate(0 -7.06)"/></g><g id="ri"><path class="cls-3" d="M874.1,178.9l-3.7-15,6.3-1.9,2.2,1.9,3.3,4.3,2.7,4.4-3,1.6-1.3-.2-1.1,1.8-2.4,1.9-3,1.2h0Z" transform="translate(0 -7.06)"/></g><g id="ny"><path class="cls-3" d="M830.4,188.8l-1.1-1-2.6-.2-2.3-1.9-1.6-6.1-3.5.1-2.4-2.7-19.4,4.4-43,8.7-7.5,1.2-0.7-6.5,1.4-1.1,1.3-1.1,1-1.6,1.8-1.1,1.9-1.8,0.5-1.6,2.1-2.8,1.1-1-0.2-1-1.3-3.1-1.8-.2-1.9-6.1,2.9-1.8,4.4-1.4,4-1.3,3.2-.5,6.3-.2,1.9,1.3,1.6,0.2,2.1-1.3,2.6-1.1,5.2-.5,2.1-1.8,1.8-3.2,1.6-1.9H794l1.9-1.1,0.2-2.3-1.5-2.1-0.3-1.4,1.1-2.1v-1.4h-1.8l-1.8-.8-0.8-1.1-0.2-2.6,5.8-5.5,0.7-.8,1.5-2.9,2.9-4.5,2.8-3.7,2.1-2.4,2.4-1.8,3.1-1.3,5.5-1.3,3.2,0.2,4.5-1.4,7.6-2.1,0.5,5,2.4,6.5,0.8,5.2-1,3.9,2.6,4.5,0.8,2.1-0.8,2.9,2.9,1.3,0.7,0.3,3.1,11-0.5,5.1L843.9,165l0.8,5.5,0.8,3.6,1.5,7.3v8.1l-1.1,2.3,1.8,2,0.8,1.7-1.9,1.8,0.3,1.3,1.3-.3,1.5-1.3,2.3-2.6,1.1-.6,1.6,0.6,2.3,0.2,7.9-3.9,2.9-2.8,1.3-1.4,4.2,1.6-3.4,3.6L866,194l-7.1,5.3-2.6,1-5.8,1.9-4,1.1-1.2-.5-0.2-3.7,0.5-2.8-0.2-2.1-2.8-1.7-4.5-1-3.9-1.1-3.8-1.6h0Z" transform="translate(0 -7.06)"/></g><g id="pa"><path class="cls-3" d="M825.1,224.7l1.3-.3,2.3-1.3,1.2-2.5,1.6-2.3,3.2-3.1v-0.8l-2.4-1.6-3.6-2.4-1-2.6-2.8-.3-0.2-1.1-0.8-2.8,2.3-1.1,0.2-2.4-1.3-1.3,0.2-1.6,1.9-3.1V191l2.7-2.6-0.9-.7-2.5-.2-2.3-1.9-1.5-6.1-3.5.1-2.5-2.7-18.1,4.2-43,8.7-8.9,1.4-0.6-6.5-5.4,5.1-1.3.5-4.2,3,2.9,19.1,2.5,9.7,3.6,19.3,3.3-.6,11.9-1.5,37.9-7.7,14.9-2.8,8.3-1.6,0.3-.2,2.1-1.6,2.2-.7h0Z" transform="translate(0 -7.06)"/></g><path id="nj" class="cls-3" d="M829.7,188.5l-2.3,2.7v3.1l-1.9,3.1-0.2,1.6,1.3,1.3-0.2,2.4-2.3,1.1,0.8,2.8,0.2,1.1,2.8,0.3,1,2.6,3.6,2.4,2.4,1.6v0.8l-3,2.7-1.6,2.3-1.5,2.8-2.3,1.3L826,226l-0.2,1.2-0.6,2.6,1.1,2.2,3.2,2.9,4.8,2.3,4,0.6,0.2,1.4-0.8,1L838,243h0.8l2.1-2.4,0.8-4.9,2.8-4,3.1-6.5,1.1-5.5-0.7-1.1-0.2-9.4-1.6-3.4-1.1.8-2.8.3-0.5-.5,1.1-1,2.1-1.9,0.1-1.1-0.4-3.4,0.6-2.8-0.1-2-2.8-1.8-5.1-1.2-4.1-1.4-3.5-1.3h0Z" transform="translate(0 -7.06)"/><path id="de" class="cls-3" d="M825.6,228.3l0.4-2.1,0.4-1.7-1.6.4-1.6.5-2.2,1.8,1.7,5,2.3,5.7,2.1,9.7,1.6,6.3,5-.2,6.1-1.2-2.3-7.4-1,.5-3.6-2.4-1.8-4.7-1.9-3.6L826,232l-0.9-2.1,0.5-1.6h0Z" transform="translate(0 -7.06)"/><path id="md" class="cls-3" d="M839.8,252.4l-6,1.2-5.1.1-1.8-6.9-1.9-9.2-2.6-6.2-1.3-4.4-7.5,1.6-14.9,2.8L761.2,239l1.1,5,1,5.7,0.3-.3,2.1-2.4,2.3-2.6,2.4-.6,1.5-1.4,1.8-2.6,1.3,0.6,2.9-.3,2.6-2.1,2-1.4,1.8-.5,1.6,1.1,2.9,1.4,1.9,1.8,1.2,1.5,4.1,1.7v2.9l5.5,1.3,1.1,0.5,1.4-2,2.9,2-1.3,2.5-0.8,4-1.8,2.6v2.1l0.7,1.8,5.1,1.4,4.3-.1,3.1,1,2.1,0.3,1-2.1-1.5-2.1v-1.8l-2.4-2.1-2.1-5.5,1.3-5.3-0.2-2.1-1.3-1.3,1.5-2.3,0.5-2.1,1.9-1.3,1.9-1.6,0.5,1-1.5,1.6-1.3,3.7,0.3,1.1,1.8,0.3,0.5,5.5-2.1,1,0.3,3.6,0.5-.2L819,250l1.6,1.8-1.6,1.3-0.3,3.4,2.6,3.4,3.9,0.5,1.6-.8,3.2,4.2,1.4,0.5,6.7-2.8,2-4-0.3-5.1h0Zm-16,9,1.1,2.5,0.2,1.8,1.1,1.9,0.9-1.2-0.7-3.1-0.7-2.3-1.9.4h0Z" transform="translate(0 -7.06)"/><path id="va" class="cls-3" d="M831.6,266.1l-0.1-2,6.5-2.5-0.8,3.2-2.9,3.8-0.4,4.6,0.5,3.4-1.8,5-2.2,1.9-1.5-4.6,0.5-5.5,1.6-4.2,0.6-3.1h0Zm3.4,28.3L776.8,307l-37.4,5.3-6.7-.4-2.6,1.9-7.3.2-8.4,1-10.9,1.6L714,311v-2.1l1.5-2.1L726,295.3l4,4.5,3.8,1,2.5-1.1,2.2-1.3,2.5,1.3,3.9-1.4,1.9-4.6,2.6,0.5,2.9-2.1,1.8,0.5,2.8-3.7,0.3-2.1-1-1.3,1-1.9,5.3-12.3,0.6-5.7,1.2-.5,2.2,2.4,3.9-.3,1.9-7.6,2.8-.6,1-2.7,2.6-2.4,2.8-5.7,0.1-5.1,9.8,3.8,0.8-5.1,3.7,1.6,0.1,2.9,5.8,1.3,2.1,1.2,1.7,2.1-0.7,3.6-2,2.6,0.1,2.1,0.6,1.9,5,1.3h4.5l3.1,1,1.9,0.3,0.7,3.1,3.2,0.4,0.9,1.2-0.4,4.7,1.4,1.1-0.5,1.9,1.2,0.8-0.2,1.4-2.7-.1,0.1,1.6,2.3,1.5,0.1,1.4,1.8,1.8,0.5,2.5-2.5,1.4,1.6,1.5,5.8-1.7,3.6,6.2h0Z" transform="translate(0 -7.06)"/><path id="wv" class="cls-3" d="M761.2,239l1.1,4.9,1.1,6,2.1-2.6,2.3-3.1,2.5-.6,1.5-1.4,1.8-2.6,1.5,0.6,2.9-.3,2.6-2.1,2-1.4,1.8-.5,1.3,1,3.6,1.8,1.9,1.8,1.4,1.3-0.8,5.6-5.8-2.5-4.3-1.6-0.1,5.2-2.8,5.5-2.5,2.4-1.2,2.8-2.6.5-0.9,3.6-1,4-4,.3-2.3-2.4-1.1.6-0.6,5.5-1.3,3.5-5,11,0.9,1.2-0.2,1.9-2.8,3.9-1.8-.5-3,2.2-2.5-.6-2,4.6-3.9,1.4-2.5-1.3-2.3,1.4-2.4,1-3.7-.9-1.1-1.2-2.2-3-3.1-2-1.7-3.6-4.3-3.5-0.7-2.3-2.6-1.5-0.8-1.6-0.2-5.3,2.2-.1,1.9-.8,0.2-2.8,1.6-1.5,0.2-5,1-3.9,1.3-.6,1.3,1.1,0.5,1.8,1.8-1,0.5-1.6-1.1-1.8v-2.4l1-1.3,2.3-3.4,1.3-1.4,2.1,0.5,2.3-1.6,3.1-3.4,2.3-3.9,0.3-5.7,0.5-5v-4.7l-1.1-3.1,1-1.4,1.3-1.3,3.5,19.8,4.6-.8,11.9-1.8h0Z" transform="translate(0 -7.06)"/><path id="oh" class="cls-3" d="M735.3,193.3l-6.1,4.1-3.9,2.3-3.4,3.7-4,3.9-3.2.8-2.9.5-5.5,2.6-2.1.2-3.4-3.1-5.2.6-2.6-1.4-2.4-1.4-4.9.7-10.2,1.6-11.2,2.2,1.3,14.6,1.8,13.7,2.6,23.4,0.6,4.8,4.1-.1,2.4-.8,3.4,1.5,2.1,4.4h5.1l1.9,2.1,1.8-.1,2.5-1.3,2.5,0.4,5.4,0.5,1.7-2.1,2.3-1.3,2.1-.7,0.7,2.8,1.8,1,3.5,2.3,2.2-.1,1.3-.5,0.2-2.8,1.6-1.5,0.1-4.8,1-4.1,1.3-.6,1.3,1.1,0.5,1.7,1.7-1,0.4-1.5-1.1-1.9,0.1-2.3,0.8-1.1,2.2-3.3,1-1.5,2.1,0.5,2.3-1.6L736,247l2.8-4.1,0.3-5.1,0.5-5-0.2-5.3-1-2.9,0.3-1.2,1.8-1.8-2.3-9.1-2.9-19.2h0Z" transform="translate(0 -7.06)"/><path id="in" class="cls-3" d="M619.6,300l0.1-2.9,0.5-4.5,2.3-2.9,1.8-3.9,2.6-4.2-0.5-5.8-1.8-2.8-0.3-3.2,0.8-5.5-0.5-7-1.3-16L622,225.9l-1-11.7,3.1,0.9,1.5,1,1.1-.3,2.1-1.9,2.8-1.6,5.1-.2,22-2.3,5.6-.5,1.5,16,4.3,36.8,0.6,5.8-0.4,2.3,1.2,1.8,0.1,1.4-2.5,1.6-3.5,1.5-3.2.5-0.6,4.9-4.6,3.3-2.8,4,0.3,2.4-0.6,1.5h-3.3l-1.6-1.6-2.5,1.3-2.7,1.5,0.2,3-1.2.3-0.5-1-2.2-1.5-3.3,1.3-1.5,3-1.4-.8-1.5-1.6-4.5.5-5.6,1-2.9,1.5h0Z" transform="translate(0 -7.06)"/><path id="il" class="cls-3" d="M619.5,300.3v-3.2l0.6-4.6,2.3-2.9,1.9-4.1,2.2-4-0.4-5.3-2-3.5-0.1-3.4,0.7-5.3-0.8-7.2L622.8,241l-1.3-15-0.9-11.6-0.3-.9-0.8-2.6-1.3-3.7-1.6-1.8-1.5-2.6-0.2-5.5-45.8,2.6,0.2,2.4,2.3,0.7,0.9,1.1,0.5,1.8,3.9,3.4,0.7,2.3-0.7,3.4-1.8,3.7-0.7,2.5-2.3,1.8-1.8.7-5.3,1.4-0.7,1.8-0.7,2.1,0.7,1.4,1.8,1.6-0.2,4.1-1.8,1.6-0.7,1.6V242l-1.8.5-1.6,1.1-0.2,1.4,0.2,2.1-1.7,1.3-1,2.8,0.5,3.7,2.3,7.3,7.3,7.5,5.5,3.7-0.2,4.3,0.9,1.4,6.4,0.5,2.7,1.4-0.7,3.7-2.3,5.9-0.7,3.2,2.3,3.9,6.4,5.3,4.6,0.7,2.1,5,2.1,3.2-0.9,3,1.6,4.1,1.8,2.1,1.4-.9,0.9-2.1,2.2-1.8,2.1-.6,2.6,1.2,3.6,1.4,1.2-.3,0.2-2.3-1.3-2.4,0.3-2.4,1.8-1.4,3-.8,1.3-.5-0.6-1.4-0.8-2.4,1.4-1,1.2-3.1h0Z" transform="translate(0 -7.06)"/><path id="ct" class="cls-3" d="M874.1,178.9L870.4,164l-4.7.9-21.2,4.7,1,3.2,1.5,7.3,0.2,9-1.2,2.2,1.9,1.9,4.3-3.9,3.6-3.2,1.9-2.1,0.8,0.6,2.8-1.4,5.2-1.1,7.6-3.2h0Z" transform="translate(0 -7.06)"/><path id="wi" class="cls-3" d="M615.1,197.4l-0.1-3.2-1.2-4.5-0.7-6.1-1.1-2.4,1-3.1,0.8-2.9,1.5-2.6-0.7-3.4-0.7-3.6,0.5-1.8,1.9-2.4,0.2-2.8-0.8-1.3,0.7-2.6-0.5-4.2,2.8-5.7,2.9-6.8,0.2-2.3-0.3-1-0.8.5-4.2,6.3-2.8,4-1.9,1.8-0.8,2.3-2,.8-1.1,1.9-1.5-.3-0.2-1.8,1.3-2.4,2.1-4.7,1.8-1.6,1-2.4-2.6-1.9-2-10.4-3.5-1.3-2-2.3-12.1-2.7-2.9-1-8.2-2.2-7.9-1.2-3.8-5.1-0.8.6-1.2-.2-0.7-1.1-1.3.3-1.1.2-1.8,1-1-.7,0.7-1.9,1.9-3.1,1.1-1.1-1.9-1.4-2.1.8-2.9,1.9-7.4,3.2-2.9.7-2.9-.5-1-.9-2.1,2.8-0.2,2.7v8.5l-1.1,1.6-5.3,3.9-2.3,5.9,0.5,0.2,2.5,2.1,0.7,3.2-1.8,3.2v3.9l0.5,6.6,3,3h3.4l1.8,3.2,3.4,0.5,3.9,5.7,7.1,4.1,2.1,2.7,0.9,7.4,0.7,3.3,2.3,1.6,0.2,1.4-2.1,3.4,0.2,3.2,2.5,3.9,2.5,1.1,3,0.5,1.3,1.4,45.4-2.4h0Z" transform="translate(0 -7.06)"/><path id="nc" class="cls-3" d="M835,294.3l2.1,4.9,3.6,6.5,2.4,2.4,0.7,2.3-2.4.2,0.8,0.6-0.3,4.2-2.6,1.3-0.7,2.1-1.3,2.9-3.7,1.6-2.4-.3-1.5-.2-1.6-1.3,0.3,1.3v1h1.9l0.8,1.3-1.9,6.3h4.2l0.7,1.6,2.3-2.3,1.3-.5-1.9,3.6-3.1,4.9h-1.3l-1.1-.5-2.8.6-5.2,2.4-6.5,5.3-3.4,4.7-1.9,6.5-0.5,2.4-4.7.5-5.5,1.3-10-8.2-12.6-7.6-2.9-.8-12.6,1.5-4.3.8-1.6-3.2-3-2.1-16.5.5-7.3.8-9,4.5-6.1,2.6-21.2,2.6,0.5-4,1.8-1.5,2.8-.6,0.7-3.7,4.2-2.8,3.9-1.5,4.2-3.6,4.4-2.1,0.7-3.1,3.9-3.9,0.7-.2,0.8,1.1,1.9,0.3,2.3-3.6,2.1-.6,2.3,0.3,1.6-3.6,2.9-2.6,0.5-2.1,0.2-3.6h4.3l7.2-.9,15.8-2.3,15.1-2.1,21.6-4.7,20-4.3,11.2-2.4,4.7-.9h0Zm4.3,33.2,2.6-2.5,3.2-2.6,1.5-.6,0.2-2-0.7-6.1-1.5-2.3-0.7-1.9,0.7-.2,2.8,5.5,0.4,4.5-0.2,3.4-3.4,1.5-2.8,2.4-1.1,1.2-1-.3h0Z" transform="translate(0 -7.06)"/><g id="dc"><path class="cls-3" d="M805.8,250.8L804,249l-1.2-.7,1.4-2,2.9,1.9-1.3,2.6h0Z" transform="translate(0 -7.06)"/></g><path id="ma" class="cls-3" d="M899.6,173.3l2.2-.7,0.5-1.7,1,0.1,1,2.3-1.3.5-3.9.1,0.5-.6h0Zm-9.3.8,2.3-2.6h1.6L896,173l-2.4,1-2.2,1-1.1-.9h0Zm-34.8-22,17.7-4.6,2.3-.6,1.9-2.8,3.7-1.7,2.9,4.4-2.4,5.2-0.3,1.4,1.9,2.6,1.1-.8h1.8l2.3,2.6,3.9,6,3.6,0.5,2.3-1,1.8-1.8-0.8-2.8-2.1-1.6-1.5.8-1-1.3,0.5-.5,2.1-.2,1.8,0.8,1.9,2.4,1,2.9,0.3,2.4-4.2,1.4-3.9,1.9-3.9,4.5-1.9,1.4v-1l2.4-1.4,0.5-1.8-0.8-3.1-2.9,1.4-0.8,1.4,0.5,2.3-2.1,1-2.8-4.5-3.4-4.4-2.1-1.8-6.5,1.9L865,165l-20.7,4.6-0.7-4.8,0.7-10.6,4.3-.9,6.9-1.2h0Z" transform="translate(0 -7.06)"/><path id="tn" class="cls-2" d="M696.7,318.3l-51.9,5L629,325l-4.6.5h-3.9l-0.2,4.1-8.2.3-7,.6-8.1-.1-1.4,7.1L594,343l-3.3,2.8-1.3,4.4-0.3,2.6-4,2.3,1.5,3.6-1,4.4-1,.8,108.2-10.4,0.4-4L695,348l2.8-.8,0.7-3.7,4.1-2.7,4-1.5,4.1-3.6,4.4-2,0.5-3.1,4.1-4,0.5-.1,0.8,1.1,1.9,0.4,2.3-3.6,2.1-.6,2.3,0.3,1.6-3.5,3-2.6,0.4-1.9,0.3-3.7-2.2-.2-2.6,2h-7l-18.4,2.4-8,1.7h0Z" transform="translate(0 -7.06)"/><path id="mo" class="cls-3" d="M558.4,248.1l-2.5-3.1-1.1-2.3-64.4,2.4-2.3.1,1.3,2.5-0.2,2.3,2.5,3.9,3.1,4.1,3.1,2.7,2.2,0.2,1.5,0.9v3l-1.8,1.6-0.5,2.3,2.1,3.4,2.5,3,2.5,1.8,1.4,11.7,0.3,36.1,0.2,4.7,0.5,5.4,22.4-.9,23.2-.7,20.8-.8,11.7-.2,2.2,3.4-0.7,3.3-3.1,2.4-0.6,1.8,5.4,0.5,3.9-.7,1.7-5.5,0.7-5.9,2.1-2.6,2.6-1.5v-3l1-1.9-1.7-2.5-1.3,1-2-2.2-1.3-4.8,0.8-2.5-1.9-3.4-1.8-4.6-4.8-.8-7-5.6-1.7-4.1,0.8-3.2,2.1-6.1,0.5-2.9-2-1-6.9-.8-1-1.7-0.1-4.2-5.5-3.4-7-7.8-2.3-7.3-0.2-4.2,0.6-2.3h0Z" transform="translate(0 -7.06)"/><path id="ga" class="cls-3" d="M672.3,355.5v2.2l0.2,2.1,0.7,3.4,3.4,7.9L679,381l1.5,6.1,1.6,4.9,1.5,7,2.1,6.3,2.6,3.4,0.5,3.4,1.9,0.8,0.2,2.1-1.8,4.9-0.5,3.2-0.2,1.9,1.6,4.4,0.3,5.3-0.8,2.4,0.7,0.8,1.5,0.8,0.2,3.2,2.2,3.4,2.3,2.2,7.9,0.2,10.8-.6,21.5-1.3,5.5-.7h4.6l0.2,2.9,2.6,0.8,0.3-4.4-1.6-4.5,1.1-1.6,5.8,0.8,5,0.3-0.8-6.3,2.3-10,1.5-4.2-0.5-2.6,3.3-6.2-0.5-1.4-1.9.7-2.6-1.3-0.7-2.1-1.3-3.6-2.3-2.1-2.6-.6-1.6-4.9-2.9-6.3-4.2-1.9-2.1-1.9-1.3-2.6-2.1-1.9-2.3-1.3-2.3-2.9-3.1-2.3-4.5-1.8-0.5-1.5-2.4-2.9-0.5-1.5-3.4-5-3.5.1-3.8-2.4-1.4-1.3-0.3-1.8,0.9-1.9,2.2-1.1-0.6-2.1-42,5h0Z" transform="translate(0 -7.06)"/><path id="sc" class="cls-3" d="M764.9,408.2l-1.8,1-2.6-1.3-0.7-2.1-1.3-3.6-2.3-2.1-2.6-.6-1.6-4.9-2.8-6-4.2-1.9-2.1-1.9-1.3-2.6-2.1-1.9-2.3-1.3-2.3-2.9-3.1-2.3-4.5-1.8-0.5-1.5-2.4-2.9-0.5-1.5-3.4-5.2-3.4.2-4-2.4-1.3-1.3-0.3-1.8,0.8-1.9,2.3-1-0.5-2.3,5.8-2.3,9.1-4.6,7.8-.8,16.1-.4,2.6,1.9,1.7,3.4,4.3-.6,12.6-1.5,2.9,0.8,12.6,7.6L800,362l-5.4,5.5-2.6,6.1-0.5,6.3-1.6.8-1.1,2.8-2.4.6-2.1,3.6-2.8,2.8-2.3,3.4-1.6.8L774,398l-2.9.2,1,3.2-5,5.5-2.2,1.3h0Z" transform="translate(0 -7.06)"/><path id="ky" class="cls-3" d="M726,295.3l-2.3,2.4-3.6,4-4.9,5.5-1.2,1.7-0.1,2.1-4.4,2.2-5.7,3.4-7.2,1.8-51.9,4.9L629,325l-4.6.5h-3.9l-0.2,4.2-8.2.1-7,.6-8-.1,1.2-1.3,2.5-1.5,0.2-3.2,0.9-1.8-1.6-2.5,0.8-1.9,2.3-1.8,2.1-.6,2.8,1.3,3.6,1.3,1.1-.3,0.2-2.3-1.3-2.4,0.3-2.3,1.9-1.5,2.6-.6,1.6-.6-0.8-1.8-0.7-1.9,1.5-1,1.2-3.7,3-1.5,5.3-1,4.5-.5,1.4,1.6,1.5,0.9,1.6-3.1L640,295l2.2,1.5,0.4,1,1.2-.3-0.2-3,3.1-1.8,2.2-1.1,1.5,1.7h3.3l0.6-1.6-0.4-2.3,2.6-4,4.8-3.4,0.7-4.8,2.9-.5,3.8-1.6,2.4-1.7-0.2-1.6-1.1-1.5,0.6-3,4.2-.1,2.3-.8,3.3,1.4,2,4.4h5.1l2,2.2,1.6-.1,2.6-1.3,5.2,0.6,2.6,0.2,1.7-2.1,2.6-1.4,1.9-.7,0.7,2.8,2,1.1,2.6,2.1,0.1,5.7,0.8,1.6,2.6,1.6,0.8,2.3,4.2,3.4,1.8,3.6,2.9,1.8h0Z" transform="translate(0 -7.06)"/><path id="al" class="cls-3" d="M631.3,460.4l-1.5-14.3L627,427.3l0.2-14.1,0.8-31-0.2-16.6,0.2-6.4,44.5-3.6-0.2,2.2,0.2,2.1,0.7,3.4,3.4,7.9,2.4,9.9,1.5,6.1,1.6,4.9,1.5,7,2.1,6.3,2.6,3.4,0.5,3.4,1.9,0.8,0.2,2.1-1.8,4.9-0.5,3.2-0.2,1.9,1.6,4.4,0.3,5.3-0.8,2.4,0.7,0.8,1.5,0.8,0.3,2.9-5.6-.4-6.8.6-25.5,2.9-10.4,1.4-0.2,2.9,1.8,1.8,2.6,1.9,0.6,7.9-5.5,2.6-3-.3,2.8-1.9v-1l-3.1-6-2.3-.6-1.5,4.4-1.3,2.8-0.7-.2-2.6-.1h0Z" transform="translate(0 -7.06)"/><path id="la" class="cls-3" d="M608,459.2l-3.3-3.2,1-5.5-0.7-.9-9.3,1-25,.5-0.7-2.4,0.9-8.5,3.3-6,5-8.7-0.6-2.4,1.3-.7,0.5-2-2.3-2.1-0.1-1.9-1.8-4.4-0.2-6.3-55.5.9v9.6l0.7,9.4,0.7,3.9,2.5,4.1,0.9,5,4.3,5.5,0.2,3.2,0.7,0.7-0.7,8.5-3,5,1.6,2.1-0.7,2.5-0.7,7.3-1.4,3.2,0.1,3.6,4.7-1.5,12.1,0.2,10.3,3.6,6.5,1.1,3.7-1.5,3.2,1.1,3.2,1,0.8-2.1L567,481l-2.6.5-2.8-1.6,0.8-1.5,3.1-1,1.8,1.5,1.8-1,3.2,0.6,1.5,2.4,0.3,2.3,4.5,0.3,1.8,1.8-0.8,1.6-1.3.8,1.6,1.6,8.4,3.6,3.6-1.3,1-2.4,2.6-.6,1.8-1.5,1.3,1,0.8,2.9-2.3.8,0.7,0.6,3.4-1.3,2.3-3.4,0.8-.5-2.1-.3,0.8-1.6-0.2-1.5,2.1-.5L606,482l0.7,0.8,0.7,3.1,4.2,0.6,4,1.9,1,1.5h2.9l1.1,1,2.3-3.1v-1.5h-1.3l-3.4-2.8-5.8-.8-3.2-2.3,1.1-2.8,2.3,0.3,0.2-.6-1.8-1v-0.5h3.2l1.8-3.1-1.3-1.9-0.3-2.8-1.5.2-1.9,2.1-0.7,2.6-3.1-.6-1-1.8,1.8-1.9,1.9-3.5-1.1-2.4-0.8-3.5h0Z" transform="translate(0 -7.06)"/><path id="ms" class="cls-3" d="M631.6,459.3l-0.3,1.3h-5.2l-1.5-.8-2.1-.3-6.8,1.9-1.8-.8-2.6,4.2-1.1.8-1.1-2.5-1.1-3.9-3.4-3.2,1.1-5.5-0.7-.9-1.8.2-7.9.9-24.5.4-0.8-2.2,0.9-8.4,3.1-5.7,5.2-9.1-0.5-2.4,1.2-.7,0.4-1.9-2.3-2.1-0.1-2.1-1.8-4.1-0.1-6,1.3-2.5-0.2-3.4-1.8-3.1,1.5-1.5-1.6-2.5,0.5-1.6,1.6-6.5,2.5-2-0.6-2.4,3.7-5.3,2.8-1.4-0.2-1.7-0.3-1.7,2.9-5.6,2.3-1.2,0.2-.9,37.3-3.9,0.2,6.3,0.2,16.6-0.8,31-0.2,14.1,2.8,18.8,1.5,13.3h0Z" transform="translate(0 -7.06)"/><path id="ia" class="cls-3" d="M569.2,199.6l0.3,2.8,2.2,0.6,1,1.2,0.5,1.9,3.8,3.4,0.7,2.4-0.7,3.4-1.6,3.2-0.8,2.7-2.2,1.6-1.7.6-5.6,1.9-1.4,3.9,0.7,1.4,1.8,1.7-0.3,4-1.8,1.5-0.8,1.6,0.1,2.8-1.9.5-1.6,1.1-0.3,1.4,0.3,2.1-1.5,1.1-2.5-3.1-1.3-2.4-65.7,2.5-0.9.2-2-4.5-0.2-6.6-1.6-4.1-0.7-5.3-2.3-3.7-0.9-4.8-2.7-7.5-1.1-5.4-1.4-2.2-1.6-2.7,2-4.8,1.4-5.7-2.7-2.1-0.5-2.7,0.9-2.5h1.7l82.6-1.3,0.8,4.2,2.3,1.6,0.3,1.4-2,3.4,0.2,3.2,2.5,3.8,2.5,1.3,3.1,0.5,0.6,0.5h0Z" transform="translate(0 -7.06)"/><path id="mn" class="cls-3" d="M475.2,128.8l-0.5-8.5L473,113l-1.8-13.5-0.5-9.8-1.8-3.4-1.6-5V71l0.7-3.9-1.8-5.5h30.1l0.3-8.2,0.6-.2,2.3,0.5,1.9,0.8,0.8,5.5,1.5,6.1,1.6,1.6h4.9l0.3,1.4,6.3,0.3v2.1h4.8l0.3-1.3,1.1-1.1,2.3-.7,1.3,1h2.9l3.9,2.6,5.3,2.4,2.4,0.5,0.5-1,1.5-.5,0.5,2.9,2.6,1.3,0.5-.5,1.3,0.2v2.1l2.6,1h3.1l1.6-.8,3.2-3.2,2.6-.5,0.8,1.8,0.5,1.3h1l1-.8,8.9-.3,1.8,3.1h0.7l0.7-1.1,4.4-.4-0.6,2.3-3.9,1.8-9.3,4.1-4.8,2-3.1,2.6-2.4,3.6-2.3,3.9-1.8.8-4.5,5-1.3.2-4.3,2.8-2.5,3.2-0.2,3.2,0.1,8-1.4,1.7-5.1,3.8-2.2,6,2.9,2.2,0.7,3.2-1.9,3.2,0.2,3.8,0.4,6.7,3,3h3.3l1.9,3.1,3.4,0.5,3.9,5.7,7.1,4.1,2.1,2.9,0.7,6.4-81.2,1.1-0.3-35.7-0.5-3-4.1-3.4-1.1-1.8V135l2.1-1.6,1.4-1.4-0.1-3.2h0Z" transform="translate(0 -7.06)"/><path id="ok" class="cls-3" d="M380.3,320.8l-16.7-1.3-0.9,11,20.5,1.2,32.1,1.3L413,357.4l-0.5,17.8,0.2,1.6,4.3,3.7,2.1,1.1,0.7-.2,0.7-2.1,1.4,1.8H424v-1.4l2.7,1.4-0.5,3.9,4.1,0.2,2.5,1.1,4.1,0.7,2.5,1.8,2.3-2.1,3.4,0.7,2.5,3.4h0.9v2.3l2.3,0.7,2.3-2.3,1.8,0.7h2.5l0.9,2.5,6.3,2.1,1.4-.7,1.8-4.1h1.1l1.1,2.1,4.1,0.7,3.7,1.4,3,0.9,1.8-.9,0.7-2.5h4.3l2.1,0.9,2.7-2.1h1.1l0.7,1.6h4.1l1.6-2.1,1.8,0.5,2.1,2.5,3.2,1.8,3.2,0.9,1.9,1.1-0.4-37.2-1.4-11-0.2-8.9-1.4-6.5-0.8-7.2-0.1-3.8-12.1.3-46.4-.5-45-2.1-24-1.1h0Z" transform="translate(0 -7.06)"/><path id="tx" class="cls-3" d="M361.5,330.6l22.7,1.1,31.1,1.1L413,356.3l-0.3,18.1,0.1,2.1,4.3,3.8,2,1.5,1.2-.6,0.4-1.8,1.1,1.8h2.1v-1.5l1.7,1,1.1,0.4-0.4,4,4.1,0.1,2.9,1.2,4,0.5,2.4,2.1,2.1-2.1,3.7,0.6,2.2,3.2,1.1,0.3-0.2,2,2.2,0.8,2.3-2,2.1,0.6h2.2l0.9,2.4,6.3,2.1,1.6-.8,1.5-4.2H468l0.9,0.1,1.2,2.1,3.9,0.7,3.3,1.1,3.4,1.2,1.8-1,0.7-2.5h4.5l1.8,0.9,2.8-2.1h1.1l0.9,1.6h4l1.5-2,1.9,0.4,2,2.4,3.5,2,2.9,0.8,1.5,0.8,2.5,2,3-1.3,2.7,1.1,0.6,6.1V416l0.7,9.5,0.7,3.6,2.7,4.4,0.9,5,4.2,5.5,0.2,3.1,0.8,0.8-0.7,8.4-2.9,5,1.5,2.1-0.6,2.3-0.7,7.4-1.5,3.3,0.3,3.5-5.7,1.6-9.9,4.5-1,1.9-2.6,1.9-2.1,1.5-1.3.8L498,498l-2.8,2.1-5.3,3.2-5.7,2.4-6.3,3.4-1.8,1.5-5.8,3.6-3.4.7-3.9,5.5-4,.3-1,1.9,2.3,1.9-1.5,5.5-1.3,4.5-1.1,3.9-0.8,4.5,0.8,2.4,1.8,7,1,6.1,1.8,2.8-1,1.4-3.1,1.9-5.7-3.9-5.5-1.1-1.3.5-3.2-.7-4.2-3.1-5.2-1.1-7.6-3.4-2.1-3.9-1.3-6.5-3.2-1.9-0.6-2.3,0.6-.7,0.3-3.4-1.3-.7-0.6-1,1.3-4.4-1.6-2.3-3.2-1.3-3.4-4.4-3.6-6.6-4.2-2.6,0.2-1.9-5.3-12.3-0.8-4.2-1.8-1.9-0.2-1.5-6-5.3-2.6-3.1v-1.1l-2.6-2.1-6.8-1.1-7.4-.6-3.1-2.3-4.5,1.8-3.6,1.5-2.3,3.2-1,3.7-4.4,6.1-2.4,2.4-2.6-1-1.8-1.1-1.9-.6-3.9-2.3v-0.6l-1.8-1.9-5.2-2.1-7.4-7.8-2.3-4.7v-8.1l-3.2-6.5-0.5-2.8-1.6-1-1.1-2.1-5-2.1-1.3-1.6-7.1-7.9-1.3-3.2-4.7-2.3-1.5-4.4-2.6-2.9-1.9-.5-0.6-4.7,8,0.7,29,2.7,29,1.6,2.2-19.5,3.9-55.6,1.6-18.8h1.4m99.2,230.3-0.6-7.1-2.8-7.2-0.6-7,1.5-8.2,3.3-6.9,3.5-5.4,3.1-3.6,0.6,0.2-4.8,6.6-4.4,6.5-2,6.6-0.3,5.2,0.9,6.1,2.6,7.2,0.5,5.2,0.2,1.5-0.7.3h0Z" transform="translate(0 -7.06)"/><path id="nm" class="cls-3" d="M288.1,424l-0.8-4.8,8.6,0.5,30.2,3,27.3,1.7,2.2-18.7,3.9-55.9,1.7-19.4,1.6,0.1,0.8-11.2-104-10.6L242.1,429.1l15.5,2,1.3-10,29.2,2.9h0Z" transform="translate(0 -7.06)"/><path id="ks" class="cls-3" d="M507.9,324.4l-12.6.2-46.1-.5L404.6,322,380,320.7l3.9-64.6,22.1,0.7,40.3,0.8,44.3,1h5.1l2.2,2.2h2l1.6,1-0.1,3-1.8,1.7-0.3,2.2,1.8,3.4,3,3.2,2.3,1.6,1.3,11.2,0.2,36.3h0Z" transform="translate(0 -7.06)"/><path id="ne" class="cls-3" d="M486.9,240.7l3.2,7L490,250l3.5,5.5,2.7,3.1h-5l-43.5-.9-40.8-.9-22.3-.8,1.1-21.3-32.3-2.9,4.3-44,15.5,1,20.1,1.1,17.8,1.1,23.8,1.1,10.8-.5,2.1,2.3,4.8,3,1.1,0.9,4.3-1.4,3.9-.5,2.7-.2,1.8,1.4,4.1,1.6,3,1.6,0.5,1.6,0.9,2.1h1.8l0.8,0.1,0.9,4.7,2.9,8.5,0.6,3.8,2.5,3.8L485,230l1.6,4.2,0.3,6.5h0Z" transform="translate(0 -7.06)"/><path id="sd" class="cls-3" d="M476.5,204v-0.6l-2.9-4.9,1.9-4.7,1.5-5.9-2.8-2.1-0.4-2.7,0.8-2.6h3.2l-0.1-5-0.3-30.2-0.6-3.8-4.1-3.3-1-1.7-0.1-1.6,2-1.5,1.5-1.7,0.2-2.7L417,127.4,362.2,124l-5.3,63.7,14.6,0.9,20,1.2,17.7,0.9L433,192l12-.4,2,2.3,5.2,3.3,0.8,0.7,4.5-1.4,6.5-.6,1.7,1.3,4.2,1.6,3,1.6,0.4,1.5,1,2.2,2.2-.1h0Z" transform="translate(0 -7.06)"/><path id="nd" class="cls-3" d="M475.3,128.9l-0.6-8.4-1.7-6.8-1.9-13-0.5-11-1.7-3.1-1.8-5.2V71l0.6-3.8-1.8-5.5-28.6-.6-18.6-.7-26.5-1.3-23-2.1-7,67.2,54.9,3.3,58.2,1.4h0Z" transform="translate(0 -7.06)"/><path id="wy" class="cls-3" d="M360.4,143.3L253.7,129.8l-14.1,88.5,113.3,13.6,7.5-88.6h0Z" transform="translate(0 -7.06)"/><path id="mt" class="cls-3" d="M369.2,57l-30.7-2.8-29.3-3.6-29.3-4-32.3-5.3-18.4-3.4L196.5,31,192,52.3l3.4,7.5L194,64.4l1.8,4.6,3.2,1.4,4.6,10.8,2.7,3.2,0.5,1.1,3.4,1.1,0.5,2.1-7.1,17.6v2.5l2.5,3.2H207l4.8-3,0.7-1.1,1.6,0.7-0.2,5.3,2.7,12.6,3,2.5,0.9,0.7,1.8,2.3-0.5,3.4,0.7,3.4,1.1,0.9,2.3-2.3h2.7l3.2,1.6,2.5-.9h4.1l3.7,1.6,2.7-.5,0.5-3,3-.7,1.4,1.4,0.5,3.2,1.4,0.8,1.9-11,106.8,13.4L369.2,57h0Z" transform="translate(0 -7.06)"/><path id="co" class="cls-3" d="M380,321l4.9-86.3L271.5,222l-12.2,87.9L380,321h0Z" transform="translate(0 -7.06)"/><path id="id" class="cls-3" d="M148.5,176.5l8.8-35.2,1.4-4.2,2.5-5.9-1.3-2.3-2.5.1-0.8-1,0.5-1.1,0.3-3.1,4.5-5.5,1.8-.5,1.1-1.1,0.6-3.2,0.9-.7,3.9-5.8,3.9-4.3,0.2-3.8-3.4-2.6-1.5-4.4L183,28.6l13.5,2.5L192,52.3l3.6,7.5L194,64.5l2,4.6,3.1,1.3,3.8,9.6,3.5,4.4,0.5,1.1,3.3,1.1,0.4,2.1-7,17.4-0.2,2.6L206,112l0.9-.1,4.9-3,0.7-1.1,1.6,0.7-0.3,5.3,2.7,12.6,3.9,3.2,1.7,2.2-0.7,4.1,1.1,2.8,1.1,1.1,2.5-2.4,2.9,0.1,2.9,1.3,2.8-.7,3.8-.2,4,1.6,2.7-.3,0.5-3,2.9-.8,1.3,1.5,0.4,2.9,1.4,1.2-8.4,53.6-94.8-18.1h0Z" transform="translate(0 -7.06)"/><path id="ut" class="cls-3" d="M259.5,310.1l-83.8-11.9,20.6-112.5,46.8,8.8-1.5,10.6-2.3,13.2,7.8,0.9,16.4,1.8,8.2,0.9-12.2,88.2h0Z" transform="translate(0 -7.06)"/><path id="az" class="cls-3" d="M144.9,382.6l-2.6,2.2-0.3,1.5,0.5,1L161.4,398l12.1,7.6,14.7,8.6,16.8,10,12.3,2.4,24.9,2.7,17.3-119.1-83.7-11.9-3.1,16.4h-1.6l-1.7,2.6-2.5-.1-1.3-2.7-2.7-.3-0.9-1.1h-1l-0.9.6-1.9,1-0.1,7-0.2,1.7L157.3,336l-1.5,2.2-0.6,3.3,2.7,4.9,1.3,5.8,0.8,1,1,0.6-0.1,2.3-1.6,1.4-3.4,1.7-1.9,1.9-1.5,3.7-0.6,4.9-2.9,2.7-2.1.7,0.1,0.8-0.5,1.7,0.5,0.8,3.7,0.6-0.6,2.7-1.5,2.2-3.7.7h0Z" transform="translate(0 -7.06)"/><path id="nv" class="cls-3" d="M196.4,185.6L172.8,314.4l-1.8.4-1.6,2.4H167l-1.5-2.7-2.6-.4-0.8-1.1h-1l-2.8,1.6-0.3,6.8-0.4,5.8-0.4,8.6-1.4,2.1-2.4-1.1L84.3,232.5l19-67.6,93.1,20.7h0Z" transform="translate(0 -7.06)"/><path id="or" class="cls-3" d="M148.7,175.5l8.9-34.8,1.1-4.2,2.4-5.6-0.6-1.2-2.5-.1-1.3-1.7,0.5-1.5,0.5-3.3,4.5-5.5,1.8-1.1,1.1-1.1,1.5-3.6,4.1-5.7,3.6-3.9,0.2-3.4-3.3-2.5-1.8-4.6-12.7-3.6-15.1-3.5-15.4.1-0.5-1.4-5.5,2.1-4.5-.6-2.4-1.6-1.3.7-4.7-.2-1.7-1.4-5.3-2.1-0.8.1L95.2,79l-1.9,1.8-6.2-.3-5.9-4.1,0.7-.8,0.2-7.8-2.3-3.9-4.1-.6L75,60.9l-2.3-.5-5.8,2.1L64.6,69,61.3,79l-3.2,6.5-5,14.1L46.6,113l-8.1,12.6-1.9,2.9-0.8,8.6,0.4,12.1,112.5,26.3h0Z" transform="translate(0 -7.06)"/><path id="wa" class="cls-3" d="M102.1,7.6l4.4,1.5,9.7,2.8,8.6,1.9,20.1,5.7,23,5.7,15.2,3.2L169.5,92l-12.4-3.5-15.5-3.6H126.4l-0.5-1.3-5.6,2.2-4.6-.7-2.2-1.6L112,84l-4.7-.1-1.7-1.3-5.3-2.1-0.7.2L95.2,79l-1.9,1.8L87,80.5l-5.9-4.1,0.8-.9L82,67.8,79.7,64l-4.1-.6-0.7-2.5-2.3-.5L69,61.6l-2.3-3.2L67,55.5l2.8-.3,1.6-4L68.9,50l0.2-3.7,4.4-.7-2.8-2.8-1.4-7.1L70,32.8V24.9l-1.8-3.2,2.3-9.4,2.1,0.5L75,15.7l2.8,2.6L81,20.2l4.5,2.1,3.1,0.6,2.9,1.5,3.4,1,2.3-.2V22.8l1.3-1.1,2.1-1.3,0.3,1.1,0.3,1.8-2.3.5-0.3,2.1,1.8,1.5,1.1,2.4,0.7,1.9,1.4-.2,0.2-1.3-1-1.3-0.5-3.2,0.8-1.8-0.7-1.5V20.1l1.8-3.6-1.1-2.6L100.7,9l0.3-.8,1.1-.6h0Zm-9.5,6,2-.2,0.5,1.4,1.5-1.6H99l0.8,1.5-1.5,1.7L99,17.2l-0.7,2-1.4.4L96,19.4l1.4-2.6-1.7-.6-0.3,1.5-0.7.6L93.2,16l-0.6-2.4h0Z" transform="translate(0 -7.06)"/><g id="ca"><path class="cls-3" d="M144.7,382.2l3.9-.5,1.5-2,0.5-2.9-3.6-.6-0.5-.7,0.5-2-0.2-.6,1.9-.6,3-2.8,0.6-5,1.4-3.4,1.9-2.2,3.5-1.6,1.6-1.6,0.1-2.1-1-.6-1-1.1-1.2-5.9-2.7-4.8,0.6-3.5-2.4-1-69-104.2L103,164.9,35.9,149.2l-1.5,4.7-0.2,7.4L29,173.1l-3.1,2.6-0.3,1.1-1.8.8-1.5,4.2L21.5,185l2.8,4.2,1.6,4.2L27,197l-0.3,6.5-1.8,3.1-0.6,5.8-1,3.7,1.8,3.9,2.8,4.5,2.3,4.9,1.3,4-0.3,3.2-0.3.5v2.1l5.7,6.3-0.5,2.4-0.7,2.3-0.7,1.9,0.2,8.2L37,264l1.9,2.6,2.8,0.5,1,2.8-1.1,3.6-2.1,1.6H38.4L37.6,279l0.5,2.9,3.2,4.4,1.6,5.3,1.5,4.7,1.3,3.1,3.4,5.8,1.5,2.6,0.5,2.9,1.6,1v2.4L51.9,316l-1.8,7.1L49.6,325l2.4,2.8,4.2,0.5,4.5,1.8,3.9,2.1h2.9l2.9,3.1,2.6,4.9,1.1,2.3,3.9,2.1,4.8,0.8,1.4,2.1,0.7,3.2-1.4.6,0.3,1,3.2,0.8,2.8,0.2,3.2-1.7,3.9,4.2,0.8,2.3,2.6,4.2,0.3,3.2v9.4l0.5,1.8,10,1.5,19.7,2.8,13.9,1.2h0ZM56.6,338.5l1.3,1.5-0.2,1.3-3.2-.1L53.9,340l-0.7-1.5h3.4Zm1.9,0,1.2-.6,3.6,2.1,3.1,1.2-0.9.6-4.5-.2L59.4,340l-0.9-1.5h0Zm20.7,19.8,1.8,2.3,0.8,1,1.5,0.6,0.6-1.5-1-1.8-2.7-2-1.1.2,0.1,1.2h0Zm-1.5,8.6,1.8,3.1,1.2,1.9-1.4.2L78,371l-0.7-1.9V367l0.4-.1h0Z" transform="translate(0 -7.06)"/></g><g id="hi-2"><path class="cls-4" d="M233.1,526.3l1.9-3.6,2.3-.3,0.3,0.8-2.1,3.1h-2.4Zm10.2-3.7,6.1,2.6,2.1-.3,1.6-3.9-0.6-3.4-4.2-.5-4,1.8-1,3.7h0Zm30.7,10,3.7,5.5,2.4-.3,1.1-.5,1.5,1.3,3.7-.2,1-1.5-2.9-1.8-1.9-3.7-2.1-3.6-5.8,2.9-0.7,1.9h0Zm20.2,8.9,1.3-1.9,4.7,1,0.6-.5,6.1,0.7-0.3,1.3-2.6,1.5-4.4-.3-5.4-1.8h0Zm5.3,5.2,1.9,3.9,3.1-1.1,0.3-1.6-1.6-2.1-3.7-.3v1.2h0Zm7-1.2,2.3-2.9,4.7,2.4,4.4,1.1,4.4,2.8v1.9l-3.6,1.8-4.9,1-2.4-1.5-4.9-6.6h0Zm16.6,15.6,1.6-1.3,3.4,1.6,7.6,3.6,3.4,2.1,1.6,2.4,1.9,4.4,4,2.6-0.3,1.3-3.9,3.2-4.2,1.5-1.5-.7-3.1,1.8-2.4,3.2-2.3,2.9-1.8-.2-3.6-2.6-0.3-4.5,0.6-2.4-1.6-5.7-2.1-1.8-0.2-2.6,2.3-1,2.1-3.1,0.5-1-1.6-1.8-0.1-1.9h0Z" transform="translate(0 -7.06)"/></g><g id="ak-2"><path class="cls-4" d="M158.1,460.7l-0.3,85.4,1.6,1,3.1,0.2,1.4-1.1h2.6l0.2,2.9,6.9,6.8,0.5,2.6,3.4-1.9,0.6-.2,0.3-3.1,1.4-1.6,1.1-.2,1.9-1.5,3.1,2.1,0.6,2.9,1.9,1.1,1.1,2.4,3.9,1.8,3.4,6,2.8,3.9,2.3,2.8,1.4,3.7,5,1.8,5.2,2.1,1,4.4,0.5,3.1-1,3.4-1.8,2.3-1.6-.8-1.4-3.1-2.8-1.5-1.8-1.1-0.8.8,1.4,2.8,0.2,3.7-1.1.5-1.9-1.9-2.1-1.3,0.5,1.6,1.3,1.8-0.8.8-1.3-1-2.1-3.4-1-2.3-1,1-1.3-1.5,1.8-1.9-1.4-1.5v-5h-0.8l-0.8,3.4-1.1.5-1-3.7-0.6-3.7-0.8-.5,0.3,5.7v1.1l-1.4-1.3-3.6-6-2.1-.5-0.6-3.7-1.6-2.9-1.6-1.1v-2.3l2.1-1.3-0.5-.3-2.6.7-3.4-2.4-2.6-2.9-4.9-2.6-4-2.6,1.3-3.2V549l-1.8,1.6-2.9,1.1-3.7-1.1-5.7-2.4h-5.5l-0.6.5-6.5-3.9-2.1-.3-2.8-5.8-3.6.3-3.6,1.5,0.5,4.5,1.1-2.9,1,0.3-1.4,4.4,3.2-2.8,0.6,1.6L127,550l-1.3-.3-0.5-1.9-1.3-.8-1.3,1.1-2.8-1.8-3.1,2.1-1.8,2.1-3.4,2.1-4.7-.2-0.5-2.1,3.7-.7v-1.3l-2.3-.7,1-2.4,2.3-3.9v-1.8l0.2-.8,4.4-2.3,1,1.3h2.8l-1.3-2.6-3.7-.3-5,2.8L107,541l-1.8,2.6-1.1,2.3-4.2,1.5L96.8,550l-0.3,1.6,2.3,1,0.8,2.1-2.8,3.2-6.5,4.2-7.8,4.2-2.1,1.1-5.3,1.1-5.3,2.3,1.8,1.3-1.4,1.5-0.5,1.1-2.8-1-3.2.2-0.8,2.3h-1l0.3-2.4-3.6,1.3-2.9,1-3.4-1.3-2.9,1.9H46.2L44.1,578l-1.6.8-2.1-.3-2.6-1.1-2.3.7-1,1L32.9,578v-1.9l3.1-1.3,6.3,0.7,4.4-1.6,2.1-2.1,2.9-.7,1.8-.8,2.8,0.2,1.6,1.3,1-.3,2.3-2.8,3.1-1,3.4-.7,1.3-.3,0.7,0.5h0.8l1.3-3.7,4-1.5,1.9-3.7,2.3-4.5,1.6-1.5,0.3-2.6L80.3,551l-3.4.7-0.7-2.4-1.3-.3-1,1-0.2,2.9-1.4-.2-1.4-5.8-1.3,1.3-1.1-.5-0.3-1.9-4,.2-2.1,1.1-2.6-.3,1.5-1.5,0.5-2.6-0.7-1.9,1.5-1,1.3-.2-0.7-1.8v-4.4l-1-1-0.8,1.5H55l-1.5-1.3-0.7-3.9-2.1-3.6v-1l2.1-.8L53,521l1.1-1.1-0.8-.5-1.3.5-1.1-2.8,1-5,4.5-3.2,2.6-1.6,1.9-3.7,2.8-1.3,2.6,1.1,0.3,2.4,2.4-.3,3.2-2.4,1.6,0.6,1,0.6h1.6l2.3-1.3,0.8-4.4,1-3.4,1-1-1.1-1.9-2.6.8-3.2.8-1.9-.5-3.6-1.8-5-.2-3.6-3.7,0.5-3.9,0.7-2.4-2.1-1.8-1.9-3.7,0.5-.8,6.8-.5h2.1l1,1h0.7L68.6,474l3.9-.6,2.6,0.3,1.4,1.1-1.4,2.1-0.5,1.5,2.8,1.6,5,1.8,1.8-1-2.3-4.4-1-3.2,1-.8-3.4-1.9L78,469.4l0.5-1.6-0.8-3.9-2.9-4.7L72.4,455l2.9-1.9h3.2l1.8,0.6,4.2-.2,3.7-3.6,1.1-3.1,3.7-2.4,1.6,1,2.8-.6,3.7-2.1,1.1-.2,1,0.8,4.5-.2,2.8-3.1h1.1l3.6,2.4,1.9,2.1-0.5,1.1,0.7,1.1,1.6-1.6,3.9,0.3,0.3,3.7,1.9,1.5,7.1,0.6,6.3,4.2,1.4-1L145,457l2.1-.6,1.9-.8,4.9,1.9,4.2,3.2h0ZM43,489.6l2.1,5.3-0.2,1-2.9-.3-1.8-4-1.8-1.5H36l-0.2-2.6,1.8-2.4,1.1,2.4,1.5,1.5,2.8,0.6h0Zm-2.6,33.5,3.7,0.8,3.7,1,0.8,1L47,529.6l-3.1-.2-3.4-3.6-0.1-2.7h0ZM19.7,509l1.1,2.6,1.1,1.6-1.1.8-2.1-3.1V509h1ZM5.9,582.1l3.4-2.3,3.4-1,2.6,0.3,0.5,1.6,1.9,0.5,1.9-1.9-0.3-1.6,2.8-.7,2.9,2.6-1.1,1.8-4.4,1.1-2.8-.5L13,580.9l-4.4,1.4-1.6.3-1.1-.5h0Zm49-4.5,1.6,1.9,2.1-1.6-1.5-1.3-2.2,1h0Zm2.9,3,1.1-2.3,2.1,0.3-0.8,1.9H57.8v0.1Zm23.6-1.9,1.4,1.8,1-1.1L83,577.5l-1.6,1.2h0Zm8.8-12.5,1.1,5.8,2.9,0.8,5-2.9,4.4-2.6L102,565l0.5-2.4-2.1,1.3-2.9-.8,1.6-1.1,1.9,0.8,3.9-1.8,0.5-1.5-2.4-.8,0.8-1.9-2.8,1.9-4.7,3.6-4.8,2.9-1.3,1h0Zm42.3-19.8,2.4-1.5-1-1.8-1.8,1,0.4,2.3h0Z" transform="translate(0 -7.06)"/></g><g id="fl-2"><path class="cls-4" d="M759.8,439.1l2.3,7.3,3.7,9.7,5.3,9.4,3.7,6.3,4.8,5.5,4,3.7,1.6,2.9-1.1,1.3-0.8,1.3,2.9,7.4,2.9,2.9,2.6,5.3,3.6,5.8,4.5,8.2,1.3,7.6,0.5,12,0.7,1.8-0.3,3.4-2.4,1.3,0.3,1.9-0.7,1.9,0.3,2.4,0.5,1.9-2.8,3.2-3.1,1.5-3.9.2-1.5,1.6-2.4,1-1.3-.5-1.1-1-0.3-2.9-0.8-3.4-3.4-5.2-3.6-2.3-3.9-.3-0.8,1.3-3.1-4.4-0.7-3.6-2.6-4-1.8-1.1-1.6,2.1-1.8-.3-2.1-5-2.9-3.9-2.9-5.3-2.6-3.1-3.6-3.7,2.1-2.4,3.2-5.5-0.2-1.6-4.5-1-1.6.6,0.3,0.6,2.6,1-1.5,4.5-0.8.5-1.8-4-1.3-4.9-0.3-2.8,1.5-4.7V482l-3.1-3.7-1.3-3.1-5.2-1.3-1.9-.6-1.6-2.6-3.4-1.6-1.1-3.4-2.8-1-2.4-3.7-4.2-1.5-2.9-1.5H711l-4,.8-0.2,1.9,0.8,1-0.5,1.1-3.1-.2-3.7,3.6-3.6,1.9h-3.9l-3.2,1.3-0.3-2.8-1.6-1.9-2.9-1.1-1.6-1.5-8.1-3.9-7.6-1.8-4.4.6-6,.5-6,2.1-3.5.6-0.2-8-2.6-1.9-1.8-1.8,0.3-3.1,10.2-1.3,25.5-2.9,6.8-.6,5.4,0.3,2.6,3.9,1.5,1.5,8.1,0.5,10.8-.6,21.5-1.3,5.5-.7,5.1,0.2,0.4,2.9,2.2,0.8,0.2-4.6-1.5-4.2,1.3-1.4,5.5,0.5,5.4,0.7h0Zm12.6,132.4,2.4-.7,1.3-.2,1.5-2.3,2.3-1.6,1.3,0.5,1.7,0.3,0.4,1-3.5,1.2-4.2,1.5-2.3,1.2-0.9-.9h0Zm13.5-5,1.2,1,2.8-2.1,5.3-4.2,3.7-3.9,2.5-6.6,1-1.7,0.2-3.4-0.7.5-1,2.8-1.5,4.6-3.2,5.3-4.4,4.2-3.4,1.9-2.5,1.6h0Z" transform="translate(0 -7.06)"/></g><g id="nh-2"><path class="cls-4" d="M880.8,142.4l0.9-1.1,1.1-3.3-2.5-.9-0.5-3.1-3.9-1.1-0.3-2.8-7.3-23.4-4.6-14.5h-0.9l-0.7,1.6-0.7-.5-1-1-1.5,1.9v5l0.3,5.7,1.9,2.8v4l-3.7,5.1-2.6,1.1V119l1.1,1.8v8.6l-0.8,9.2-0.2,4.9,1,1.3-0.2,4.5-0.5,1.8,1,0.7,16.8-4.4,2.2-.6L877,144l3.8-1.6h0Z" transform="translate(0 -7.06)"/></g><g id="mi-2"><path class="cls-5" d="M697.9,177.2l-3.2-8.2-2.3-9.1-2.4-3.2-2.6-1.8-1.6,1.1-3.9,1.8-1.9,5-2.8,3.7-1.1.6-1.5-.6-2.4-2.1,0.5-5,3.4-1.3,0.8-3.4,0.7-2.6,2.4-1.6-0.3-10-1.6-2.3-1.3-.8-0.8-2.1,0.8-.8,1.6,0.3,0.2-1.6L676,131l-1.3-2.6h-2.6l-4.5-1.4-5.5-3.4h-2.8l-0.7.7-1-.5-3.1-2.3-2.9,1.8-2.9,2.3,0.3,3.6,1,0.3,2.1,0.5,0.5,0.8-2.6.8-2.6.3-1.5,1.8-0.3,2.1,0.3,1.6,0.3,5.5-3.6,2.1-0.7-.2v-4.2l1.3-2.4,0.7-2.4-0.8-.8-1.9.8-1,4.2-2.8,1.1-1.8,1.9-0.2,1,0.7,0.8-0.7,2.6-2.3.5V149l0.8,2.4-1.1,6.1-1.6,4,0.7,4.7,0.5,1.1-0.8,2.4-0.3.8-0.3,2.8,3.6,6,2.9,6.5,1.5,4.9-0.8,4.7-1,6-2.4,5.2-0.3,2.8-3.3,3.1,4.4-.2L657,210l7.3-1,0.1,1.7,6.8-1.2,10.3-1.5,3.8-.5,0.1-.6,0.2-1.4,2.1-3.7,2-1.7-0.2-5.1,1.6-1.6,1.1-.3,0.2-3.6,1.5-3,1,0.6,0.2,0.6,0.8,0.2,1.9-1,0.1-9.7h0Z" transform="translate(0 -7.06)"/><path class="cls-5" d="M581.6,82.1l1.8-2.1,2.2-.8,5.4-3.9,2.3-.6,0.5,0.5-5.1,5.1-3.3,1.9-2.1.9-1.7-1h0Zm86.2,32.1,0.7,2.5,3.2,0.2,1.3-1.2-0.4-1.6-1.6-1.9-2.2.2-1.6.2-0.3,1.1,0.9,0.5h0Zm-100.3-3,0.7-.6,2.8-.8,3.6-2.3v-1l0.7-.7,6-1,2.4-1.9,4.4-2.1,0.2-1.3,1.9-2.9,1.8-.8,1.3-1.8,2.3-2.3,4.4-2.4,4.7-.5,1.1,1.1-0.3,1-3.7,1L600.3,95l-2.3.8-0.5,2.4-2.4,3.2-0.3,2.6,0.8,0.5,1-1.1,3.6-2.9,1.3,1.3h2.3l3.2,1,1.5,1.1L610,107l2.8,2.8,3.9-.2,1.5-1,1.6,1.3,1.6,0.5,1.3-.8h1.1l1.6-1,4-3.6,3.4-1.1,6.6-.3,4.5-1.9,2.6-1.3,1.5,0.2v5.7l0.5,0.3,2.9,0.8,1.9-.5,6.1-1.6,1.1-1.1,1.5,0.5v6.9l3.2,3.1,1.3,0.7,1.3,1-1.3.3-0.8-.3-3.7-.5-2.1.7-2.3-.2-3.2,1.4h-1.8l-5.8-1.3-5.2.2-1.9,2.6-7,.7-2.4.8-1.1,3.1-1.3,1.1-0.5-.2-1.5-1.6-4.5,2.4h-0.7l-1.1-1.6-0.8.2-1.9,4.4-1,4-3.2,7-1.2-1-1.4-1-1.9-10.3-3.5-1.4-2-2.3-12.1-2.7-2.9-1-8.2-2.2-7.9-1.1-4.1-5.4h0Z" transform="translate(0 -7.06)"/></g><g id="vt-2"><path class="cls-4" d="M844.5,154.1l0.3-5.4-2.9-10.8-0.7-.3-2.9-1.3,0.8-2.9-0.8-2.1-2.7-4.6,1-3.9-0.8-5.2-2.4-6.5-0.8-4.9L859,99.5l0.3,5.5,1.9,2.7v4l-3.7,5.1-2.6,1.1V119l1.3,1.5-0.3,8.1-0.6,9.3-0.2,5.6,1,1.3-0.2,4.6-0.5,1.7,1,0.7-7.4,1.5-4.5.8h0Z" transform="translate(0 -7.06)"/></g><g id="me-2"><path class="cls-5" d="M922.8,78.8l1.9,2.1,2.3,3.7v1.9l-2.1,4.7-1.9.6-3.4,3.1-4.8,5.5h-1.3l-1-2.1-1.8.2-1,1.4-2.4,1.4-1,1.4,1.6,1.4-0.5.7-0.5,2.8-1.9-.2V106l-0.3-1.3-1.5.3-1.8-3.2-2.1,1.3,1.3,1.4,0.3,1.1-0.8,1.3,0.3,3.1,0.2,1.6-1.6,2.6-2.9.5-0.3,2.9-5.3,3.1-1.3.5-1.6-1.4-3.1,3.6,1,3.2-1.5,1.3-0.2,4.4-1.1,6.3-2.5-1.2-0.5-3.1L876,133l-0.3-2.8-7.3-23.4-4.7-14.6,1.4-.1,1.5,0.4V89.9l1.3-4.5,2.6-4.7,1.5-4-1.9-2.4v-6l0.8-1,0.8-2.8L871.5,63l-0.2-4.8,1.8-4.8,2.9-8.9,2.1-4.2h1.3l1.3,0.2v1.1l1.3,2.3,2.8,0.7,0.8-.8v-1l4-2.9,1.8-1.8,1.5,0.2,6,2.4,1.9,1,9,29.9h6l0.8,1.9,0.2,4.8,2.9,2.3h0.8l0.2-.5L920.2,79l2.6-.2h0ZM901.9,109l1.5-1.5,1.4,1.1,0.6,2.4-1.7.9-1.8-2.9h0Zm6.7-5.9,1.8,1.9,1.3-.2,0.2-2,0.9-.8-0.8-1.8-2,.7-1.4,2.2h0Z" transform="translate(0 -7.06)"/></g><g id="ri-2"><path class="cls-4" d="M874.1,178.9l-3.7-15,6.3-1.9,2.2,1.9,3.3,4.3,2.7,4.4-3,1.6-1.3-.2-1.1,1.8-2.4,1.9-3,1.2h0Z" transform="translate(0 -7.06)"/></g><g id="ny-2"><path class="cls-5" d="M830.4,188.8l-1.1-1-2.6-.2-2.3-1.9-1.6-6.1-3.5.1-2.4-2.7-19.4,4.4-43,8.7-7.5,1.2-0.7-6.5,1.4-1.1,1.3-1.1,1-1.6,1.8-1.1,1.9-1.8,0.5-1.6,2.1-2.8,1.1-1-0.2-1-1.3-3.1-1.8-.2-1.9-6.1,2.9-1.8,4.4-1.4,4-1.3,3.2-.5,6.3-.2,1.9,1.3,1.6,0.2,2.1-1.3,2.6-1.1,5.2-.5,2.1-1.8,1.8-3.2,1.6-1.9H794l1.9-1.1,0.2-2.3-1.5-2.1-0.3-1.4,1.1-2.1v-1.4h-1.8l-1.8-.8-0.8-1.1-0.2-2.6,5.8-5.5,0.7-.8,1.5-2.9,2.9-4.5,2.8-3.7,2.1-2.4,2.4-1.8,3.1-1.3,5.5-1.3,3.2,0.2,4.5-1.4,7.6-2.1,0.5,5,2.4,6.5,0.8,5.2-1,3.9,2.6,4.5,0.8,2.1-0.8,2.9,2.9,1.3,0.7,0.3,3.1,11-0.5,5.1L843.9,165l0.8,5.5,0.8,3.6,1.5,7.3v8.1l-1.1,2.3,1.8,2,0.8,1.7-1.9,1.8,0.3,1.3,1.3-.3,1.5-1.3,2.3-2.6,1.1-.6,1.6,0.6,2.3,0.2,7.9-3.9,2.9-2.8,1.3-1.4,4.2,1.6-3.4,3.6L866,194l-7.1,5.3-2.6,1-5.8,1.9-4,1.1-1.2-.5-0.2-3.7,0.5-2.8-0.2-2.1-2.8-1.7-4.5-1-3.9-1.1-3.8-1.6h0Z" transform="translate(0 -7.06)"/></g><g id="pa-2"><path class="cls-4" d="M825.1,224.7l1.3-.3,2.3-1.3,1.2-2.5,1.6-2.3,3.2-3.1v-0.8l-2.4-1.6-3.6-2.4-1-2.6-2.8-.3-0.2-1.1-0.8-2.8,2.3-1.1,0.2-2.4-1.3-1.3,0.2-1.6,1.9-3.1V191l2.7-2.6-0.9-.7-2.5-.2-2.3-1.9-1.5-6.1-3.5.1-2.5-2.7-18.1,4.2-43,8.7-8.9,1.4-0.6-6.5-5.4,5.1-1.3.5-4.2,3,2.9,19.1,2.5,9.7,3.6,19.3,3.3-.6,11.9-1.5,37.9-7.7,14.9-2.8,8.3-1.6,0.3-.2,2.1-1.6,2.2-.7h0Z" transform="translate(0 -7.06)"/></g><path id="nj-2" class="cls-4" d="M829.7,188.5l-2.3,2.7v3.1l-1.9,3.1-0.2,1.6,1.3,1.3-0.2,2.4-2.3,1.1,0.8,2.8,0.2,1.1,2.8,0.3,1,2.6,3.6,2.4,2.4,1.6v0.8l-3,2.7-1.6,2.3-1.5,2.8-2.3,1.3L826,226l-0.2,1.2-0.6,2.6,1.1,2.2,3.2,2.9,4.8,2.3,4,0.6,0.2,1.4-0.8,1L838,243h0.8l2.1-2.4,0.8-4.9,2.8-4,3.1-6.5,1.1-5.5-0.7-1.1-0.2-9.4-1.6-3.4-1.1.8-2.8.3-0.5-.5,1.1-1,2.1-1.9,0.1-1.1-0.4-3.4,0.6-2.8-0.1-2-2.8-1.8-5.1-1.2-4.1-1.4-3.5-1.3h0Z" transform="translate(0 -7.06)"/><path id="de-2" class="cls-4" d="M825.6,228.3l0.4-2.1,0.4-1.7-1.6.4-1.6.5-2.2,1.8,1.7,5,2.3,5.7,2.1,9.7,1.6,6.3,5-.2,6.1-1.2-2.3-7.4-1,.5-3.6-2.4-1.8-4.7-1.9-3.6L826,232l-0.9-2.1,0.5-1.6h0Z" transform="translate(0 -7.06)"/><path id="md-2" class="cls-4" d="M839.8,252.4l-6,1.2-5.1.1-1.8-6.9-1.9-9.2-2.6-6.2-1.3-4.4-7.5,1.6-14.9,2.8L761.2,239l1.1,5,1,5.7,0.3-.3,2.1-2.4,2.3-2.6,2.4-.6,1.5-1.4,1.8-2.6,1.3,0.6,2.9-.3,2.6-2.1,2-1.4,1.8-.5,1.6,1.1,2.9,1.4,1.9,1.8,1.2,1.5,4.1,1.7v2.9l5.5,1.3,1.1,0.5,1.4-2,2.9,2-1.3,2.5-0.8,4-1.8,2.6v2.1l0.7,1.8,5.1,1.4,4.3-.1,3.1,1,2.1,0.3,1-2.1-1.5-2.1v-1.8l-2.4-2.1-2.1-5.5,1.3-5.3-0.2-2.1-1.3-1.3,1.5-2.3,0.5-2.1,1.9-1.3,1.9-1.6,0.5,1-1.5,1.6-1.3,3.7,0.3,1.1,1.8,0.3,0.5,5.5-2.1,1,0.3,3.6,0.5-.2L819,250l1.6,1.8-1.6,1.3-0.3,3.4,2.6,3.4,3.9,0.5,1.6-.8,3.2,4.2,1.4,0.5,6.7-2.8,2-4-0.3-5.1h0Zm-16,9,1.1,2.5,0.2,1.8,1.1,1.9,0.9-1.2-0.7-3.1-0.7-2.3-1.9.4h0Z" transform="translate(0 -7.06)"/><path id="va-2" class="cls-4" d="M831.6,266.1l-0.1-2,6.5-2.5-0.8,3.2-2.9,3.8-0.4,4.6,0.5,3.4-1.8,5-2.2,1.9-1.5-4.6,0.5-5.5,1.6-4.2,0.6-3.1h0Zm3.4,28.3L776.8,307l-37.4,5.3-6.7-.4-2.6,1.9-7.3.2-8.4,1-10.9,1.6L714,311v-2.1l1.5-2.1L726,295.3l4,4.5,3.8,1,2.5-1.1,2.2-1.3,2.5,1.3,3.9-1.4,1.9-4.6,2.6,0.5,2.9-2.1,1.8,0.5,2.8-3.7,0.3-2.1-1-1.3,1-1.9,5.3-12.3,0.6-5.7,1.2-.5,2.2,2.4,3.9-.3,1.9-7.6,2.8-.6,1-2.7,2.6-2.4,2.8-5.7,0.1-5.1,9.8,3.8,0.8-5.1,3.7,1.6,0.1,2.9,5.8,1.3,2.1,1.2,1.7,2.1-0.7,3.6-2,2.6,0.1,2.1,0.6,1.9,5,1.3h4.5l3.1,1,1.9,0.3,0.7,3.1,3.2,0.4,0.9,1.2-0.4,4.7,1.4,1.1-0.5,1.9,1.2,0.8-0.2,1.4-2.7-.1,0.1,1.6,2.3,1.5,0.1,1.4,1.8,1.8,0.5,2.5-2.5,1.4,1.6,1.5,5.8-1.7,3.6,6.2h0Z" transform="translate(0 -7.06)"/><path id="wv-2" class="cls-4" d="M761.2,239l1.1,4.9,1.1,6,2.1-2.6,2.3-3.1,2.5-.6,1.5-1.4,1.8-2.6,1.5,0.6,2.9-.3,2.6-2.1,2-1.4,1.8-.5,1.3,1,3.6,1.8,1.9,1.8,1.4,1.3-0.8,5.6-5.8-2.5-4.3-1.6-0.1,5.2-2.8,5.5-2.5,2.4-1.2,2.8-2.6.5-0.9,3.6-1,4-4,.3-2.3-2.4-1.1.6-0.6,5.5-1.3,3.5-5,11,0.9,1.2-0.2,1.9-2.8,3.9-1.8-.5-3,2.2-2.5-.6-2,4.6-3.9,1.4-2.5-1.3-2.3,1.4-2.4,1-3.7-.9-1.1-1.2-2.2-3-3.1-2-1.7-3.6-4.3-3.5-0.7-2.3-2.6-1.5-0.8-1.6-0.2-5.3,2.2-.1,1.9-.8,0.2-2.8,1.6-1.5,0.2-5,1-3.9,1.3-.6,1.3,1.1,0.5,1.8,1.8-1,0.5-1.6-1.1-1.8v-2.4l1-1.3,2.3-3.4,1.3-1.4,2.1,0.5,2.3-1.6,3.1-3.4,2.3-3.9,0.3-5.7,0.5-5v-4.7l-1.1-3.1,1-1.4,1.3-1.3,3.5,19.8,4.6-.8,11.9-1.8h0Z" transform="translate(0 -7.06)"/><path id="oh-2" class="cls-4" d="M735.3,193.3l-6.1,4.1-3.9,2.3-3.4,3.7-4,3.9-3.2.8-2.9.5-5.5,2.6-2.1.2-3.4-3.1-5.2.6-2.6-1.4-2.4-1.4-4.9.7-10.2,1.6-11.2,2.2,1.3,14.6,1.8,13.7,2.6,23.4,0.6,4.8,4.1-.1,2.4-.8,3.4,1.5,2.1,4.4h5.1l1.9,2.1,1.8-.1,2.5-1.3,2.5,0.4,5.4,0.5,1.7-2.1,2.3-1.3,2.1-.7,0.7,2.8,1.8,1,3.5,2.3,2.2-.1,1.3-.5,0.2-2.8,1.6-1.5,0.1-4.8,1-4.1,1.3-.6,1.3,1.1,0.5,1.7,1.7-1,0.4-1.5-1.1-1.9,0.1-2.3,0.8-1.1,2.2-3.3,1-1.5,2.1,0.5,2.3-1.6L736,247l2.8-4.1,0.3-5.1,0.5-5-0.2-5.3-1-2.9,0.3-1.2,1.8-1.8-2.3-9.1-2.9-19.2h0Z" transform="translate(0 -7.06)"/><path id="in-2" class="cls-4" d="M619.6,300l0.1-2.9,0.5-4.5,2.3-2.9,1.8-3.9,2.6-4.2-0.5-5.8-1.8-2.8-0.3-3.2,0.8-5.5-0.5-7-1.3-16L622,225.9l-1-11.7,3.1,0.9,1.5,1,1.1-.3,2.1-1.9,2.8-1.6,5.1-.2,22-2.3,5.6-.5,1.5,16,4.3,36.8,0.6,5.8-0.4,2.3,1.2,1.8,0.1,1.4-2.5,1.6-3.5,1.5-3.2.5-0.6,4.9-4.6,3.3-2.8,4,0.3,2.4-0.6,1.5h-3.3l-1.6-1.6-2.5,1.3-2.7,1.5,0.2,3-1.2.3-0.5-1-2.2-1.5-3.3,1.3-1.5,3-1.4-.8-1.5-1.6-4.5.5-5.6,1-2.9,1.5h0Z" transform="translate(0 -7.06)"/><path id="il-2" class="cls-4" d="M619.5,300.3v-3.2l0.6-4.6,2.3-2.9,1.9-4.1,2.2-4-0.4-5.3-2-3.5-0.1-3.4,0.7-5.3-0.8-7.2L622.8,241l-1.3-15-0.9-11.6-0.3-.9-0.8-2.6-1.3-3.7-1.6-1.8-1.5-2.6-0.2-5.5-45.8,2.6,0.2,2.4,2.3,0.7,0.9,1.1,0.5,1.8,3.9,3.4,0.7,2.3-0.7,3.4-1.8,3.7-0.7,2.5-2.3,1.8-1.8.7-5.3,1.4-0.7,1.8-0.7,2.1,0.7,1.4,1.8,1.6-0.2,4.1-1.8,1.6-0.7,1.6V242l-1.8.5-1.6,1.1-0.2,1.4,0.2,2.1-1.7,1.3-1,2.8,0.5,3.7,2.3,7.3,7.3,7.5,5.5,3.7-0.2,4.3,0.9,1.4,6.4,0.5,2.7,1.4-0.7,3.7-2.3,5.9-0.7,3.2,2.3,3.9,6.4,5.3,4.6,0.7,2.1,5,2.1,3.2-0.9,3,1.6,4.1,1.8,2.1,1.4-.9,0.9-2.1,2.2-1.8,2.1-.6,2.6,1.2,3.6,1.4,1.2-.3,0.2-2.3-1.3-2.4,0.3-2.4,1.8-1.4,3-.8,1.3-.5-0.6-1.4-0.8-2.4,1.4-1,1.2-3.1h0Z" transform="translate(0 -7.06)"/><path id="ct-2" class="cls-4" d="M874.1,178.9L870.4,164l-4.7.9-21.2,4.7,1,3.2,1.5,7.3,0.2,9-1.2,2.2,1.9,1.9,4.3-3.9,3.6-3.2,1.9-2.1,0.8,0.6,2.8-1.4,5.2-1.1,7.6-3.2h0Z" transform="translate(0 -7.06)"/><path id="wi-2" class="cls-4" d="M615.1,197.4l-0.1-3.2-1.2-4.5-0.7-6.1-1.1-2.4,1-3.1,0.8-2.9,1.5-2.6-0.7-3.4-0.7-3.6,0.5-1.8,1.9-2.4,0.2-2.8-0.8-1.3,0.7-2.6-0.5-4.2,2.8-5.7,2.9-6.8,0.2-2.3-0.3-1-0.8.5-4.2,6.3-2.8,4-1.9,1.8-0.8,2.3-2,.8-1.1,1.9-1.5-.3-0.2-1.8,1.3-2.4,2.1-4.7,1.8-1.6,1-2.4-2.6-1.9-2-10.4-3.5-1.3-2-2.3-12.1-2.7-2.9-1-8.2-2.2-7.9-1.2-3.8-5.1-0.8.6-1.2-.2-0.7-1.1-1.3.3-1.1.2-1.8,1-1-.7,0.7-1.9,1.9-3.1,1.1-1.1-1.9-1.4-2.1.8-2.9,1.9-7.4,3.2-2.9.7-2.9-.5-1-.9-2.1,2.8-0.2,2.7v8.5l-1.1,1.6-5.3,3.9-2.3,5.9,0.5,0.2,2.5,2.1,0.7,3.2-1.8,3.2v3.9l0.5,6.6,3,3h3.4l1.8,3.2,3.4,0.5,3.9,5.7,7.1,4.1,2.1,2.7,0.9,7.4,0.7,3.3,2.3,1.6,0.2,1.4-2.1,3.4,0.2,3.2,2.5,3.9,2.5,1.1,3,0.5,1.3,1.4,45.4-2.4h0Z" transform="translate(0 -7.06)"/><path id="nc-2" class="cls-4" d="M835,294.3l2.1,4.9,3.6,6.5,2.4,2.4,0.7,2.3-2.4.2,0.8,0.6-0.3,4.2-2.6,1.3-0.7,2.1-1.3,2.9-3.7,1.6-2.4-.3-1.5-.2-1.6-1.3,0.3,1.3v1h1.9l0.8,1.3-1.9,6.3h4.2l0.7,1.6,2.3-2.3,1.3-.5-1.9,3.6-3.1,4.9h-1.3l-1.1-.5-2.8.6-5.2,2.4-6.5,5.3-3.4,4.7-1.9,6.5-0.5,2.4-4.7.5-5.5,1.3-10-8.2-12.6-7.6-2.9-.8-12.6,1.5-4.3.8-1.6-3.2-3-2.1-16.5.5-7.3.8-9,4.5-6.1,2.6-21.2,2.6,0.5-4,1.8-1.5,2.8-.6,0.7-3.7,4.2-2.8,3.9-1.5,4.2-3.6,4.4-2.1,0.7-3.1,3.9-3.9,0.7-.2,0.8,1.1,1.9,0.3,2.3-3.6,2.1-.6,2.3,0.3,1.6-3.6,2.9-2.6,0.5-2.1,0.2-3.6h4.3l7.2-.9,15.8-2.3,15.1-2.1,21.6-4.7,20-4.3,11.2-2.4,4.7-.9h0Zm4.3,33.2,2.6-2.5,3.2-2.6,1.5-.6,0.2-2-0.7-6.1-1.5-2.3-0.7-1.9,0.7-.2,2.8,5.5,0.4,4.5-0.2,3.4-3.4,1.5-2.8,2.4-1.1,1.2-1-.3h0Z" transform="translate(0 -7.06)"/><path id="ma-2" class="cls-4" d="M899.6,173.3l2.2-.7,0.5-1.7,1,0.1,1,2.3-1.3.5-3.9.1,0.5-.6h0Zm-9.3.8,2.3-2.6h1.6L896,173l-2.4,1-2.2,1-1.1-.9h0Zm-34.8-22,17.7-4.6,2.3-.6,1.9-2.8,3.7-1.7,2.9,4.4-2.4,5.2-0.3,1.4,1.9,2.6,1.1-.8h1.8l2.3,2.6,3.9,6,3.6,0.5,2.3-1,1.8-1.8-0.8-2.8-2.1-1.6-1.5.8-1-1.3,0.5-.5,2.1-.2,1.8,0.8,1.9,2.4,1,2.9,0.3,2.4-4.2,1.4-3.9,1.9-3.9,4.5-1.9,1.4v-1l2.4-1.4,0.5-1.8-0.8-3.1-2.9,1.4-0.8,1.4,0.5,2.3-2.1,1-2.8-4.5-3.4-4.4-2.1-1.8-6.5,1.9L865,165l-20.7,4.6-0.7-4.8,0.7-10.6,4.3-.9,6.9-1.2h0Z" transform="translate(0 -7.06)"/><path id="tn-2" class="cls-1" d="M696.7,318.3l-51.9,5L629,325l-4.6.5h-3.9l-0.2,4.1-8.2.3-7,.6-8.1-.1-1.4,7.1L594,343l-3.3,2.8-1.3,4.4-0.3,2.6-4,2.3,1.5,3.6-1,4.4-1,.8,108.2-10.4,0.4-4L695,348l2.8-.8,0.7-3.7,4.1-2.7,4-1.5,4.1-3.6,4.4-2,0.5-3.1,4.1-4,0.5-.1,0.8,1.1,1.9,0.4,2.3-3.6,2.1-.6,2.3,0.3,1.6-3.5,3-2.6,0.4-1.9,0.3-3.7-2.2-.2-2.6,2h-7l-18.4,2.4-8,1.7h0Z" transform="translate(0 -7.06)"/><path id="ar-2" class="cls-1" d="M593.8,343l-4,.7-5.1-.6,0.4-1.6,3-2.6,0.9-3.7-1.8-3-78.4,2.5,1.6,6.9v8.2l1.4,11,0.2,37.8,2.3,1.9,3-1.4,2.7,1.1,0.7,6.6,55.6-1.1,1.2-2.1-0.3-3.5-1.8-3,1.6-1.5-1.6-2.5,0.7-2.5,1.4-5.6,2.5-2.1-0.7-2.3,3.7-5.4,2.7-1.4-0.1-1.5-0.3-1.8,2.9-5.6,2.4-1.3,0.4-3.4,1.8-1.2-3.1-.5-1.3-4,2.8-2.4,0.5-2,1.3-4,0.8-3.1h0Z" transform="translate(0 -7.06)"/><path id="mo-2" class="cls-4" d="M558.4,248.1l-2.5-3.1-1.1-2.3-64.4,2.4-2.3.1,1.3,2.5-0.2,2.3,2.5,3.9,3.1,4.1,3.1,2.7,2.2,0.2,1.5,0.9v3l-1.8,1.6-0.5,2.3,2.1,3.4,2.5,3,2.5,1.8,1.4,11.7,0.3,36.1,0.2,4.7,0.5,5.4,22.4-.9,23.2-.7,20.8-.8,11.7-.2,2.2,3.4-0.7,3.3-3.1,2.4-0.6,1.8,5.4,0.5,3.9-.7,1.7-5.5,0.7-5.9,2.1-2.6,2.6-1.5v-3l1-1.9-1.7-2.5-1.3,1-2-2.2-1.3-4.8,0.8-2.5-1.9-3.4-1.8-4.6-4.8-.8-7-5.6-1.7-4.1,0.8-3.2,2.1-6.1,0.5-2.9-2-1-6.9-.8-1-1.7-0.1-4.2-5.5-3.4-7-7.8-2.3-7.3-0.2-4.2,0.6-2.3h0Z" transform="translate(0 -7.06)"/><path id="ga-2" class="cls-4" d="M672.3,355.5v2.2l0.2,2.1,0.7,3.4,3.4,7.9L679,381l1.5,6.1,1.6,4.9,1.5,7,2.1,6.3,2.6,3.4,0.5,3.4,1.9,0.8,0.2,2.1-1.8,4.9-0.5,3.2-0.2,1.9,1.6,4.4,0.3,5.3-0.8,2.4,0.7,0.8,1.5,0.8,0.2,3.2,2.2,3.4,2.3,2.2,7.9,0.2,10.8-.6,21.5-1.3,5.5-.7h4.6l0.2,2.9,2.6,0.8,0.3-4.4-1.6-4.5,1.1-1.6,5.8,0.8,5,0.3-0.8-6.3,2.3-10,1.5-4.2-0.5-2.6,3.3-6.2-0.5-1.4-1.9.7-2.6-1.3-0.7-2.1-1.3-3.6-2.3-2.1-2.6-.6-1.6-4.9-2.9-6.3-4.2-1.9-2.1-1.9-1.3-2.6-2.1-1.9-2.3-1.3-2.3-2.9-3.1-2.3-4.5-1.8-0.5-1.5-2.4-2.9-0.5-1.5-3.4-5-3.5.1-3.8-2.4-1.4-1.3-0.3-1.8,0.9-1.9,2.2-1.1-0.6-2.1-42,5h0Z" transform="translate(0 -7.06)"/><path id="sc-2" class="cls-4" d="M764.9,408.2l-1.8,1-2.6-1.3-0.7-2.1-1.3-3.6-2.3-2.1-2.6-.6-1.6-4.9-2.8-6-4.2-1.9-2.1-1.9-1.3-2.6-2.1-1.9-2.3-1.3-2.3-2.9-3.1-2.3-4.5-1.8-0.5-1.5-2.4-2.9-0.5-1.5-3.4-5.2-3.4.2-4-2.4-1.3-1.3-0.3-1.8,0.8-1.9,2.3-1-0.5-2.3,5.8-2.3,9.1-4.6,7.8-.8,16.1-.4,2.6,1.9,1.7,3.4,4.3-.6,12.6-1.5,2.9,0.8,12.6,7.6L800,362l-5.4,5.5-2.6,6.1-0.5,6.3-1.6.8-1.1,2.8-2.4.6-2.1,3.6-2.8,2.8-2.3,3.4-1.6.8L774,398l-2.9.2,1,3.2-5,5.5-2.2,1.3h0Z" transform="translate(0 -7.06)"/><path id="ky-2" class="cls-4" d="M726,295.3l-2.3,2.4-3.6,4-4.9,5.5-1.2,1.7-0.1,2.1-4.4,2.2-5.7,3.4-7.2,1.8-51.9,4.9L629,325l-4.6.5h-3.9l-0.2,4.2-8.2.1-7,.6-8-.1,1.2-1.3,2.5-1.5,0.2-3.2,0.9-1.8-1.6-2.5,0.8-1.9,2.3-1.8,2.1-.6,2.8,1.3,3.6,1.3,1.1-.3,0.2-2.3-1.3-2.4,0.3-2.3,1.9-1.5,2.6-.6,1.6-.6-0.8-1.8-0.7-1.9,1.5-1,1.2-3.7,3-1.5,5.3-1,4.5-.5,1.4,1.6,1.5,0.9,1.6-3.1L640,295l2.2,1.5,0.4,1,1.2-.3-0.2-3,3.1-1.8,2.2-1.1,1.5,1.7h3.3l0.6-1.6-0.4-2.3,2.6-4,4.8-3.4,0.7-4.8,2.9-.5,3.8-1.6,2.4-1.7-0.2-1.6-1.1-1.5,0.6-3,4.2-.1,2.3-.8,3.3,1.4,2,4.4h5.1l2,2.2,1.6-.1,2.6-1.3,5.2,0.6,2.6,0.2,1.7-2.1,2.6-1.4,1.9-.7,0.7,2.8,2,1.1,2.6,2.1,0.1,5.7,0.8,1.6,2.6,1.6,0.8,2.3,4.2,3.4,1.8,3.6,2.9,1.8h0Z" transform="translate(0 -7.06)"/><path id="al-2" class="cls-4" d="M631.3,460.4l-1.5-14.3L627,427.3l0.2-14.1,0.8-31-0.2-16.6,0.2-6.4,44.5-3.6-0.2,2.2,0.2,2.1,0.7,3.4,3.4,7.9,2.4,9.9,1.5,6.1,1.6,4.9,1.5,7,2.1,6.3,2.6,3.4,0.5,3.4,1.9,0.8,0.2,2.1-1.8,4.9-0.5,3.2-0.2,1.9,1.6,4.4,0.3,5.3-0.8,2.4,0.7,0.8,1.5,0.8,0.3,2.9-5.6-.4-6.8.6-25.5,2.9-10.4,1.4-0.2,2.9,1.8,1.8,2.6,1.9,0.6,7.9-5.5,2.6-3-.3,2.8-1.9v-1l-3.1-6-2.3-.6-1.5,4.4-1.3,2.8-0.7-.2-2.6-.1h0Z" transform="translate(0 -7.06)"/><path id="la-2" class="cls-4" d="M608,459.2l-3.3-3.2,1-5.5-0.7-.9-9.3,1-25,.5-0.7-2.4,0.9-8.5,3.3-6,5-8.7-0.6-2.4,1.3-.7,0.5-2-2.3-2.1-0.1-1.9-1.8-4.4-0.2-6.3-55.5.9v9.6l0.7,9.4,0.7,3.9,2.5,4.1,0.9,5,4.3,5.5,0.2,3.2,0.7,0.7-0.7,8.5-3,5,1.6,2.1-0.7,2.5-0.7,7.3-1.4,3.2,0.1,3.6,4.7-1.5,12.1,0.2,10.3,3.6,6.5,1.1,3.7-1.5,3.2,1.1,3.2,1,0.8-2.1L567,481l-2.6.5-2.8-1.6,0.8-1.5,3.1-1,1.8,1.5,1.8-1,3.2,0.6,1.5,2.4,0.3,2.3,4.5,0.3,1.8,1.8-0.8,1.6-1.3.8,1.6,1.6,8.4,3.6,3.6-1.3,1-2.4,2.6-.6,1.8-1.5,1.3,1,0.8,2.9-2.3.8,0.7,0.6,3.4-1.3,2.3-3.4,0.8-.5-2.1-.3,0.8-1.6-0.2-1.5,2.1-.5L606,482l0.7,0.8,0.7,3.1,4.2,0.6,4,1.9,1,1.5h2.9l1.1,1,2.3-3.1v-1.5h-1.3l-3.4-2.8-5.8-.8-3.2-2.3,1.1-2.8,2.3,0.3,0.2-.6-1.8-1v-0.5h3.2l1.8-3.1-1.3-1.9-0.3-2.8-1.5.2-1.9,2.1-0.7,2.6-3.1-.6-1-1.8,1.8-1.9,1.9-3.5-1.1-2.4-0.8-3.5h0Z" transform="translate(0 -7.06)"/><path id="ms-2" class="cls-4" d="M631.6,459.3l-0.3,1.3h-5.2l-1.5-.8-2.1-.3-6.8,1.9-1.8-.8-2.6,4.2-1.1.8-1.1-2.5-1.1-3.9-3.4-3.2,1.1-5.5-0.7-.9-1.8.2-7.9.9-24.5.4-0.8-2.2,0.9-8.4,3.1-5.7,5.2-9.1-0.5-2.4,1.2-.7,0.4-1.9-2.3-2.1-0.1-2.1-1.8-4.1-0.1-6,1.3-2.5-0.2-3.4-1.8-3.1,1.5-1.5-1.6-2.5,0.5-1.6,1.6-6.5,2.5-2-0.6-2.4,3.7-5.3,2.8-1.4-0.2-1.7-0.3-1.7,2.9-5.6,2.3-1.2,0.2-.9,37.3-3.9,0.2,6.3,0.2,16.6-0.8,31-0.2,14.1,2.8,18.8,1.5,13.3h0Z" transform="translate(0 -7.06)"/><path id="ia-2" class="cls-4" d="M569.2,199.6l0.3,2.8,2.2,0.6,1,1.2,0.5,1.9,3.8,3.4,0.7,2.4-0.7,3.4-1.6,3.2-0.8,2.7-2.2,1.6-1.7.6-5.6,1.9-1.4,3.9,0.7,1.4,1.8,1.7-0.3,4-1.8,1.5-0.8,1.6,0.1,2.8-1.9.5-1.6,1.1-0.3,1.4,0.3,2.1-1.5,1.1-2.5-3.1-1.3-2.4-65.7,2.5-0.9.2-2-4.5-0.2-6.6-1.6-4.1-0.7-5.3-2.3-3.7-0.9-4.8-2.7-7.5-1.1-5.4-1.4-2.2-1.6-2.7,2-4.8,1.4-5.7-2.7-2.1-0.5-2.7,0.9-2.5h1.7l82.6-1.3,0.8,4.2,2.3,1.6,0.3,1.4-2,3.4,0.2,3.2,2.5,3.8,2.5,1.3,3.1,0.5,0.6,0.5h0Z" transform="translate(0 -7.06)"/><path id="mn-2" class="cls-4" d="M475.2,128.8l-0.5-8.5L473,113l-1.8-13.5-0.5-9.8-1.8-3.4-1.6-5V71l0.7-3.9-1.8-5.5h30.1l0.3-8.2,0.6-.2,2.3,0.5,1.9,0.8,0.8,5.5,1.5,6.1,1.6,1.6h4.9l0.3,1.4,6.3,0.3v2.1h4.8l0.3-1.3,1.1-1.1,2.3-.7,1.3,1h2.9l3.9,2.6,5.3,2.4,2.4,0.5,0.5-1,1.5-.5,0.5,2.9,2.6,1.3,0.5-.5,1.3,0.2v2.1l2.6,1h3.1l1.6-.8,3.2-3.2,2.6-.5,0.8,1.8,0.5,1.3h1l1-.8,8.9-.3,1.8,3.1h0.7l0.7-1.1,4.4-.4-0.6,2.3-3.9,1.8-9.3,4.1-4.8,2-3.1,2.6-2.4,3.6-2.3,3.9-1.8.8-4.5,5-1.3.2-4.3,2.8-2.5,3.2-0.2,3.2,0.1,8-1.4,1.7-5.1,3.8-2.2,6,2.9,2.2,0.7,3.2-1.9,3.2,0.2,3.8,0.4,6.7,3,3h3.3l1.9,3.1,3.4,0.5,3.9,5.7,7.1,4.1,2.1,2.9,0.7,6.4-81.2,1.1-0.3-35.7-0.5-3-4.1-3.4-1.1-1.8V135l2.1-1.6,1.4-1.4-0.1-3.2h0Z" transform="translate(0 -7.06)"/><path id="ok-2" class="cls-4" d="M380.3,320.8l-16.7-1.3-0.9,11,20.5,1.2,32.1,1.3L413,357.4l-0.5,17.8,0.2,1.6,4.3,3.7,2.1,1.1,0.7-.2,0.7-2.1,1.4,1.8H424v-1.4l2.7,1.4-0.5,3.9,4.1,0.2,2.5,1.1,4.1,0.7,2.5,1.8,2.3-2.1,3.4,0.7,2.5,3.4h0.9v2.3l2.3,0.7,2.3-2.3,1.8,0.7h2.5l0.9,2.5,6.3,2.1,1.4-.7,1.8-4.1h1.1l1.1,2.1,4.1,0.7,3.7,1.4,3,0.9,1.8-.9,0.7-2.5h4.3l2.1,0.9,2.7-2.1h1.1l0.7,1.6h4.1l1.6-2.1,1.8,0.5,2.1,2.5,3.2,1.8,3.2,0.9,1.9,1.1-0.4-37.2-1.4-11-0.2-8.9-1.4-6.5-0.8-7.2-0.1-3.8-12.1.3-46.4-.5-45-2.1-24-1.1h0Z" transform="translate(0 -7.06)"/><path id="tx-2" class="cls-4" d="M361.5,330.6l22.7,1.1,31.1,1.1L413,356.3l-0.3,18.1,0.1,2.1,4.3,3.8,2,1.5,1.2-.6,0.4-1.8,1.1,1.8h2.1v-1.5l1.7,1,1.1,0.4-0.4,4,4.1,0.1,2.9,1.2,4,0.5,2.4,2.1,2.1-2.1,3.7,0.6,2.2,3.2,1.1,0.3-0.2,2,2.2,0.8,2.3-2,2.1,0.6h2.2l0.9,2.4,6.3,2.1,1.6-.8,1.5-4.2H468l0.9,0.1,1.2,2.1,3.9,0.7,3.3,1.1,3.4,1.2,1.8-1,0.7-2.5h4.5l1.8,0.9,2.8-2.1h1.1l0.9,1.6h4l1.5-2,1.9,0.4,2,2.4,3.5,2,2.9,0.8,1.5,0.8,2.5,2,3-1.3,2.7,1.1,0.6,6.1V416l0.7,9.5,0.7,3.6,2.7,4.4,0.9,5,4.2,5.5,0.2,3.1,0.8,0.8-0.7,8.4-2.9,5,1.5,2.1-0.6,2.3-0.7,7.4-1.5,3.3,0.3,3.5-5.7,1.6-9.9,4.5-1,1.9-2.6,1.9-2.1,1.5-1.3.8L498,498l-2.8,2.1-5.3,3.2-5.7,2.4-6.3,3.4-1.8,1.5-5.8,3.6-3.4.7-3.9,5.5-4,.3-1,1.9,2.3,1.9-1.5,5.5-1.3,4.5-1.1,3.9-0.8,4.5,0.8,2.4,1.8,7,1,6.1,1.8,2.8-1,1.4-3.1,1.9-5.7-3.9-5.5-1.1-1.3.5-3.2-.7-4.2-3.1-5.2-1.1-7.6-3.4-2.1-3.9-1.3-6.5-3.2-1.9-0.6-2.3,0.6-.7,0.3-3.4-1.3-.7-0.6-1,1.3-4.4-1.6-2.3-3.2-1.3-3.4-4.4-3.6-6.6-4.2-2.6,0.2-1.9-5.3-12.3-0.8-4.2-1.8-1.9-0.2-1.5-6-5.3-2.6-3.1v-1.1l-2.6-2.1-6.8-1.1-7.4-.6-3.1-2.3-4.5,1.8-3.6,1.5-2.3,3.2-1,3.7-4.4,6.1-2.4,2.4-2.6-1-1.8-1.1-1.9-.6-3.9-2.3v-0.6l-1.8-1.9-5.2-2.1-7.4-7.8-2.3-4.7v-8.1l-3.2-6.5-0.5-2.8-1.6-1-1.1-2.1-5-2.1-1.3-1.6-7.1-7.9-1.3-3.2-4.7-2.3-1.5-4.4-2.6-2.9-1.9-.5-0.6-4.7,8,0.7,29,2.7,29,1.6,2.2-19.5,3.9-55.6,1.6-18.8h1.4m99.2,230.3-0.6-7.1-2.8-7.2-0.6-7,1.5-8.2,3.3-6.9,3.5-5.4,3.1-3.6,0.6,0.2-4.8,6.6-4.4,6.5-2,6.6-0.3,5.2,0.9,6.1,2.6,7.2,0.5,5.2,0.2,1.5-0.7.3h0Z" transform="translate(0 -7.06)"/><path id="nm-2" class="cls-4" d="M288.1,424l-0.8-4.8,8.6,0.5,30.2,3,27.3,1.7,2.2-18.7,3.9-55.9,1.7-19.4,1.6,0.1,0.8-11.2-104-10.6L242.1,429.1l15.5,2,1.3-10,29.2,2.9h0Z" transform="translate(0 -7.06)"/><path id="ks-2" class="cls-4" d="M507.9,324.4l-12.6.2-46.1-.5L404.6,322,380,320.7l3.9-64.6,22.1,0.7,40.3,0.8,44.3,1h5.1l2.2,2.2h2l1.6,1-0.1,3-1.8,1.7-0.3,2.2,1.8,3.4,3,3.2,2.3,1.6,1.3,11.2,0.2,36.3h0Z" transform="translate(0 -7.06)"/><path id="ne-2" class="cls-4" d="M486.1,240.7l3.2,7-0.1,2.3,3.5,5.5,2.7,3.1h-5l-43.5-.9-40.8-.9-22.3-.8,1.1-21.3-32.3-2.9,4.3-44,15.5,1,20.1,1.1,17.8,1.1,23.8,1.1,10.8-.5,2.1,2.3,4.8,3,1.1,0.9,4.3-1.4,3.9-.5,2.7-.2,1.8,1.4,4.1,1.6,3,1.6,0.5,1.6,0.9,2.1h1.8l0.8,0.1,0.9,4.7,2.9,8.5,0.6,3.8,2.5,3.8,0.6,5.1,1.6,4.2,0.3,6.5h0Z" transform="translate(0 -7.06)"/><path id="sd-2" class="cls-4" d="M476.5,204v-0.6l-2.9-4.9,1.9-4.7,1.5-5.9-2.8-2.1-0.4-2.7,0.8-2.6h3.2l-0.1-5-0.3-30.2-0.6-3.8-4.1-3.3-1-1.7-0.1-1.6,2-1.5,1.5-1.7,0.2-2.7L417,127.4,362.2,124l-5.3,63.7,14.6,0.9,20,1.2,17.7,0.9L433,192l12-.4,2,2.3,5.2,3.3,0.8,0.7,4.5-1.4,6.5-.6,1.7,1.3,4.2,1.6,3,1.6,0.4,1.5,1,2.2,2.2-.1h0Z" transform="translate(0 -7.06)"/><path id="nd-2" class="cls-4" d="M475.3,128.9l-0.6-8.4-1.7-6.8-1.9-13-0.5-11-1.7-3.1-1.8-5.2V71l0.6-3.8-1.8-5.5-28.6-.6-18.6-.7-26.5-1.3-23-2.1-7,67.2,54.9,3.3,58.2,1.4h0Z" transform="translate(0 -7.06)"/><path id="wy-2" class="cls-4" d="M360.4,143.3L253.7,129.8l-14.1,88.5,113.3,13.6,7.5-88.6h0Z" transform="translate(0 -7.06)"/><path id="mt-2" class="cls-4" d="M369.2,57l-30.7-2.8-29.3-3.6-29.3-4-32.3-5.3-18.4-3.4L196.5,31,192,52.3l3.4,7.5L194,64.4l1.8,4.6,3.2,1.4,4.6,10.8,2.7,3.2,0.5,1.1,3.4,1.1,0.5,2.1-7.1,17.6v2.5l2.5,3.2H207l4.8-3,0.7-1.1,1.6,0.7-0.2,5.3,2.7,12.6,3,2.5,0.9,0.7,1.8,2.3-0.5,3.4,0.7,3.4,1.1,0.9,2.3-2.3h2.7l3.2,1.6,2.5-.9h4.1l3.7,1.6,2.7-.5,0.5-3,3-.7,1.4,1.4,0.5,3.2,1.4,0.8,1.9-11,106.8,13.4L369.2,57h0Z" transform="translate(0 -7.06)"/><path id="co-2" class="cls-4" d="M380,321l4.9-86.3L271.5,222l-12.2,87.9L380,321h0Z" transform="translate(0 -7.06)"/><path id="id-2" class="cls-4" d="M148.5,176.5l8.8-35.2,1.4-4.2,2.5-5.9-1.3-2.3-2.5.1-0.8-1,0.5-1.1,0.3-3.1,4.5-5.5,1.8-.5,1.1-1.1,0.6-3.2,0.9-.7,3.9-5.8,3.9-4.3,0.2-3.8-3.4-2.6-1.5-4.4L183,28.6l13.5,2.5L192,52.3l3.6,7.5L194,64.5l2,4.6,3.1,1.3,3.8,9.6,3.5,4.4,0.5,1.1,3.3,1.1,0.4,2.1-7,17.4-0.2,2.6L206,112l0.9-.1,4.9-3,0.7-1.1,1.6,0.7-0.3,5.3,2.7,12.6,3.9,3.2,1.7,2.2-0.7,4.1,1.1,2.8,1.1,1.1,2.5-2.4,2.9,0.1,2.9,1.3,2.8-.7,3.8-.2,4,1.6,2.7-.3,0.5-3,2.9-.8,1.3,1.5,0.4,2.9,1.4,1.2-8.4,53.6-94.8-18.1h0Z" transform="translate(0 -7.06)"/><path id="ut-2" class="cls-4" d="M259.5,310.1l-83.8-11.9,20.6-112.5,46.8,8.8-1.5,10.6-2.3,13.2,7.8,0.9,16.4,1.8,8.2,0.9-12.2,88.2h0Z" transform="translate(0 -7.06)"/><path id="az-2" class="cls-4" d="M144.9,382.6l-2.6,2.2-0.3,1.5,0.5,1L161.4,398l12.1,7.6,14.7,8.6,16.8,10,12.3,2.4,24.9,2.7,17.3-119.1-83.7-11.9-3.1,16.4h-1.6l-1.7,2.6-2.5-.1-1.3-2.7-2.7-.3-0.9-1.1h-1l-0.9.6-1.9,1-0.1,7-0.2,1.7L157.3,336l-1.5,2.2-0.6,3.3,2.7,4.9,1.3,5.8,0.8,1,1,0.6-0.1,2.3-1.6,1.4-3.4,1.7-1.9,1.9-1.5,3.7-0.6,4.9-2.9,2.7-2.1.7,0.1,0.8-0.5,1.7,0.5,0.8,3.7,0.6-0.6,2.7-1.5,2.2-3.7.7h0Z" transform="translate(0 -7.06)"/><path id="nv-2" class="cls-4" d="M196.4,185.6L172.8,314.4l-1.8.4-1.6,2.4H167l-1.5-2.7-2.6-.4-0.8-1.1h-1l-2.8,1.6-0.3,6.8-0.4,5.8-0.4,8.6-1.4,2.1-2.4-1.1L84.3,232.5l19-67.6,93.1,20.7h0Z" transform="translate(0 -7.06)"/><path id="or-2" class="cls-4" d="M148.7,175.5l8.9-34.8,1.1-4.2,2.4-5.6-0.6-1.2-2.5-.1-1.3-1.7,0.5-1.5,0.5-3.3,4.5-5.5,1.8-1.1,1.1-1.1,1.5-3.6,4.1-5.7,3.6-3.9,0.2-3.4-3.3-2.5-1.8-4.6-12.7-3.6-15.1-3.5-15.4.1-0.5-1.4-5.5,2.1-4.5-.6-2.4-1.6-1.3.7-4.7-.2-1.7-1.4-5.3-2.1-0.8.1L95.2,79l-1.9,1.8-6.2-.3-5.9-4.1,0.7-.8,0.2-7.8-2.3-3.9-4.1-.6L75,60.9l-2.3-.5-5.8,2.1L64.6,69,61.3,79l-3.2,6.5-5,14.1L46.6,113l-8.1,12.6-1.9,2.9-0.8,8.6,0.4,12.1,112.5,26.3h0Z" transform="translate(0 -7.06)"/><path id="wa-2" class="cls-5" d="M102.1,7.6l4.4,1.5,9.7,2.8,8.6,1.9,20.1,5.7,23,5.7,15.2,3.2L169.5,92l-12.4-3.5-15.5-3.6H126.4l-0.5-1.3-5.6,2.2-4.6-.7-2.2-1.6L112,84l-4.7-.1-1.7-1.3-5.3-2.1-0.7.2L95.2,79l-1.9,1.8L87,80.5l-5.9-4.1,0.8-.9L82,67.8,79.7,64l-4.1-.6-0.7-2.5-2.3-.5L69,61.6l-2.3-3.2L67,55.5l2.8-.3,1.6-4L68.9,50l0.2-3.7,4.4-.7-2.8-2.8-1.4-7.1L70,32.8V24.9l-1.8-3.2,2.3-9.4,2.1,0.5L75,15.7l2.8,2.6L81,20.2l4.5,2.1,3.1,0.6,2.9,1.5,3.4,1,2.3-.2V22.8l1.3-1.1,2.1-1.3,0.3,1.1,0.3,1.8-2.3.5-0.3,2.1,1.8,1.5,1.1,2.4,0.7,1.9,1.4-.2,0.2-1.3-1-1.3-0.5-3.2,0.8-1.8-0.7-1.5V20.1l1.8-3.6-1.1-2.6L100.7,9l0.3-.8,1.1-.6h0Zm-9.5,6,2-.2,0.5,1.4,1.5-1.6H99l0.8,1.5-1.5,1.7L99,17.2l-0.7,2-1.4.4L96,19.4l1.4-2.6-1.7-.6-0.3,1.5-0.7.6L93.2,16l-0.6-2.4h0Z" transform="translate(0 -7.06)"/><g id="ca-2"><path class="cls-4" d="M144.7,382.2l3.9-.5,1.5-2,0.5-2.9-3.6-.6-0.5-.7,0.5-2-0.2-.6,1.9-.6,3-2.8,0.6-5,1.4-3.4,1.9-2.2,3.5-1.6,1.6-1.6,0.1-2.1-1-.6-1-1.1-1.2-5.9-2.7-4.8,0.6-3.5-2.4-1-69-104.2L103,164.9,35.9,149.2l-1.5,4.7-0.2,7.4L29,173.1l-3.1,2.6-0.3,1.1-1.8.8-1.5,4.2L21.5,185l2.8,4.2,1.6,4.2L27,197l-0.3,6.5-1.8,3.1-0.6,5.8-1,3.7,1.8,3.9,2.8,4.5,2.3,4.9,1.3,4-0.3,3.2-0.3.5v2.1l5.7,6.3-0.5,2.4-0.7,2.3-0.7,1.9,0.2,8.2L37,264l1.9,2.6,2.8,0.5,1,2.8-1.1,3.6-2.1,1.6H38.4L37.6,279l0.5,2.9,3.2,4.4,1.6,5.3,1.5,4.7,1.3,3.1,3.4,5.8,1.5,2.6,0.5,2.9,1.6,1v2.4L51.9,316l-1.8,7.1L49.6,325l2.4,2.8,4.2,0.5,4.5,1.8,3.9,2.1h2.9l2.9,3.1,2.6,4.9,1.1,2.3,3.9,2.1,4.8,0.8,1.4,2.1,0.7,3.2-1.4.6,0.3,1,3.2,0.8,2.8,0.2,3.2-1.7,3.9,4.2,0.8,2.3,2.6,4.2,0.3,3.2v9.4l0.5,1.8,10,1.5,19.7,2.8,13.9,1.2h0ZM56.6,338.5l1.3,1.5-0.2,1.3-3.2-.1L53.9,340l-0.7-1.5h3.4Zm1.9,0,1.2-.6,3.6,2.1,3.1,1.2-0.9.6-4.5-.2L59.4,340l-0.9-1.5h0Zm20.7,19.8,1.8,2.3,0.8,1,1.5,0.6,0.6-1.5-1-1.8-2.7-2-1.1.2,0.1,1.2h0Zm-1.5,8.6,1.8,3.1,1.2,1.9-1.4.2L78,371l-0.7-1.9V367l0.4-.1h0Z" transform="translate(0 -7.06)"/></g><path d="M277,95.2v-10h2l2.4,7.1c0.2,0.7.4,1.2,0.5,1.5,0.1-.4.3-0.9,0.5-1.6l2.4-7h1.8v10h-1.3V86.8l-2.9,8.4h-1.2l-2.9-8.5v8.5H277Z" transform="translate(0 -7.06)"/><path d="M292,95.2V86.4h-3.3V85.2h7.9v1.2h-3.3v8.8H292Z" transform="translate(0 -7.06)"/><path d="M406.4,101.9v-10h1.4l5.3,7.9V91.9h1.3v10H413L407.7,94v7.9h-1.3Z" transform="translate(0 -7.06)"/><path d="M417.2,101.9v-10h3.5a8.66,8.66,0,0,1,1.8.1,3.48,3.48,0,0,1,1.5.7,4.34,4.34,0,0,1,1.2,1.7,7.12,7.12,0,0,1,.1,4.4,5.22,5.22,0,0,1-.7,1.5,3.82,3.82,0,0,1-.9.9,3.34,3.34,0,0,1-1.2.5,7.77,7.77,0,0,1-1.6.2h-3.7Zm1.4-1.2h2.1a6.27,6.27,0,0,0,1.6-.2,1.93,1.93,0,0,0,.9-0.5,2.33,2.33,0,0,0,.7-1.3,10.79,10.79,0,0,0,.3-1.9,5,5,0,0,0-.5-2.4,2.76,2.76,0,0,0-1.3-1.1,6.53,6.53,0,0,0-1.7-.2h-2.1v7.6Z" transform="translate(0 -7.06)"/><path d="M87,120.5a5.26,5.26,0,0,1,1.3-3.9,4.67,4.67,0,0,1,3.5-1.4,4.3,4.3,0,0,1,2.5.7,5.81,5.81,0,0,1,1.7,1.8,5.67,5.67,0,0,1,.6,2.7,6,6,0,0,1-.6,2.7,4.24,4.24,0,0,1-1.7,1.8,5,5,0,0,1-2.4.6,4.3,4.3,0,0,1-2.5-.7,5.19,5.19,0,0,1-1.7-1.9A5.49,5.49,0,0,1,87,120.5Zm1.4,0a4,4,0,0,0,1,2.9,3.25,3.25,0,0,0,2.4,1,3.41,3.41,0,0,0,2.5-1.1,4,4,0,0,0,1-3,4.64,4.64,0,0,0-.4-2.1,3.33,3.33,0,0,0-1.2-1.4,3.45,3.45,0,0,0-1.8-.5,3.25,3.25,0,0,0-2.4,1A4.26,4.26,0,0,0,88.4,120.5Z" transform="translate(0 -7.06)"/><path d="M99,125.3v-10h4.4a4.92,4.92,0,0,1,2,.3,2.59,2.59,0,0,1,1.1,1,2.82,2.82,0,0,1,.4,1.5,2.41,2.41,0,0,1-.7,1.8,3.4,3.4,0,0,1-2.1.9,2.77,2.77,0,0,1,.8.5,6.89,6.89,0,0,1,1.1,1.3l1.7,2.7H106l-1.3-2.1a10.44,10.44,0,0,0-1-1.4l-0.7-.7a1.69,1.69,0,0,0-.6-0.3h-2.2v4.5H99Zm1.4-5.5h2.9a4.64,4.64,0,0,0,1.4-.2,1.56,1.56,0,0,0,.8-0.6,1.61,1.61,0,0,0,.3-0.9,1.66,1.66,0,0,0-.5-1.2,2.35,2.35,0,0,0-1.6-.5h-3.2v3.4h-0.1Z" transform="translate(0 -7.06)"/><path d="M66.7,271.3l1.3,0.3a4.82,4.82,0,0,1-1.5,2.5,3.74,3.74,0,0,1-2.6.9,4,4,0,0,1-2.6-.7,4.71,4.71,0,0,1-1.5-1.9,7.63,7.63,0,0,1-.5-2.7,5.67,5.67,0,0,1,.6-2.7,4.9,4.9,0,0,1,1.7-1.8,4.75,4.75,0,0,1,2.4-.6,4.15,4.15,0,0,1,2.5.8,3.41,3.41,0,0,1,1.4,2.2l-1.3.3a3.16,3.16,0,0,0-1-1.6,3.23,3.23,0,0,0-3.6.1,3.27,3.27,0,0,0-1.1,1.5,6.28,6.28,0,0,0-.3,1.9A4.81,4.81,0,0,0,61,272a2.76,2.76,0,0,0,1.2,1.4,3.69,3.69,0,0,0,1.7.5,3.08,3.08,0,0,0,1.9-.6A3.72,3.72,0,0,0,66.7,271.3Z" transform="translate(0 -7.06)"/><path d="M69.3,274.8l3.8-10h1.4l4.1,10H77.1l-1.2-3H71.7l-1.1,3H69.3Zm2.9-4.1h3.4l-1-2.8a12.84,12.84,0,0,1-.7-2.1,13.32,13.32,0,0,1-.5,1.9Z" transform="translate(0 -7.06)"/><path d="M188,161.4v-10h1.3v10H188Z" transform="translate(0 -7.06)"/><path d="M192.3,161.4v-10h3.5a8.66,8.66,0,0,1,1.8.1,3.48,3.48,0,0,1,1.5.7,4.34,4.34,0,0,1,1.2,1.7,7.12,7.12,0,0,1,.1,4.4,5.23,5.23,0,0,1-.7,1.5,3.82,3.82,0,0,1-.9.9,3.34,3.34,0,0,1-1.2.5,7.77,7.77,0,0,1-1.6.2h-3.7Zm1.4-1.2h2.1a6.27,6.27,0,0,0,1.6-.2,1.93,1.93,0,0,0,.9-0.5,2.33,2.33,0,0,0,.7-1.3,10.79,10.79,0,0,0,.3-1.9,5,5,0,0,0-.5-2.4,2.77,2.77,0,0,0-1.3-1.1,6.52,6.52,0,0,0-1.7-.2h-2.1v7.6h0Z" transform="translate(0 -7.06)"/><path d="M565.8,155.2l-2.7-10h1.4l1.5,6.6a15.54,15.54,0,0,1,.4,2.1c0.3-1.1.4-1.7,0.5-1.9l1.9-6.8h1.6l1.4,5.1a28.52,28.52,0,0,1,.8,3.5c0.1-.6.3-1.4,0.5-2.2l1.6-6.4H576l-2.7,10H572l-2.1-7.6a4.91,4.91,0,0,1-.3-1.2,10.38,10.38,0,0,1-.3,1.2l-2.1,7.6h-1.4Z" transform="translate(0 -7.06)"/><path d="M578.2,155.2v-10h1.3v10h-1.3Z" transform="translate(0 -7.06)"/><path d="M493.6,117.5v-10h2l2.4,7.1c0.2,0.7.4,1.2,0.5,1.5,0.1-.4.3-0.9,0.5-1.6l2.4-7h1.8v10h-1.3v-8.4l-2.9,8.4h-1.2l-2.9-8.5v8.5h-1.3Z" transform="translate(0 -7.06)"/><path d="M506,117.5v-10h1.4l5.3,7.9v-7.9H514v10h-1.4l-5.3-7.9v7.9H506Z" transform="translate(0 -7.06)"/><path d="M404.4,164.9l1.3-.1a3.37,3.37,0,0,0,.4,1.2,2.72,2.72,0,0,0,1,.8,3.65,3.65,0,0,0,1.5.3,4.44,4.44,0,0,0,1.3-.2,2.84,2.84,0,0,0,.9-0.6,1.22,1.22,0,0,0,.3-0.9,1.14,1.14,0,0,0-.3-0.8,3.49,3.49,0,0,0-.9-0.6,17.05,17.05,0,0,0-1.8-.5,7,7,0,0,1-1.9-.6,5.31,5.31,0,0,1-1.1-.9,1.75,1.75,0,0,1-.4-1.2,2.3,2.3,0,0,1,.4-1.4,2.68,2.68,0,0,1,1.3-1,5.66,5.66,0,0,1,1.8-.3,4.48,4.48,0,0,1,2,.4,2.85,2.85,0,0,1,1.3,1.1,3,3,0,0,1,.5,1.6l-1.3.1a2.1,2.1,0,0,0-.7-1.4,2.86,2.86,0,0,0-1.7-.5,3,3,0,0,0-1.8.4,1.25,1.25,0,0,0-.6,1.1,1,1,0,0,0,.4.9,5.32,5.32,0,0,0,2,.7,18.73,18.73,0,0,1,2.2.6,3.45,3.45,0,0,1,1.3,1,2.3,2.3,0,0,1,.4,1.4,3,3,0,0,1-.5,1.5,2.85,2.85,0,0,1-1.3,1.1,4.06,4.06,0,0,1-1.9.4,5.27,5.27,0,0,1-2.3-.4,3.33,3.33,0,0,1-1.4-1.2A4.21,4.21,0,0,1,404.4,164.9Z" transform="translate(0 -7.06)"/><path d="M414.9,168.1v-10h3.5a8.66,8.66,0,0,1,1.8.1,3.48,3.48,0,0,1,1.5.7,4.34,4.34,0,0,1,1.2,1.7,7.12,7.12,0,0,1,.1,4.4,5.22,5.22,0,0,1-.7,1.5,3.82,3.82,0,0,1-.9.9,3.34,3.34,0,0,1-1.2.5,7.77,7.77,0,0,1-1.6.2h-3.7Zm1.3-1.2h2.1a6.27,6.27,0,0,0,1.6-.2,1.93,1.93,0,0,0,.9-0.5,2.33,2.33,0,0,0,.7-1.3,10.79,10.79,0,0,0,.3-1.9,5,5,0,0,0-.5-2.4,2.76,2.76,0,0,0-1.3-1.1,6.52,6.52,0,0,0-1.7-.2h-2.1v7.6h0Z" transform="translate(0 -7.06)"/><path d="M289.3,182.7l-2.7-10H288l1.5,6.6a15.52,15.52,0,0,1,.4,2.1c0.3-1.1.4-1.7,0.5-1.9l1.9-6.8h1.6l1.4,5.1a28.52,28.52,0,0,1,.8,3.5c0.1-.6.3-1.4,0.5-2.2l1.6-6.4h1.3l-2.7,10h-1.3l-2.1-7.6a4.91,4.91,0,0,1-.3-1.2,10.38,10.38,0,0,1-.3,1.2l-2.1,7.6h-1.4Z" transform="translate(0 -7.06)"/><path d="M304.3,182.7v-4.2l-3.9-5.8H302l2,3a15.05,15.05,0,0,1,1,1.7c0.3-.5.7-1.1,1.1-1.8l1.9-2.9h1.5l-4,5.8v4.2h-1.2Z" transform="translate(0 -7.06)"/><path d="M125.2,230.4v-10h1.4l5.3,7.9v-7.9h1.3v10h-1.4l-5.3-7.9v7.9h-1.3Z" transform="translate(0 -7.06)"/><path d="M138.9,230.4l-3.9-10h1.4l2.6,7.3a14.24,14.24,0,0,1,.5,1.6c0.2-.5.3-1.1,0.5-1.6l2.7-7.3h1.4l-3.9,10h-1.3Z" transform="translate(0 -7.06)"/><path d="M223.2,249.5h1.3v5.8a7.8,7.8,0,0,1-.3,2.4,2.36,2.36,0,0,1-1.2,1.4,5.09,5.09,0,0,1-4.6.1,3,3,0,0,1-1.3-1.4,6,6,0,0,1-.4-2.5v-5.8H218v5.8a7.75,7.75,0,0,0,.2,1.9,1.89,1.89,0,0,0,.8,1,2.23,2.23,0,0,0,1.4.3,2.54,2.54,0,0,0,2.1-.7,4,4,0,0,0,.6-2.5v-5.8h0.1Z" transform="translate(0 -7.06)"/><path d="M230,259.5v-8.8h-3.3v-1.2h7.9v1.2h-3.3v8.8H230Z" transform="translate(0 -7.06)"/><path d="M517.3,217.2v-10h1.3v10h-1.3Z" transform="translate(0 -7.06)"/><path d="M520.6,217.2l3.8-10h1.4l4.1,10h-1.5l-1.2-3H523l-1.1,3h-1.3Zm2.9-4.2h3.4l-1-2.8a12.85,12.85,0,0,1-.7-2.1,13.33,13.33,0,0,1-.5,1.9Z" transform="translate(0 -7.06)"/><path d="M413.4,230.4v-10h1.4l5.3,7.9v-7.9h1.3v10H420l-5.3-7.9v7.9h-1.3Z" transform="translate(0 -7.06)"/><path d="M424.3,230.4v-10h7.2v1.2h-5.9v3.1h5.5v1.2h-5.5v3.4h6.2v1.2h-7.5v-0.1h0Z" transform="translate(0 -7.06)"/><path d="M881.8,88.5v-10h2l2.4,7.1c0.2,0.7.4,1.2,0.5,1.5,0.1-.4.3-0.9,0.5-1.6l2.4-7h1.8v10h-1.3V80.1l-2.9,8.4H886L883.1,80v8.5h-1.3Z" transform="translate(0 -7.06)"/><path d="M894.2,88.5v-10h7.2v1.2h-5.9v3.1H901V84h-5.5v3.4h6.2v1.2h-7.5V88.5Z" transform="translate(0 -7.06)"/><path d="M321.7,272.3l1.3,0.3a4.82,4.82,0,0,1-1.5,2.5,3.92,3.92,0,0,1-2.6.9,4,4,0,0,1-2.6-.7,4.71,4.71,0,0,1-1.5-1.9,7.64,7.64,0,0,1-.5-2.7,5.67,5.67,0,0,1,.6-2.7,4.9,4.9,0,0,1,1.7-1.8,4.75,4.75,0,0,1,2.4-.6,4.15,4.15,0,0,1,2.5.8,3.41,3.41,0,0,1,1.4,2.2l-1.3.3a3.16,3.16,0,0,0-1-1.6,3.23,3.23,0,0,0-3.6.1,3.27,3.27,0,0,0-1.1,1.5,6.28,6.28,0,0,0-.3,1.9,4.81,4.81,0,0,0,.4,2.2,2.76,2.76,0,0,0,1.2,1.4,3.69,3.69,0,0,0,1.7.5,3.08,3.08,0,0,0,1.9-.6A3.4,3.4,0,0,0,321.7,272.3Z" transform="translate(0 -7.06)"/><path d="M324.9,271a5.26,5.26,0,0,1,1.3-3.9,4.67,4.67,0,0,1,3.5-1.4,4.3,4.3,0,0,1,2.5.7,5.81,5.81,0,0,1,1.7,1.8,5.67,5.67,0,0,1,.6,2.7,6,6,0,0,1-.6,2.7,4.24,4.24,0,0,1-1.7,1.8,5,5,0,0,1-2.4.6,4.3,4.3,0,0,1-2.5-.7,5.19,5.19,0,0,1-1.7-1.9A5.49,5.49,0,0,1,324.9,271Zm1.4,0a4,4,0,0,0,1,2.9,3.25,3.25,0,0,0,2.4,1,3.41,3.41,0,0,0,2.5-1.1,4,4,0,0,0,1-3,4.64,4.64,0,0,0-.4-2.1,3.33,3.33,0,0,0-1.2-1.4,3.45,3.45,0,0,0-1.8-.5,3.25,3.25,0,0,0-2.4,1A4.26,4.26,0,0,0,326.3,271Z" transform="translate(0 -7.06)"/><path d="M116.2,58.3l-2.7-10h1.4l1.5,6.6a15.53,15.53,0,0,1,.4,2.1c0.3-1.1.4-1.7,0.5-1.9l1.9-6.8h1.6l1.4,5.1a28.52,28.52,0,0,1,.8,3.5c0.1-.6.3-1.4,0.5-2.2l1.6-6.4h1.3l-2.7,10h-1.3l-2.1-7.6a4.91,4.91,0,0,1-.3-1.2,10.38,10.38,0,0,1-.3,1.2l-2.1,7.6h-1.4Z" transform="translate(0 -7.06)"/><path d="M126.8,58.3l3.8-10H132l4.1,10h-1.5l-1.2-3h-4.2l-1.1,3h-1.3Zm2.9-4.1h3.4l-1-2.8a12.84,12.84,0,0,1-.7-2.1,13.32,13.32,0,0,1-.5,1.9Z" transform="translate(0 -7.06)"/><path d="M290.5,373.3v-10h1.4l5.3,7.9v-7.9h1.3v10H297l-5.3-7.9v7.9h-1.2Z" transform="translate(0 -7.06)"/><path d="M301.3,373.3v-10h2l2.4,7.1c0.2,0.7.4,1.2,0.5,1.5,0.1-.4.3-0.9,0.5-1.6l2.4-7h1.8v10h-1.3v-8.4l-2.9,8.4h-1.2l-2.9-8.5v8.5h-1.3Z" transform="translate(0 -7.06)"/><path d="M196.4,358.9l3.8-10h1.4l4.1,10h-1.5l-1.2-3h-4.2l-1.1,3h-1.3Zm2.9-4.1h3.4l-1-2.8a12.84,12.84,0,0,1-.7-2.1,13.32,13.32,0,0,1-.5,1.9Z" transform="translate(0 -7.06)"/><path d="M206.7,358.9v-1.2l5.1-6.4c0.4-.5.7-0.9,1-1.2h-5.6v-1.2h7.2v1.2l-5.6,7-0.6.7h6.4V359h-7.9v-0.1h0Z" transform="translate(0 -7.06)"/><path d="M422.4,447v-8.8h-3.3V437H427v1.2h-3.3V447h-1.3Z" transform="translate(0 -7.06)"/><path d="M428.1,447l3.9-5.2-3.4-4.8h1.6l1.8,2.6a12.25,12.25,0,0,1,.8,1.2,7.63,7.63,0,0,1,.8-1.1l2-2.7H437l-3.5,4.7,3.8,5.3h-1.6l-2.5-3.6a4.35,4.35,0,0,1-.4-0.7c-0.2.4-.4,0.6-0.5,0.8l-2.5,3.5h-1.7Z" transform="translate(0 -7.06)"/><path d="M105,503.3l3.8-10h1.4l4.1,10h-1.5l-1.2-3h-4.2l-1.1,3H105Zm2.9-4.1h3.4l-1-2.8a12.84,12.84,0,0,1-.7-2.1,13.32,13.32,0,0,1-.5,1.9Z" transform="translate(0 -7.06)"/><path d="M116.1,503.3v-10h1.3v5l5-5h1.8l-4.2,4.1,4.4,6h-1.8l-3.6-5.1-1.6,1.6v3.5h-1.3v-0.1Z" transform="translate(0 -7.06)"/><path d="M287.2,570V560h1.3v4.1h5.2V560H295v10h-1.3v-4.7h-5.2V570h-1.3Z" transform="translate(0 -7.06)"/><path d="M298.2,570V560h1.3v10h-1.3Z" transform="translate(0 -7.06)"/><path d="M530.6,297.5v-10h2l2.4,7.1c0.2,0.7.4,1.2,0.5,1.5,0.1-.4.3-0.9,0.5-1.6l2.4-7h1.8v10h-1.3v-8.4l-2.9,8.4h-1.2l-2.9-8.5v8.5h-1.3Z" transform="translate(0 -7.06)"/><path d="M542.6,292.6a5.26,5.26,0,0,1,1.3-3.9,4.67,4.67,0,0,1,3.5-1.4,4.3,4.3,0,0,1,2.5.7,4.9,4.9,0,0,1,1.7,1.8,5.67,5.67,0,0,1,.6,2.7,6,6,0,0,1-.6,2.7,4.24,4.24,0,0,1-1.7,1.8,5,5,0,0,1-2.4.6,4.3,4.3,0,0,1-2.5-.7,5.19,5.19,0,0,1-1.7-1.9A5.13,5.13,0,0,1,542.6,292.6Zm1.4,0.1a4,4,0,0,0,1,2.9,3.25,3.25,0,0,0,2.4,1,3.41,3.41,0,0,0,2.5-1.1,4.5,4.5,0,0,0,1-3,4.64,4.64,0,0,0-.4-2.1,3.33,3.33,0,0,0-1.2-1.4,3.45,3.45,0,0,0-1.8-.5,3.25,3.25,0,0,0-2.4,1A4.26,4.26,0,0,0,544,292.7Z" transform="translate(0 -7.06)"/><path d="M457.1,360.5a5.26,5.26,0,0,1,1.3-3.9,4.67,4.67,0,0,1,3.5-1.4,4.3,4.3,0,0,1,2.5.7,4.9,4.9,0,0,1,1.7,1.8,6.37,6.37,0,0,1,0,5.4,4.24,4.24,0,0,1-1.7,1.8,5.33,5.33,0,0,1-2.4.6,4.3,4.3,0,0,1-2.5-.7,5.19,5.19,0,0,1-1.7-1.9A4.2,4.2,0,0,1,457.1,360.5Zm1.4,0a4,4,0,0,0,1,2.9,3.1,3.1,0,0,0,2.4,1,3.41,3.41,0,0,0,2.5-1.1,4.5,4.5,0,0,0,1-3,4.64,4.64,0,0,0-.4-2.1,3.33,3.33,0,0,0-1.2-1.4,3.45,3.45,0,0,0-1.8-.5,3.25,3.25,0,0,0-2.4,1C458.8,357.9,458.5,359,458.5,360.5Z" transform="translate(0 -7.06)"/><path d="M469.1,365.3v-10h1.3v5l5-5h1.8l-4.2,4.1,4.4,6h-1.8l-3.6-5.1-1.6,1.6v3.5h-1.3v-0.1h0Z" transform="translate(0 -7.06)"/><path d="M438.6,294.8v-10h1.3v5l5-5h1.8l-4.2,4.1,4.4,6h-1.8l-3.6-5.1-1.6,1.6v3.5h-1.3v-0.1h0Z" transform="translate(0 -7.06)"/><path d="M448.3,291.6l1.3-.1a3.37,3.37,0,0,0,.4,1.2,2.72,2.72,0,0,0,1,.8,3.65,3.65,0,0,0,1.5.3,4.44,4.44,0,0,0,1.3-.2,2.84,2.84,0,0,0,.9-0.6,1.22,1.22,0,0,0,.3-0.9,1.14,1.14,0,0,0-.3-0.8,3.49,3.49,0,0,0-.9-0.6,17.06,17.06,0,0,0-1.8-.5,7,7,0,0,1-1.9-.6,5.31,5.31,0,0,1-1.1-.9,1.75,1.75,0,0,1-.4-1.2,2.3,2.3,0,0,1,.4-1.4,2.68,2.68,0,0,1,1.3-1,5.66,5.66,0,0,1,1.8-.3,4.48,4.48,0,0,1,2,.4,2.85,2.85,0,0,1,1.3,1.1,3,3,0,0,1,.5,1.6l-1.3.1a2.1,2.1,0,0,0-.7-1.4,2.86,2.86,0,0,0-1.7-.5,3,3,0,0,0-1.8.4,1.25,1.25,0,0,0-.6,1.1,1,1,0,0,0,.4.9,5.32,5.32,0,0,0,2,.7,18.73,18.73,0,0,1,2.2.6,3.45,3.45,0,0,1,1.3,1,2.3,2.3,0,0,1,.4,1.4,3,3,0,0,1-.5,1.5,2.85,2.85,0,0,1-1.3,1.1,4.06,4.06,0,0,1-1.9.4,5.27,5.27,0,0,1-2.3-.4,3.33,3.33,0,0,1-1.4-1.2A4.48,4.48,0,0,1,448.3,291.6Z" transform="translate(0 -7.06)"/><path d="M541.6,432.5v-10h1.3v8.8h4.9v1.2h-6.2Z" transform="translate(0 -7.06)"/><path d="M549,432.5l3.8-10h1.4l4.1,10h-1.5l-1.2-3h-4.2l-1.1,3H549Zm2.9-4.1h3.4l-1-2.8a12.85,12.85,0,0,1-.7-2.1,13.32,13.32,0,0,1-.5,1.9Z" transform="translate(0 -7.06)"/><path d="M589.8,252.8v-10h1.3v10h-1.3Z" transform="translate(0 -7.06)"/><path d="M594.1,252.8v-10h1.3v8.8h4.9v1.2h-6.2Z" transform="translate(0 -7.06)"/><path d="M638.79,250.65v-10h1.3v10h-1.3Z" transform="translate(0 -7.06)"/><path d="M643.09,250.65v-10h1.4l5.3,7.9v-7.9h1.3v10h-1.4l-5.3-7.9v7.9h-1.3Z" transform="translate(0 -7.06)"/><path d="M689.6,240.4a5.26,5.26,0,0,1,1.3-3.9,4.67,4.67,0,0,1,3.5-1.4,4.3,4.3,0,0,1,2.5.7,4.9,4.9,0,0,1,1.7,1.8,5.67,5.67,0,0,1,.6,2.7,6,6,0,0,1-.6,2.7,4.24,4.24,0,0,1-1.7,1.8,5,5,0,0,1-2.4.6,4.3,4.3,0,0,1-2.5-.7,5.19,5.19,0,0,1-1.7-1.9A5.13,5.13,0,0,1,689.6,240.4Zm1.4,0a4,4,0,0,0,1,2.9,3.25,3.25,0,0,0,2.4,1,3.41,3.41,0,0,0,2.5-1.1,4.5,4.5,0,0,0,1-3,4.64,4.64,0,0,0-.4-2.1,3.33,3.33,0,0,0-1.2-1.4,3.45,3.45,0,0,0-1.8-.5,3.25,3.25,0,0,0-2.4,1A4.26,4.26,0,0,0,691,240.4Z" transform="translate(0 -7.06)"/><path d="M701.7,245.3v-10H703v4.1h5.2v-4.1h1.3v10h-1.3v-4.7H703v4.7h-1.3Z" transform="translate(0 -7.06)"/><path d="M667.8,304V294h1.3v5l5-5h1.8l-4.2,4.1,4.4,6h-1.8l-3.6-5.1-1.6,1.6v3.5h-1.3V304h0Z" transform="translate(0 -7.06)"/><path d="M680.8,304v-4.2l-3.9-5.8h1.6l2,3a15,15,0,0,1,1,1.7c0.3-.5.7-1.1,1.1-1.8l1.9-2.9H686l-4,5.8V304h-1.2Z" transform="translate(0 -7.06)"/><path d="M537.8,372l3.8-10H543l4.1,10h-1.5l-1.2-3h-4.2l-1.1,3h-1.3Zm2.9-4.1h3.4l-1-2.8a12.85,12.85,0,0,1-.7-2.1,13.32,13.32,0,0,1-.5,1.9Z" transform="translate(0 -7.06)"/><path d="M549,372V362h4.4a4.92,4.92,0,0,1,2,.3,2.13,2.13,0,0,1,1.1,1,2.82,2.82,0,0,1,.4,1.5,2.41,2.41,0,0,1-.7,1.8,3.4,3.4,0,0,1-2.1.9,2.77,2.77,0,0,1,.8.5,6.88,6.88,0,0,1,1.1,1.3l1.7,2.7H556l-1.3-2.1a10.45,10.45,0,0,0-1-1.4l-0.7-.7-0.6-.3h-2.2V372H549Zm1.3-5.6h2.9a4.64,4.64,0,0,0,1.4-.2,1.56,1.56,0,0,0,.8-0.6,1.61,1.61,0,0,0,.3-0.9,1.66,1.66,0,0,0-.5-1.2,2.35,2.35,0,0,0-1.6-.5h-3.2v3.4h-0.1Z" transform="translate(0 -7.06)"/><path d="M763,508.2v-10h6.8v1.2h-5.4v3.1h4.7v1.2h-4.7v4.6H763v-0.1h0Z" transform="translate(0 -7.06)"/><path d="M772.2,508.2v-10h1.3V507h4.9v1.2h-6.2Z" transform="translate(0 -7.06)"/><path d="M593,412.5v-10h2l2.4,7.1c0.2,0.7.4,1.2,0.5,1.5,0.1-.4.3-0.9,0.5-1.6l2.4-7h1.8v10h-1.3v-8.4l-2.9,8.4h-1.2l-2.9-8.5v8.5H593Z" transform="translate(0 -7.06)"/><path d="M604.9,409.2l1.3-.1a3.37,3.37,0,0,0,.4,1.2,2.72,2.72,0,0,0,1,.8,4,4,0,0,0,1.5.3,4.44,4.44,0,0,0,1.3-.2,3.49,3.49,0,0,0,.9-0.6,1.4,1.4,0,0,0,.3-0.9,1.14,1.14,0,0,0-.3-0.8,3.49,3.49,0,0,0-.9-0.6,17.05,17.05,0,0,0-1.8-.5,7,7,0,0,1-1.9-.6,5.3,5.3,0,0,1-1.1-.9,2.84,2.84,0,0,1-.4-1.2,2.3,2.3,0,0,1,.4-1.4,2.68,2.68,0,0,1,1.3-1,5.66,5.66,0,0,1,1.8-.3,4.48,4.48,0,0,1,2,.4,2.85,2.85,0,0,1,1.3,1.1,3,3,0,0,1,.5,1.6l-1.3.1a2.1,2.1,0,0,0-.7-1.4,2.86,2.86,0,0,0-1.7-.5,3,3,0,0,0-1.8.4,1.25,1.25,0,0,0-.6,1.1,1,1,0,0,0,.4.9,5.32,5.32,0,0,0,2,.7,18.72,18.72,0,0,1,2.2.6,3.45,3.45,0,0,1,1.3,1,2.3,2.3,0,0,1,.4,1.4,3,3,0,0,1-.5,1.5,2.85,2.85,0,0,1-1.3,1.1,4.06,4.06,0,0,1-1.9.4,5.27,5.27,0,0,1-2.3-.4,3.33,3.33,0,0,1-1.4-1.2A7.1,7.1,0,0,1,604.9,409.2Z" transform="translate(0 -7.06)"/><path d="M645.5,410.4l3.8-10h1.4l4.1,10h-1.5l-1.2-3H648l-1.1,3h-1.4Zm2.9-4.2h3.4l-1-2.8a12.85,12.85,0,0,1-.7-2.1,13.32,13.32,0,0,1-.5,1.9Z" transform="translate(0 -7.06)"/><path d="M656.6,410.4v-10h1.3v8.8h4.9v1.2h-6.2Z" transform="translate(0 -7.06)"/><path d="M711.3,405.3v-1.2h4.2v3.7a10.6,10.6,0,0,1-2,1.2,5.22,5.22,0,0,1-2.1.4,6,6,0,0,1-2.7-.6,3.92,3.92,0,0,1-1.8-1.8,6.38,6.38,0,0,1,0-5.4,4.14,4.14,0,0,1,1.8-1.9,5.54,5.54,0,0,1,2.6-.6,4.48,4.48,0,0,1,2,.4,3.59,3.59,0,0,1,1.4,1,6,6,0,0,1,.8,1.6l-1.2.3a3.37,3.37,0,0,0-.6-1.2,2,2,0,0,0-1-.7,3.19,3.19,0,0,0-1.4-.3,3.87,3.87,0,0,0-2.7,1,2.07,2.07,0,0,0-.6,1,4.48,4.48,0,0,0-.4,2,4.77,4.77,0,0,0,.5,2.2,3.25,3.25,0,0,0,1.3,1.3,4.06,4.06,0,0,0,1.9.4,5.08,5.08,0,0,0,1.7-.3,4.2,4.2,0,0,0,1.2-.7v-1.9h-2.9v0.1Z" transform="translate(0 -7.06)"/><path d="M717.1,409.2l3.8-10h1.4l4.1,10h-1.5l-1.2-3h-4.2l-1.1,3h-1.3Zm2.8-4.1h3.4l-1-2.8a12.85,12.85,0,0,1-.7-2.1,13.32,13.32,0,0,1-.5,1.9Z" transform="translate(0 -7.06)"/><path d="M752.8,372.4l1.3-.1a3.37,3.37,0,0,0,.4,1.2,2.72,2.72,0,0,0,1,.8,4,4,0,0,0,1.5.3,4.44,4.44,0,0,0,1.3-.2,3.49,3.49,0,0,0,.9-0.6,1.4,1.4,0,0,0,.3-0.9,1.14,1.14,0,0,0-.3-0.8,3.49,3.49,0,0,0-.9-0.6,17.05,17.05,0,0,0-1.8-.5,7,7,0,0,1-1.9-.6,5.3,5.3,0,0,1-1.1-.9,2.84,2.84,0,0,1-.4-1.2,2.3,2.3,0,0,1,.4-1.4,2.68,2.68,0,0,1,1.3-1,5.66,5.66,0,0,1,1.8-.3,4.48,4.48,0,0,1,2,.4,2.85,2.85,0,0,1,1.3,1.1,3,3,0,0,1,.5,1.6l-1.3.1a2.1,2.1,0,0,0-.7-1.4,2.86,2.86,0,0,0-1.7-.5,3,3,0,0,0-1.8.4,1.17,1.17,0,0,0-.5,1.1,1,1,0,0,0,.4.9,5.32,5.32,0,0,0,2,.7,18.72,18.72,0,0,1,2.2.6,3.45,3.45,0,0,1,1.3,1,2.3,2.3,0,0,1,.4,1.4,3,3,0,0,1-.5,1.5,2.85,2.85,0,0,1-1.3,1.1,4.06,4.06,0,0,1-1.9.4,5.27,5.27,0,0,1-2.3-.4,3.33,3.33,0,0,1-1.4-1.2A5.83,5.83,0,0,1,752.8,372.4Z" transform="translate(0 -7.06)"/><path d="M770.4,372.1l1.3,0.3a4.82,4.82,0,0,1-1.5,2.5,3.92,3.92,0,0,1-2.6.9,4,4,0,0,1-2.6-.7,3.58,3.58,0,0,1-1.5-1.9,5.92,5.92,0,0,1-.5-2.7,5.67,5.67,0,0,1,.6-2.7,4.24,4.24,0,0,1,1.7-1.8,4.75,4.75,0,0,1,2.4-.6,4.15,4.15,0,0,1,2.5.8,3.41,3.41,0,0,1,1.4,2.2l-1.3.3a3.16,3.16,0,0,0-1-1.6,3.23,3.23,0,0,0-3.6.1,3.27,3.27,0,0,0-1.1,1.5,6.28,6.28,0,0,0-.3,1.9,4.81,4.81,0,0,0,.4,2.2,2.36,2.36,0,0,0,1.2,1.4,3.37,3.37,0,0,0,1.7.5,3.08,3.08,0,0,0,1.9-.6A5.29,5.29,0,0,0,770.4,372.1Z" transform="translate(0 -7.06)"/><path d="M773.5,331.5v-10h1.4l5.3,7.9v-7.9h1.3v10H780l-5.3-7.9v7.9h-1.2Z" transform="translate(0 -7.06)"/><path d="M791.4,328l1.3,0.3a4.82,4.82,0,0,1-1.5,2.5,3.92,3.92,0,0,1-2.6.9,4,4,0,0,1-2.6-.7,3.58,3.58,0,0,1-1.5-1.9,5.92,5.92,0,0,1-.5-2.7,5.67,5.67,0,0,1,.6-2.7,4.24,4.24,0,0,1,1.7-1.8,4.75,4.75,0,0,1,2.4-.6,4.15,4.15,0,0,1,2.5.8,3.41,3.41,0,0,1,1.4,2.2l-1.3.3a3.16,3.16,0,0,0-1-1.6,3.23,3.23,0,0,0-3.6.1,3.27,3.27,0,0,0-1.1,1.5,6.28,6.28,0,0,0-.3,1.9,4.81,4.81,0,0,0,.4,2.2,2.36,2.36,0,0,0,1.2,1.4,3.37,3.37,0,0,0,1.7.5,3.08,3.08,0,0,0,1.9-.6A5.29,5.29,0,0,0,791.4,328Z" transform="translate(0 -7.06)"/><path d="M649.7,343.2v-8.8h-3.3v-1.2h7.9v1.2H651v8.8h-1.3Z" transform="translate(0 -7.06)"/><path d="M656.3,343.2v-10h1.4l5.3,7.9v-7.9h1.3v10h-1.4l-5.3-7.9v7.9h-1.3Z" transform="translate(0 -7.06)"/><path d="M779.4,288.1l-3.9-10h1.4l2.6,7.3a14.23,14.23,0,0,1,.5,1.6c0.2-.5.3-1.1,0.5-1.6l2.7-7.3h1.4l-3.9,10h-1.3Z" transform="translate(0 -7.06)"/><path d="M784.4,288.1l3.8-10h1.4l4.1,10h-1.5l-1.2-3h-4.2l-1.1,3h-1.3Zm2.9-4.1h3.4l-1-2.8a12.85,12.85,0,0,1-.7-2.1,13.32,13.32,0,0,1-.5,1.9Z" transform="translate(0 -7.06)"/><path d="M733.9,274.8l-2.7-10h1.4l1.5,6.6a15.53,15.53,0,0,1,.4,2.1c0.3-1.1.4-1.7,0.5-1.9l1.9-6.8h1.6l1.4,5.1a28.52,28.52,0,0,1,.8,3.5c0.1-.6.3-1.4,0.5-2.2l1.6-6.4h1.3l-2.7,10h-1.3l-2.1-7.6a4.91,4.91,0,0,1-.3-1.2,10.38,10.38,0,0,1-.3,1.2l-2.1,7.6h-1.4Z" transform="translate(0 -7.06)"/><path d="M748.9,274.8l-3.9-10h1.4l2.6,7.3a14.23,14.23,0,0,1,.5,1.6c0.2-.5.3-1.1,0.5-1.6l2.7-7.3h1.4l-3.9,10h-1.3Z" transform="translate(0 -7.06)"/><path d="M770.9,215.7v-10h3.8a5.76,5.76,0,0,1,1.5.1,2.2,2.2,0,0,1,1.2.5,2.72,2.72,0,0,1,.8,1,3.19,3.19,0,0,1,.3,1.4,3.29,3.29,0,0,1-.8,2.2,3.72,3.72,0,0,1-2.9.9h-2.6v4.1h-1.3v-0.2Zm1.3-5.3h2.6a2.57,2.57,0,0,0,1.8-.5,1.54,1.54,0,0,0,.5-1.3,2,2,0,0,0-.3-1.1,1.56,1.56,0,0,0-.8-0.6,3.45,3.45,0,0,0-1.2-.1h-2.6v3.6h0Z" transform="translate(0 -7.06)"/><path d="M778.8,215.7l3.8-10H784l4.1,10h-1.5l-1.2-3h-4.2l-1.1,3h-1.3Zm2.8-4.1H785l-1-2.8a12.85,12.85,0,0,1-.7-2.1,13.33,13.33,0,0,1-.5,1.9Z" transform="translate(0 -7.06)"/><path d="M803.4,165.4v-10h1.4l5.3,7.9v-7.9h1.3v10H810l-5.3-7.9v7.9h-1.3Z" transform="translate(0 -7.06)"/><path d="M817.1,165.4v-4.2l-3.9-5.8h1.6l2,3a15.05,15.05,0,0,1,1,1.7c0.3-.5.7-1.1,1.1-1.8l1.9-2.9h1.5l-4,5.8v4.2h-1.2Z" transform="translate(0 -7.06)"/><path d="M837.8,222.4v-10h1.4l5.3,7.9v-7.9h1.3v10h-1.4l-5.3-7.9v7.9h-1.3Z" transform="translate(0 -7.06)"/><path d="M847.9,219.6l1.2-.2a2.83,2.83,0,0,0,.4,1.6,1.37,1.37,0,0,0,1.1.4,2.92,2.92,0,0,0,.9-0.2,2.65,2.65,0,0,0,.5-0.6,4.51,4.51,0,0,0,.1-1.3v-6.9h1.3v6.8a4.7,4.7,0,0,1-.3,1.9,2.13,2.13,0,0,1-1,1.1,3.71,3.71,0,0,1-1.5.4,2.48,2.48,0,0,1-2-.8A3.61,3.61,0,0,1,847.9,219.6Z" transform="translate(0 -7.06)"/><path d="M851.7,259.55v-10h2l2.4,7.1c0.2,0.7.4,1.2,0.5,1.5,0.1-.4.3-0.9,0.5-1.6l2.4-7h1.8v10H860v-8.4l-2.9,8.4h-1.2l-2.9-8.5v8.5h-1.3Z" transform="translate(0 -7.06)"/><path d="M864.1,259.55v-10h3.5a8.66,8.66,0,0,1,1.8.1,3.48,3.48,0,0,1,1.5.7,4.34,4.34,0,0,1,1.2,1.7,7.12,7.12,0,0,1,.1,4.4,5.23,5.23,0,0,1-.7,1.5,3.82,3.82,0,0,1-.9.9,3.34,3.34,0,0,1-1.2.5,7.77,7.77,0,0,1-1.6.2h-3.7Zm1.3-1.2h2.1a6.27,6.27,0,0,0,1.6-.2,1.93,1.93,0,0,0,.9-0.5,2.33,2.33,0,0,0,.7-1.3,5.41,5.41,0,0,0,.3-1.9,5,5,0,0,0-.5-2.4,2.3,2.3,0,0,0-1.3-1.1,6.53,6.53,0,0,0-1.7-.2h-2.1v7.6h0Z" transform="translate(0 -7.06)"/><path d="M857.7,240.4v-10h3.5a8.66,8.66,0,0,1,1.8.1,3.48,3.48,0,0,1,1.5.7,4.34,4.34,0,0,1,1.2,1.7,7.12,7.12,0,0,1,.1,4.4,5.23,5.23,0,0,1-.7,1.5,3.82,3.82,0,0,1-.9.9,3.34,3.34,0,0,1-1.2.5,7.77,7.77,0,0,1-1.6.2h-3.7Zm1.3-1.2h2.1a6.27,6.27,0,0,0,1.6-.2,1.93,1.93,0,0,0,.9-0.5,2.33,2.33,0,0,0,.7-1.3,5.41,5.41,0,0,0,.3-1.9,5,5,0,0,0-.5-2.4,2.3,2.3,0,0,0-1.3-1.1,6.53,6.53,0,0,0-1.7-.2H859v7.6h0Z" transform="translate(0 -7.06)"/><path d="M868.5,240.4v-10h7.2v1.2h-5.9v3.1h5.5v1.2h-5.5v3.4H876v1.2h-7.5v-0.1h0Z" transform="translate(0 -7.06)"/><line class="cls-6" x1="832.8" y1="233.24" x2="855.1" y2="228.94"/><line class="cls-6" x1="879.1" y1="166.64" x2="902" y2="178.64"/><path d="M905.8,191.8v-10h4.4a4.92,4.92,0,0,1,2,.3,2.59,2.59,0,0,1,1.1,1,2.82,2.82,0,0,1,.4,1.5,2.41,2.41,0,0,1-.7,1.8,3.4,3.4,0,0,1-2.1.9,2.77,2.77,0,0,1,.8.5,6.88,6.88,0,0,1,1.1,1.3l1.7,2.7H913l-1.3-2.1a10.45,10.45,0,0,0-1-1.4l-0.7-.7a1.69,1.69,0,0,0-.6-0.3h-2.2v4.5h-1.4Zm1.4-5.6h2.9a4.64,4.64,0,0,0,1.4-.2,1.55,1.55,0,0,0,.8-0.6,1.61,1.61,0,0,0,.3-0.9,1.66,1.66,0,0,0-.5-1.2,2.35,2.35,0,0,0-1.6-.5h-3.2v3.4h-0.1Z" transform="translate(0 -7.06)"/><path d="M916.8,191.8v-10h1.3v10h-1.3Z" transform="translate(0 -7.06)"/><line class="cls-6" x1="861.1" y1="173.04" x2="884" y2="185.04"/><path d="M891.1,200.2l1.3,0.3a4.82,4.82,0,0,1-1.5,2.5,3.92,3.92,0,0,1-2.6.9,4,4,0,0,1-2.6-.7,4.71,4.71,0,0,1-1.5-1.9,5.92,5.92,0,0,1-.5-2.7,5.67,5.67,0,0,1,.6-2.7,4.24,4.24,0,0,1,1.7-1.8,4.75,4.75,0,0,1,2.4-.6,4.15,4.15,0,0,1,2.5.8,3.41,3.41,0,0,1,1.4,2.2l-1.3.3a3.16,3.16,0,0,0-1-1.6,3.23,3.23,0,0,0-3.6.1,3.27,3.27,0,0,0-1.1,1.5,6.28,6.28,0,0,0-.3,1.9,4.81,4.81,0,0,0,.4,2.2,2.36,2.36,0,0,0,1.2,1.4,3.37,3.37,0,0,0,1.7.5,3.08,3.08,0,0,0,1.9-.6A3.72,3.72,0,0,0,891.1,200.2Z" transform="translate(0 -7.06)"/><path d="M897.3,203.7v-8.8H894v-1.2h7.9v1.2h-3.3v8.8h-1.3Z" transform="translate(0 -7.06)"/><path d="M908.8,155.2v-10h2l2.4,7.1c0.2,0.7.4,1.2,0.5,1.5,0.1-.4.3-0.9,0.5-1.6l2.4-7h1.8v10H917v-8.4l-2.9,8.4h-1.2l-2.9-8.5v8.5h-1.2Z" transform="translate(0 -7.06)"/><path d="M920.1,155.2l3.8-10h1.4l4.1,10h-1.5l-1.2-3h-4.2l-1.1,3h-1.3Zm2.9-4.1h3.4l-1-2.8a12.85,12.85,0,0,1-.7-2.1,13.33,13.33,0,0,1-.5,1.9Z" transform="translate(0 -7.06)"/><line class="cls-6" x1="877.6" y1="148.34" x2="905.4" y2="144.34"/><path d="M858.1,142.3v-10h1.4l5.3,7.9v-7.9h1.3v10h-1.4l-5.3-7.9v7.9h-1.3Z" transform="translate(0 -7.06)"/><path d="M869,142.3v-10h1.3v4.1h5.2v-4.1h1.3v10h-1.3v-4.7h-5.2v4.7H869Z" transform="translate(0 -7.06)"/><path d="M842.7,117.1l-3.9-10h1.4l2.6,7.3a14.23,14.23,0,0,1,.5,1.6c0.2-.5.3-1.1,0.5-1.6l2.7-7.3h1.4l-3.9,10h-1.3Z" transform="translate(0 -7.06)"/><path d="M852.4,117.1v-8.8h-3.3v-1.2H857v1.2h-3.3v8.8h-1.3Z" transform="translate(0 -7.06)"/><line class="cls-6" x1="806.84" y1="241.64" x2="838" y2="267.84"/><g id="dc-2"><path class="cls-4" d="M805.8,250.8L804,249l-1.2-.7,1.4-2,2.9,1.9-1.3,2.6h0Z" transform="translate(0 -7.06)"/></g><g id="dc-2-2" data-name="dc"><path id="dc-3" data-name="dc" d="M841.1,280.79v-10h3.5a8.66,8.66,0,0,1,1.8.1,3.48,3.48,0,0,1,1.5.7,4.34,4.34,0,0,1,1.2,1.7,7.12,7.12,0,0,1,.1,4.4,5.23,5.23,0,0,1-.7,1.5,3.82,3.82,0,0,1-.9.9,3.34,3.34,0,0,1-1.2.5,7.77,7.77,0,0,1-1.6.2h-3.7Zm1.3-1.1h2.1a6.27,6.27,0,0,0,1.6-.2,1.93,1.93,0,0,0,.9-0.5,2.33,2.33,0,0,0,.7-1.3,5.41,5.41,0,0,0,.3-1.9,5,5,0,0,0-.5-2.4,2.3,2.3,0,0,0-1.3-1.1,6.53,6.53,0,0,0-1.7-.2h-2.1v7.6Z" transform="translate(0 -7.06)"/><path id="dc-4" data-name="dc" d="M859,277.29l1.3,0.3a4.82,4.82,0,0,1-1.5,2.5,3.92,3.92,0,0,1-2.6.9,4,4,0,0,1-2.6-.7,3.58,3.58,0,0,1-1.5-1.9,5.92,5.92,0,0,1-.5-2.7,5.67,5.67,0,0,1,.6-2.7,4.24,4.24,0,0,1,1.7-1.8,4.75,4.75,0,0,1,2.4-.6,4.15,4.15,0,0,1,2.5.8,3.41,3.41,0,0,1,1.4,2.2l-1.3.3a3.16,3.16,0,0,0-1-1.6,3.23,3.23,0,0,0-3.6.1,3.27,3.27,0,0,0-1.1,1.5,6.28,6.28,0,0,0-.3,1.9,4.81,4.81,0,0,0,.4,2.2,2.36,2.36,0,0,0,1.2,1.4,3.69,3.69,0,0,0,1.7.5,3.08,3.08,0,0,0,1.9-.6A2.89,2.89,0,0,0,859,277.29Z" transform="translate(0 -7.06)"/></g><path d="M657,189.2v-10h2l2.4,7.1c0.2,0.7.4,1.2,0.5,1.5,0.1-.4.3-0.9,0.5-1.6l2.4-7h1.8v10h-1.3v-8.4l-2.9,8.4h-1.2l-2.9-8.5v8.5H657Z" transform="translate(0 -7.06)"/><path d="M669.6,189.2v-10h1.3v10h-1.3Z" transform="translate(0 -7.06)"/><path class="cls-7" d="M211,500v55l36,45M0,432H144l67,68h86l53,54v46" transform="translate(0 -7.06)"/><line class="cls-6" x1="812.6" y1="236.86" x2="847.5" y2="245.36"/><g id="usdl-2" data-name="usdl"><g id="usdl-3" data-name="usdl"><g class="cls-8"><path id="usdl-4" data-name="usdl" class="cls-9" d="M610.27,612.17h-0.11a1.11,1.11,0,0,1-.83-1.26V599.26a1.1,1.1,0,0,1,.83-1.26h0.11v-1.09h-5.35V598H605a1.1,1.1,0,0,1,.83,1.25v11.66a1.11,1.11,0,0,1-.83,1.25h-0.12v1.08h5.35v-1.08" transform="translate(0 -7.06)"/><path id="usdl-5" data-name="usdl" class="cls-9" d="M584.52,612.17h-0.11a1.11,1.11,0,0,1-.83-1.26V599.26a1.1,1.1,0,0,1,.84-1.26h0.11v-1.09h-5.35V598h0.12a1.1,1.1,0,0,1,.83,1.25v11.66a1.11,1.11,0,0,1-.83,1.25h-0.12v1.08h5.35s0-1.08,0-1.08" transform="translate(0 -7.06)"/><path id="usdl-6" data-name="usdl" class="cls-9" d="M593.11,612.17H593a1.11,1.11,0,0,1-.84-1.26V599.26A1.1,1.1,0,0,1,593,598h0.11v-1.09h-5.35V598h0.12a1.09,1.09,0,0,1,.83,1.25v11.66a1.1,1.1,0,0,1-.83,1.25h-0.12v1.08h5.35s0-1.08,0-1.08" transform="translate(0 -7.06)"/><path id="usdl-7" data-name="usdl" class="cls-9" d="M601.69,612.17h-0.11a1.11,1.11,0,0,1-.83-1.26V599.26a1.1,1.1,0,0,1,.83-1.26h0.11v-1.09h-5.35V598h0.12a1.09,1.09,0,0,1,.83,1.25v11.66a1.1,1.1,0,0,1-.83,1.25h-0.12v1.08h5.35v-1.08" transform="translate(0 -7.06)"/></g></g><polygon id="usdl-8" data-name="usdl" class="cls-9" points="594.72 579.09 576.75 586.38 612.7 586.38 594.72 579.09"/><rect id="usdl-9" data-name="usdl" class="cls-9" x="578.33" y="587.08" width="32.79" height="1.65"/><rect id="usdl-10" data-name="usdl" class="cls-9" x="577.94" y="606.9" width="33.56" height="1.57"/><rect id="usdl-11" data-name="usdl" class="cls-9" x="577.19" y="608.12" width="35.07" height="1.84"/><rect id="nopointer-2" data-name="nopointer" class="cls-10" x="557.35" y="564.43" width="150.6" height="58.05"/><g id="nopointer-3" data-name="nopointer"><path d="M623.56,594.59h0.95v4.14a4.88,4.88,0,0,1-.24,1.71,2.1,2.1,0,0,1-.88,1,3.13,3.13,0,0,1-1.67.4,3.43,3.43,0,0,1-1.65-.35,2,2,0,0,1-.91-1,4.77,4.77,0,0,1-.27-1.79v-4.14h0.95v4.13a4,4,0,0,0,.17,1.38,1.32,1.32,0,0,0,.6.68,2.07,2.07,0,0,0,1,.24,2,2,0,0,0,1.49-.47,2.73,2.73,0,0,0,.44-1.82v-4.13Z" transform="translate(0 -7.06)"/><path d="M626.22,601.75v-1h1v1h-1Z" transform="translate(0 -7.06)"/><path d="M628.54,599.45l0.89-.08a2,2,0,0,0,.3.88,1.62,1.62,0,0,0,.72.56,2.74,2.74,0,0,0,1.1.21,2.63,2.63,0,0,0,1-.16,1.33,1.33,0,0,0,.62-0.44,1,1,0,0,0,.2-0.61,0.93,0.93,0,0,0-.2-0.59,1.44,1.44,0,0,0-.64-0.42,12.42,12.42,0,0,0-1.27-.35,6.55,6.55,0,0,1-1.38-.45,1.93,1.93,0,0,1-.76-0.67,1.63,1.63,0,0,1-.25-0.89,1.82,1.82,0,0,1,.31-1,1.91,1.91,0,0,1,.9-0.72,3.4,3.4,0,0,1,1.31-.24,3.58,3.58,0,0,1,1.4.26,2,2,0,0,1,.93.75,2.17,2.17,0,0,1,.35,1.13l-0.91.07a1.47,1.47,0,0,0-.5-1,1.93,1.93,0,0,0-1.25-.35,2,2,0,0,0-1.25.31,1,1,0,0,0-.39.76,0.81,0.81,0,0,0,.28.63,3.77,3.77,0,0,0,1.43.51A9.51,9.51,0,0,1,633,598a2.17,2.17,0,0,1,.92.73,1.78,1.78,0,0,1,.3,1,2,2,0,0,1-.33,1.08,2.15,2.15,0,0,1-.94.79,3.29,3.29,0,0,1-1.38.28,4.12,4.12,0,0,1-1.63-.28,2.28,2.28,0,0,1-1-.85A2.42,2.42,0,0,1,628.54,599.45Z" transform="translate(0 -7.06)"/><path d="M635.67,601.75v-1h1v1h-1Z" transform="translate(0 -7.06)"/><path d="M641.09,601.75v-7.16h2.47a6,6,0,0,1,1.27.1,2.43,2.43,0,0,1,1,.51,2.91,2.91,0,0,1,.85,1.22,4.8,4.8,0,0,1,.28,1.7,5,5,0,0,1-.19,1.45,3.5,3.5,0,0,1-.49,1,2.6,2.6,0,0,1-.65.65,2.67,2.67,0,0,1-.86.36,4.89,4.89,0,0,1-1.15.12h-2.58Zm0.95-.84h1.53a3.7,3.7,0,0,0,1.11-.13,1.59,1.59,0,0,0,.64-0.37,2.26,2.26,0,0,0,.53-0.91,4.44,4.44,0,0,0,.19-1.38,3.33,3.33,0,0,0-.37-1.73,1.85,1.85,0,0,0-.9-0.81,3.7,3.7,0,0,0-1.23-.15H642v5.47Z" transform="translate(0 -7.06)"/><path d="M651.75,600.08l0.91,0.11a2.22,2.22,0,0,1-.8,1.24,2.39,2.39,0,0,1-1.48.44,2.37,2.37,0,0,1-1.8-.7,2.73,2.73,0,0,1-.67-2,2.87,2.87,0,0,1,.67-2,2.28,2.28,0,0,1,1.75-.72,2.22,2.22,0,0,1,1.7.71,2.81,2.81,0,0,1,.66,2c0,0.05,0,.13,0,0.23h-3.87a2,2,0,0,0,.48,1.31,1.44,1.44,0,0,0,1.08.45,1.35,1.35,0,0,0,.83-0.25A1.69,1.69,0,0,0,651.75,600.08Zm-2.89-1.42h2.9a1.75,1.75,0,0,0-.33-1,1.35,1.35,0,0,0-1.09-.51,1.4,1.4,0,0,0-1,.41A1.61,1.61,0,0,0,648.86,598.66Z" transform="translate(0 -7.06)"/><path d="M653.76,603.74v-7.17h0.8v0.67a2,2,0,0,1,.64-0.59,1.77,1.77,0,0,1,.86-0.2,2.05,2.05,0,0,1,1.17.34,2.09,2.09,0,0,1,.77,1,3.51,3.51,0,0,1,.26,1.36,3.45,3.45,0,0,1-.29,1.43,2.17,2.17,0,0,1-2,1.32,1.65,1.65,0,0,1-.79-0.19,1.8,1.8,0,0,1-.57-0.47v2.52h-0.88Zm0.8-4.55a2.25,2.25,0,0,0,.41,1.48,1.24,1.24,0,0,0,1,.48,1.27,1.27,0,0,0,1-.5,2.36,2.36,0,0,0,.42-1.54,2.29,2.29,0,0,0-.41-1.48,1.23,1.23,0,0,0-1-.49,1.27,1.27,0,0,0-1,.52A2.36,2.36,0,0,0,654.55,599.19Z" transform="translate(0 -7.06)"/><path d="M662.7,601.11a3.29,3.29,0,0,1-.94.59,2.72,2.72,0,0,1-1,.17,1.88,1.88,0,0,1-1.31-.42,1.38,1.38,0,0,1-.46-1.07,1.41,1.41,0,0,1,.17-0.7,1.43,1.43,0,0,1,.45-0.51,2.15,2.15,0,0,1,.63-0.29,6.16,6.16,0,0,1,.78-0.13,8,8,0,0,0,1.57-.3c0-.12,0-0.2,0-0.23a1,1,0,0,0-.25-0.76,1.47,1.47,0,0,0-1-.3,1.55,1.55,0,0,0-.92.22,1.33,1.33,0,0,0-.44.77l-0.86-.12a2.14,2.14,0,0,1,.39-0.89,1.68,1.68,0,0,1,.78-0.52,3.44,3.44,0,0,1,1.18-.18,3.11,3.11,0,0,1,1.08.16,1.43,1.43,0,0,1,.61.39,1.38,1.38,0,0,1,.27.6,5,5,0,0,1,0,.81v1.17a12.53,12.53,0,0,0,.06,1.55,2,2,0,0,0,.22.62h-0.92A1.88,1.88,0,0,1,662.7,601.11Zm-0.07-2a6.46,6.46,0,0,1-1.44.33,3.28,3.28,0,0,0-.77.18,0.76,0.76,0,0,0-.35.29,0.78,0.78,0,0,0,.14,1,1.15,1.15,0,0,0,.78.23,1.82,1.82,0,0,0,.9-0.22,1.37,1.37,0,0,0,.58-0.61,2.12,2.12,0,0,0,.14-0.88v-0.32Z" transform="translate(0 -7.06)"/><path d="M664.87,601.75v-5.19h0.79v0.79a2.13,2.13,0,0,1,.56-0.73,1,1,0,0,1,.56-0.18,1.72,1.72,0,0,1,.9.28l-0.3.82a1.26,1.26,0,0,0-.64-0.19,0.83,0.83,0,0,0-.52.17,0.94,0.94,0,0,0-.33.48,3.42,3.42,0,0,0-.15,1v2.71h-0.88Z" transform="translate(0 -7.06)"/><path d="M670.13,601l0.13,0.78a3.28,3.28,0,0,1-.66.08,1.51,1.51,0,0,1-.74-0.15,0.84,0.84,0,0,1-.37-0.4,3.16,3.16,0,0,1-.11-1v-3h-0.64v-0.68h0.64v-1.28l0.87-.53v1.81h0.88v0.68h-0.88v3a1.55,1.55,0,0,0,0,.48,0.37,0.37,0,0,0,.15.17,0.59,0.59,0,0,0,.3.06Z" transform="translate(0 -7.06)"/><path d="M671,601.75v-5.19h0.79v0.73a1.84,1.84,0,0,1,.65-0.61,1.82,1.82,0,0,1,.92-0.23,1.71,1.71,0,0,1,.95.24,1.28,1.28,0,0,1,.52.67,1.86,1.86,0,0,1,1.6-.91,1.58,1.58,0,0,1,1.19.43,1.82,1.82,0,0,1,.42,1.32v3.56h-0.87v-3.27a2.41,2.41,0,0,0-.08-0.76,0.74,0.74,0,0,0-.31-0.37,1,1,0,0,0-.53-0.14,1.23,1.23,0,0,0-.91.36,1.6,1.6,0,0,0-.36,1.17v3h-0.88v-3.37a1.48,1.48,0,0,0-.21-0.88,0.81,0.81,0,0,0-.7-0.29,1.28,1.28,0,0,0-.69.2,1.1,1.1,0,0,0-.46.57,3.21,3.21,0,0,0-.14,1.08v2.69H671Z" transform="translate(0 -7.06)"/><path d="M682.87,600.08l0.91,0.11a2.22,2.22,0,0,1-.8,1.24,2.39,2.39,0,0,1-1.48.44,2.37,2.37,0,0,1-1.8-.7,2.73,2.73,0,0,1-.67-2,2.87,2.87,0,0,1,.67-2,2.28,2.28,0,0,1,1.75-.72,2.22,2.22,0,0,1,1.7.71,2.81,2.81,0,0,1,.66,2c0,0.05,0,.13,0,0.23h-3.87a2,2,0,0,0,.48,1.31,1.44,1.44,0,0,0,1.08.45,1.35,1.35,0,0,0,.83-0.25A1.69,1.69,0,0,0,682.87,600.08ZM680,598.66h2.9a1.75,1.75,0,0,0-.33-1,1.35,1.35,0,0,0-1.09-.51,1.4,1.4,0,0,0-1,.41A1.61,1.61,0,0,0,680,598.66Z" transform="translate(0 -7.06)"/><path d="M684.88,601.75v-5.19h0.79v0.74a1.86,1.86,0,0,1,1.65-.85,2.19,2.19,0,0,1,.86.17,1.36,1.36,0,0,1,.59.44,1.7,1.7,0,0,1,.27.65,5.07,5.07,0,0,1,0,.85v3.19h-0.88V598.6a2.36,2.36,0,0,0-.1-0.8,0.85,0.85,0,0,0-.36-0.43,1.16,1.16,0,0,0-.61-0.16,1.43,1.43,0,0,0-1,.36,1.76,1.76,0,0,0-.41,1.35v2.83h-0.88Z" transform="translate(0 -7.06)"/><path d="M692.36,601l0.13,0.78a3.28,3.28,0,0,1-.66.08,1.51,1.51,0,0,1-.74-0.15,0.84,0.84,0,0,1-.37-0.4,3.16,3.16,0,0,1-.11-1v-3H690v-0.68h0.64v-1.28l0.87-.53v1.81h0.88v0.68h-0.88v3a1.55,1.55,0,0,0,0,.48,0.37,0.37,0,0,0,.15.17,0.59,0.59,0,0,0,.3.06Z" transform="translate(0 -7.06)"/><path d="M618.42,611.16a2.67,2.67,0,0,1,.8-2.13,2.41,2.41,0,0,1,1.63-.58,2.32,2.32,0,0,1,1.75.7,2.67,2.67,0,0,1,.68,1.94,3.44,3.44,0,0,1-.3,1.57,2.13,2.13,0,0,1-.87.89,2.54,2.54,0,0,1-1.25.32,2.33,2.33,0,0,1-1.76-.7A2.79,2.79,0,0,1,618.42,611.16Zm0.9,0a2.21,2.21,0,0,0,.43,1.49,1.45,1.45,0,0,0,2.18,0,2.26,2.26,0,0,0,.43-1.52,2.14,2.14,0,0,0-.44-1.46,1.45,1.45,0,0,0-2.18,0A2.2,2.2,0,0,0,619.32,611.16Z" transform="translate(0 -7.06)"/><path d="M624.52,613.75v-4.5h-0.78v-0.68h0.78V608a2.42,2.42,0,0,1,.09-0.78,1.13,1.13,0,0,1,.45-0.55,1.62,1.62,0,0,1,.9-0.21,4.31,4.31,0,0,1,.82.09l-0.13.77a3,3,0,0,0-.52,0,0.77,0.77,0,0,0-.57.17,0.93,0.93,0,0,0-.17.64v0.48h1v0.68h-1v4.5h-0.87Z" transform="translate(0 -7.06)"/><path d="M629.94,613.75v-7.16h0.95v6.31h3.53v0.84h-4.47Z" transform="translate(0 -7.06)"/><path d="M638.81,613.11a3.29,3.29,0,0,1-.94.59,2.72,2.72,0,0,1-1,.17,1.88,1.88,0,0,1-1.31-.42,1.38,1.38,0,0,1-.46-1.07,1.41,1.41,0,0,1,.17-0.7,1.43,1.43,0,0,1,.45-0.51,2.15,2.15,0,0,1,.63-0.29,6.16,6.16,0,0,1,.78-0.13,8,8,0,0,0,1.57-.3c0-.12,0-0.2,0-0.23a1,1,0,0,0-.25-0.76,1.47,1.47,0,0,0-1-.3,1.55,1.55,0,0,0-.92.22,1.33,1.33,0,0,0-.44.77l-0.86-.12a2.14,2.14,0,0,1,.39-0.89,1.68,1.68,0,0,1,.78-0.52,3.44,3.44,0,0,1,1.18-.18,3.11,3.11,0,0,1,1.08.16,1.43,1.43,0,0,1,.61.39,1.38,1.38,0,0,1,.27.6,5,5,0,0,1,0,.81v1.17a12.53,12.53,0,0,0,.06,1.55,2,2,0,0,0,.22.62H639A1.88,1.88,0,0,1,638.81,613.11Zm-0.07-2a6.46,6.46,0,0,1-1.44.33,3.28,3.28,0,0,0-.77.18,0.76,0.76,0,0,0-.35.29,0.78,0.78,0,0,0,.14,1,1.15,1.15,0,0,0,.78.23A1.82,1.82,0,0,0,638,613a1.37,1.37,0,0,0,.58-0.61,2.12,2.12,0,0,0,.14-0.88v-0.32Z" transform="translate(0 -7.06)"/><path d="M641.8,613.75H641v-7.16h0.88v2.55a1.74,1.74,0,0,1,1.42-.7,2.17,2.17,0,0,1,.91.19,1.84,1.84,0,0,1,.7.54,2.62,2.62,0,0,1,.43.84,3.47,3.47,0,0,1,.16,1.05,3,3,0,0,1-.66,2.06,2.06,2.06,0,0,1-1.58.73,1.65,1.65,0,0,1-1.44-.77v0.65Zm0-2.63a2.69,2.69,0,0,0,.25,1.35,1.26,1.26,0,0,0,2.12.18,2.27,2.27,0,0,0,.42-1.49,2.31,2.31,0,0,0-.4-1.5,1.22,1.22,0,0,0-1-.48,1.27,1.27,0,0,0-1,.5A2.2,2.2,0,0,0,641.79,611.12Z" transform="translate(0 -7.06)"/><path d="M646.22,611.16A2.67,2.67,0,0,1,647,609a2.41,2.41,0,0,1,1.63-.58,2.32,2.32,0,0,1,1.75.7,2.67,2.67,0,0,1,.68,1.94,3.44,3.44,0,0,1-.3,1.57,2.13,2.13,0,0,1-.87.89,2.54,2.54,0,0,1-1.25.32,2.33,2.33,0,0,1-1.76-.7A2.79,2.79,0,0,1,646.22,611.16Zm0.9,0a2.21,2.21,0,0,0,.43,1.49,1.45,1.45,0,0,0,2.18,0,2.26,2.26,0,0,0,.43-1.52,2.14,2.14,0,0,0-.44-1.46,1.45,1.45,0,0,0-2.18,0A2.2,2.2,0,0,0,647.13,611.16Z" transform="translate(0 -7.06)"/><path d="M652.1,613.75v-5.19h0.79v0.79a2.13,2.13,0,0,1,.56-0.73,1,1,0,0,1,.56-0.18,1.72,1.72,0,0,1,.9.28l-0.3.82a1.26,1.26,0,0,0-.64-0.19,0.83,0.83,0,0,0-.52.17,0.94,0.94,0,0,0-.33.48,3.42,3.42,0,0,0-.15,1v2.71H652.1Z" transform="translate(0 -7.06)"/></g></g></svg>